<svg width="302" height="156" fill="none" xmlns="http://www.w3.org/2000/svg"><path fill-rule="evenodd" clip-rule="evenodd" d="M166.092 14.774c6.2 0 11.226 5.027 11.226 11.227v15.717c0 6.2-5.026 11.226-11.226 11.226h-25.369c-2.245 2.512-5.669 5.014-10.725 6.791-.375.132-.691-.513-.389-.772 1.728-1.478 3.46-3.63 3.972-6.234-5.147-1.022-9.028-5.563-9.028-11.011V26c0-6.2 5.026-11.227 11.227-11.227h30.312Z" fill="#337AFF"/><circle cx="3.929" cy="3.929" transform="matrix(-1 0 0 1 166.091 30.488)" fill="#fff" r="3.929"/><circle cx="3.929" cy="3.929" transform="matrix(-1 0 0 1 154.864 30.488)" fill="#fff" r="3.929"/><circle cx="3.929" cy="3.929" transform="matrix(-1 0 0 1 143.639 30.488)" fill="#fff" r="3.929"/><path d="M60.322 140.648c0 .74.237 1.459.71 2.157.48.698 1.113 1.294 1.9 1.789a7.13 7.13 0 0 0 2.515.976l-.688 1.235a8.063 8.063 0 0 1-2.14-.797 7.984 7.984 0 0 1-1.828-1.352 6.172 6.172 0 0 1-1.243-1.773 6.351 6.351 0 0 1-1.25 1.765A7.674 7.674 0 0 1 56.486 146a8.245 8.245 0 0 1-2.148.805l-.657-1.235a7.149 7.149 0 0 0 2.492-.984c.782-.495 1.407-1.089 1.875-1.781.474-.698.711-1.417.711-2.157v-1.062h1.563v1.062Zm5.703 10.172H53.212v-1.234h12.813v1.234Zm13.774-5.437h-2.172v7.265h-1.484v-13.984h1.484v5.5h2.172v1.219Zm-11.078 2.515c2.135 0 4.208-.208 6.218-.625l.172 1.25a29.682 29.682 0 0 1-3.32.477 41.718 41.718 0 0 1-3.383.133h-1.156v-9.11h1.469v7.875Zm23.102 4.797h-1.485v-14.031h1.485v14.031Zm-7.485-12.984a3.04 3.04 0 0 1 1.86.609c.546.401.974.974 1.28 1.719.313.74.47 1.599.47 2.578 0 .985-.157 1.849-.47 2.594-.306.745-.734 1.32-1.28 1.727a3.065 3.065 0 0 1-1.86.601c-.703 0-1.328-.2-1.875-.601-.547-.407-.976-.98-1.289-1.719-.307-.745-.46-1.612-.46-2.602 0-.984.153-1.846.46-2.586.313-.745.742-1.317 1.29-1.719a3.089 3.089 0 0 1 1.874-.601Zm0 1.328c-.432 0-.815.146-1.148.438-.328.291-.584.708-.766 1.25-.182.536-.273 1.166-.273 1.89 0 .729.09 1.365.273 1.906.182.542.438.959.766 1.25.333.292.716.438 1.148.438.427 0 .805-.146 1.133-.438.328-.291.583-.708.766-1.25.182-.541.273-1.177.273-1.906 0-.724-.091-1.354-.273-1.89-.183-.542-.438-.959-.766-1.25a1.654 1.654 0 0 0-1.133-.438Zm17.524.234h-1.531v6.586a41.839 41.839 0 0 0 1.937-.179l.094 1.093a38.337 38.337 0 0 1-4.086.415 96.21 96.21 0 0 1-4.477.101l-.156-1.234 1.781-.024v-6.758h-1.359v-1.218h7.797v1.218Zm3.547 11.391h-1.469v-7.562h-2.531v-1.219h2.531v-5.219h1.469v14Zm-8.532-4.656a87.665 87.665 0 0 0 2.032-.07v-6.665h-2.032v6.735Zm22.306-.813h-1.407v-3.687h-1.547v3.609h-1.39v-8.25h1.39v3.422h1.547v-3.609h1.407v8.515Zm0 5.469h-1.469v-3.609h-8.219v-1.219h9.688v4.828Zm-5.219-11.578h-1.11v4c.37-.026.823-.073 1.36-.141l.062 1.11c-1.656.291-3.974.437-6.953.437l-.156-1.219c.239 0 .687-.005 1.344-.015v-4.172h-1.094v-1.234h6.547v1.234Zm-4.078 4.148c.724-.02 1.26-.039 1.609-.054v-4.094h-1.609v4.148Zm22.227 1.789h-4.235v2.735h5.688v1.219h-12.813v-1.219h5.641v-2.735h-4.031v-7.281h9.609v1.219h-8.109v1.797h7.812v1.172h-7.812v1.906h8.25v1.187Zm13.773 5.672h-1.484v-14.031h1.484v14.031Zm-4.281-7.656h-5.031v3.063a51.503 51.503 0 0 0 3.383-.118c1.031-.073 2.101-.2 3.211-.382l.14 1.218a33.659 33.659 0 0 1-3.398.407 56.167 56.167 0 0 1-3.664.109h-1.188v-5.484h5.031v-2.719h-5.046v-1.203h6.562v5.109Zm16.922-5.141c-.005.61.217 1.198.665 1.766.453.563 1.065 1.042 1.835 1.438a7.8 7.8 0 0 0 2.516.765l-.578 1.219a8.858 8.858 0 0 1-2.164-.625 7.48 7.48 0 0 1-1.813-1.102 5.103 5.103 0 0 1-1.234-1.468 5.216 5.216 0 0 1-1.242 1.468 7.376 7.376 0 0 1-1.797 1.102c-.677.292-1.396.5-2.156.625l-.594-1.219a7.716 7.716 0 0 0 2.508-.765c.765-.391 1.372-.868 1.82-1.43.453-.568.682-1.159.688-1.774v-.765h1.546v.765Zm5.594 7.782h-5.687v4.984h-1.453v-4.984h-5.625v-1.219h12.765v1.219Zm13.555 3.312h-12.812v-1.25h3.5v-2.469h-1.938v-4.453h8.219v-1.953h-8.25v-1.219h9.719v4.375h-8.219v2.032h8.547v1.218h-2.125v2.469h3.359v1.25Zm-4.812-1.25v-2.469h-3.063v2.469h3.063Zm9.789-8.39a3.8 3.8 0 0 0 .32 1.515c.219.49.54.932.961 1.328.422.391.927.698 1.516.922l-.781 1.141a4.855 4.855 0 0 1-1.649-1.039 4.95 4.95 0 0 1-1.078-1.563 5.814 5.814 0 0 1-1.117 1.797 4.873 4.873 0 0 1-1.703 1.211l-.813-1.156a4.932 4.932 0 0 0 1.571-1.07c.437-.454.768-.948.992-1.485a4.05 4.05 0 0 0 .344-1.601v-1.813h1.437v1.813Zm7.656 5.937h-1.406v-3.75h-1.64v3.313h-1.375v-7.922h1.375v3.39h1.64v-3.64h1.406v8.609Zm-4.687.266c.969 0 1.81.101 2.523.304.714.203 1.263.498 1.649.883.39.38.588.834.594 1.36a1.864 1.864 0 0 1-.594 1.359c-.386.385-.935.677-1.649.875-.713.203-1.554.302-2.523.297-.969.005-1.81-.094-2.524-.297-.713-.198-1.263-.49-1.648-.875a1.825 1.825 0 0 1-.562-1.359c-.006-.526.182-.98.562-1.36.385-.385.935-.68 1.648-.883.714-.203 1.555-.304 2.524-.304Zm0 1.14c-.677 0-1.263.058-1.758.172-.49.11-.865.271-1.125.485-.26.208-.388.458-.383.75-.005.291.123.544.383.757.26.209.638.368 1.133.477.495.109 1.078.161 1.75.156.672.005 1.252-.047 1.742-.156.495-.109.872-.268 1.133-.477.266-.208.401-.461.406-.757-.005-.443-.299-.787-.883-1.032-.578-.25-1.377-.375-2.398-.375Zm16.985-8.609c-.005 1.479-.198 2.836-.578 4.07-.38 1.229-1.037 2.378-1.969 3.446-.927 1.062-2.188 2-3.781 2.812l-.828-1.125c1.203-.62 2.198-1.305 2.984-2.055a8.465 8.465 0 0 0 1.828-2.484l-4.531.43-.235-1.282 5.227-.328a10.37 10.37 0 0 0 .406-2.281h-4.914v-1.203h6.391Zm4.515 12.578h-1.468v-7.234h-3.078v-1.219h3.078v-5.547h1.468v14Zm14.649-4.781h-3.14v4.859h-1.485v-4.859h-3.515v4.859h-1.485v-4.859h-3.187v-1.219h12.812v1.219Zm-1.609-2.969h-9.594v-5.516h9.594v5.516Zm-8.141-1.187h6.656v-3.141h-6.656v3.141Zm22.087 8.937h-1.485v-14h1.485v14Zm-9.297-4.844c2.291-.015 4.437-.229 6.437-.64l.203 1.25a32.844 32.844 0 0 1-3.484.515 37.856 37.856 0 0 1-3.453.157h-1.172v-9.079h1.469v7.797Zm18.961-6.703h-5.453v2.703h4.922v1.188h-4.922v3.14a55.934 55.934 0 0 0 3.344-.101 32.23 32.23 0 0 0 2.953-.336l.156 1.203a31.137 31.137 0 0 1-3.117.352 67 67 0 0 1-3.664.086h-1.141v-9.454h6.922v1.219Zm3.859 11.547h-1.5v-14h1.5v14Z" fill="#333"/><path d="M234.536 93.048h21.568v8.064h-21.568v-8.064Zm.768 18.432h24.384v8.32H225V75h33.856v8.32h-23.552v28.16Z" fill="#B2CDFF"/><path d="M198.256 120.336c-3.456 0-6.677-.555-9.664-1.664-2.944-1.152-5.504-2.773-7.68-4.864a22.836 22.836 0 0 1-5.12-7.36c-1.195-2.816-1.792-5.909-1.792-9.28 0-3.37.597-6.464 1.792-9.28a22.833 22.833 0 0 1 5.12-7.36c2.219-2.09 4.8-3.69 7.744-4.8C191.6 74.576 194.821 74 198.32 74c3.883 0 7.381.683 10.496 2.048 3.157 1.323 5.803 3.285 7.936 5.888l-6.656 6.144c-1.536-1.75-3.243-3.05-5.12-3.904-1.877-.896-3.925-1.344-6.144-1.344-2.091 0-4.011.341-5.76 1.024-1.749.683-3.264 1.664-4.544 2.944-1.28 1.28-2.283 2.795-3.008 4.544-.683 1.75-1.024 3.69-1.024 5.824 0 2.133.341 4.075 1.024 5.824.725 1.749 1.728 3.264 3.008 4.544 1.28 1.28 2.795 2.261 4.544 2.944 1.749.683 3.669 1.024 5.76 1.024 2.219 0 4.267-.427 6.144-1.28 1.877-.896 3.584-2.24 5.12-4.032l6.656 6.144c-2.133 2.603-4.779 4.587-7.936 5.952-3.115 1.365-6.635 2.048-10.56 2.048ZM122 119.8 141.968 75h10.24l20.032 44.8h-10.88l-16.384-39.552h4.096L132.624 119.8H122Zm9.984-9.6 2.752-7.872h23.04l2.816 7.872h-28.608ZM97.6 95.16h21.504v8.32H97.6v-8.32Zm.768 24.64H88V75h33.856v8.32H98.368v36.48ZM61.24 120.336c-3.584 0-7.019-.469-10.304-1.408-3.285-.981-5.93-2.24-7.936-3.776l3.52-7.808c1.92 1.365 4.181 2.496 6.784 3.392a25.927 25.927 0 0 0 8 1.28c2.048 0 3.69-.192 4.928-.576 1.28-.427 2.219-1.003 2.816-1.728a3.814 3.814 0 0 0 .896-2.496c0-1.195-.47-2.133-1.408-2.816-.939-.725-2.176-1.301-3.712-1.728a56.108 56.108 0 0 0-5.12-1.28 72.918 72.918 0 0 1-5.568-1.536 23.756 23.756 0 0 1-5.056-2.304 11.622 11.622 0 0 1-3.776-3.712c-.939-1.536-1.408-3.499-1.408-5.888 0-2.56.683-4.885 2.048-6.976 1.408-2.133 3.499-3.819 6.272-5.056 2.816-1.28 6.336-1.92 10.56-1.92 2.816 0 5.59.341 8.32 1.024 2.73.64 5.141 1.621 7.232 2.944l-3.2 7.872c-2.09-1.195-4.181-2.07-6.272-2.624-2.09-.597-4.139-.896-6.144-.896s-3.648.235-4.928.704c-1.28.47-2.197 1.088-2.752 1.856-.555.725-.832 1.579-.832 2.56 0 1.152.47 2.09 1.408 2.816.939.683 2.176 1.237 3.712 1.664 1.536.427 3.221.853 5.056 1.28 1.877.427 3.733.917 5.568 1.472 1.877.555 3.584 1.301 5.12 2.24a11.033 11.033 0 0 1 3.712 3.712c.981 1.536 1.472 3.477 1.472 5.824 0 2.517-.704 4.821-2.112 6.912-1.408 2.091-3.52 3.776-6.336 5.056-2.773 1.28-6.293 1.92-10.56 1.92Z" fill="#337AFF"/></svg>