<svg width="255" height="350" viewBox="0 0 255 350" fill="none" xmlns="http://www.w3.org/2000/svg">
<path d="M90.8602 306.836H93.5789V309.297H90.8602V316.469H87.8602V299.828H90.8602V306.836ZM91.5867 320.781H76.5633V315.367H79.5633V318.391H91.5867V320.781ZM73.5633 312.086C75.5242 312.086 77.2508 312.062 78.743 312.016V310.785C77.5711 310.621 76.6492 310.262 75.9773 309.707C75.3133 309.152 74.9852 308.461 74.993 307.633C74.9852 306.938 75.1961 306.34 75.6258 305.84C76.0555 305.332 76.6648 304.949 77.4539 304.691C78.243 304.426 79.1648 304.297 80.2195 304.305C81.2664 304.297 82.1805 304.426 82.9617 304.691C83.743 304.949 84.3484 305.332 84.7781 305.84C85.2156 306.34 85.4383 306.938 85.4461 307.633C85.4383 308.453 85.1023 309.141 84.4383 309.695C83.7742 310.25 82.868 310.613 81.7195 310.785V311.875C83.6258 311.758 85.3445 311.586 86.8758 311.359L87.0867 313.422C85.7039 313.688 84.2508 313.891 82.7273 314.031C81.2039 314.164 79.7977 314.25 78.5086 314.289C77.2195 314.328 75.6727 314.359 73.868 314.383L73.5633 312.086ZM86.3367 303.695H74.1258V301.562H78.743V299.758H81.7195V301.562H86.3367V303.695ZM80.2195 306.297C79.4461 306.297 78.8563 306.41 78.45 306.637C78.0438 306.855 77.8445 307.188 77.8523 307.633C77.8445 308.031 78.0438 308.34 78.45 308.559C78.8641 308.77 79.4539 308.875 80.2195 308.875C80.9695 308.875 81.5477 308.77 81.9539 308.559C82.3602 308.34 82.5711 308.031 82.5867 307.633C82.5633 306.742 81.7742 306.297 80.2195 306.297ZM100.013 300.977C100.849 300.977 101.63 301.121 102.357 301.41C103.083 301.699 103.704 302.109 104.22 302.641H109.06V299.828H112.036V312.32H109.06V309.766H104.197C103.681 310.289 103.056 310.695 102.322 310.984C101.595 311.266 100.81 311.406 99.9661 311.406C98.9114 311.406 97.9544 311.18 97.095 310.727C96.2356 310.273 95.5598 309.652 95.0677 308.863C94.5755 308.066 94.3333 307.18 94.3411 306.203C94.3333 305.203 94.5755 304.309 95.0677 303.52C95.5598 302.723 96.2395 302.102 97.1067 301.656C97.9739 301.203 98.9427 300.977 100.013 300.977ZM100.013 303.531C99.4583 303.531 98.9622 303.637 98.5247 303.848C98.095 304.059 97.7591 304.367 97.5169 304.773C97.2825 305.18 97.1692 305.656 97.177 306.203C97.1692 306.742 97.2864 307.215 97.5286 307.621C97.7708 308.027 98.1067 308.34 98.5364 308.559C98.9661 308.777 99.4583 308.883 100.013 308.875C100.552 308.883 101.033 308.777 101.454 308.559C101.876 308.34 102.204 308.027 102.439 307.621C102.681 307.215 102.802 306.742 102.802 306.203C102.802 305.656 102.681 305.18 102.439 304.773C102.204 304.367 101.876 304.059 101.454 303.848C101.033 303.637 100.552 303.531 100.013 303.531ZM104.747 312.766C106.247 312.766 107.548 312.934 108.65 313.27C109.759 313.598 110.611 314.078 111.204 314.711C111.798 315.336 112.099 316.086 112.107 316.961C112.099 317.836 111.798 318.586 111.204 319.211C110.611 319.844 109.759 320.324 108.65 320.652C107.548 320.988 106.247 321.156 104.747 321.156C103.247 321.156 101.947 320.988 100.845 320.652C99.7434 320.324 98.8958 319.844 98.302 319.211C97.7083 318.586 97.4114 317.836 97.4114 316.961C97.4114 316.086 97.7083 315.336 98.302 314.711C98.8958 314.078 99.7434 313.598 100.845 313.27C101.947 312.934 103.247 312.766 104.747 312.766ZM104.747 315.039C103.318 315.039 102.224 315.199 101.466 315.52C100.716 315.84 100.341 316.32 100.341 316.961C100.341 317.578 100.716 318.047 101.466 318.367C102.224 318.68 103.318 318.836 104.747 318.836C106.193 318.836 107.29 318.68 108.04 318.367C108.798 318.047 109.177 317.578 109.177 316.961C109.177 316.32 108.802 315.84 108.052 315.52C107.302 315.199 106.2 315.039 104.747 315.039ZM105.509 305.008C105.595 305.398 105.638 305.797 105.638 306.203C105.638 306.594 105.595 306.984 105.509 307.375H109.06V305.008H105.509ZM131.244 304.961H134.127V307.445H131.244V312.32H128.244V299.828H131.244V304.961ZM120.252 314.758H128.244V313.141H131.244V320.922H117.275V313.141H120.252V314.758ZM128.244 318.578V317.055H120.252V318.578H128.244ZM126.978 304.047H114.322V301.703H119.174V299.688H122.15V301.703H126.978V304.047ZM120.65 304.656C121.674 304.656 122.584 304.812 123.381 305.125C124.178 305.438 124.795 305.879 125.232 306.449C125.678 307.02 125.9 307.68 125.9 308.43C125.9 309.18 125.678 309.84 125.232 310.41C124.795 310.98 124.178 311.422 123.381 311.734C122.584 312.047 121.674 312.203 120.65 312.203C119.611 312.203 118.689 312.047 117.885 311.734C117.088 311.422 116.467 310.98 116.021 310.41C115.576 309.84 115.353 309.18 115.353 308.43C115.353 307.68 115.576 307.02 116.021 306.449C116.467 305.879 117.088 305.438 117.885 305.125C118.689 304.812 119.611 304.656 120.65 304.656ZM120.65 306.859C119.924 306.844 119.345 306.977 118.916 307.258C118.486 307.539 118.275 307.93 118.283 308.43C118.275 308.938 118.486 309.332 118.916 309.613C119.345 309.887 119.924 310.023 120.65 310.023C121.385 310.023 121.97 309.887 122.408 309.613C122.845 309.332 123.064 308.938 123.064 308.43C123.064 307.93 122.842 307.539 122.396 307.258C121.959 306.977 121.377 306.844 120.65 306.859ZM152.514 321.156H149.537V299.828H152.514V321.156ZM138.686 313.34C141.85 313.285 144.889 312.977 147.803 312.414L148.178 314.875C144.967 315.547 141.576 315.883 138.006 315.883H137.608H135.733V301.867H138.686V313.34ZM171.675 307.75H174.815V310.188H171.675V321.203H168.675V299.828H171.675V307.75ZM165.698 304.211H158.667V313.562C160.346 313.547 161.846 313.488 163.167 313.387C164.487 313.285 165.815 313.117 167.151 312.883L167.479 315.391C166.05 315.633 164.639 315.801 163.249 315.895C161.866 315.98 160.276 316.023 158.479 316.023H157.495H155.69V301.797H165.698V304.211ZM179.655 313.914H176.655L176.351 302.031H179.96L179.655 313.914ZM178.179 319.211C177.82 319.211 177.488 319.121 177.183 318.941C176.878 318.762 176.636 318.523 176.456 318.227C176.284 317.922 176.202 317.594 176.21 317.242C176.202 316.891 176.284 316.566 176.456 316.27C176.636 315.973 176.878 315.738 177.183 315.566C177.488 315.387 177.82 315.297 178.179 315.297C178.515 315.297 178.831 315.387 179.128 315.566C179.433 315.738 179.675 315.973 179.855 316.27C180.034 316.566 180.124 316.891 180.124 317.242C180.124 317.594 180.034 317.922 179.855 318.227C179.675 318.523 179.433 318.762 179.128 318.941C178.831 319.121 178.515 319.211 178.179 319.211Z" fill="#333333"/>
<path d="M67.7091 339.531C67.6674 339.167 67.5346 338.854 67.3106 338.594C67.0919 338.328 66.8002 338.128 66.4356 337.992C66.071 337.852 65.6622 337.781 65.2091 337.781C64.7195 337.781 64.2846 337.862 63.9044 338.023C63.5294 338.18 63.2377 338.398 63.0294 338.68C62.8262 338.961 62.7247 339.281 62.7247 339.641C62.7247 340.161 62.9356 340.56 63.3575 340.836C63.7846 341.112 64.3028 341.328 64.9122 341.484L66.0372 341.797C66.9122 342.021 67.6648 342.367 68.295 342.836C68.9252 343.299 69.2403 343.995 69.2403 344.922C69.2403 345.542 69.0762 346.102 68.7481 346.602C68.4252 347.096 67.9539 347.487 67.3341 347.773C66.7195 348.06 65.9851 348.203 65.1309 348.203C64.3289 348.203 63.6283 348.073 63.0294 347.812C62.4304 347.552 61.9617 347.185 61.6231 346.711C61.2846 346.237 61.0945 345.688 61.0528 345.062H62.4903C62.532 345.469 62.6752 345.812 62.92 346.094C63.1648 346.37 63.4773 346.578 63.8575 346.719C64.2429 346.854 64.6674 346.922 65.1309 346.922C65.6518 346.922 66.1179 346.839 66.5294 346.672C66.946 346.505 67.2716 346.268 67.5059 345.961C67.7455 345.648 67.8653 345.292 67.8653 344.891C67.8653 344.547 67.7664 344.258 67.5684 344.023C67.3757 343.789 67.1205 343.599 66.8028 343.453C66.4903 343.307 66.0997 343.167 65.6309 343.031L64.2403 342.656C63.3132 342.385 62.6023 342.01 62.1075 341.531C61.6127 341.052 61.3653 340.443 61.3653 339.703C61.3653 339.083 61.5346 338.534 61.8731 338.055C62.2169 337.57 62.683 337.195 63.2716 336.93C63.8653 336.664 64.5268 336.531 65.2559 336.531C65.9747 336.531 66.6205 336.661 67.1934 336.922C67.7664 337.182 68.2195 337.542 68.5528 338C68.8861 338.453 69.0632 338.964 69.0841 339.531H67.7091ZM70.9359 336.688H77.7484V337.938H72.3422V341.719H77.2328V342.953H72.3422V348H70.9359V336.688ZM77.1316 348L81.2722 336.688H82.7566L86.8972 348H85.4128L84.28 344.812H79.7331L78.6003 348H77.1316ZM83.8503 343.578L82.0534 338.516H81.9597L80.1628 343.578H83.8503ZM95.2959 340.25C95.1918 339.745 94.9834 339.312 94.6709 338.953C94.3636 338.589 93.9886 338.312 93.5459 338.125C93.1084 337.938 92.6397 337.844 92.1397 337.844C91.447 337.844 90.8246 338.018 90.2725 338.367C89.7256 338.716 89.2933 339.229 88.9756 339.906C88.6579 340.583 88.4991 341.396 88.4991 342.344C88.4991 343.292 88.6579 344.104 88.9756 344.781C89.2933 345.458 89.7256 345.971 90.2725 346.32C90.8246 346.669 91.447 346.844 92.1397 346.844C92.6397 346.844 93.1084 346.753 93.5459 346.57C93.9834 346.383 94.3558 346.109 94.6631 345.75C94.9756 345.385 95.1866 344.953 95.2959 344.453H96.7022C96.5668 345.208 96.2855 345.867 95.8584 346.43C95.4314 346.987 94.8949 347.414 94.2491 347.711C93.6084 348.008 92.9053 348.156 92.1397 348.156C91.1709 348.156 90.309 347.919 89.5537 347.445C88.7985 346.971 88.2074 346.297 87.7803 345.422C87.3532 344.542 87.1397 343.516 87.1397 342.344C87.1397 341.172 87.3532 340.148 87.7803 339.273C88.2074 338.393 88.7985 337.716 89.5537 337.242C90.309 336.768 91.1709 336.531 92.1397 336.531C92.9001 336.531 93.6006 336.68 94.2412 336.977C94.8871 337.273 95.4235 337.703 95.8506 338.266C96.2829 338.823 96.5668 339.484 96.7022 340.25H95.2959ZM98.3509 336.688H105.21V337.938H99.7572V341.719H104.851V342.953H99.7572V346.75H105.288V348H98.3509V336.688ZM110.609 336.281C111.317 336.286 111.95 336.427 112.507 336.703C113.07 336.979 113.51 337.365 113.828 337.859C114.146 338.349 114.307 338.911 114.312 339.547C114.307 340.12 114.174 340.635 113.914 341.094C113.653 341.552 113.291 341.927 112.828 342.219C112.369 342.505 111.838 342.685 111.234 342.758V345.125C112.713 345.052 113.984 344.948 115.047 344.812L115.125 345.734C113.942 345.932 112.695 346.068 111.382 346.141C110.07 346.214 108.708 346.25 107.297 346.25H106.453L106.25 345.219C107.896 345.208 109.146 345.19 110 345.164V342.758C109.385 342.685 108.843 342.505 108.375 342.219C107.906 341.932 107.541 341.56 107.281 341.102C107.026 340.638 106.901 340.12 106.906 339.547C106.901 338.911 107.054 338.349 107.367 337.859C107.685 337.365 108.125 336.979 108.687 336.703C109.25 336.427 109.89 336.286 110.609 336.281ZM110.609 337.344C110.13 337.344 109.698 337.438 109.312 337.625C108.932 337.812 108.635 338.073 108.422 338.406C108.208 338.74 108.104 339.12 108.109 339.547C108.104 339.974 108.208 340.354 108.422 340.688C108.635 341.021 108.932 341.281 109.312 341.469C109.698 341.656 110.13 341.75 110.609 341.75C111.083 341.75 111.507 341.656 111.882 341.469C112.263 341.281 112.56 341.021 112.773 340.688C112.992 340.354 113.104 339.974 113.109 339.547C113.104 339.12 112.992 338.74 112.773 338.406C112.56 338.073 112.263 337.812 111.882 337.625C111.507 337.438 111.083 337.344 110.609 337.344ZM117.156 341.109H119.422V342.172H117.156V349.266H115.937V335.375H117.156V341.109ZM134.485 339.078H136.578V340.125H134.485V343.75H133.266V335.375H134.485V339.078ZM134.485 349.078H125.719V344.547H134.485V349.078ZM126.922 348.078H133.266V345.531H126.922V348.078ZM131.938 337.875H123.657V336.859H127.188V335.266H128.407V336.859H131.938V337.875ZM127.797 338.562C128.459 338.562 129.039 338.667 129.539 338.875C130.045 339.078 130.435 339.367 130.711 339.742C130.992 340.112 131.136 340.542 131.141 341.031C131.136 341.531 130.992 341.969 130.711 342.344C130.435 342.719 130.045 343.008 129.539 343.211C129.039 343.414 128.459 343.516 127.797 343.516C127.131 343.516 126.542 343.414 126.032 343.211C125.526 343.008 125.136 342.719 124.86 342.344C124.584 341.969 124.448 341.531 124.453 341.031C124.448 340.542 124.584 340.112 124.86 339.742C125.136 339.367 125.526 339.078 126.032 338.875C126.542 338.667 127.131 338.562 127.797 338.562ZM127.797 339.516C127.365 339.516 126.982 339.581 126.649 339.711C126.321 339.836 126.065 340.013 125.883 340.242C125.706 340.471 125.62 340.734 125.625 341.031C125.62 341.344 125.706 341.617 125.883 341.852C126.065 342.081 126.321 342.258 126.649 342.383C126.977 342.508 127.36 342.573 127.797 342.578C128.229 342.573 128.61 342.508 128.938 342.383C129.266 342.258 129.521 342.081 129.703 341.852C129.886 341.617 129.979 341.344 129.985 341.031C129.979 340.734 129.883 340.471 129.696 340.242C129.513 340.013 129.258 339.836 128.93 339.711C128.602 339.581 128.224 339.516 127.797 339.516ZM140.587 337.062C140.576 338.786 140.396 340.393 140.048 341.883C139.699 343.367 139.061 344.724 138.133 345.953L137.165 345.391C137.977 344.375 138.558 343.26 138.907 342.047C139.261 340.833 139.464 339.51 139.516 338.078H137.446V337.062H140.587ZM143.665 337.062C143.659 337.781 143.644 338.44 143.618 339.039C143.592 339.638 143.54 340.24 143.462 340.844H145.305V335.75H146.477V348.562H145.305V341.859H143.298C142.938 343.844 142.253 345.516 141.243 346.875L140.29 346.297C140.889 345.531 141.352 344.688 141.68 343.766C142.014 342.844 142.243 341.924 142.368 341.008C142.493 340.086 142.566 339.109 142.587 338.078H141.024V337.062H143.665ZM149.087 349.266H147.899V335.375H149.087V349.266ZM157.579 338.781H150.61V337.781H153.501V335.797H154.72V337.781H157.579V338.781ZM154.095 339.719C154.673 339.719 155.188 339.854 155.642 340.125C156.1 340.391 156.457 340.763 156.712 341.242C156.972 341.721 157.105 342.266 157.11 342.875C157.105 343.49 156.972 344.039 156.712 344.523C156.457 345.003 156.1 345.38 155.642 345.656C155.188 345.927 154.673 346.062 154.095 346.062C153.522 346.062 153.009 345.927 152.556 345.656C152.103 345.38 151.748 345 151.493 344.516C151.238 344.031 151.11 343.484 151.11 342.875C151.11 342.271 151.238 341.729 151.493 341.25C151.748 340.766 152.103 340.391 152.556 340.125C153.009 339.854 153.522 339.719 154.095 339.719ZM154.095 340.75C153.735 340.755 153.41 340.852 153.118 341.039C152.832 341.221 152.608 341.474 152.446 341.797C152.285 342.115 152.204 342.474 152.204 342.875C152.204 343.281 152.285 343.646 152.446 343.969C152.613 344.292 152.839 344.544 153.126 344.727C153.412 344.904 153.735 344.99 154.095 344.984C154.459 344.99 154.787 344.904 155.079 344.727C155.371 344.544 155.6 344.292 155.767 343.969C155.933 343.646 156.017 343.281 156.017 342.875C156.017 342.474 155.933 342.115 155.767 341.797C155.6 341.474 155.371 341.221 155.079 341.039C154.787 340.852 154.459 340.755 154.095 340.75ZM162.47 349.266H161.298V342.25H159.454V348.578H158.298V335.719H159.454V341.234H161.298V335.375H162.47V349.266ZM166.134 338.656H170.65V336.531H171.868V342.781H169.009V345.273C170.431 345.211 171.686 345.109 172.775 344.969L172.853 345.891C171.551 346.099 170.197 346.237 168.79 346.305C167.384 346.372 165.848 346.411 164.181 346.422L163.978 345.375C165.639 345.365 166.905 345.346 167.775 345.32V342.781H164.915V336.531H166.134V338.656ZM170.65 341.781V339.609H166.134V341.781H170.65ZM174.884 341.219H177.15V342.25H174.884V349.266H173.665V335.375H174.884V341.219ZM190.377 347.484H177.658V346.453H180.814V342.703C180.21 342.391 179.741 341.99 179.408 341.5C179.074 341.005 178.908 340.448 178.908 339.828C178.908 339.12 179.124 338.497 179.556 337.961C179.989 337.419 180.588 337 181.353 336.703C182.124 336.406 183.002 336.255 183.986 336.25C184.97 336.255 185.845 336.406 186.611 336.703C187.382 337 187.983 337.419 188.416 337.961C188.848 338.497 189.064 339.12 189.064 339.828C189.064 340.438 188.903 340.987 188.58 341.477C188.257 341.961 187.804 342.359 187.22 342.672V346.453H190.377V347.484ZM183.986 337.266C183.231 337.26 182.559 337.365 181.97 337.578C181.382 337.792 180.921 338.094 180.588 338.484C180.259 338.87 180.095 339.318 180.095 339.828C180.095 340.339 180.259 340.792 180.588 341.188C180.921 341.578 181.382 341.883 181.97 342.102C182.559 342.315 183.231 342.422 183.986 342.422C184.736 342.422 185.405 342.312 185.994 342.094C186.582 341.875 187.043 341.57 187.377 341.18C187.71 340.789 187.877 340.339 187.877 339.828C187.877 339.318 187.71 338.87 187.377 338.484C187.043 338.094 186.582 337.792 185.994 337.578C185.405 337.365 184.736 337.26 183.986 337.266ZM185.986 346.453V343.148C185.366 343.31 184.699 343.391 183.986 343.391C183.267 343.391 182.611 343.312 182.017 343.156V346.453H185.986ZM193.307 344.812H191.994L191.885 336.688H193.416L193.307 344.812ZM192.65 348.094C192.468 348.094 192.299 348.049 192.143 347.961C191.991 347.867 191.869 347.742 191.775 347.586C191.687 347.43 191.645 347.26 191.65 347.078C191.645 346.901 191.687 346.737 191.775 346.586C191.869 346.43 191.991 346.307 192.143 346.219C192.299 346.125 192.468 346.078 192.65 346.078C192.827 346.078 192.991 346.125 193.143 346.219C193.299 346.307 193.421 346.43 193.51 346.586C193.603 346.737 193.65 346.901 193.65 347.078C193.65 347.26 193.603 347.43 193.51 347.586C193.421 347.742 193.299 347.867 193.143 347.961C192.991 348.049 192.827 348.094 192.65 348.094Z" fill="#999999"/>
<path d="M218.231 157.199C218.231 204.159 180.162 242.228 133.202 242.228C86.2417 242.228 48.173 204.159 48.173 157.199C48.173 110.239 86.2417 72.1704 133.202 72.1704C180.162 72.1704 218.231 110.239 218.231 157.199Z" fill="#F5F8FF"/>
<path d="M83.1036 238.5C83.1036 223.18 95.5228 210.761 110.843 210.761H153.376C168.696 210.761 181.115 223.18 181.115 238.5V258.842H83.1036V238.5Z" fill="#4C8BFF"/>
<path d="M117.315 202.439C117.315 197.332 121.454 193.192 126.561 193.192H139.506C144.612 193.192 148.752 197.332 148.752 202.439V211.685C148.752 216.792 144.612 220.931 139.506 220.931H126.561C121.454 220.931 117.315 216.792 117.315 211.685V202.439Z" fill="#FFAB48"/>
<path d="M58.6008 224.29C57.3241 222.079 58.0817 219.251 60.293 217.975L84.3156 204.105C86.5269 202.828 89.3543 203.586 90.631 205.797L107.737 235.425C112.843 244.27 109.813 255.58 100.968 260.687C92.123 265.793 80.8131 262.763 75.7065 253.918L58.6008 224.29Z" fill="#337AFF"/>
<path fill-rule="evenodd" clip-rule="evenodd" d="M51.4294 169.708C49.034 171.091 48.2133 174.154 49.5963 176.549L51.3694 179.62C49.8156 178.474 47.6683 178.285 45.8892 179.312C43.4939 180.695 42.6732 183.758 44.0561 186.153L47.7793 192.602C47.3075 192.711 46.8436 192.891 46.4024 193.146C44.0071 194.529 43.1864 197.592 44.5693 199.987L52.1334 213.089C52.4369 213.614 52.8213 214.064 53.2618 214.431C58.3047 222.599 68.9634 225.326 77.3322 220.494C84.592 216.303 87.7873 207.775 85.5353 200.072L89.0118 187.691C89.8788 184.604 88.0038 181.763 84.8238 181.347C81.9247 180.968 78.9418 182.734 77.7804 185.389L69.719 171.426C68.3147 168.994 65.2045 168.161 62.7721 169.565C60.7646 170.724 59.8463 173.045 60.3763 175.188L58.2705 171.541C56.8876 169.145 53.8247 168.325 51.4294 169.708Z" fill="#FFBA68"/>
<path fill-rule="evenodd" clip-rule="evenodd" d="M50.5146 194.046C50.8463 193.855 51.2704 193.968 51.4619 194.3L56.4116 202.873C56.7861 203.522 57.0873 204.304 57.0585 205.158C57.0269 206.096 56.8033 207.153 56.1251 207.987C55.4235 208.85 54.3229 209.37 52.7679 209.374C52.3849 209.375 52.0736 209.065 52.0726 208.682C52.0716 208.299 52.3812 207.988 52.7642 207.987C53.9905 207.983 54.6605 207.59 55.0488 207.113C55.4604 206.606 55.6459 205.894 55.6723 205.111C55.6892 204.612 55.5131 204.091 55.2105 203.567L50.2608 194.994C50.0693 194.662 50.1829 194.238 50.5146 194.046Z" fill="#FF9C27"/>
<path fill-rule="evenodd" clip-rule="evenodd" d="M77.0925 190.671C77.4538 190.798 77.6437 191.194 77.5166 191.555L75.4854 197.33L75.2631 197.458C74.0011 198.187 72.2515 199.637 71.1421 201.58C70.0482 203.496 69.5798 205.874 70.7961 208.576C70.9533 208.925 70.7976 209.336 70.4484 209.493C70.0992 209.65 69.6886 209.495 69.5314 209.145C68.101 205.968 68.6655 203.121 69.9377 200.893C71.1299 198.805 72.9457 197.247 74.3456 196.391L76.2082 191.095C76.3353 190.734 76.7312 190.544 77.0925 190.671Z" fill="#FF9C27"/>
<path fill-rule="evenodd" clip-rule="evenodd" d="M62.1817 178.714C62.5134 178.523 62.9375 178.636 63.129 178.968L69.6015 190.179C69.793 190.51 69.6793 190.935 69.3477 191.126C69.016 191.318 68.5918 191.204 68.4003 190.872L61.9279 179.662C61.7364 179.33 61.8501 178.906 62.1817 178.714Z" fill="#FF9C27"/>
<path fill-rule="evenodd" clip-rule="evenodd" d="M54.6369 184.138C54.9686 183.947 55.3928 184.06 55.5842 184.392L62.0567 195.603C62.2482 195.934 62.1345 196.358 61.8029 196.55C61.4712 196.741 61.047 196.628 60.8555 196.296L54.3831 185.085C54.1916 184.754 54.3053 184.33 54.6369 184.138Z" fill="#FF9C27"/>
<path fill-rule="evenodd" clip-rule="evenodd" d="M58.7305 201.129C58.7531 201.072 58.7936 200.985 58.858 200.865C59.0112 200.578 59.2648 200.172 59.6185 199.68C60.3243 198.699 61.4026 197.416 62.8088 196.127C65.628 193.542 69.7049 190.988 74.6947 190.706C75.077 190.684 75.3695 190.357 75.3479 189.974C75.3262 189.592 74.9987 189.3 74.6163 189.321C69.1926 189.628 64.8256 192.397 61.8716 195.104C60.3912 196.461 59.2505 197.816 58.4926 198.87C58.1146 199.395 57.8252 199.855 57.6352 200.21C57.5416 200.385 57.4628 200.552 57.4111 200.698C57.386 200.769 57.3587 200.858 57.3449 200.955C57.3365 201.013 57.3039 201.242 57.4371 201.472C57.6293 201.803 58.0537 201.916 58.385 201.724C58.605 201.596 58.7286 201.366 58.7305 201.129Z" fill="#FF9C27"/>
<path d="M207.745 224.29C209.022 222.079 208.264 219.251 206.053 217.975L182.03 204.105C179.819 202.828 176.991 203.586 175.715 205.797L158.609 235.425C153.503 244.27 156.533 255.58 165.378 260.687C174.223 265.793 185.533 262.763 190.639 253.918L207.745 224.29Z" fill="#337AFF"/>
<path fill-rule="evenodd" clip-rule="evenodd" d="M214.916 169.708C217.312 171.091 218.132 174.154 216.75 176.549L214.976 179.62C216.53 178.474 218.678 178.285 220.457 179.312C222.852 180.695 223.673 183.758 222.29 186.153L218.566 192.602C219.038 192.711 219.502 192.891 219.943 193.146C222.339 194.529 223.159 197.592 221.776 199.987L214.212 213.089C213.909 213.614 213.525 214.064 213.084 214.431C208.041 222.599 197.382 225.326 189.014 220.494C181.754 216.303 178.559 207.775 180.81 200.072L177.334 187.691C176.467 184.604 178.342 181.763 181.522 181.347C184.421 180.968 187.404 182.734 188.565 185.389L196.627 171.426C198.031 168.994 201.141 168.161 203.574 169.565C205.581 170.724 206.5 173.045 205.97 175.188L208.075 171.541C209.458 169.145 212.521 168.325 214.916 169.708Z" fill="#FFBA68"/>
<path fill-rule="evenodd" clip-rule="evenodd" d="M215.831 194.046C215.5 193.855 215.076 193.968 214.884 194.3L209.934 202.873C209.56 203.522 209.259 204.304 209.287 205.158C209.319 206.096 209.543 207.153 210.221 207.987C210.922 208.85 212.023 209.37 213.578 209.374C213.961 209.375 214.272 209.065 214.273 208.682C214.274 208.299 213.965 207.988 213.582 207.987C212.355 207.983 211.685 207.59 211.297 207.113C210.886 206.606 210.7 205.894 210.674 205.111C210.657 204.612 210.833 204.091 211.135 203.567L216.085 194.994C216.277 194.662 216.163 194.238 215.831 194.046Z" fill="#FF9C27"/>
<path fill-rule="evenodd" clip-rule="evenodd" d="M189.253 190.671C188.892 190.798 188.702 191.194 188.829 191.555L190.86 197.33L191.083 197.458C192.345 198.187 194.094 199.637 195.204 201.58C196.298 203.496 196.766 205.874 195.55 208.576C195.393 208.925 195.548 209.336 195.897 209.493C196.247 209.65 196.657 209.495 196.814 209.145C198.245 205.968 197.68 203.121 196.408 200.893C195.216 198.805 193.4 197.247 192 196.391L190.138 191.095C190.011 190.734 189.615 190.544 189.253 190.671Z" fill="#FF9C27"/>
<path fill-rule="evenodd" clip-rule="evenodd" d="M204.164 178.714C203.832 178.523 203.408 178.636 203.217 178.968L196.744 190.179C196.553 190.51 196.666 190.935 196.998 191.126C197.33 191.318 197.754 191.204 197.945 190.872L204.418 179.662C204.609 179.33 204.496 178.906 204.164 178.714Z" fill="#FF9C27"/>
<path fill-rule="evenodd" clip-rule="evenodd" d="M211.709 184.138C211.377 183.947 210.953 184.06 210.762 184.392L204.289 195.603C204.098 195.934 204.211 196.358 204.543 196.55C204.875 196.741 205.299 196.628 205.49 196.296L211.963 185.085C212.154 184.754 212.041 184.33 211.709 184.138Z" fill="#FF9C27"/>
<path fill-rule="evenodd" clip-rule="evenodd" d="M207.615 201.129C207.593 201.072 207.552 200.985 207.488 200.865C207.335 200.578 207.081 200.172 206.727 199.68C206.021 198.699 204.943 197.416 203.537 196.127C200.718 193.542 196.641 190.988 191.651 190.706C191.269 190.684 190.976 190.357 190.998 189.974C191.02 189.592 191.347 189.3 191.729 189.321C197.153 189.628 201.52 192.397 204.474 195.104C205.955 196.461 207.095 197.816 207.853 198.87C208.231 199.395 208.521 199.855 208.711 200.21C208.804 200.385 208.883 200.552 208.935 200.698C208.96 200.769 208.987 200.858 209.001 200.955C209.009 201.013 209.042 201.242 208.909 201.472C208.717 201.803 208.292 201.916 207.961 201.724C207.741 201.596 207.617 201.366 207.615 201.129Z" fill="#FF9C27"/>
<path d="M36.2742 70.2577L40.0949 61.7498C40.7134 60.3725 42.5766 60.151 43.5008 61.3449L45.5371 63.9753C45.8416 64.3687 45.9886 64.8616 45.9493 65.3575L45.344 72.9988C45.2412 74.2959 43.9468 75.1511 42.7134 74.7368L37.4619 72.9729C36.3414 72.5966 35.79 71.3359 36.2742 70.2577Z" fill="#337AFF"/>
<path d="M251.215 135.931L242.627 132.294C241.237 131.705 239.72 132.81 239.855 134.314L240.152 137.627C240.196 138.123 240.424 138.584 240.79 138.921L246.432 144.11C247.39 144.991 248.92 144.737 249.542 143.594L252.192 138.729C252.757 137.691 252.303 136.392 251.215 135.931Z" fill="#337AFF"/>
<path d="M63.2931 115.754L57.85 113.449C56.4597 112.86 54.9434 113.965 55.0781 115.469L55.2226 117.081C55.267 117.577 55.4945 118.038 55.8607 118.375L59.6424 121.853C60.6001 122.734 62.1305 122.48 62.7528 121.337L64.2696 118.552C64.8348 117.514 64.3814 116.215 63.2931 115.754Z" fill="#FF8484"/>
<path d="M185.215 6.93109L176.627 3.2941C175.237 2.70531 173.72 3.81042 173.855 5.31424L174.152 8.62745C174.196 9.123 174.424 9.5842 174.79 9.92101L180.432 15.1101C181.39 15.9909 182.92 15.7372 183.542 14.5945L186.192 9.72921C186.757 8.69119 186.303 7.39201 185.215 6.93109Z" fill="#FFDA55"/>
<path d="M3.22791 157.482L12.0679 154.51C13.499 154.028 14.9268 155.246 14.678 156.735L14.1297 160.016C14.0477 160.507 13.7858 160.949 13.395 161.257L7.3745 166.002C6.35254 166.807 4.84584 166.438 4.3124 165.251L2.04118 160.198C1.5566 159.12 2.10761 157.859 3.22791 157.482Z" fill="#FFDA55"/>
<path d="M167.173 26.8949V23.932C167.173 23.1886 167.955 22.7051 168.62 23.0375L172.077 24.7659C172.865 25.1598 172.795 26.3059 171.966 26.6021L168.509 27.8367C167.858 28.0692 167.173 27.5864 167.173 26.8949Z" fill="#FF8484"/>
<path d="M18.2734 144.895V141.932C18.2734 141.189 19.0558 140.705 19.7207 141.038L23.1774 142.766C23.9651 143.16 23.8959 144.306 23.0666 144.602L19.6098 145.837C18.9585 146.069 18.2734 145.586 18.2734 144.895Z" fill="#337AFF"/>
<path d="M244.332 75.5223L252.129 76.6527C252.877 76.7611 253.239 77.6274 252.791 78.2356L247.009 86.0824C246.501 86.7726 245.416 86.5448 245.228 85.7083L243.213 76.731C243.059 76.0473 243.638 75.4218 244.332 75.5223Z" fill="#FF8484"/>
<path d="M191.265 99.6061L197.191 94.4138C197.76 93.916 198.653 94.2037 198.824 94.9395L201.032 104.433C201.226 105.268 200.348 105.944 199.59 105.543L191.457 101.242C190.837 100.915 190.738 100.068 191.265 99.6061Z" fill="#337AFF"/>
<path d="M111.298 176.272C111.298 187.076 102.54 195.834 91.7355 195.834C80.9314 195.834 72.173 187.076 72.173 176.272C72.173 165.467 80.9314 156.709 91.7355 156.709C102.54 156.709 111.298 165.467 111.298 176.272Z" fill="#FF9C27"/>
<path d="M191.173 176.272C191.173 187.076 182.414 195.834 171.61 195.834C160.806 195.834 152.048 187.076 152.048 176.272C152.048 165.467 160.806 156.709 171.61 156.709C182.414 156.709 191.173 165.467 191.173 176.272Z" fill="#FF9C27"/>
<path d="M180.912 164.924C180.912 189.852 158.866 210.061 131.672 210.061C104.477 210.061 82.4318 189.852 82.4318 164.924C82.4318 139.996 104.477 119.787 131.672 119.787C158.866 119.787 180.912 139.996 180.912 164.924Z" fill="#FFBA68"/>
<mask id="mask0_0_1" style="mask-type:alpha" maskUnits="userSpaceOnUse" x="82" y="119" width="99" height="92">
<path d="M180.912 164.916C180.912 189.844 158.866 210.052 131.672 210.052C104.477 210.052 82.4318 189.844 82.4318 164.916C82.4318 139.987 104.477 119.779 131.672 119.779C158.866 119.779 180.912 139.987 180.912 164.916Z" fill="#FFAB49"/>
</mask>
<g mask="url(#mask0_0_1)">
<path d="M114.672 188.104C114.672 198.645 106.067 207.19 95.4526 207.19C84.8384 207.19 76.2338 198.645 76.2338 188.104C76.2338 177.564 84.8384 169.019 95.4526 169.019C106.067 169.019 114.672 177.564 114.672 188.104Z" fill="#FF9A24"/>
<path d="M186.317 188.104C186.317 198.645 177.712 207.19 167.098 207.19C156.484 207.19 147.879 198.645 147.879 188.104C147.879 177.564 156.484 169.019 167.098 169.019C177.712 169.019 186.317 177.564 186.317 188.104Z" fill="#FF9A24"/>
</g>
<path d="M133.723 179.277C133.723 180.41 132.804 181.329 131.671 181.329C130.538 181.329 129.619 180.41 129.619 179.277C129.619 178.144 130.538 177.226 131.671 177.226C132.804 177.226 133.723 178.144 133.723 179.277Z" fill="black"/>
<path d="M121.413 171.269C121.413 173.426 119.576 175.174 117.31 175.174C115.044 175.174 113.206 173.426 113.206 171.269C113.206 169.112 115.044 167.364 117.31 167.364C119.576 167.364 121.413 169.112 121.413 171.269Z" fill="black"/>
<path fill-rule="evenodd" clip-rule="evenodd" d="M119.408 165.688C119.81 166.4 119.529 167.288 118.78 167.671C118.373 167.878 117.756 168.304 117.317 168.835C116.881 169.362 116.761 169.808 116.858 170.196C117.056 170.982 116.546 171.772 115.72 171.96C114.893 172.148 114.063 171.663 113.865 170.877C113.467 169.292 114.141 167.941 114.898 167.024C115.652 166.112 116.628 165.445 117.325 165.09C118.074 164.707 119.006 164.975 119.408 165.688Z" fill="black"/>
<path d="M150.137 171.269C150.137 173.426 148.3 175.174 146.033 175.174C143.767 175.174 141.93 173.426 141.93 171.269C141.93 169.112 143.767 167.364 146.033 167.364C148.3 167.364 150.137 169.112 150.137 171.269Z" fill="black"/>
<path fill-rule="evenodd" clip-rule="evenodd" d="M148.132 165.688C148.534 166.4 148.252 167.288 147.503 167.671C147.096 167.878 146.479 168.304 146.041 168.835C145.605 169.362 145.485 169.808 145.582 170.196C145.78 170.982 145.27 171.772 144.443 171.96C143.617 172.148 142.787 171.663 142.589 170.877C142.191 169.292 142.864 167.941 143.622 167.024C144.376 166.112 145.352 165.445 146.048 165.09C146.797 164.707 147.73 164.975 148.132 165.688Z" fill="black"/>
<path fill-rule="evenodd" clip-rule="evenodd" d="M115.43 160.258C113.957 160.478 112.765 161.243 112.16 161.837C111.594 162.393 110.685 162.384 110.129 161.818C109.574 161.252 109.582 160.342 110.149 159.787C111.121 158.832 112.85 157.74 115.006 157.418C117.228 157.086 119.812 157.589 122.337 159.713C122.944 160.223 123.022 161.129 122.512 161.736C122.001 162.343 121.095 162.422 120.488 161.911C118.595 160.319 116.839 160.048 115.43 160.258Z" fill="#905A09"/>
<path fill-rule="evenodd" clip-rule="evenodd" d="M146.205 160.258C144.732 160.478 143.54 161.243 142.935 161.837C142.369 162.393 141.46 162.384 140.904 161.818C140.349 161.252 140.357 160.342 140.924 159.787C141.896 158.832 143.625 157.74 145.781 157.418C148.003 157.086 150.587 157.589 153.112 159.713C153.719 160.223 153.797 161.129 153.287 161.736C152.776 162.343 151.87 162.422 151.263 161.911C149.37 160.319 147.614 160.048 146.205 160.258Z" fill="#905A09"/>
<path d="M123.541 191.385C122.89 190.819 122.325 190.191 121.853 189.518C120.092 187.006 122.66 184.314 125.728 184.314L137.617 184.314C140.686 184.314 143.254 187.006 141.493 189.518C141.021 190.191 140.456 190.819 139.805 191.385C137.648 193.26 134.723 194.314 131.673 194.314C128.623 194.314 125.698 193.26 123.541 191.385Z" fill="#E16037"/>
<path d="M111.955 108.684C126.758 114.575 136.863 97.5252 163.443 117.682C170.663 116.801 163.443 91.1609 174.028 105.842C182.495 117.587 175.052 120.731 170.561 119.784C188.365 131.624 198.471 169.985 176.915 166.462C150.768 162.189 160.554 128.101 153.818 136.626C147.081 145.15 93.1987 170.877 82.1196 166.462C74.3207 163.355 74.3207 152.462 82.1196 149.413C81.1578 148.308 75.8606 149.147 74.3207 141.569C72.7809 133.992 90.1412 120.839 97.5195 117.682C97.5195 109.631 96.3012 102.454 111.955 108.684Z" fill="black"/>
<path d="M128.202 70.3282C129.969 66.3925 135.557 66.3925 137.325 70.3282L159.909 120.623C161.395 123.931 158.975 127.671 155.348 127.671H110.179C106.552 127.671 104.132 123.931 105.617 120.623L128.202 70.3282Z" fill="#FF8484"/>
<path d="M126.043 56.3349C125.64 54.4398 127.897 53.1364 129.337 54.4328L132.322 57.1202C132.966 57.7 133.91 57.7992 134.66 57.3659L138.138 55.3578C139.816 54.3891 141.753 56.1334 140.965 57.9034L139.332 61.5724C138.979 62.3639 139.177 63.2924 139.821 63.8721L142.805 66.5595C144.245 67.8559 143.185 70.2374 141.258 70.0348L137.264 69.615C136.402 69.5245 135.58 69.9991 135.228 70.7906L133.594 74.4596C132.806 76.2296 130.213 75.9571 129.811 74.062L128.976 70.1335C128.795 69.286 128.09 68.6508 127.228 68.5603L123.234 68.1405C121.307 67.9379 120.765 65.3881 122.443 64.4194L125.921 62.4113C126.672 61.978 127.058 61.1109 126.878 60.2634L126.043 56.3349Z" fill="#FFDA55"/>
</svg>
