<svg width="302" height="156" viewBox="0 0 302 156" fill="none" xmlns="http://www.w3.org/2000/svg">
<path fill-rule="evenodd" clip-rule="evenodd" d="M166.092 14.7742C172.292 14.7742 177.318 19.8005 177.318 26.0007V41.7177C177.318 47.9179 172.292 52.9442 166.092 52.9442H140.723C138.478 55.4556 135.054 57.9582 129.998 59.7351C129.623 59.8671 129.307 59.2217 129.609 58.963C131.337 57.485 133.069 55.3336 133.581 52.7291C128.434 51.7071 124.553 47.1656 124.553 41.7177V26.0007C124.553 19.8005 129.579 14.7742 135.78 14.7742H166.092Z" fill="#337AFF"/>
<ellipse cx="3.92932" cy="3.92927" rx="3.92932" ry="3.92927" transform="matrix(-1 0 0 1 166.091 30.4883)" fill="white"/>
<ellipse cx="3.92932" cy="3.92927" rx="3.92932" ry="3.92927" transform="matrix(-1 0 0 1 154.864 30.4883)" fill="white"/>
<ellipse cx="3.92932" cy="3.92927" rx="3.92932" ry="3.92927" transform="matrix(-1 0 0 1 143.639 30.4883)" fill="white"/>
<path d="M60.3219 140.648C60.3219 141.388 60.5589 142.107 61.0328 142.805C61.512 143.503 62.1448 144.099 62.9313 144.594C63.7177 145.083 64.5563 145.409 65.4469 145.57L64.7594 146.805C64.0146 146.643 63.301 146.378 62.6188 146.008C61.9365 145.638 61.3271 145.188 60.7906 144.656C60.2594 144.12 59.8453 143.529 59.5484 142.883C59.2464 143.523 58.8297 144.112 58.2984 144.648C57.7724 145.18 57.1682 145.63 56.4859 146C55.8036 146.37 55.0875 146.638 54.3375 146.805L53.6813 145.57C54.5615 145.404 55.3922 145.076 56.1734 144.586C56.9547 144.091 57.5797 143.497 58.0484 142.805C58.5224 142.107 58.7594 141.388 58.7594 140.648V139.586H60.3219V140.648ZM66.025 150.82H53.2125V149.586H66.025V150.82ZM79.7988 145.383H77.6269V152.648H76.1425V138.664H77.6269V144.164H79.7988V145.383ZM68.7206 147.898C70.856 147.898 72.929 147.69 74.9394 147.273L75.1113 148.523C73.9967 148.747 72.8899 148.906 71.7909 149C70.6972 149.089 69.5696 149.133 68.4081 149.133H67.2519V140.023H68.7206V147.898ZM91.8225 152.695H90.3381V138.664H91.8225V152.695ZM84.3381 139.711C85.0308 139.711 85.6506 139.914 86.1975 140.32C86.7444 140.721 87.1715 141.294 87.4788 142.039C87.7913 142.779 87.9475 143.638 87.9475 144.617C87.9475 145.602 87.7913 146.466 87.4788 147.211C87.1715 147.956 86.7444 148.531 86.1975 148.938C85.6506 149.339 85.0308 149.539 84.3381 149.539C83.635 149.539 83.01 149.339 82.4631 148.938C81.9163 148.531 81.4866 147.958 81.1741 147.219C80.8668 146.474 80.7131 145.607 80.7131 144.617C80.7131 143.633 80.8668 142.771 81.1741 142.031C81.4866 141.286 81.9163 140.714 82.4631 140.312C83.01 139.911 83.635 139.711 84.3381 139.711ZM84.3381 141.039C83.9058 141.039 83.523 141.185 83.1897 141.477C82.8616 141.768 82.6064 142.185 82.4241 142.727C82.2418 143.263 82.1506 143.893 82.1506 144.617C82.1506 145.346 82.2418 145.982 82.4241 146.523C82.6064 147.065 82.8616 147.482 83.1897 147.773C83.523 148.065 83.9058 148.211 84.3381 148.211C84.7652 148.211 85.1428 148.065 85.4709 147.773C85.7991 147.482 86.0543 147.065 86.2366 146.523C86.4189 145.982 86.51 145.346 86.51 144.617C86.51 143.893 86.4189 143.263 86.2366 142.727C86.0543 142.185 85.7991 141.768 85.4709 141.477C85.1428 141.185 84.7652 141.039 84.3381 141.039ZM101.862 141.273H100.331V147.859C100.94 147.818 101.586 147.758 102.268 147.68L102.362 148.773C101.081 148.977 99.7186 149.115 98.2759 149.188C96.8384 149.255 95.3463 149.289 93.7994 149.289L93.6431 148.055L95.4244 148.031V141.273H94.065V140.055H101.862V141.273ZM105.409 152.664H103.94V145.102H101.409V143.883H103.94V138.664H105.409V152.664ZM96.8775 148.008C97.565 147.992 98.2421 147.969 98.9088 147.938V141.273H96.8775V148.008ZM119.183 147.195H117.776V143.508H116.229V147.117H114.839V138.867H116.229V142.289H117.776V138.68H119.183V147.195ZM119.183 152.664H117.714V149.055H109.495V147.836H119.183V152.664ZM113.964 141.086H112.854V145.086C113.224 145.06 113.677 145.013 114.214 144.945L114.276 146.055C112.62 146.346 110.302 146.492 107.323 146.492L107.167 145.273C107.406 145.273 107.854 145.268 108.511 145.258V141.086H107.417V139.852H113.964V141.086ZM109.886 145.234C110.61 145.214 111.146 145.195 111.495 145.18V141.086H109.886V145.234ZM132.113 147.023H127.878V149.758H133.566V150.977H120.753V149.758H126.394V147.023H122.363V139.742H131.972V140.961H123.863V142.758H131.675V143.93H123.863V145.836H132.113V147.023ZM145.886 152.695H144.402V138.664H145.886V152.695ZM141.605 145.039H136.574V148.102C137.803 148.096 138.931 148.057 139.957 147.984C140.988 147.911 142.058 147.784 143.168 147.602L143.308 148.82C142.141 149.018 141.009 149.154 139.91 149.227C138.816 149.299 137.595 149.336 136.246 149.336H135.058V143.852H140.089V141.133H135.043V139.93H141.605V145.039ZM158.527 139.898C158.522 140.508 158.744 141.096 159.192 141.664C159.645 142.227 160.257 142.706 161.027 143.102C161.798 143.492 162.637 143.747 163.543 143.867L162.965 145.086C162.205 144.966 161.483 144.758 160.801 144.461C160.119 144.164 159.514 143.797 158.988 143.359C158.462 142.922 158.051 142.432 157.754 141.891C157.452 142.432 157.038 142.922 156.512 143.359C155.991 143.797 155.392 144.164 154.715 144.461C154.038 144.753 153.319 144.961 152.559 145.086L151.965 143.867C152.871 143.747 153.707 143.492 154.473 143.102C155.238 142.711 155.845 142.234 156.293 141.672C156.746 141.104 156.975 140.513 156.981 139.898V139.133H158.527V139.898ZM164.121 147.68H158.434V152.664H156.981V147.68H151.356V146.461H164.121V147.68ZM177.676 150.992H164.864V149.742H168.364V147.273H166.426V142.82H174.645V140.867H166.395V139.648H176.114V144.023H167.895V146.055H176.442V147.273H174.317V149.742H177.676V150.992ZM172.864 149.742V147.273H169.801V149.742H172.864ZM182.653 141.352C182.653 141.867 182.76 142.372 182.973 142.867C183.192 143.357 183.513 143.799 183.934 144.195C184.356 144.586 184.861 144.893 185.45 145.117L184.669 146.258C184.033 146.013 183.484 145.667 183.02 145.219C182.562 144.771 182.203 144.25 181.942 143.656C181.677 144.328 181.304 144.927 180.825 145.453C180.346 145.979 179.778 146.383 179.122 146.664L178.309 145.508C178.919 145.242 179.442 144.885 179.88 144.438C180.317 143.984 180.648 143.49 180.872 142.953C181.101 142.417 181.216 141.883 181.216 141.352V139.539H182.653V141.352ZM190.309 147.289H188.903V143.539H187.263V146.852H185.888V138.93H187.263V142.32H188.903V138.68H190.309V147.289ZM185.622 147.555C186.591 147.555 187.432 147.656 188.145 147.859C188.859 148.062 189.408 148.357 189.794 148.742C190.184 149.122 190.382 149.576 190.388 150.102C190.382 150.628 190.184 151.081 189.794 151.461C189.408 151.846 188.859 152.138 188.145 152.336C187.432 152.539 186.591 152.638 185.622 152.633C184.653 152.638 183.812 152.539 183.098 152.336C182.385 152.138 181.835 151.846 181.45 151.461C181.07 151.081 180.882 150.628 180.888 150.102C180.882 149.576 181.07 149.122 181.45 148.742C181.835 148.357 182.385 148.062 183.098 147.859C183.812 147.656 184.653 147.555 185.622 147.555ZM185.622 148.695C184.945 148.695 184.359 148.753 183.864 148.867C183.374 148.977 182.999 149.138 182.739 149.352C182.479 149.56 182.351 149.81 182.356 150.102C182.351 150.393 182.479 150.646 182.739 150.859C182.999 151.068 183.377 151.227 183.872 151.336C184.367 151.445 184.95 151.497 185.622 151.492C186.294 151.497 186.874 151.445 187.364 151.336C187.859 151.227 188.236 151.068 188.497 150.859C188.763 150.651 188.898 150.398 188.903 150.102C188.898 149.659 188.604 149.315 188.02 149.07C187.442 148.82 186.643 148.695 185.622 148.695ZM202.607 140.086C202.602 141.565 202.409 142.922 202.029 144.156C201.649 145.385 200.992 146.534 200.06 147.602C199.133 148.664 197.872 149.602 196.279 150.414L195.451 149.289C196.654 148.669 197.649 147.984 198.435 147.234C199.221 146.484 199.831 145.656 200.263 144.75L195.732 145.18L195.497 143.898L200.724 143.57C200.938 142.862 201.073 142.102 201.13 141.289H196.216V140.086H202.607ZM207.122 152.664H205.654V145.43H202.576V144.211H205.654V138.664H207.122V152.664ZM221.771 147.883H218.631V152.742H217.146V147.883H213.631V152.742H212.146V147.883H208.959V146.664H221.771V147.883ZM220.162 144.914H210.568V139.398H220.162V144.914ZM212.021 143.727H218.677V140.586H212.021V143.727ZM234.108 152.664H232.623V138.664H234.108V152.664ZM224.811 147.82C227.102 147.805 229.248 147.591 231.248 147.18L231.451 148.43C230.264 148.669 229.102 148.841 227.967 148.945C226.831 149.049 225.68 149.102 224.514 149.102H223.342V140.023H224.811V147.82ZM243.772 141.117H238.319V143.82H243.241V145.008H238.319V148.148C239.59 148.143 240.704 148.109 241.663 148.047C242.621 147.984 243.605 147.872 244.616 147.711L244.772 148.914C243.72 149.086 242.681 149.203 241.655 149.266C240.634 149.323 239.413 149.352 237.991 149.352H236.85V139.898H243.772V141.117ZM247.631 152.664H246.131V138.664H247.631V152.664Z" fill="#333333"/>
<path d="M234.536 93.048H256.104V101.112H234.536V93.048ZM235.304 111.48H259.688V119.8H225V75H258.856V83.32H235.304V111.48Z" fill="#B2CDFF"/>
<path d="M198.256 120.336C194.8 120.336 191.579 119.781 188.592 118.672C185.648 117.52 183.088 115.899 180.912 113.808C178.736 111.717 177.029 109.264 175.792 106.448C174.597 103.632 174 100.539 174 97.168C174 93.7973 174.597 90.704 175.792 87.888C177.029 85.072 178.736 82.6187 180.912 80.528C183.131 78.4373 185.712 76.8373 188.656 75.728C191.6 74.576 194.821 74 198.32 74C202.203 74 205.701 74.6827 208.816 76.048C211.973 77.3707 214.619 79.3333 216.752 81.936L210.096 88.08C208.56 86.3307 206.853 85.0293 204.976 84.176C203.099 83.28 201.051 82.832 198.832 82.832C196.741 82.832 194.821 83.1733 193.072 83.856C191.323 84.5387 189.808 85.52 188.528 86.8C187.248 88.08 186.245 89.5947 185.52 91.344C184.837 93.0933 184.496 95.0347 184.496 97.168C184.496 99.3013 184.837 101.243 185.52 102.992C186.245 104.741 187.248 106.256 188.528 107.536C189.808 108.816 191.323 109.797 193.072 110.48C194.821 111.163 196.741 111.504 198.832 111.504C201.051 111.504 203.099 111.077 204.976 110.224C206.853 109.328 208.56 107.984 210.096 106.192L216.752 112.336C214.619 114.939 211.973 116.923 208.816 118.288C205.701 119.653 202.181 120.336 198.256 120.336Z" fill="#337AFF"/>
<path d="M122 119.8L141.968 75H152.208L172.24 119.8H161.36L144.976 80.248H149.072L132.624 119.8H122ZM131.984 110.2L134.736 102.328H157.776L160.592 110.2H131.984Z" fill="#337AFF"/>
<path d="M97.6 95.16H119.104V103.48H97.6V95.16ZM98.368 119.8H88V75H121.856V83.32H98.368V119.8Z" fill="#337AFF"/>
<path d="M61.24 120.336C57.656 120.336 54.2213 119.867 50.936 118.928C47.6507 117.947 45.0053 116.688 43 115.152L46.52 107.344C48.44 108.709 50.7013 109.84 53.304 110.736C55.9493 111.589 58.616 112.016 61.304 112.016C63.352 112.016 64.9947 111.824 66.232 111.44C67.512 111.013 68.4507 110.437 69.048 109.712C69.6453 108.987 69.944 108.155 69.944 107.216C69.944 106.021 69.4747 105.083 68.536 104.4C67.5973 103.675 66.36 103.099 64.824 102.672C63.288 102.203 61.5813 101.776 59.704 101.392C57.8693 100.965 56.0133 100.453 54.136 99.856C52.3013 99.2587 50.616 98.4907 49.08 97.552C47.544 96.6133 46.2853 95.376 45.304 93.84C44.3653 92.304 43.896 90.3413 43.896 87.952C43.896 85.392 44.5787 83.0667 45.944 80.976C47.352 78.8427 49.4427 77.1573 52.216 75.92C55.032 74.64 58.552 74 62.776 74C65.592 74 68.3653 74.3413 71.096 75.024C73.8267 75.664 76.2373 76.6453 78.328 77.968L75.128 85.84C73.0373 84.6453 70.9467 83.7707 68.856 83.216C66.7653 82.6187 64.7173 82.32 62.712 82.32C60.7067 82.32 59.064 82.5547 57.784 83.024C56.504 83.4933 55.5867 84.112 55.032 84.88C54.4773 85.6053 54.2 86.4587 54.2 87.44C54.2 88.592 54.6693 89.5307 55.608 90.256C56.5467 90.9387 57.784 91.4933 59.32 91.92C60.856 92.3467 62.5413 92.7733 64.376 93.2C66.2533 93.6267 68.1093 94.1173 69.944 94.672C71.8213 95.2267 73.528 95.9733 75.064 96.912C76.6 97.8507 77.8373 99.088 78.776 100.624C79.7573 102.16 80.248 104.101 80.248 106.448C80.248 108.965 79.544 111.269 78.136 113.36C76.728 115.451 74.616 117.136 71.8 118.416C69.0267 119.696 65.5067 120.336 61.24 120.336Z" fill="#337AFF"/>
</svg>
