<svg width="63" height="13" viewBox="0 0 63 13" fill="none" xmlns="http://www.w3.org/2000/svg">
<rect width="63" height="13" fill="#D1D1D1"/>
<g id="&#235;&#185;&#132;&#235;&#176;&#128;&#235;&#178;&#136;&#237;&#152;&#184; &#235;&#179;&#128;&#234;&#178;&#189;">
<rect width="390" height="844" transform="translate(-10 -22)" fill="white"/>
<g id="Nav/Top">
<g id="Rectangle 12562">
<mask id="path-1-inside-1_0_1" fill="white">
<path d="M-10 -22H380V34H-10V-22Z"/>
</mask>
<path d="M-10 -22H380V34H-10V-22Z" fill="white"/>
<path d="M380 33H-10V35H380V33Z" fill="#E7E7E7" mask="url(#path-1-inside-1_0_1)"/>
</g>
<g id="Logo">
<g id="Group 427321700">
<g id="Group 427321699">
<path id="SFACE" d="M55.6868 5.34454H61.9575V7.60697H55.6868V5.34454ZM55.9101 10.5158H62.9995V12.8501H52.9143V0.281006H62.7576V2.61526H55.9101V10.5158Z" fill="#B2CDFF"/>
</g>
<g id="Group 427321698">
<path id="SFACE_2" d="M45.1391 13C44.1343 13 43.1977 12.8444 42.3294 12.5331C41.4735 12.2099 40.7292 11.7551 40.0965 11.1685C39.4639 10.582 38.9677 9.89365 38.6079 9.10359C38.2606 8.31353 38.0869 7.44567 38.0869 6.5C38.0869 5.55433 38.2606 4.68646 38.6079 3.89641C38.9677 3.10635 39.4639 2.41805 40.0965 1.83149C40.7416 1.24494 41.4921 0.79604 42.348 0.484806C43.2039 0.161602 44.1405 0 45.1577 0C46.2866 0 47.3038 0.191529 48.2093 0.574586C49.1273 0.945672 49.8964 1.49632 50.5167 2.22652L48.5815 3.95028C48.1349 3.45948 47.6387 3.09438 47.0929 2.85497C46.5471 2.60359 45.9516 2.4779 45.3066 2.4779C44.6987 2.4779 44.1405 2.57366 43.6319 2.76519C43.1233 2.95672 42.6829 3.23204 42.3108 3.59116C41.9386 3.95028 41.6471 4.37523 41.4363 4.86602C41.2378 5.35681 41.1385 5.90147 41.1385 6.5C41.1385 7.09853 41.2378 7.64319 41.4363 8.13398C41.6471 8.62477 41.9386 9.04972 42.3108 9.40884C42.6829 9.76796 43.1233 10.0433 43.6319 10.2348C44.1405 10.4263 44.6987 10.5221 45.3066 10.5221C45.9516 10.5221 46.5471 10.4024 47.0929 10.163C47.6387 9.9116 48.1349 9.53453 48.5815 9.03177L50.5167 10.7555C49.8964 11.4857 49.1273 12.0424 48.2093 12.4254C47.3038 12.8085 46.2804 13 45.1391 13Z" fill="#337AFF"/>
</g>
<g id="Group 427321697">
<path id="SFACE_3" d="M22.9685 12.8501L28.774 0.281006H31.7512L37.5753 12.8501H34.4121L29.6486 1.75338H30.8394L26.0573 12.8501H22.9685ZM25.8713 10.1567L26.6714 7.94813H33.37L34.1888 10.1567H25.8713Z" fill="#337AFF"/>
</g>
<g id="Group 427321696">
<path id="SFACE_4" d="M15.8749 5.93708H22.1269V8.27134H15.8749V5.93708ZM16.0981 12.8501H13.0837V0.281006H22.9271V2.61526H16.0981V12.8501Z" fill="#337AFF"/>
</g>
<path id="SFACE_5" d="M5.30311 13C4.26109 13 3.2625 12.8683 2.30732 12.605C1.35214 12.3297 0.583032 11.9765 0 11.5456L1.02341 9.35497C1.58163 9.73803 2.23909 10.0552 2.99579 10.3066C3.7649 10.546 4.54021 10.6657 5.32172 10.6657C5.91715 10.6657 6.39474 10.6119 6.75449 10.5041C7.12663 10.3844 7.39954 10.2228 7.57321 10.0193C7.74688 9.81584 7.83371 9.58241 7.83371 9.31906C7.83371 8.98389 7.69726 8.72053 7.42435 8.52901C7.15144 8.32551 6.7917 8.1639 6.34512 8.0442C5.89855 7.91252 5.40235 7.79282 4.85653 7.68508C4.32312 7.56538 3.7835 7.42173 3.23769 7.25414C2.70428 7.08656 2.21428 6.87109 1.7677 6.60773C1.32113 6.34438 0.95518 5.99724 0.669867 5.5663C0.396958 5.13536 0.260504 4.58471 0.260504 3.91436C0.260504 3.19613 0.458983 2.54374 0.85594 1.95718C1.2653 1.35865 1.87314 0.885819 2.67947 0.538674C3.49819 0.179558 4.5216 0 5.74969 0C6.56841 0 7.37473 0.0957641 8.16865 0.287292C8.96256 0.46685 9.66344 0.742172 10.2713 1.11326L9.34091 3.32182C8.73307 2.98665 8.12523 2.74125 7.51739 2.58564C6.90955 2.41805 6.31411 2.33425 5.73108 2.33425C5.14805 2.33425 4.67046 2.40009 4.29831 2.53177C3.92616 2.66344 3.65946 2.83702 3.49819 3.05249C3.33693 3.25598 3.25629 3.4954 3.25629 3.77072C3.25629 4.09392 3.39275 4.35727 3.66566 4.56077C3.93857 4.7523 4.29831 4.90792 4.74489 5.02762C5.19146 5.14733 5.68146 5.26703 6.21487 5.38674C6.76069 5.50645 7.3003 5.64411 7.83371 5.79972C8.37953 5.95534 8.87573 6.16482 9.32231 6.42818C9.76888 6.69153 10.1286 7.03867 10.4015 7.46961C10.6868 7.90055 10.8295 8.44521 10.8295 9.10359C10.8295 9.80985 10.6248 10.4563 10.2155 11.0428C9.8061 11.6294 9.19206 12.1022 8.37333 12.4613C7.56701 12.8204 6.5436 13 5.30311 13Z" fill="#337AFF"/>
</g>
</g>
</g>
</g>
<path id="Vector 631" d="M-210 1237.81C-207.054 1237.81 -204.667 1240.2 -204.667 1243.14C-204.667 1246.09 -207.054 1248.48 -210 1248.48C-212.946 1248.48 -215.333 1246.09 -215.333 1243.14C-215.333 1240.2 -212.946 1237.81 -210 1237.81ZM-15.2059 1243.14V1242.14H-14.2059V1243.14H-15.2059ZM-15.2059 1891V1892H-16.2059V1891H-15.2059ZM1079 1891H1080V1892H1079V1891ZM1079 -184L1084.77 -174H1073.23L1079 -184ZM-210 1242.14H-15.2059V1244.14H-210V1242.14ZM-14.2059 1243.14L-14.2059 1891H-16.2059L-16.2059 1243.14H-14.2059ZM-15.2059 1890H1079V1892H-15.2059V1890ZM1078 1891L1078 -175H1080L1080 1891H1078Z" fill="#337AFF"/>
<path id="Vector 619" d="M397.667 360C397.667 362.945 400.054 365.333 403 365.333C405.946 365.333 408.333 362.945 408.333 360C408.333 357.055 405.946 354.667 403 354.667C400.054 354.667 397.667 357.055 397.667 360ZM469 360V361H470V360H469ZM469 -156H470V-157H469V-156ZM-1748 -156H-1749V-155H-1748V-156ZM-1748 -648V-649H-1749V-648H-1748ZM-1604.27 -648L-1614.27 -653.774V-642.226L-1604.27 -648ZM403 361H469V359H403V361ZM470 360V-156H468V360H470ZM469 -157H-1748V-155H469V-157ZM-1747 -156V-648H-1749V-156H-1747ZM-1748 -647H-1613.27V-649H-1748V-647Z" fill="#337AFF"/>
</svg>
