<svg width="302" height="321" viewBox="0 0 302 321" fill="none" xmlns="http://www.w3.org/2000/svg">
<circle cx="151.042" cy="137.354" r="85.0288" fill="#F5F8FF"/>
<path d="M152.5 38L240.402 179.75H64.5984L152.5 38Z" stroke="#99BDFF" stroke-width="2.30847" stroke-linecap="round" stroke-dasharray="7.69 7.69"/>
<path d="M61.4417 186.973C61.4417 194.418 55.4066 200.453 47.962 200.453C40.5174 200.453 34.4823 194.418 34.4823 186.973C34.4823 179.529 40.5174 173.494 47.962 173.494C55.4066 173.494 61.4417 179.529 61.4417 186.973Z" fill="#FF9C27"/>
<path d="M116.48 186.973C116.48 194.418 110.445 200.453 103 200.453C95.5557 200.453 89.5206 194.418 89.5206 186.973C89.5206 179.529 95.5557 173.494 103 173.494C110.445 173.494 116.48 179.529 116.48 186.973Z" fill="#FF9C27"/>
<path d="M109.409 179.154C109.409 196.331 94.2187 210.256 75.4801 210.256C56.7415 210.256 41.5509 196.331 41.5509 179.154C41.5509 161.977 56.7415 148.052 75.4801 148.052C94.2187 148.052 109.409 161.977 109.409 179.154Z" fill="#FFBA68"/>
<mask id="mask0_0_1" style="mask-type:alpha" maskUnits="userSpaceOnUse" x="41" y="148" width="69" height="63">
<path d="M109.409 179.149C109.409 196.326 94.2187 210.25 75.4801 210.25C56.7415 210.25 41.5509 196.326 41.5509 179.149C41.5509 161.972 56.7415 148.047 75.4801 148.047C94.2187 148.047 109.409 161.972 109.409 179.149Z" fill="#FFAB49"/>
</mask>
<g mask="url(#mask0_0_1)">
<path d="M63.7666 195.127C63.7666 202.39 57.8375 208.278 50.5237 208.278C43.2098 208.278 37.2808 202.39 37.2808 195.127C37.2808 187.864 43.2098 181.976 50.5237 181.976C57.8375 181.976 63.7666 187.864 63.7666 195.127Z" fill="#FF9A24"/>
<path d="M113.133 195.127C113.133 202.39 107.204 208.278 99.8904 208.278C92.5765 208.278 86.6475 202.39 86.6475 195.127C86.6475 187.864 92.5765 181.976 99.8904 181.976C107.204 181.976 113.133 187.864 113.133 195.127Z" fill="#FF9A24"/>
</g>
<path d="M76.8938 189.045C76.8938 189.825 76.2609 190.458 75.4801 190.458C74.6993 190.458 74.0664 189.825 74.0664 189.045C74.0664 188.264 74.6993 187.631 75.4801 187.631C76.2609 187.631 76.8938 188.264 76.8938 189.045Z" fill="black"/>
<path d="M68.4115 183.526C68.4115 185.012 67.1456 186.217 65.5841 186.217C64.0225 186.217 62.7567 185.012 62.7567 183.526C62.7567 182.04 64.0225 180.835 65.5841 180.835C67.1456 180.835 68.4115 182.04 68.4115 183.526Z" fill="black"/>
<path fill-rule="evenodd" clip-rule="evenodd" d="M67.03 179.681C67.3068 180.172 67.113 180.783 66.597 181.047C66.3165 181.19 65.8915 181.483 65.5891 181.849C65.2887 182.213 65.206 182.519 65.2731 182.787C65.4093 183.329 65.0579 183.873 64.4884 184.003C63.9189 184.132 63.3468 183.798 63.2107 183.256C62.9363 182.164 63.4004 181.233 63.9222 180.602C64.442 179.973 65.1146 179.514 65.5944 179.269C66.1104 179.005 66.7531 179.19 67.03 179.681Z" fill="black"/>
<path d="M88.2036 183.526C88.2036 185.012 86.9377 186.217 85.3761 186.217C83.8146 186.217 82.5487 185.012 82.5487 183.526C82.5487 182.04 83.8146 180.835 85.3761 180.835C86.9377 180.835 88.2036 182.04 88.2036 183.526Z" fill="black"/>
<path fill-rule="evenodd" clip-rule="evenodd" d="M86.822 179.681C87.0989 180.172 86.905 180.783 86.389 181.047C86.1085 181.19 85.6835 181.483 85.3811 181.849C85.0807 182.213 84.998 182.519 85.0652 182.787C85.2013 183.329 84.85 183.873 84.2805 184.003C83.7109 184.132 83.1389 183.798 83.0027 183.256C82.7284 182.164 83.1925 181.233 83.7143 180.602C84.2341 179.973 84.9067 179.514 85.3864 179.269C85.9024 179.005 86.5451 179.19 86.822 179.681Z" fill="black"/>
<path fill-rule="evenodd" clip-rule="evenodd" d="M75.4801 196.113L67.6985 193.689C67.1544 193.52 66.8667 192.987 67.056 192.5C67.2452 192.012 67.8397 191.755 68.3839 191.924L75.4801 194.135L82.5763 191.924C83.1205 191.755 83.715 192.012 83.9042 192.5C84.0935 192.987 83.8058 193.52 83.2617 193.689L75.4801 196.113Z" fill="#A75A00"/>
<path fill-rule="evenodd" clip-rule="evenodd" d="M65.5931 176.305C66.6139 176.412 67.5406 176.106 68.0466 175.814C68.5199 175.541 69.1251 175.703 69.3984 176.176C69.6717 176.649 69.5096 177.255 69.0363 177.528C68.2231 177.998 66.8821 178.43 65.3877 178.274C63.8484 178.113 62.2107 177.333 60.8906 175.482C60.5733 175.037 60.6768 174.419 61.1217 174.102C61.5667 173.785 62.1847 173.888 62.502 174.333C63.4919 175.721 64.6171 176.204 65.5931 176.305Z" fill="#905A09"/>
<path fill-rule="evenodd" clip-rule="evenodd" d="M85.6267 176.305C84.6058 176.412 83.6792 176.106 83.1732 175.814C82.6999 175.541 82.0946 175.703 81.8213 176.176C81.548 176.649 81.7101 177.255 82.1834 177.528C82.9967 177.998 84.3376 178.43 85.832 178.274C87.3713 178.113 89.0091 177.333 90.3291 175.482C90.6464 175.037 90.543 174.419 90.098 174.102C89.653 173.785 89.035 173.888 88.7177 174.333C87.7278 175.721 86.6026 176.204 85.6267 176.305Z" fill="#905A09"/>
<path d="M62.3076 146.277C34.4528 143.779 36.8021 168.902 41.8691 176.321L59.8152 171.74L63.5426 160.105C65.9824 174.217 61.484 172.95 109.943 176.321C123.954 139.684 69.4796 132.057 62.3076 146.277Z" fill="#FF7777"/>
<path d="M137.621 77.58C137.621 85.0247 131.586 91.0597 124.142 91.0597C116.697 91.0597 110.662 85.0247 110.662 77.58C110.662 70.1354 116.697 64.1003 124.142 64.1003C131.586 64.1003 137.621 70.1354 137.621 77.58Z" fill="#FF9C27"/>
<path d="M192.66 77.58C192.66 85.0247 186.625 91.0597 179.18 91.0597C171.735 91.0597 165.7 85.0247 165.7 77.58C165.7 70.1354 171.735 64.1003 179.18 64.1003C186.625 64.1003 192.66 70.1354 192.66 77.58Z" fill="#FF9C27"/>
<path d="M185.589 69.761C185.589 86.938 170.398 100.863 151.66 100.863C132.921 100.863 117.731 86.938 117.731 69.761C117.731 52.5839 132.921 38.6592 151.66 38.6592C170.398 38.6592 185.589 52.5839 185.589 69.761Z" fill="#FFBA68"/>
<mask id="mask1_0_1" style="mask-type:alpha" maskUnits="userSpaceOnUse" x="117" y="38" width="69" height="63">
<path d="M185.589 69.7553C185.589 86.9324 170.398 100.857 151.66 100.857C132.921 100.857 117.731 86.9324 117.731 69.7553C117.731 52.5783 132.921 38.6536 151.66 38.6536C170.398 38.6536 185.589 52.5783 185.589 69.7553Z" fill="#FFAB49"/>
</mask>
<g mask="url(#mask1_0_1)">
<path d="M139.946 85.7337C139.946 92.9968 134.017 98.8846 126.703 98.8846C119.389 98.8846 113.46 92.9968 113.46 85.7337C113.46 78.4706 119.389 72.5828 126.703 72.5828C134.017 72.5828 139.946 78.4706 139.946 85.7337Z" fill="#FF9A24"/>
<path d="M189.313 85.7337C189.313 92.9968 183.384 98.8846 176.07 98.8846C168.756 98.8846 162.827 92.9968 162.827 85.7337C162.827 78.4706 168.756 72.5828 176.07 72.5828C183.384 72.5828 189.313 78.4706 189.313 85.7337Z" fill="#FF9A24"/>
</g>
<path d="M153.074 79.6513C153.074 80.432 152.441 81.065 151.66 81.065C150.879 81.065 150.246 80.432 150.246 79.6513C150.246 78.8705 150.879 78.2375 151.66 78.2375C152.441 78.2375 153.074 78.8705 153.074 79.6513Z" fill="black"/>
<path d="M144.591 74.1332C144.591 75.6193 143.325 76.824 141.764 76.824C140.202 76.824 138.936 75.6193 138.936 74.1332C138.936 72.6471 140.202 71.4424 141.764 71.4424C143.325 71.4424 144.591 72.6471 144.591 74.1332Z" fill="black"/>
<path fill-rule="evenodd" clip-rule="evenodd" d="M143.21 70.2875C143.487 70.7786 143.293 71.3903 142.777 71.6537C142.496 71.797 142.071 72.0901 141.769 72.456C141.468 72.8196 141.386 73.1263 141.453 73.3936C141.589 73.9356 141.238 74.4801 140.668 74.6097C140.099 74.7392 139.527 74.4049 139.39 73.8629C139.116 72.7709 139.58 71.8399 140.102 71.2085C140.622 70.5795 141.294 70.1204 141.774 69.8755C142.29 69.612 142.933 69.7965 143.21 70.2875Z" fill="black"/>
<path d="M164.383 74.1332C164.383 75.6193 163.117 76.824 161.556 76.824C159.994 76.824 158.728 75.6193 158.728 74.1332C158.728 72.6471 159.994 71.4424 161.556 71.4424C163.117 71.4424 164.383 72.6471 164.383 74.1332Z" fill="black"/>
<path fill-rule="evenodd" clip-rule="evenodd" d="M163.002 70.2875C163.279 70.7786 163.085 71.3903 162.569 71.6537C162.288 71.797 161.863 72.0901 161.561 72.456C161.26 72.8196 161.178 73.1263 161.245 73.3936C161.381 73.9356 161.03 74.4801 160.46 74.6097C159.891 74.7392 159.319 74.4049 159.182 73.8629C158.908 72.7709 159.372 71.8399 159.894 71.2085C160.414 70.5795 161.086 70.1204 161.566 69.8755C162.082 69.612 162.725 69.7965 163.002 70.2875Z" fill="black"/>
<path fill-rule="evenodd" clip-rule="evenodd" d="M143.878 84.2957C148.946 85.8744 154.374 85.8744 159.441 84.2957C159.985 84.1262 160.273 83.5937 160.084 83.1064C159.895 82.619 159.3 82.3613 158.756 82.5309C154.135 83.9705 149.185 83.9705 144.564 82.5309C144.019 82.3613 143.425 82.619 143.236 83.1064C143.046 83.5937 143.334 84.1262 143.878 84.2957Z" fill="#A75A00"/>
<path fill-rule="evenodd" clip-rule="evenodd" d="M140.469 66.5465C139.454 66.698 138.632 67.2252 138.215 67.6344C137.825 68.0171 137.199 68.0111 136.816 67.621C136.433 67.2308 136.439 66.6043 136.829 66.2215C137.5 65.5639 138.69 64.8108 140.176 64.589C141.707 64.3605 143.488 64.7074 145.228 66.1705C145.646 66.5223 145.7 67.1465 145.348 67.5648C144.997 67.9831 144.372 68.0371 143.954 67.6854C142.649 66.5882 141.439 66.4016 140.469 66.5465Z" fill="#905A09"/>
<path fill-rule="evenodd" clip-rule="evenodd" d="M161.674 66.5465C160.659 66.698 159.838 67.2252 159.421 67.6344C159.031 68.0171 158.404 68.0111 158.022 67.621C157.639 67.2308 157.645 66.6043 158.035 66.2215C158.705 65.5639 159.896 64.8108 161.382 64.589C162.913 64.3605 164.693 64.7074 166.434 66.1705C166.852 66.5223 166.906 67.1465 166.554 67.5648C166.202 67.9831 165.578 68.0371 165.16 67.6854C163.855 66.5882 162.645 66.4016 161.674 66.5465Z" fill="#905A09"/>
<path d="M138.074 31.0083C148.274 35.0675 155.237 23.3195 173.552 37.2086C178.527 36.6014 173.552 18.9341 180.846 29.0504C186.68 37.1434 181.551 39.3098 178.457 38.6571C190.725 46.8154 197.688 73.2483 182.835 70.8209C164.818 67.8765 171.562 44.388 166.92 50.262C162.278 56.136 125.15 73.8628 117.516 70.8209C112.142 68.6797 112.142 61.174 117.516 59.073C116.853 58.3115 113.203 58.8897 112.142 53.6684C111.081 48.4471 123.043 39.3842 128.127 37.2086C128.127 31.661 127.288 26.7156 138.074 31.0083Z" fill="black"/>
<path d="M213.032 192.628C213.032 200.073 206.996 206.108 199.552 206.108C192.107 206.108 186.072 200.073 186.072 192.628C186.072 185.184 192.107 179.148 199.552 179.148C206.996 179.148 213.032 185.184 213.032 192.628Z" fill="#FF9C27"/>
<path d="M268.166 192.628C268.166 200.073 262.131 206.108 254.687 206.108C247.242 206.108 241.207 200.073 241.207 192.628C241.207 185.184 247.242 179.148 254.687 179.148C262.131 179.148 268.166 185.184 268.166 192.628Z" fill="#FF9C27"/>
<path d="M260.999 184.809C260.999 201.986 245.809 215.911 227.07 215.911C208.331 215.911 193.141 201.986 193.141 184.809C193.141 167.632 208.331 153.707 227.07 153.707C245.809 153.707 260.999 167.632 260.999 184.809Z" fill="#FFBA68"/>
<mask id="mask2_0_1" style="mask-type:alpha" maskUnits="userSpaceOnUse" x="193" y="153" width="68" height="63">
<path d="M260.999 184.803C260.999 201.98 245.809 215.905 227.07 215.905C208.331 215.905 193.141 201.98 193.141 184.803C193.141 167.626 208.331 153.702 227.07 153.702C245.809 153.702 260.999 167.626 260.999 184.803Z" fill="#FFAB49"/>
</mask>
<g mask="url(#mask2_0_1)">
<path d="M215.356 200.782C215.356 208.045 209.427 213.933 202.113 213.933C194.8 213.933 188.871 208.045 188.871 200.782C188.871 193.519 194.8 187.631 202.113 187.631C209.427 187.631 215.356 193.519 215.356 200.782Z" fill="#FF9A24"/>
<path d="M264.723 200.782C264.723 208.045 258.794 213.933 251.48 213.933C244.166 213.933 238.237 208.045 238.237 200.782C238.237 193.519 244.166 187.631 251.48 187.631C258.794 187.631 264.723 193.519 264.723 200.782Z" fill="#FF9A24"/>
<path d="M239.793 189.181C239.793 190.667 238.528 191.872 236.966 191.872C235.404 191.872 234.139 190.667 234.139 189.181C234.139 187.695 235.404 186.49 236.966 186.49C238.528 186.49 239.793 187.695 239.793 189.181Z" fill="black"/>
<path fill-rule="evenodd" clip-rule="evenodd" d="M238.412 185.335C238.689 185.826 238.495 186.438 237.979 186.702C237.698 186.845 237.273 187.138 236.971 187.504C236.671 187.867 236.588 188.174 236.655 188.441C236.791 188.983 236.44 189.528 235.87 189.658C235.301 189.787 234.729 189.453 234.593 188.911C234.318 187.819 234.782 186.888 235.304 186.256C235.824 185.627 236.496 185.168 236.976 184.923C237.492 184.66 238.135 184.844 238.412 185.335Z" fill="black"/>
</g>
<path d="M228.484 194.699C228.484 195.48 227.851 196.113 227.07 196.113C226.289 196.113 225.656 195.48 225.656 194.699C225.656 193.919 226.289 193.286 227.07 193.286C227.851 193.286 228.484 193.919 228.484 194.699Z" fill="black"/>
<path fill-rule="evenodd" clip-rule="evenodd" d="M214.378 186.908C214.504 186.407 214.977 186.113 215.433 186.252L220.679 187.848C221.639 188.14 221.668 189.625 220.719 189.962L215.468 191.826C215.017 191.986 214.534 191.714 214.388 191.219C214.243 190.724 214.49 190.193 214.941 190.033L217.937 188.969L214.976 188.068C214.519 187.929 214.251 187.41 214.378 186.908Z" fill="black"/>
<path fill-rule="evenodd" clip-rule="evenodd" d="M215.455 181.17C214.44 181.322 213.619 181.849 213.202 182.258C212.812 182.641 212.185 182.635 211.802 182.245C211.419 181.855 211.425 181.228 211.816 180.845C212.486 180.188 213.677 179.435 215.163 179.213C216.694 178.984 218.474 179.331 220.214 180.794C220.632 181.146 220.686 181.77 220.335 182.189C219.983 182.607 219.359 182.661 218.94 182.309C217.635 181.212 216.425 181.025 215.455 181.17Z" fill="#905A09"/>
<path fill-rule="evenodd" clip-rule="evenodd" d="M236.661 181.17C235.646 181.322 234.825 181.849 234.407 182.258C234.017 182.641 233.391 182.635 233.008 182.245C232.625 181.855 232.631 181.228 233.021 180.845C233.692 180.188 234.882 179.435 236.369 179.213C237.899 178.984 239.68 179.331 241.42 180.794C241.838 181.146 241.892 181.77 241.54 182.189C241.189 182.607 240.564 182.661 240.146 182.309C238.841 181.212 237.631 181.025 236.661 181.17Z" fill="#905A09"/>
<path d="M224.071 201.126C223.848 200.858 223.652 200.563 223.486 200.249C222.758 198.867 224.095 197.527 225.656 197.527L228.484 197.527C230.045 197.527 231.382 198.867 230.654 200.249C230.488 200.563 230.292 200.858 230.069 201.126C229.274 202.08 228.195 202.616 227.07 202.616C225.945 202.616 224.866 202.08 224.071 201.126Z" fill="#E16037"/>
<path fill-rule="evenodd" clip-rule="evenodd" d="M240.244 149.354C240.317 148.78 240.355 148.195 240.355 147.601C240.355 140.039 234.269 133.91 226.761 133.91C219.254 133.91 213.168 140.039 213.168 147.601C213.168 148.157 213.201 148.706 213.265 149.245C200.35 153.473 191.247 163.665 191.247 175.566C191.247 179.879 192.443 183.968 194.583 187.63C195.575 185.934 196.769 184.329 198.141 182.836L214.087 184.057L216.279 172.514C216.7 172.411 217.124 172.314 217.551 172.224V184.089H235.902V172.283C236.371 172.386 236.836 172.496 237.297 172.614L239.47 184.057L255.063 182.863C256.425 184.348 257.611 185.944 258.596 187.631C260.737 183.969 261.933 179.88 261.933 175.566C261.933 163.766 252.984 153.647 240.244 149.354Z" fill="#925319"/>
<path fill-rule="evenodd" clip-rule="evenodd" d="M65.4779 14.7742C59.2776 14.7742 54.2513 19.8005 54.2513 26.0007V41.7177C54.2513 47.9179 59.2776 52.9442 65.4779 52.9442H90.8465C93.0919 55.4556 96.5157 57.9582 101.571 59.7351C101.947 59.8671 102.263 59.2217 101.96 58.963C100.232 57.485 98.5003 55.3336 97.9882 52.7291C103.136 51.7071 107.016 47.1656 107.016 41.7177V26.0007C107.016 19.8005 101.99 14.7742 95.7899 14.7742H65.4779Z" fill="#337AFF"/>
<ellipse cx="69.4077" cy="34.4176" rx="3.92932" ry="3.92927" fill="white"/>
<ellipse cx="80.6347" cy="34.4176" rx="3.92932" ry="3.92927" fill="white"/>
<ellipse cx="91.8596" cy="34.4176" rx="3.92932" ry="3.92927" fill="white"/>
<path fill-rule="evenodd" clip-rule="evenodd" d="M156.58 113.27C162.78 113.27 167.806 118.296 167.806 124.496V140.213C167.806 146.413 162.78 151.44 156.58 151.44H131.211C128.965 153.951 125.542 156.453 120.486 158.23C120.111 158.362 119.795 157.717 120.097 157.458C121.825 155.98 123.557 153.829 124.069 151.224C118.922 150.202 115.041 145.661 115.041 140.213V124.496C115.041 118.296 120.067 113.27 126.268 113.27H156.58Z" fill="#337AFF"/>
<ellipse cx="3.92932" cy="3.92927" rx="3.92932" ry="3.92927" transform="matrix(-1 0 0 1 156.579 128.983)" fill="white"/>
<ellipse cx="3.92932" cy="3.92927" rx="3.92932" ry="3.92927" transform="matrix(-1 0 0 1 145.352 128.983)" fill="white"/>
<ellipse cx="3.92932" cy="3.92927" rx="3.92932" ry="3.92927" transform="matrix(-1 0 0 1 134.127 128.983)" fill="white"/>
<path d="M60.3219 305.648C60.3219 306.388 60.5589 307.107 61.0328 307.805C61.512 308.503 62.1448 309.099 62.9313 309.594C63.7177 310.083 64.5563 310.409 65.4469 310.57L64.7594 311.805C64.0146 311.643 63.301 311.378 62.6188 311.008C61.9365 310.638 61.3271 310.188 60.7906 309.656C60.2594 309.12 59.8453 308.529 59.5484 307.883C59.2464 308.523 58.8297 309.112 58.2984 309.648C57.7724 310.18 57.1682 310.63 56.4859 311C55.8036 311.37 55.0875 311.638 54.3375 311.805L53.6813 310.57C54.5615 310.404 55.3922 310.076 56.1734 309.586C56.9547 309.091 57.5797 308.497 58.0484 307.805C58.5224 307.107 58.7594 306.388 58.7594 305.648V304.586H60.3219V305.648ZM66.025 315.82H53.2125V314.586H66.025V315.82ZM79.7988 310.383H77.6269V317.648H76.1425V303.664H77.6269V309.164H79.7988V310.383ZM68.7206 312.898C70.856 312.898 72.929 312.69 74.9394 312.273L75.1113 313.523C73.9967 313.747 72.8899 313.906 71.7909 314C70.6972 314.089 69.5696 314.133 68.4081 314.133H67.2519V305.023H68.7206V312.898ZM91.8225 317.695H90.3381V303.664H91.8225V317.695ZM84.3381 304.711C85.0308 304.711 85.6506 304.914 86.1975 305.32C86.7444 305.721 87.1715 306.294 87.4788 307.039C87.7913 307.779 87.9475 308.638 87.9475 309.617C87.9475 310.602 87.7913 311.466 87.4788 312.211C87.1715 312.956 86.7444 313.531 86.1975 313.938C85.6506 314.339 85.0308 314.539 84.3381 314.539C83.635 314.539 83.01 314.339 82.4631 313.938C81.9163 313.531 81.4866 312.958 81.1741 312.219C80.8668 311.474 80.7131 310.607 80.7131 309.617C80.7131 308.633 80.8668 307.771 81.1741 307.031C81.4866 306.286 81.9163 305.714 82.4631 305.312C83.01 304.911 83.635 304.711 84.3381 304.711ZM84.3381 306.039C83.9058 306.039 83.523 306.185 83.1897 306.477C82.8616 306.768 82.6064 307.185 82.4241 307.727C82.2418 308.263 82.1506 308.893 82.1506 309.617C82.1506 310.346 82.2418 310.982 82.4241 311.523C82.6064 312.065 82.8616 312.482 83.1897 312.773C83.523 313.065 83.9058 313.211 84.3381 313.211C84.7652 313.211 85.1428 313.065 85.4709 312.773C85.7991 312.482 86.0543 312.065 86.2366 311.523C86.4189 310.982 86.51 310.346 86.51 309.617C86.51 308.893 86.4189 308.263 86.2366 307.727C86.0543 307.185 85.7991 306.768 85.4709 306.477C85.1428 306.185 84.7652 306.039 84.3381 306.039ZM101.862 306.273H100.331V312.859C100.94 312.818 101.586 312.758 102.268 312.68L102.362 313.773C101.081 313.977 99.7186 314.115 98.2759 314.188C96.8384 314.255 95.3463 314.289 93.7994 314.289L93.6431 313.055L95.4244 313.031V306.273H94.065V305.055H101.862V306.273ZM105.409 317.664H103.94V310.102H101.409V308.883H103.94V303.664H105.409V317.664ZM96.8775 313.008C97.565 312.992 98.2421 312.969 98.9088 312.938V306.273H96.8775V313.008ZM119.183 312.195H117.776V308.508H116.229V312.117H114.839V303.867H116.229V307.289H117.776V303.68H119.183V312.195ZM119.183 317.664H117.714V314.055H109.495V312.836H119.183V317.664ZM113.964 306.086H112.854V310.086C113.224 310.06 113.677 310.013 114.214 309.945L114.276 311.055C112.62 311.346 110.302 311.492 107.323 311.492L107.167 310.273C107.406 310.273 107.854 310.268 108.511 310.258V306.086H107.417V304.852H113.964V306.086ZM109.886 310.234C110.61 310.214 111.146 310.195 111.495 310.18V306.086H109.886V310.234ZM132.113 312.023H127.878V314.758H133.566V315.977H120.753V314.758H126.394V312.023H122.363V304.742H131.972V305.961H123.863V307.758H131.675V308.93H123.863V310.836H132.113V312.023ZM145.886 317.695H144.402V303.664H145.886V317.695ZM141.605 310.039H136.574V313.102C137.803 313.096 138.931 313.057 139.957 312.984C140.988 312.911 142.058 312.784 143.168 312.602L143.308 313.82C142.141 314.018 141.009 314.154 139.91 314.227C138.816 314.299 137.595 314.336 136.246 314.336H135.058V308.852H140.089V306.133H135.043V304.93H141.605V310.039ZM158.527 304.898C158.522 305.508 158.744 306.096 159.192 306.664C159.645 307.227 160.257 307.706 161.027 308.102C161.798 308.492 162.637 308.747 163.543 308.867L162.965 310.086C162.205 309.966 161.483 309.758 160.801 309.461C160.119 309.164 159.514 308.797 158.988 308.359C158.462 307.922 158.051 307.432 157.754 306.891C157.452 307.432 157.038 307.922 156.512 308.359C155.991 308.797 155.392 309.164 154.715 309.461C154.038 309.753 153.319 309.961 152.559 310.086L151.965 308.867C152.871 308.747 153.707 308.492 154.473 308.102C155.238 307.711 155.845 307.234 156.293 306.672C156.746 306.104 156.975 305.513 156.981 304.898V304.133H158.527V304.898ZM164.121 312.68H158.434V317.664H156.981V312.68H151.356V311.461H164.121V312.68ZM177.676 315.992H164.864V314.742H168.364V312.273H166.426V307.82H174.645V305.867H166.395V304.648H176.114V309.023H167.895V311.055H176.442V312.273H174.317V314.742H177.676V315.992ZM172.864 314.742V312.273H169.801V314.742H172.864ZM182.653 306.352C182.653 306.867 182.76 307.372 182.973 307.867C183.192 308.357 183.513 308.799 183.934 309.195C184.356 309.586 184.861 309.893 185.45 310.117L184.669 311.258C184.033 311.013 183.484 310.667 183.02 310.219C182.562 309.771 182.203 309.25 181.942 308.656C181.677 309.328 181.304 309.927 180.825 310.453C180.346 310.979 179.778 311.383 179.122 311.664L178.309 310.508C178.919 310.242 179.442 309.885 179.88 309.438C180.317 308.984 180.648 308.49 180.872 307.953C181.101 307.417 181.216 306.883 181.216 306.352V304.539H182.653V306.352ZM190.309 312.289H188.903V308.539H187.263V311.852H185.888V303.93H187.263V307.32H188.903V303.68H190.309V312.289ZM185.622 312.555C186.591 312.555 187.432 312.656 188.145 312.859C188.859 313.062 189.408 313.357 189.794 313.742C190.184 314.122 190.382 314.576 190.388 315.102C190.382 315.628 190.184 316.081 189.794 316.461C189.408 316.846 188.859 317.138 188.145 317.336C187.432 317.539 186.591 317.638 185.622 317.633C184.653 317.638 183.812 317.539 183.098 317.336C182.385 317.138 181.835 316.846 181.45 316.461C181.07 316.081 180.882 315.628 180.888 315.102C180.882 314.576 181.07 314.122 181.45 313.742C181.835 313.357 182.385 313.062 183.098 312.859C183.812 312.656 184.653 312.555 185.622 312.555ZM185.622 313.695C184.945 313.695 184.359 313.753 183.864 313.867C183.374 313.977 182.999 314.138 182.739 314.352C182.479 314.56 182.351 314.81 182.356 315.102C182.351 315.393 182.479 315.646 182.739 315.859C182.999 316.068 183.377 316.227 183.872 316.336C184.367 316.445 184.95 316.497 185.622 316.492C186.294 316.497 186.874 316.445 187.364 316.336C187.859 316.227 188.236 316.068 188.497 315.859C188.763 315.651 188.898 315.398 188.903 315.102C188.898 314.659 188.604 314.315 188.02 314.07C187.442 313.82 186.643 313.695 185.622 313.695ZM202.607 305.086C202.602 306.565 202.409 307.922 202.029 309.156C201.649 310.385 200.992 311.534 200.06 312.602C199.133 313.664 197.872 314.602 196.279 315.414L195.451 314.289C196.654 313.669 197.649 312.984 198.435 312.234C199.221 311.484 199.831 310.656 200.263 309.75L195.732 310.18L195.497 308.898L200.724 308.57C200.938 307.862 201.073 307.102 201.13 306.289H196.216V305.086H202.607ZM207.122 317.664H205.654V310.43H202.576V309.211H205.654V303.664H207.122V317.664ZM221.771 312.883H218.631V317.742H217.146V312.883H213.631V317.742H212.146V312.883H208.959V311.664H221.771V312.883ZM220.162 309.914H210.568V304.398H220.162V309.914ZM212.021 308.727H218.677V305.586H212.021V308.727ZM234.108 317.664H232.623V303.664H234.108V317.664ZM224.811 312.82C227.102 312.805 229.248 312.591 231.248 312.18L231.451 313.43C230.264 313.669 229.102 313.841 227.967 313.945C226.831 314.049 225.68 314.102 224.514 314.102H223.342V305.023H224.811V312.82ZM243.772 306.117H238.319V308.82H243.241V310.008H238.319V313.148C239.59 313.143 240.704 313.109 241.663 313.047C242.621 312.984 243.605 312.872 244.616 312.711L244.772 313.914C243.72 314.086 242.681 314.203 241.655 314.266C240.634 314.323 239.413 314.352 237.991 314.352H236.85V304.898H243.772V306.117ZM247.631 317.664H246.131V303.664H247.631V317.664Z" fill="#333333"/>
<path d="M234.536 258.048H256.104V266.112H234.536V258.048ZM235.304 276.48H259.688V284.8H225V240H258.856V248.32H235.304V276.48Z" fill="#B2CDFF"/>
<path d="M198.256 285.336C194.8 285.336 191.579 284.781 188.592 283.672C185.648 282.52 183.088 280.899 180.912 278.808C178.736 276.717 177.029 274.264 175.792 271.448C174.597 268.632 174 265.539 174 262.168C174 258.797 174.597 255.704 175.792 252.888C177.029 250.072 178.736 247.619 180.912 245.528C183.131 243.437 185.712 241.837 188.656 240.728C191.6 239.576 194.821 239 198.32 239C202.203 239 205.701 239.683 208.816 241.048C211.973 242.371 214.619 244.333 216.752 246.936L210.096 253.08C208.56 251.331 206.853 250.029 204.976 249.176C203.099 248.28 201.051 247.832 198.832 247.832C196.741 247.832 194.821 248.173 193.072 248.856C191.323 249.539 189.808 250.52 188.528 251.8C187.248 253.08 186.245 254.595 185.52 256.344C184.837 258.093 184.496 260.035 184.496 262.168C184.496 264.301 184.837 266.243 185.52 267.992C186.245 269.741 187.248 271.256 188.528 272.536C189.808 273.816 191.323 274.797 193.072 275.48C194.821 276.163 196.741 276.504 198.832 276.504C201.051 276.504 203.099 276.077 204.976 275.224C206.853 274.328 208.56 272.984 210.096 271.192L216.752 277.336C214.619 279.939 211.973 281.923 208.816 283.288C205.701 284.653 202.181 285.336 198.256 285.336Z" fill="#337AFF"/>
<path d="M122 284.8L141.968 240H152.208L172.24 284.8H161.36L144.976 245.248H149.072L132.624 284.8H122ZM131.984 275.2L134.736 267.328H157.776L160.592 275.2H131.984Z" fill="#337AFF"/>
<path d="M97.6 260.16H119.104V268.48H97.6V260.16ZM98.368 284.8H88V240H121.856V248.32H98.368V284.8Z" fill="#337AFF"/>
<path d="M61.24 285.336C57.656 285.336 54.2213 284.867 50.936 283.928C47.6507 282.947 45.0053 281.688 43 280.152L46.52 272.344C48.44 273.709 50.7013 274.84 53.304 275.736C55.9493 276.589 58.616 277.016 61.304 277.016C63.352 277.016 64.9947 276.824 66.232 276.44C67.512 276.013 68.4507 275.437 69.048 274.712C69.6453 273.987 69.944 273.155 69.944 272.216C69.944 271.021 69.4747 270.083 68.536 269.4C67.5973 268.675 66.36 268.099 64.824 267.672C63.288 267.203 61.5813 266.776 59.704 266.392C57.8693 265.965 56.0133 265.453 54.136 264.856C52.3013 264.259 50.616 263.491 49.08 262.552C47.544 261.613 46.2853 260.376 45.304 258.84C44.3653 257.304 43.896 255.341 43.896 252.952C43.896 250.392 44.5787 248.067 45.944 245.976C47.352 243.843 49.4427 242.157 52.216 240.92C55.032 239.64 58.552 239 62.776 239C65.592 239 68.3653 239.341 71.096 240.024C73.8267 240.664 76.2373 241.645 78.328 242.968L75.128 250.84C73.0373 249.645 70.9467 248.771 68.856 248.216C66.7653 247.619 64.7173 247.32 62.712 247.32C60.7067 247.32 59.064 247.555 57.784 248.024C56.504 248.493 55.5867 249.112 55.032 249.88C54.4773 250.605 54.2 251.459 54.2 252.44C54.2 253.592 54.6693 254.531 55.608 255.256C56.5467 255.939 57.784 256.493 59.32 256.92C60.856 257.347 62.5413 257.773 64.376 258.2C66.2533 258.627 68.1093 259.117 69.944 259.672C71.8213 260.227 73.528 260.973 75.064 261.912C76.6 262.851 77.8373 264.088 78.776 265.624C79.7573 267.16 80.248 269.101 80.248 271.448C80.248 273.965 79.544 276.269 78.136 278.36C76.728 280.451 74.616 282.136 71.8 283.416C69.0267 284.696 65.5067 285.336 61.24 285.336Z" fill="#337AFF"/>
</svg>
