<svg width="69" height="18" viewBox="0 0 69 18" fill="none" xmlns="http://www.w3.org/2000/svg">
<rect width="69" height="18" rx="6" fill="#337AFF"/>
<path d="M16.2677 13.9492H15.3654V8.5H13.924V13.4336H13.0451V3.8125H13.924V7.73828H15.3654V3.53125H16.2677V13.9492ZM11.8615 4.89062C11.8537 6.33984 11.547 7.64453 10.9416 8.80469C10.34 9.96094 9.33414 10.9297 7.92398 11.7109L7.38492 11.0664C9.59977 9.83203 10.7912 8.02734 10.9591 5.65234H7.78336V4.89062H11.8615ZM18.852 5.47656H21.8871V3.97656H22.8012V8.51172H17.9496V3.97656H18.852V5.47656ZM21.8871 7.76172V6.19141H18.852V7.76172H21.8871ZM25.6488 5.79297H27.2191V6.56641H25.6488V8.92188H24.7348V3.53125H25.6488V5.79297ZM25.6488 11.9336H19.9301V13.082H26.0355V13.832H19.0277V11.2305H24.7348V10.1523H19.0043V9.41406H25.6488V11.9336ZM31.1627 6.73047C31.1588 7.27734 31.276 7.83398 31.5143 8.40039C31.7565 8.96289 32.0846 9.47266 32.4987 9.92969C32.9127 10.3828 33.3698 10.7266 33.8698 10.9609L33.3424 11.6875C32.7604 11.4062 32.235 10.9766 31.7663 10.3984C31.3014 9.82031 30.9498 9.17578 30.7116 8.46484C30.5553 8.97266 30.3405 9.45508 30.067 9.91211C29.7936 10.3691 29.4811 10.7734 29.1295 11.125C28.778 11.4727 28.4088 11.7461 28.0221 11.9453L27.4596 11.2188C27.9557 10.9805 28.4166 10.6191 28.8424 10.1348C29.2721 9.65039 29.6139 9.10742 29.8678 8.50586C30.1256 7.9043 30.2565 7.3125 30.2604 6.73047V5.37109H27.8346V4.60938H33.5065V5.37109H31.1627V6.73047ZM35.6979 7.75H37.444V8.53516H35.6979V13.9492H34.7838V3.53125H35.6979V7.75ZM41.2062 14.2773H40.2921L43.0226 4.11719H43.9484L41.2062 14.2773ZM50.4527 13H49.3863V5.61719H49.3395L47.277 6.98828V5.92188L49.3863 4.51562H50.4527V13ZM60.7127 13.9492H59.787V3.53125H60.7127V13.9492ZM57.6307 4.66797C57.6229 6.24219 57.2245 7.65625 56.4354 8.91016C55.6463 10.1602 54.412 11.1875 52.7323 11.9922L52.2284 11.2422C53.619 10.582 54.6834 9.76172 55.4217 8.78125C56.1639 7.80078 56.5877 6.67969 56.6932 5.41797H52.7088V4.66797H57.6307Z" fill="white"/>
</svg>
