<svg width="100" height="100" viewBox="0 0 100 100" fill="none" xmlns="http://www.w3.org/2000/svg">
<path d="M40.0699 55.5349C40.0699 60.8009 35.8009 65.0699 30.5349 65.0699C25.2689 65.0699 21 60.8009 21 55.5349C21 50.2689 25.2689 46 30.5349 46C35.8009 46 40.0699 50.2689 40.0699 55.5349Z" fill="#7A4201"/>
<path d="M79.0015 55.5349C79.0015 60.8009 74.7326 65.0699 69.4666 65.0699C64.2006 65.0699 59.9316 60.8009 59.9316 55.5349C59.9316 50.2689 64.2006 46 69.4666 46C74.7326 46 79.0015 50.2689 79.0015 55.5349Z" fill="#7A4201"/>
<path d="M74 50.0039C74 62.1542 63.2548 72.0039 50 72.0039C36.7452 72.0039 26 62.1542 26 50.0039C26 37.8536 36.7452 28.0039 50 28.0039C63.2548 28.0039 74 37.8536 74 50.0039Z" fill="#9D5500"/>
<mask id="mask0_7_1709" style="mask-type:alpha" maskUnits="userSpaceOnUse" x="26" y="28" width="48" height="44">
<path d="M74 50C74 62.1503 63.2548 72 50 72C36.7452 72 26 62.1503 26 50C26 37.8497 36.7452 28 50 28C63.2548 28 74 37.8497 74 50Z" fill="#FFAB49"/>
</mask>
<g mask="url(#mask0_7_1709)">
<path d="M41.7139 61.3024C41.7139 66.4399 37.5199 70.6048 32.3464 70.6048C27.1729 70.6048 22.979 66.4399 22.979 61.3024C22.979 56.1648 27.1729 52 32.3464 52C37.5199 52 41.7139 56.1648 41.7139 61.3024Z" fill="#764103"/>
<path d="M76.6343 61.3024C76.6343 66.4399 72.4403 70.6048 67.2668 70.6048C62.0934 70.6048 57.8994 66.4399 57.8994 61.3024C57.8994 56.1648 62.0934 52 67.2668 52C72.4403 52 76.6343 56.1648 76.6343 61.3024Z" fill="#764103"/>
</g>
</svg>
