<svg width="70" height="70" viewBox="0 0 70 70" fill="none" xmlns="http://www.w3.org/2000/svg">
<ellipse cx="24.636" cy="36.149" rx="21.1803" ry="13.9095" transform="rotate(60 24.636 36.149)" fill="#D70000"/>
<ellipse cx="27.9202" cy="34.2506" rx="21.1803" ry="13.9095" transform="rotate(60 27.9202 34.2506)" fill="#FD3A3A"/>
<path d="M35.2335 47.5471C33.2059 48.7178 30.4528 48.6146 27.4672 47.09C24.4981 45.5739 21.5025 42.7316 19.2754 38.8741C17.0482 35.0167 16.0846 31.0012 16.2561 27.6718C16.4286 24.324 17.7158 21.8881 19.7435 20.7174C21.7711 19.5468 24.5242 19.6499 27.5098 21.1745C30.4789 22.6907 33.4745 25.5329 35.7017 29.3904C37.9288 33.2479 38.8924 37.2633 38.7209 40.5927C38.5484 43.9406 37.2612 46.3764 35.2335 47.5471Z" fill="#FD3A3A" stroke="white" stroke-width="3.16124"/>
<path d="M32.0717 42.0746C31.5628 42.3684 30.5093 42.4041 28.8982 41.368C27.3643 40.3815 25.7016 38.6284 24.3607 36.3058C23.0197 33.9832 22.3328 31.6666 22.2455 29.845C22.1537 27.9317 22.7113 27.0372 23.2202 26.7434C23.729 26.4496 24.7825 26.414 26.3936 27.4501C27.9275 28.4365 29.5902 30.1897 30.9312 32.5123C32.2721 34.8349 32.959 37.1514 33.0464 38.973C33.1381 40.8863 32.5805 41.7809 32.0717 42.0746Z" fill="#FD3A3A" stroke="white" stroke-width="3.16124"/>
<path d="M34.1221 30.9141L29.1928 33.7568" stroke="#FFCD4D" stroke-width="1.2645" stroke-linecap="round"/>
<ellipse cx="36.5871" cy="29.4916" rx="3.79349" ry="4.10962" transform="rotate(60.0279 36.5871 29.4916)" fill="#FFCD4D"/>
<path d="M50.9152 17.4231L54.506 23.6496L42.6461 31.9851C40.1824 33.7166 36.7639 32.9611 35.2595 30.3524C33.7249 27.6914 34.8599 24.2873 37.6845 23.0797L50.9152 17.4231Z" fill="#52D6E0"/>
<ellipse cx="52.9577" cy="20.3927" rx="3.59384" ry="3.71822" transform="rotate(60.0279 52.9577 20.3927)" fill="#52D6E0"/>
<ellipse cx="54.5912" cy="16.0294" rx="3.17068" ry="5.60966" transform="rotate(30.0279 54.5912 16.0294)" fill="#52D6E0"/>
<ellipse cx="3.17068" cy="5.60966" rx="3.17068" ry="5.60966" transform="matrix(0.000486251 -1 -1 -0.00048608 63.041 24.1289)" fill="#52D6E0"/>
<path d="M42.4004 22.4922C42.632 22.8938 44.8132 26.676 45.8748 28.5169" stroke="#A9ECF1" stroke-width="1.2645" stroke-linecap="round"/>
<path d="M45.4541 21.457C45.6436 21.7856 47.4282 24.8801 48.2968 26.3863" stroke="#A9ECF1" stroke-width="1.2645" stroke-linecap="round"/>
</svg>
