<svg width="70" height="70" viewBox="0 0 70 70" fill="none" xmlns="http://www.w3.org/2000/svg">
<path fill-rule="evenodd" clip-rule="evenodd" d="M32.7991 4C29.8078 4 27.3828 6.42495 27.3828 9.41628V21.8194C26.4274 20.9741 25.1712 20.4609 23.7952 20.4609C21.3593 20.4609 19.299 22.069 18.6178 24.2814C17.721 23.6232 16.614 23.2344 15.4163 23.2344C12.425 23.2344 10 25.6593 10 28.6507V45.012C10 45.6686 10.1168 46.2979 10.3308 46.8802C10.6378 57.2568 19.1461 65.5744 29.5971 65.5744C38.6632 65.5744 46.2674 59.315 48.3238 50.882L58.2745 41.1665C60.7563 38.7434 60.536 35.0691 57.7825 32.9598C55.2723 31.0369 51.5233 31.0785 49 32.9368V15.5C49 12.4624 46.5376 10 43.5 10C40.9931 10 38.8779 11.6773 38.2154 13.9708V9.41628C38.2154 6.42495 35.7904 4 32.7991 4Z" fill="#FFBA68"/>
<path d="M18.7811 27.0508V37.7571C18.7811 38.4894 18.6525 39.2284 18.2651 39.85C17.28 41.4307 15.5855 42.7217 12.9766 41.2246" stroke="#FF9C27" stroke-width="1.5" stroke-linecap="round"/>
<path d="M44.9303 38L40.1158 42.1296C36.7603 42.1296 29.8741 43.864 29.1738 50.8016" stroke="#FF9C27" stroke-width="1.5" stroke-linecap="round"/>
<path d="M27.9694 23.5703V37.3548C27.9694 38.0057 27.856 38.6619 27.5064 39.2109C26.5569 40.7014 24.7169 42.2359 22.3652 40.4122" stroke="#FF9C27" stroke-width="1.5" stroke-linecap="round"/>
<path d="M38 19V33" stroke="#FF9C27" stroke-width="1.5" stroke-linecap="round"/>
<path d="M27.9995 34.9979C27.4982 36.9994 34.0439 30.3375 43.5719 35.5773" stroke="#FF9C27" stroke-width="1.5" stroke-linecap="round"/>
</svg>
