<svg width="70" height="70" viewBox="0 0 70 70" fill="none" xmlns="http://www.w3.org/2000/svg">
<path fill-rule="evenodd" clip-rule="evenodd" d="M34 4C31.2386 4 29 6.23858 29 9L29 15C29 12.2386 26.7614 10 24 10C21.2386 10 19 12.2386 19 15L19 21.7816C18.0963 20.5364 16.6291 19.7266 14.9727 19.7266C12.2264 19.7266 10 21.9529 10 24.6993L10 35.3672L10 45.9723V48.3777C10 49.2033 10.2012 49.982 10.5573 50.6673C12.6673 59.3869 20.5228 65.8632 29.8909 65.8632C38.3219 65.8632 45.5278 60.6178 48.4231 53.2124L58.4158 43.4555C60.6943 41.2307 60.4921 37.8572 57.9641 35.9206C55.4361 33.984 51.5396 34.2176 49.2611 36.4424L49 36.6973L49 15C49 12.2386 46.7614 10 44 10C41.2386 10 39 12.2386 39 15V9C39 6.23858 36.7614 4 34 4Z" fill="#FFBA68"/>
<path d="M19.9434 26.9844L19.9434 39.6422" stroke="#FF9C27" stroke-width="1.5" stroke-linecap="round"/>
<path d="M39 22V36" stroke="#FF9C27" stroke-width="1.5" stroke-linecap="round"/>
<path d="M46.1634 40.5469L41.7432 44.3384C38.6624 44.3384 32.3402 45.9308 31.6973 52.3006" stroke="#FF9C27" stroke-width="1.5" stroke-linecap="round"/>
<path d="M29 18V35" stroke="#FF9C27" stroke-width="1.5" stroke-linecap="round"/>
<path d="M18.5236 41.4347C22.9053 38.0434 34.0505 32.5706 43.5785 37.8103" stroke="#FF9C27" stroke-width="1.5" stroke-linecap="round"/>
</svg>
