<svg width="70" height="70" viewBox="0 0 70 70" fill="none" xmlns="http://www.w3.org/2000/svg">
<path fill-rule="evenodd" clip-rule="evenodd" d="M43.5 7C40.4624 7 38 9.46243 38 12.5V18.321C37.3439 16.0681 35.2638 14.4219 32.7991 14.4219C30.13 14.4219 27.9118 16.3526 27.4649 18.8936C26.4999 18.0042 25.211 17.4609 23.7952 17.4609C21.3593 17.4609 19.299 19.069 18.6178 21.2814C17.721 20.6232 16.614 20.2344 15.4163 20.2344C12.425 20.2344 10 22.6593 10 25.6507L10 42.012C10 42.6686 10.1168 43.2979 10.3308 43.8802C10.6378 54.2568 19.1461 62.5744 29.5971 62.5744C38.6632 62.5744 46.2674 56.315 48.3238 47.882L58.2745 38.1665C60.7563 35.7434 60.536 32.0691 57.7825 29.9598C55.2723 28.0369 51.5233 28.0785 49 29.9368V12.5C49 9.46243 46.5376 7 43.5 7Z" fill="#FFBA68"/>
<path d="M37.572 19.8516L37.572 32.7182C37.572 33.3258 37.4784 33.943 37.1385 34.4466C36.2656 35.7396 34.426 37.0921 31.5762 35.7553" stroke="#FF9C27" stroke-width="1.5" stroke-linecap="round"/>
<path d="M18.7811 24.0508V34.7571C18.7811 35.4894 18.6525 36.2284 18.2651 36.85C17.28 38.4307 15.5855 39.7217 12.9766 38.2246" stroke="#FF9C27" stroke-width="1.5" stroke-linecap="round"/>
<path d="M44.9303 35L40.1158 39.1296C36.7603 39.1296 29.8741 40.864 29.1738 47.8016" stroke="#FF9C27" stroke-width="1.5" stroke-linecap="round"/>
<path d="M27.9694 20.5703V34.3548C27.9694 35.0057 27.856 35.6619 27.5064 36.2109C26.5569 37.7014 24.7169 39.2359 22.3652 37.4122" stroke="#FF9C27" stroke-width="1.5" stroke-linecap="round"/>
</svg>
