<svg width="70" height="70" viewBox="0 0 70 70" fill="none" xmlns="http://www.w3.org/2000/svg">
<path fill-rule="evenodd" clip-rule="evenodd" d="M32.7991 4C29.8078 4 27.3828 6.42495 27.3828 9.41628V13.2519C26.5475 11.3378 24.6381 10 22.4163 10C19.425 10 17 12.425 17 15.4163V23.4696C16.4991 23.3167 15.9673 23.2344 15.4163 23.2344C12.425 23.2344 10 25.6593 10 28.6507V45.012C10 45.6686 10.1168 46.2979 10.3308 46.8802C10.6378 57.2568 19.1461 65.5744 29.5971 65.5744C38.6632 65.5744 46.2674 59.315 48.3238 50.882L58.2745 41.1665C60.7563 38.7434 60.536 35.0691 57.7825 32.9598C55.2723 31.0369 51.5233 31.0785 49 32.9368V15.5C49 12.4624 46.5376 10 43.5 10C40.9931 10 38.8779 11.6773 38.2154 13.9708V9.41628C38.2154 6.42495 35.7904 4 32.7991 4Z" fill="#FFBA68"/>
<path d="M18.7811 27.0508V37.7571C18.7811 38.4894 18.6525 39.2284 18.2651 39.85C17.28 41.4307 15.5855 42.7217 12.9766 41.2246" stroke="#FF9C27" stroke-width="1.5" stroke-linecap="round"/>
<path d="M44.9303 38L40.1158 42.1296C36.7603 42.1296 29.8741 43.864 29.1738 50.8016" stroke="#FF9C27" stroke-width="1.5" stroke-linecap="round"/>
<path d="M38 19V33" stroke="#FF9C27" stroke-width="1.5" stroke-linecap="round"/>
<path d="M28 20V34" stroke="#FF9C27" stroke-width="1.5" stroke-linecap="round"/>
<path d="M21.9991 36.9977C21.9979 36.4172 33.5004 30.4986 43.5722 35.5782" stroke="#FF9C27" stroke-width="1.5" stroke-linecap="round"/>
</svg>
