<svg width="70" height="70" viewBox="0 0 70 70" fill="none" xmlns="http://www.w3.org/2000/svg">
<path d="M50.5413 36.1389C52.6855 40.483 54.7717 45.3741 52.8068 49.8021C50.0075 56.1104 43.482 59.7142 35.8786 59.7142C25.7235 59.7142 17.4912 52.0391 17.4912 42.5714C17.4912 34.0081 27.3161 15.9257 35.6128 11.0693C37.2124 10.133 39.1999 9.76157 40.9181 10.4567C46.2675 12.621 43.7196 22.3181 50.5413 36.1389Z" fill="#FF570F"/>
<path d="M28.6897 42.1681C28.946 42.2031 29.1784 42.3784 29.2595 42.624C31.2848 48.7565 28.7312 53.0937 25.7802 54.1514C22.7653 55.2321 18.6923 51.5635 16.6829 45.9575C14.707 40.4447 15.0938 28.1225 17.3175 24.809C17.3909 24.6997 17.5037 24.6127 17.6349 24.6008C20.0603 24.3819 13.2522 40.0597 28.6897 42.1681Z" fill="#FF570F"/>
<path d="M30.1163 52.2591C30.2563 52.2354 30.4074 52.254 30.535 52.3165C34.5262 54.2707 35.8649 56.617 35.3278 57.7455C34.782 58.8924 32.189 60.2366 28.5263 58.4934C24.9605 56.7963 16.9851 51.6535 16.5936 48.2453C16.5734 48.0698 16.6399 47.8742 16.8076 47.8186C18.1229 47.3824 19.8427 53.9923 30.1163 52.2591Z" fill="#FF570F"/>
<path d="M43.2464 51.7692C43.107 51.7653 42.9626 51.8031 42.8462 51.8797C39.1327 54.3258 38.0828 56.7939 38.7433 57.8203C39.4144 58.8632 42.1275 59.8201 45.5386 57.625C48.8556 55.4904 56.1142 49.4104 56.123 46.0356C56.1235 45.8549 56.0302 45.6631 55.8517 45.6354C54.5095 45.4268 53.5552 52.0624 43.2464 51.7692Z" fill="#FF570F"/>
<path d="M20.2211 18.8074C19.0373 20.3945 19.9962 24.2321 18.1391 23.5456C17.0711 23.1508 17.5576 21.2954 18.1223 20.3066C18.6631 19.3596 19.3483 18.6008 20.0194 18.044C21.14 17.1142 21.5831 17.3729 20.5627 18.4116C20.4424 18.534 20.3268 18.6657 20.2211 18.8074Z" fill="#FF570F"/>
<path d="M51.7423 34.7601C49.2126 41.079 37.7577 49.0765 43.692 52.41C44.0814 52.6288 44.4803 52.8113 44.8805 52.9548C48.2933 54.178 52.3718 51.5094 53.9902 46.9942C55.0773 44.6778 55.7214 41.2942 55.8701 38.0192C56.1631 31.5637 54.1441 28.761 51.7423 34.7601Z" fill="#FF570F"/>
<path d="M46.3011 40.1479C48.0695 44.3387 50.0586 49.0121 47.9478 53.0413C45.7149 57.3033 41.3003 59.7125 36.2192 59.7125C28.885 59.7125 22.9395 53.7196 22.9395 46.327C22.9395 38.9344 30.545 20.8945 37.8792 20.8945C44.1605 20.8945 41.3873 28.5035 46.3011 40.1479Z" fill="#FFA113"/>
<path d="M41.2415 44.7761C42.5361 49.0925 44.8644 54.2569 41.4476 57.1951C40.0612 58.3873 38.2287 59.0335 36.2194 59.0335C31.894 59.0335 28.3877 55.4588 28.3877 51.0491C28.3877 46.6395 32.873 35.8789 37.1983 35.8789C40.4201 35.8789 39.6027 39.3121 41.2415 44.7761Z" fill="#FFE166"/>
</svg>
