<svg width="70" height="70" viewBox="0 0 70 70" fill="none" xmlns="http://www.w3.org/2000/svg">
<path d="M40.7445 41.7271C43.2309 46.0336 54.9712 58.3056 59.2777 55.8193C63.5843 53.333 58.8263 37.0298 56.3399 32.7233C53.8535 28.4168 48.3467 26.9414 44.0402 29.4277C39.7337 31.914 38.2581 37.4207 40.7445 41.7271Z" fill="#575757"/>
<path d="M29.3307 41.7271C26.8443 46.0336 15.104 58.3056 10.7975 55.8193C6.49092 53.333 11.2489 37.0298 13.7353 32.7233C16.2217 28.4168 21.7284 26.9414 26.035 29.4277C30.3415 31.914 31.8171 37.4207 29.3307 41.7271Z" fill="#575757"/>
<rect x="12.6953" y="18" width="44.3274" height="20.778" rx="9.72821" fill="#212121"/>
<rect x="22.3916" y="36.0078" width="24.9341" height="12.4668" rx="6.2334" fill="#212121"/>
<path d="M30.0548 28.3881C30.0548 32.2376 26.9341 35.3582 23.0846 35.3582C19.235 35.3582 16.1144 32.2376 16.1144 28.3881C16.1144 24.5387 19.235 21.4181 23.0846 21.4181C26.9341 21.4181 30.0548 24.5387 30.0548 28.3881Z" fill="#505050" stroke="#959595" stroke-width="1.29709"/>
<path d="M53.6046 28.3881C53.6046 32.2376 50.484 35.3582 46.6344 35.3582C42.7848 35.3582 39.6642 32.2376 39.6642 28.3881C39.6642 24.5387 42.7848 21.4181 46.6344 21.4181C50.484 21.4181 53.6046 24.5387 53.6046 28.3881Z" fill="#505050" stroke="#959595" stroke-width="1.29709"/>
<path d="M32.8264 42.2427C32.8264 44.5621 30.9461 46.4424 28.6266 46.4424C26.3072 46.4424 24.4269 44.5621 24.4269 42.2427C24.4269 39.9233 26.3072 38.0431 28.6266 38.0431C30.9461 38.0431 32.8264 39.9233 32.8264 42.2427Z" fill="#9F9F9F" stroke="#BFBFBF" stroke-width="1.29709"/>
<ellipse cx="34.8593" cy="34.622" rx="2.77046" ry="2.7704" fill="#535353"/>
<ellipse cx="46.7218" cy="25.0831" rx="1.73154" ry="1.7315" fill="#FD3A3A"/>
<ellipse cx="50.4413" cy="28.2784" rx="1.7315" ry="1.73154" transform="rotate(90 50.4413 28.2784)" fill="#FD3A3A"/>
<ellipse cx="46.7218" cy="31.9932" rx="1.73154" ry="1.7315" fill="#BFBFBF"/>
<ellipse cx="42.9999" cy="28.2784" rx="1.7315" ry="1.73154" transform="rotate(90 42.9999 28.2784)" fill="#BFBFBF"/>
<path d="M45.2922 42.2427C45.2922 44.5621 43.4119 46.4424 41.0924 46.4424C38.773 46.4424 36.8927 44.5621 36.8927 42.2427C36.8927 39.9233 38.773 38.0431 41.0924 38.0431C43.4119 38.0431 45.2922 39.9233 45.2922 42.2427Z" fill="#9F9F9F" stroke="#BFBFBF" stroke-width="1.29709"/>
<path d="M35.9198 34.6274C35.9198 35.2133 35.4448 35.6883 34.8589 35.6883C34.2729 35.6883 33.7979 35.2133 33.7979 34.6274C33.7979 34.0415 34.2729 33.5665 34.8589 33.5665C35.4448 33.5665 35.9198 34.0415 35.9198 34.6274Z" fill="#535353" stroke="#FD3A3A" stroke-width="0.648547"/>
<rect x="21.6035" y="23.8828" width="2.65771" height="9.03602" rx="0.497722" fill="#BFBFBF"/>
<rect x="27.4502" y="27.0742" width="2.65765" height="9.03621" rx="0.497722" transform="rotate(90 27.4502 27.0742)" fill="#BFBFBF"/>
<path d="M24.2594 27.0742L21.3359 29.9976" stroke="#505050" stroke-width="0.497722" stroke-linecap="round"/>
<path d="M21.6039 27.0742L24.5273 29.9976" stroke="#505050" stroke-width="0.497722" stroke-linecap="round"/>
</svg>
