<svg width="70" height="70" viewBox="0 0 70 70" fill="none" xmlns="http://www.w3.org/2000/svg">
<rect x="10.04" y="52.6562" width="49.9397" height="8.32328" rx="3.7037" fill="#ABABAB"/>
<rect x="11.8896" y="10" width="46.2405" height="30.827" rx="3.7037" fill="#BEBEBE"/>
<path d="M11.3742 43.9229C11.6719 42.1371 13.217 40.8281 15.0275 40.8281H54.993C56.8035 40.8281 58.3486 42.1371 58.6463 43.9229L60.3017 53.8557C60.678 56.1132 58.9371 58.1683 56.6484 58.1683H13.3721C11.0834 58.1683 9.34251 56.1132 9.71876 53.8557L11.3742 43.9229Z" fill="#BEBEBE"/>
<path d="M13.0649 43.0522C13.1583 42.332 13.7717 41.793 14.4979 41.793H17.9525C18.6787 41.793 19.2922 42.332 19.3855 43.0522C19.4976 43.9168 18.8243 44.683 17.9525 44.683H14.4979C13.6261 44.683 12.9528 43.9168 13.0649 43.0522Z" fill="#444444"/>
<path d="M12.2069 46.8303C12.3338 46.1454 12.9312 45.6484 13.6278 45.6484H19.7869C20.4835 45.6484 21.0809 46.1454 21.2077 46.8303C21.3722 47.7187 20.6903 48.5385 19.7869 48.5385H13.6278C12.7243 48.5385 12.0424 47.7187 12.2069 46.8303Z" fill="#444444"/>
<path d="M44.7595 50.8383C44.8154 50.0837 45.4439 49.5 46.2005 49.5H46.9419C47.6985 49.5 48.3271 50.0837 48.383 50.8383C48.445 51.6761 47.782 52.39 46.9419 52.39H46.2005C45.3604 52.39 44.6974 51.6761 44.7595 50.8383Z" fill="#444444"/>
<path d="M22.6032 46.9867C22.6591 46.2321 23.2876 45.6484 24.0443 45.6484H24.7856C25.5423 45.6484 26.1708 46.2321 26.2267 46.9867C26.2888 47.8245 25.6258 48.5385 24.7856 48.5385H24.0443C23.2042 48.5385 22.5412 47.8245 22.6032 46.9867Z" fill="#444444"/>
<path d="M12.0056 50.8383C12.0615 50.0837 12.69 49.5 13.4466 49.5H14.188C14.9446 49.5 15.5732 50.0837 15.6291 50.8383C15.6911 51.6761 15.0281 52.39 14.188 52.39H13.4466C12.6065 52.39 11.9435 51.6761 12.0056 50.8383Z" fill="#444444"/>
<path d="M20.6755 43.1312C20.7314 42.3767 21.3599 41.793 22.1166 41.793H22.8579C23.6146 41.793 24.2431 42.3767 24.299 43.1312C24.361 43.9691 23.698 44.683 22.8579 44.683H22.1166C21.2764 44.683 20.6134 43.9691 20.6755 43.1312Z" fill="#444444"/>
<path d="M37.0524 46.9867C37.1083 46.2321 37.7369 45.6484 38.4935 45.6484H39.2349C39.9915 45.6484 40.62 46.2321 40.6759 46.9867C40.738 47.8245 40.075 48.5385 39.2349 48.5385H38.4935C37.6534 48.5385 36.9904 47.8245 37.0524 46.9867Z" fill="#444444"/>
<path d="M35.1257 43.1312C35.1816 42.3767 35.8101 41.793 36.5668 41.793H37.3081C38.0647 41.793 38.6933 42.3767 38.7492 43.1312C38.8112 43.9691 38.1482 44.683 37.3081 44.683H36.5668C35.7266 44.683 35.0636 43.9691 35.1257 43.1312Z" fill="#444444"/>
<path d="M44.7595 43.1312C44.8154 42.3767 45.4439 41.793 46.2005 41.793H46.9419C47.6985 41.793 48.3271 42.3767 48.383 43.1312C48.445 43.9691 47.782 44.683 46.9419 44.683H46.2005C45.3604 44.683 44.6974 43.9691 44.7595 43.1312Z" fill="#444444"/>
<path d="M49.5769 50.8383C49.6328 50.0837 50.2613 49.5 51.0179 49.5H51.7593C52.5159 49.5 53.1444 50.0837 53.2003 50.8383C53.2624 51.6761 52.5994 52.39 51.7593 52.39H51.0179C50.1778 52.39 49.5148 51.6761 49.5769 50.8383Z" fill="#444444"/>
<path d="M27.4187 46.9867C27.4746 46.2321 28.1031 45.6484 28.8597 45.6484H29.6011C30.3577 45.6484 30.9862 46.2321 31.0421 46.9867C31.1042 47.8245 30.4412 48.5385 29.6011 48.5385H28.8597C28.0196 48.5385 27.3566 47.8245 27.4187 46.9867Z" fill="#444444"/>
<path d="M16.823 50.8383C16.8788 50.0837 17.5074 49.5 18.264 49.5H19.0054C19.762 49.5 20.3905 50.0837 20.4464 50.8383C20.5085 51.6761 19.8455 52.39 19.0054 52.39H18.264C17.4239 52.39 16.7609 51.6761 16.823 50.8383Z" fill="#444444"/>
<path d="M25.4919 43.1312C25.5478 42.3767 26.1763 41.793 26.933 41.793H27.6743C28.431 41.793 29.0595 42.3767 29.1154 43.1312C29.1774 43.9691 28.5144 44.683 27.6743 44.683H26.933C26.0929 44.683 25.4298 43.9691 25.4919 43.1312Z" fill="#444444"/>
<path d="M41.8698 46.9867C41.9257 46.2321 42.5542 45.6484 43.3109 45.6484H44.0522C44.8089 45.6484 45.4374 46.2321 45.4933 46.9867C45.5554 47.8245 44.8924 48.5385 44.0522 48.5385H43.3109C42.4708 48.5385 41.8078 47.8245 41.8698 46.9867Z" fill="#444444"/>
<path d="M39.9421 43.1312C39.998 42.3767 40.6265 41.793 41.3832 41.793H42.1245C42.8812 41.793 43.5097 42.3767 43.5656 43.1312C43.6276 43.9691 42.9646 44.683 42.1245 44.683H41.3832C40.543 44.683 39.88 43.9691 39.9421 43.1312Z" fill="#444444"/>
<path d="M49.5769 43.1312C49.6328 42.3767 50.2613 41.793 51.0179 41.793H51.7593C52.5159 41.793 53.1444 42.3767 53.2003 43.1312C53.2624 43.9691 52.5994 44.683 51.7593 44.683H51.0179C50.1778 44.683 49.5148 43.9691 49.5769 43.1312Z" fill="#444444"/>
<path d="M54.3923 50.8383C54.4482 50.0837 55.0767 49.5 55.8334 49.5H56.5747C57.3313 49.5 57.9599 50.0837 58.0158 50.8383C58.0778 51.6761 57.4148 52.39 56.5747 52.39H55.8334C54.9932 52.39 54.3302 51.6761 54.3923 50.8383Z" fill="#444444"/>
<path d="M32.2351 46.9867C32.291 46.2321 32.9195 45.6484 33.6761 45.6484H34.4175C35.1741 45.6484 35.8026 46.2321 35.8585 46.9867C35.9206 47.8245 35.2576 48.5385 34.4175 48.5385H33.6761C32.836 48.5385 32.173 47.8245 32.2351 46.9867Z" fill="#444444"/>
<path d="M21.6384 50.8383C21.6943 50.0837 22.3228 49.5 23.0794 49.5H23.8208C24.5774 49.5 25.206 50.0837 25.2619 50.8383C25.3239 51.6761 24.6609 52.39 23.8208 52.39H23.0794C22.2393 52.39 21.5763 51.6761 21.6384 50.8383Z" fill="#444444"/>
<path d="M30.3093 43.1312C30.3652 42.3767 30.9937 41.793 31.7503 41.793H32.4917C33.2483 41.793 33.8769 42.3767 33.9328 43.1312C33.9948 43.9691 33.3318 44.683 32.4917 44.683H31.7503C30.9102 44.683 30.2472 43.9691 30.3093 43.1312Z" fill="#444444"/>
<path d="M46.9244 46.805C47.0615 46.132 47.6535 45.6484 48.3403 45.6484H55.399C56.0859 45.6484 56.6778 46.132 56.8149 46.805C56.9974 47.7006 56.313 48.5385 55.399 48.5385H48.3403C47.4264 48.5385 46.742 47.7006 46.9244 46.805Z" fill="#444444"/>
<path d="M27.017 50.4654C27.2205 49.887 27.767 49.5 28.3801 49.5H42.6031C43.2162 49.5 43.7627 49.887 43.9662 50.4654C44.2969 51.4053 43.5995 52.39 42.6031 52.39H28.3801C27.3837 52.39 26.6863 51.4053 27.017 50.4654Z" fill="#444444"/>
<path d="M26.978 54.7866C27.2012 53.9409 27.9662 53.3516 28.8409 53.3516H42.1423C43.017 53.3516 43.782 53.9409 44.0052 54.7866C44.3277 56.0086 43.4061 57.2049 42.1423 57.2049H28.8409C27.5771 57.2049 26.6555 56.0086 26.978 54.7866Z" fill="#969696"/>
<rect x="14.7803" y="12.8906" width="40.4604" height="25.0469" rx="2.77778" fill="#2B2B2B"/>
<path d="M16.707 40.8281H53.3141" stroke="#A0A0A0" stroke-width="1.5" stroke-linecap="round"/>
</svg>
