<svg width="70" height="70" viewBox="0 0 70 70" fill="none" xmlns="http://www.w3.org/2000/svg">
<path d="M25.0699 44.5349C25.0699 49.8009 20.8009 54.0699 15.5349 54.0699C10.2689 54.0699 6 49.8009 6 44.5349C6 39.2689 10.2689 35 15.5349 35C20.8009 35 25.0699 39.2689 25.0699 44.5349Z" fill="#FF9C27"/>
<path d="M64.0015 44.5349C64.0015 49.8009 59.7326 54.0699 54.4666 54.0699C49.2006 54.0699 44.9316 49.8009 44.9316 44.5349C44.9316 39.2689 49.2006 35 54.4666 35C59.7326 35 64.0015 39.2689 64.0015 44.5349Z" fill="#FF9C27"/>
<path d="M59 39.0039C59 51.1542 48.2548 61.0039 35 61.0039C21.7452 61.0039 11 51.1542 11 39.0039C11 26.8536 21.7452 17.0039 35 17.0039C48.2548 17.0039 59 26.8536 59 39.0039Z" fill="#FFBA68"/>
<mask id="mask0_35_2808" style="mask-type:alpha" maskUnits="userSpaceOnUse" x="11" y="17" width="48" height="44">
<path d="M59 39C59 51.1503 48.2548 61 35 61C21.7452 61 11 51.1503 11 39C11 26.8497 21.7452 17 35 17C48.2548 17 59 26.8497 59 39Z" fill="#FFAB49"/>
</mask>
<g mask="url(#mask0_35_2808)">
<path d="M26.7144 50.3024C26.7144 55.4399 22.5204 59.6048 17.3469 59.6048C12.1734 59.6048 7.97949 55.4399 7.97949 50.3024C7.97949 45.1648 12.1734 41 17.3469 41C22.5204 41 26.7144 45.1648 26.7144 50.3024Z" fill="#FF9A24"/>
<path d="M61.6343 50.3024C61.6343 55.4399 57.4403 59.6048 52.2668 59.6048C47.0934 59.6048 42.8994 55.4399 42.8994 50.3024C42.8994 45.1648 47.0934 41 52.2668 41C57.4403 41 61.6343 45.1648 61.6343 50.3024Z" fill="#FF9A24"/>
</g>
<path d="M36 46C36 46.5523 35.5523 47 35 47C34.4477 47 34 46.5523 34 46C34 45.4477 34.4477 45 35 45C35.5523 45 36 45.4477 36 46Z" fill="black"/>
<path d="M30 42.0967C30 43.1478 29.1046 44 28 44C26.8954 44 26 43.1478 26 42.0967C26 41.0455 26.8954 40.1933 28 40.1933C29.1046 40.1933 30 41.0455 30 42.0967Z" fill="black"/>
<path fill-rule="evenodd" clip-rule="evenodd" d="M29.0227 39.3764C29.2186 39.7238 29.0815 40.1564 28.7165 40.3428C28.5181 40.4441 28.2174 40.6515 28.0035 40.9103C27.791 41.1675 27.7325 41.3845 27.78 41.5736C27.8763 41.9569 27.6278 42.342 27.225 42.4337C26.8221 42.5254 26.4175 42.2889 26.3211 41.9055C26.1271 41.1331 26.4554 40.4745 26.8245 40.0279C27.1922 39.5829 27.6679 39.2582 28.0073 39.085C28.3723 38.8986 28.8269 39.0291 29.0227 39.3764Z" fill="black"/>
<path d="M44 42.0967C44 43.1478 43.1046 44 42 44C40.8954 44 40 43.1478 40 42.0967C40 41.0455 40.8954 40.1933 42 40.1933C43.1046 40.1933 44 41.0455 44 42.0967Z" fill="black"/>
<path fill-rule="evenodd" clip-rule="evenodd" d="M43.0227 39.3764C43.2186 39.7238 43.0815 40.1564 42.7165 40.3428C42.5181 40.4441 42.2174 40.6515 42.0035 40.9103C41.791 41.1675 41.7325 41.3845 41.78 41.5736C41.8763 41.9569 41.6278 42.342 41.225 42.4337C40.8221 42.5254 40.4175 42.2889 40.3211 41.9055C40.1271 41.1331 40.4554 40.4745 40.8245 40.0279C41.1922 39.5829 41.6679 39.2582 42.0073 39.085C42.3723 38.8986 42.8269 39.0291 43.0227 39.3764Z" fill="black"/>
<path fill-rule="evenodd" clip-rule="evenodd" d="M29.4957 49.2855C33.0803 50.4022 36.9197 50.4022 40.5043 49.2855C40.8892 49.1656 41.0927 48.789 40.9588 48.4442C40.825 48.0995 40.4044 47.9172 40.0196 48.0371C36.7507 49.0555 33.2493 49.0555 29.9804 48.0371C29.5956 47.9172 29.175 48.0995 29.0412 48.4442C28.9073 48.789 29.1108 49.1656 29.4957 49.2855Z" fill="#A75A00"/>
<path fill-rule="evenodd" clip-rule="evenodd" d="M27.0839 36.73C26.3659 36.8372 25.7851 37.21 25.49 37.4995C25.214 37.7702 24.7708 37.766 24.5001 37.49C24.2294 37.214 24.2336 36.7708 24.5096 36.5001C24.9838 36.0349 25.8261 35.5022 26.8772 35.3453C27.96 35.1837 29.2195 35.429 30.4503 36.464C30.7462 36.7128 30.7844 37.1544 30.5356 37.4503C30.2868 37.7462 29.8452 37.7844 29.5493 37.5355C28.6263 36.7594 27.7704 36.6275 27.0839 36.73Z" fill="#905A09"/>
<path fill-rule="evenodd" clip-rule="evenodd" d="M42.0839 36.73C41.3659 36.8372 40.7851 37.21 40.49 37.4995C40.214 37.7702 39.7708 37.766 39.5001 37.49C39.2294 37.214 39.2336 36.7708 39.5096 36.5001C39.9838 36.0349 40.8261 35.5022 41.8772 35.3453C42.96 35.1837 44.2195 35.429 45.4503 36.464C45.7462 36.7128 45.7844 37.1544 45.5356 37.4503C45.2868 37.7462 44.8452 37.7844 44.5493 37.5355C43.6263 36.7594 42.7704 36.6275 42.0839 36.73Z" fill="#905A09"/>
<path d="M25.3903 11.592C32.6051 14.4633 37.5304 6.15334 50.4858 15.9779C54.0047 15.5484 50.4858 3.0513 55.6448 10.2071C59.772 15.9318 56.1439 17.4642 53.9552 17.0025C62.6331 22.7733 67.5584 41.4707 57.052 39.7537C44.3078 37.6709 49.0777 21.0562 45.7942 25.2112C42.5107 29.3662 16.2481 41.9054 10.8481 39.7537C7.04686 38.2391 7.04686 32.9299 10.8481 31.4437C10.3793 30.9051 7.79738 31.3141 7.04686 27.6208C6.29634 23.9275 14.7579 17.5168 18.3541 15.9779C18.3541 12.0537 17.7603 8.55556 25.3903 11.592Z" fill="black"/>
</svg>
