<svg width="70" height="70" viewBox="0 0 70 70" fill="none" xmlns="http://www.w3.org/2000/svg">
<ellipse cx="20.1508" cy="27.5413" rx="7.15082" ry="7.15066" fill="#494949"/>
<ellipse cx="50.8491" cy="27.5413" rx="7.15082" ry="7.15066" fill="#494949"/>
<ellipse cx="35.3232" cy="24.5789" rx="18.1387" ry="16.743" fill="#494949"/>
<path fill-rule="evenodd" clip-rule="evenodd" d="M51.787 23.5578C52.8613 21.7086 53.4609 19.648 53.4609 17.4757C53.4609 9.481 45.34 3 35.3223 3C25.3045 3 17.1836 9.481 17.1836 17.4757C17.1836 19.648 17.7832 21.7086 18.8575 23.5578C21.7369 18.6015 28.0266 15.1641 35.3223 15.1641C42.618 15.1641 48.9076 18.6015 51.787 23.5578Z" fill="#494949"/>
<rect x="31" y="32.5586" width="9" height="14" fill="#494949"/>
<path d="M17 54C17 48.4772 21.4772 44 27 44H44C49.5228 44 54 48.4772 54 54V61H17V54Z" fill="#494949"/>
</svg>
