<svg width="70" height="70" viewBox="0 0 70 70" fill="none" xmlns="http://www.w3.org/2000/svg">
<path d="M25.0699 45.531C25.0699 50.797 20.8009 55.066 15.5349 55.066C10.2689 55.066 6 50.797 6 45.531C6 40.265 10.2689 35.9961 15.5349 35.9961C20.8009 35.9961 25.0699 40.265 25.0699 45.531Z" fill="#65B118"/>
<path d="M64.0015 45.531C64.0015 50.797 59.7326 55.066 54.4666 55.066C49.2006 55.066 44.9316 50.797 44.9316 45.531C44.9316 40.265 49.2006 35.9961 54.4666 35.9961C59.7326 35.9961 64.0015 40.265 64.0015 45.531Z" fill="#65B118"/>
<path d="M59 40C59 52.1503 48.2548 62 35 62C21.7452 62 11 52.1503 11 40C11 27.8497 21.7452 18 35 18C48.2548 18 59 27.8497 59 40Z" fill="#AAD77D"/>
<mask id="mask0_133_49401" style="mask-type:alpha" maskUnits="userSpaceOnUse" x="11" y="18" width="48" height="44">
<path d="M59 40C59 52.1503 48.2548 62 35 62C21.7452 62 11 52.1503 11 40C11 27.8497 21.7452 18 35 18C48.2548 18 59 27.8497 59 40Z" fill="#FFAB49"/>
</mask>
<g mask="url(#mask0_133_49401)">
<path d="M27 51.3024C27 56.4399 22.8061 60.6048 17.6326 60.6048C12.4591 60.6048 8.26514 56.4399 8.26514 51.3024C8.26514 46.1648 12.4591 42 17.6326 42C22.8061 42 27 46.1648 27 51.3024Z" fill="#79C42E"/>
<path d="M61.7349 51.3024C61.7349 56.4399 57.5409 60.6048 52.3674 60.6048C47.1939 60.6048 43 56.4399 43 51.3024C43 46.1648 47.1939 42 52.3674 42C57.5409 42 61.7349 46.1648 61.7349 51.3024Z" fill="#79C42E"/>
</g>
<path d="M36 46.9961C36 47.5484 35.5523 47.9961 35 47.9961C34.4477 47.9961 34 47.5484 34 46.9961C34 46.4438 34.4477 45.9961 35 45.9961C35.5523 45.9961 36 46.4438 36 46.9961Z" fill="black"/>
<path d="M39.4645 44.2426C38.9266 43.5972 38.5239 42.8198 38.2783 41.9739C37.9703 40.9132 38.8954 40 40 40L46 40C47.1046 40 48.0297 40.9132 47.7217 41.9739C47.4761 42.8198 47.0734 43.5972 46.5355 44.2426C45.5979 45.3679 44.3261 46 43 46C41.6739 46 40.4021 45.3679 39.4645 44.2426Z" fill="white"/>
<path d="M23.4645 44.2426C22.9266 43.5972 22.5239 42.8198 22.2783 41.9739C21.9703 40.9132 22.8954 40 24 40L30 40C31.1046 40 32.0297 40.9132 31.7217 41.9739C31.4761 42.8198 31.0734 43.5972 30.5355 44.2426C29.5979 45.3679 28.3261 46 27 46C25.6739 46 24.4021 45.3679 23.4645 44.2426Z" fill="white"/>
<path fill-rule="evenodd" clip-rule="evenodd" d="M27.4029 52.3617C27.6048 52.6914 28.0357 52.795 28.3654 52.5932L29.7648 51.7364C30.7093 51.1581 31.8897 51.1242 32.866 51.6472C34.199 52.3613 35.8008 52.3613 37.1338 51.6472C38.1101 51.1242 39.2905 51.1581 40.2351 51.7364L41.6344 52.5932C41.9641 52.795 42.395 52.6914 42.5969 52.3617C42.7988 52.032 42.6951 51.6011 42.3654 51.3992L40.9661 50.5425C39.5975 49.7045 37.8872 49.6553 36.4727 50.4131C35.5527 50.9059 34.4471 50.9059 33.5271 50.4131C32.1126 49.6553 30.4023 49.7045 29.0337 50.5425L27.6344 51.3992C27.3047 51.6011 27.201 52.032 27.4029 52.3617Z" fill="#A75A00"/>
<path d="M29 42C29 43.1046 28.1046 44 27 44C25.8954 44 25 43.1046 25 42C25 40.8954 25.8954 40 27 40C28.1046 40 29 40.8954 29 42Z" fill="black"/>
<path d="M45 42C45 43.1046 44.1046 44 43 44C41.8954 44 41 43.1046 41 42C41 40.8954 41.8954 40 43 40C44.1046 40 45 40.8954 45 42Z" fill="black"/>
<path fill-rule="evenodd" clip-rule="evenodd" d="M22.5 37C22.5 36.1716 23.1716 35.5 24 35.5H30C30.8284 35.5 31.5 36.1716 31.5 37C31.5 37.8284 30.8284 38.5 30 38.5H24C23.1716 38.5 22.5 37.8284 22.5 37Z" fill="#905A09"/>
<path fill-rule="evenodd" clip-rule="evenodd" d="M38.5 37C38.5 36.1716 39.1716 35.5 40 35.5H46C46.8284 35.5 47.5 36.1716 47.5 37C47.5 37.8284 46.8284 38.5 46 38.5H40C39.1716 38.5 38.5 37.8284 38.5 37Z" fill="#905A09"/>
<path d="M25.3903 11.592C32.6051 14.4633 37.5304 6.15334 50.4858 15.9779C54.0047 15.5484 50.4858 3.0513 55.6448 10.2071C59.772 15.9318 56.1439 17.4642 53.9552 17.0025C62.6331 22.7733 67.5584 41.4707 57.052 39.7537C44.3078 37.6709 49.0777 21.0562 45.7942 25.2112C42.5107 29.3662 16.2481 41.9054 10.8481 39.7537C7.04686 38.2391 7.04686 32.9299 10.8481 31.4437C10.3793 30.9051 7.79738 31.3141 7.04686 27.6208C6.29634 23.9275 14.7579 17.5168 18.3541 15.9779C18.3541 12.0537 17.7603 8.55556 25.3903 11.592Z" fill="black"/>
<path fill-rule="evenodd" clip-rule="evenodd" d="M32.5549 44.4483C32.4913 44.4832 32.428 44.5181 32.3647 44.5525C31.7459 44.8889 30.9649 44.6719 30.6203 44.0679C30.2757 43.4639 30.4979 42.7016 31.1167 42.3652C31.169 42.3368 31.2266 42.3047 31.2896 42.2697C31.8533 41.9557 32.8375 41.4077 34.0947 41.2057C35.5548 40.9711 37.2817 41.2045 39.2315 42.3985C39.8314 42.7659 40.0127 43.5385 39.6363 44.1241C39.2598 44.7097 38.4683 44.8866 37.8683 44.5192C36.4135 43.6283 35.315 43.5469 34.5114 43.676C33.731 43.8014 33.1324 44.1306 32.5549 44.4483Z" fill="black"/>
<path d="M31.26 42.6613C31.26 45.6132 28.822 48.0416 25.7705 48.0416C22.719 48.0416 20.281 45.6132 20.281 42.6613C20.281 39.7094 22.719 37.281 25.7705 37.281C28.822 37.281 31.26 39.7094 31.26 42.6613Z" stroke="black" stroke-width="2.56203"/>
<path d="M49.488 42.6613C49.488 45.6132 47.05 48.0416 43.9985 48.0416C40.947 48.0416 38.509 45.6132 38.509 42.6613C38.509 39.7094 40.947 37.281 43.9985 37.281C47.05 37.281 49.488 39.7094 49.488 42.6613Z" stroke="black" stroke-width="2.56203"/>
</svg>
