<svg width="70" height="70" viewBox="0 0 70 70" fill="none" xmlns="http://www.w3.org/2000/svg">
<path d="M25.0699 44.531C25.0699 49.797 20.8009 54.066 15.5349 54.066C10.2689 54.066 6 49.797 6 44.531C6 39.265 10.2689 34.9961 15.5349 34.9961C20.8009 34.9961 25.0699 39.265 25.0699 44.531Z" fill="#FF9C27"/>
<path d="M64.0015 44.531C64.0015 49.797 59.7326 54.066 54.4666 54.066C49.2006 54.066 44.9316 49.797 44.9316 44.531C44.9316 39.265 49.2006 34.9961 54.4666 34.9961C59.7326 34.9961 64.0015 39.265 64.0015 44.531Z" fill="#FF9C27"/>
<path d="M59 39C59 51.1503 48.2548 61 35 61C21.7452 61 11 51.1503 11 39C11 26.8497 21.7452 17 35 17C48.2548 17 59 26.8497 59 39Z" fill="#FFBA68"/>
<mask id="mask0_133_49403" style="mask-type:alpha" maskUnits="userSpaceOnUse" x="11" y="17" width="48" height="44">
<path d="M59 39C59 51.1503 48.2548 61 35 61C21.7452 61 11 51.1503 11 39C11 26.8497 21.7452 17 35 17C48.2548 17 59 26.8497 59 39Z" fill="#FFAB49"/>
</mask>
<g mask="url(#mask0_133_49403)">
<path d="M27 50.3024C27 55.4399 22.8061 59.6048 17.6326 59.6048C12.4591 59.6048 8.26514 55.4399 8.26514 50.3024C8.26514 45.1648 12.4591 41 17.6326 41C22.8061 41 27 45.1648 27 50.3024Z" fill="#FF9A24"/>
<path d="M61.7349 50.3024C61.7349 55.4399 57.5409 59.6048 52.3674 59.6048C47.1939 59.6048 43 55.4399 43 50.3024C43 45.1648 47.1939 41 52.3674 41C57.5409 41 61.7349 45.1648 61.7349 50.3024Z" fill="#FF9A24"/>
</g>
<path d="M36 45.9961C36 46.5484 35.5523 46.9961 35 46.9961C34.4477 46.9961 34 46.5484 34 45.9961C34 45.4438 34.4477 44.9961 35 44.9961C35.5523 44.9961 36 45.4438 36 45.9961Z" fill="black"/>
<path fill-rule="evenodd" clip-rule="evenodd" d="M29.4957 49.2855C33.0803 50.4022 36.9197 50.4022 40.5043 49.2855C40.8892 49.1656 41.0927 48.789 40.9588 48.4442C40.825 48.0995 40.4044 47.9172 40.0196 48.0371C36.7507 49.0555 33.2493 49.0555 29.9804 48.0371C29.5956 47.9172 29.175 48.0995 29.0412 48.4442C28.9073 48.789 29.1108 49.1656 29.4957 49.2855Z" fill="#A75A00"/>
<path fill-rule="evenodd" clip-rule="evenodd" d="M22.6501 37.6863C23.0092 38.4329 23.9727 38.7146 24.8022 38.3156L30.81 35.4258C31.6395 35.0268 32.0209 34.0982 31.6618 33.3516C31.3027 32.6051 30.3391 32.3233 29.5096 32.7223L23.5018 35.6121C22.6723 36.0111 22.291 36.9398 22.6501 37.6863Z" fill="black" stroke="black" stroke-linecap="round"/>
<path d="M25.2159 44.9397C24.4453 44.6051 23.736 44.0919 23.1362 43.4468C22.3841 42.6379 22.7997 41.4062 23.7863 40.9095L29.1453 38.2112C30.1318 37.7144 31.3688 38.114 31.5707 39.2C31.7318 40.0659 31.7217 40.9413 31.5316 41.7597C31.2001 43.1864 30.3485 44.323 29.1641 44.9194C27.9797 45.5157 26.5595 45.5231 25.2159 44.9397Z" fill="white"/>
<path fill-rule="evenodd" clip-rule="evenodd" d="M26.2142 42.4583C26.3324 42.7041 26.6923 42.7763 27.018 42.6196L29.3771 41.4849C29.7028 41.3282 29.871 41.002 29.7528 40.7562C29.6346 40.5104 29.2747 40.4382 28.949 40.5949L26.5899 41.7296C26.2642 41.8863 26.0959 42.2125 26.2142 42.4583Z" fill="black"/>
<path d="M44.4677 44.9397C45.2383 44.6051 45.9476 44.0919 46.5474 43.4468C47.2995 42.6379 46.8839 41.4062 45.8973 40.9095L40.5383 38.2112C39.5518 37.7144 38.3148 38.114 38.1129 39.2C37.9518 40.0659 37.9619 40.9413 38.152 41.7597C38.4835 43.1864 39.3351 44.323 40.5195 44.9194C41.7039 45.5157 43.1241 45.5231 44.4677 44.9397Z" fill="white"/>
<path fill-rule="evenodd" clip-rule="evenodd" d="M43.4694 42.4583C43.3512 42.7041 42.9913 42.7763 42.6656 42.6196L40.3065 41.4849C39.9808 41.3282 39.8126 41.002 39.9308 40.7562C40.049 40.5104 40.4089 40.4382 40.7346 40.5949L43.0937 41.7296C43.4194 41.8863 43.5876 42.2125 43.4694 42.4583Z" fill="black"/>
<path fill-rule="evenodd" clip-rule="evenodd" d="M47.6619 37.6863C47.3028 38.4329 46.3393 38.7146 45.5098 38.3156L39.502 35.4258C38.6725 35.0268 38.2911 34.0982 38.6502 33.3516C39.0093 32.6051 39.9729 32.3233 40.8024 32.7223L46.8102 35.6121C47.6397 36.0111 48.021 36.9398 47.6619 37.6863Z" fill="black" stroke="black" stroke-linecap="round"/>
<path d="M25.6824 14.748C5.97912 12.9813 7.64091 30.7522 11.2251 35.9997L23.9193 32.7593L26.556 24.5296C28.2818 34.5114 25.0998 33.6153 59.3779 36C69.2884 10.0849 30.7555 4.68985 25.6824 14.748Z" fill="black"/>
</svg>
