<svg width="70" height="70" viewBox="0 0 70 70" fill="none" xmlns="http://www.w3.org/2000/svg">
<path d="M25.0699 43.5349C25.0699 48.8009 20.8009 53.0699 15.5349 53.0699C10.2689 53.0699 6 48.8009 6 43.5349C6 38.2689 10.2689 34 15.5349 34C20.8009 34 25.0699 38.2689 25.0699 43.5349Z" fill="#FF9C27"/>
<path d="M64.0015 43.5349C64.0015 48.8009 59.7326 53.0699 54.4666 53.0699C49.2006 53.0699 44.9316 48.8009 44.9316 43.5349C44.9316 38.2689 49.2006 34 54.4666 34C59.7326 34 64.0015 38.2689 64.0015 43.5349Z" fill="#FF9C27"/>
<path d="M59 38.0039C59 50.1542 48.2548 60.0039 35 60.0039C21.7452 60.0039 11 50.1542 11 38.0039C11 25.8536 21.7452 16.0039 35 16.0039C48.2548 16.0039 59 25.8536 59 38.0039Z" fill="#FFBA68"/>
<mask id="mask0_35_2826" style="mask-type:alpha" maskUnits="userSpaceOnUse" x="11" y="16" width="48" height="44">
<path d="M59 38C59 50.1503 48.2548 60 35 60C21.7452 60 11 50.1503 11 38C11 25.8497 21.7452 16 35 16C48.2548 16 59 25.8497 59 38Z" fill="#FFAB49"/>
</mask>
<g mask="url(#mask0_35_2826)">
<path d="M26.7144 49.3024C26.7144 54.4399 22.5204 58.6048 17.3469 58.6048C12.1734 58.6048 7.97949 54.4399 7.97949 49.3024C7.97949 44.1648 12.1734 40 17.3469 40C22.5204 40 26.7144 44.1648 26.7144 49.3024Z" fill="#FF9A24"/>
<path d="M61.6343 49.3024C61.6343 54.4399 57.4403 58.6048 52.2668 58.6048C47.0934 58.6048 42.8994 54.4399 42.8994 49.3024C42.8994 44.1648 47.0934 40 52.2668 40C57.4403 40 61.6343 44.1648 61.6343 49.3024Z" fill="#FF9A24"/>
</g>
<path d="M36 45C36 45.5523 35.5523 46 35 46C34.4477 46 34 45.5523 34 45C34 44.4477 34.4477 44 35 44C35.5523 44 36 44.4477 36 45Z" fill="black"/>
<path d="M30 41.0967C30 42.1478 29.1046 43 28 43C26.8954 43 26 42.1478 26 41.0967C26 40.0455 26.8954 39.1933 28 39.1933C29.1046 39.1933 30 40.0455 30 41.0967Z" fill="black"/>
<path fill-rule="evenodd" clip-rule="evenodd" d="M29.0227 38.3764C29.2186 38.7238 29.0815 39.1564 28.7165 39.3428C28.5181 39.4441 28.2174 39.6515 28.0035 39.9103C27.791 40.1675 27.7325 40.3845 27.78 40.5736C27.8763 40.9569 27.6278 41.342 27.225 41.4337C26.8221 41.5254 26.4175 41.2889 26.3211 40.9055C26.1271 40.1331 26.4554 39.4745 26.8245 39.0279C27.1922 38.5829 27.6679 38.2582 28.0073 38.085C28.3723 37.8986 28.8269 38.0291 29.0227 38.3764Z" fill="black"/>
<path d="M44 41.0967C44 42.1478 43.1046 43 42 43C40.8954 43 40 42.1478 40 41.0967C40 40.0455 40.8954 39.1933 42 39.1933C43.1046 39.1933 44 40.0455 44 41.0967Z" fill="black"/>
<path fill-rule="evenodd" clip-rule="evenodd" d="M43.0227 38.3764C43.2186 38.7238 43.0815 39.1564 42.7165 39.3428C42.5181 39.4441 42.2174 39.6515 42.0035 39.9103C41.791 40.1675 41.7325 40.3845 41.78 40.5736C41.8763 40.9569 41.6278 41.342 41.225 41.4337C40.8221 41.5254 40.4175 41.2889 40.3211 40.9055C40.1271 40.1331 40.4554 39.4745 40.8245 39.0279C41.1922 38.5829 41.6679 38.2582 42.0073 38.085C42.3723 37.8986 42.8269 38.0291 43.0227 38.3764Z" fill="black"/>
<path fill-rule="evenodd" clip-rule="evenodd" d="M35 50L29.4957 48.2852C29.1108 48.1653 28.9073 47.7887 29.0412 47.4439C29.175 47.0992 29.5956 46.917 29.9804 47.0369L35 48.6006L40.0196 47.0369C40.4044 46.917 40.825 47.0992 40.9588 47.4439C41.0927 47.7887 40.8892 48.1653 40.5043 48.2852L35 50Z" fill="#A75A00"/>
<path fill-rule="evenodd" clip-rule="evenodd" d="M28.0064 35.9889C28.7285 36.0642 29.3839 35.848 29.7419 35.6413C30.0767 35.448 30.5048 35.5627 30.6981 35.8975C30.8914 36.2322 30.7768 36.6604 30.442 36.8537C29.8667 37.1859 28.9182 37.4916 27.8611 37.3813C26.7723 37.2677 25.6138 36.7159 24.6801 35.4066C24.4556 35.0919 24.5288 34.6547 24.8436 34.4303C25.1583 34.2058 25.5954 34.279 25.8199 34.5937C26.5201 35.5756 27.3161 35.9169 28.0064 35.9889Z" fill="#905A09"/>
<path fill-rule="evenodd" clip-rule="evenodd" d="M42.1772 35.9889C41.4551 36.0642 40.7996 35.848 40.4417 35.6413C40.1069 35.448 39.6788 35.5627 39.4855 35.8975C39.2922 36.2322 39.4068 36.6604 39.7416 36.8537C40.3169 37.1859 41.2654 37.4916 42.3225 37.3813C43.4113 37.2677 44.5698 36.7159 45.5035 35.4066C45.728 35.0919 45.6548 34.6547 45.34 34.4303C45.0253 34.2058 44.5881 34.279 44.3637 34.5937C43.6635 35.5756 42.8675 35.9169 42.1772 35.9889Z" fill="#905A09"/>
<path d="M25.6824 14.748C5.97912 12.9813 7.64091 30.7522 11.2251 35.9997L23.9193 32.7593L26.556 24.5296C28.2818 34.5114 25.0998 33.6153 59.3779 36C69.2884 10.0849 30.7555 4.68985 25.6824 14.748Z" fill="#FF7777"/>
</svg>
