<svg width="70" height="70" viewBox="0 0 70 70" fill="none" xmlns="http://www.w3.org/2000/svg">
<path d="M25.0699 47.5349C25.0699 52.8009 20.8009 57.0699 15.5349 57.0699C10.2689 57.0699 6 52.8009 6 47.5349C6 42.2689 10.2689 38 15.5349 38C20.8009 38 25.0699 42.2689 25.0699 47.5349Z" fill="#A66ABB"/>
<path d="M64.0015 47.5349C64.0015 52.8009 59.7326 57.0699 54.4666 57.0699C49.2006 57.0699 44.9316 52.8009 44.9316 47.5349C44.9316 42.2689 49.2006 38 54.4666 38C59.7326 38 64.0015 42.2689 64.0015 47.5349Z" fill="#A66ABB"/>
<path d="M59 42.0039C59 54.1542 48.2548 64.0039 35 64.0039C21.7452 64.0039 11 54.1542 11 42.0039C11 29.8536 21.7452 20.0039 35 20.0039C48.2548 20.0039 59 29.8536 59 42.0039Z" fill="#C6AAD0"/>
<mask id="mask0_133_49404" style="mask-type:alpha" maskUnits="userSpaceOnUse" x="11" y="20" width="48" height="44">
<path d="M59 42C59 54.1503 48.2548 64 35 64C21.7452 64 11 54.1503 11 42C11 29.8497 21.7452 20 35 20C48.2548 20 59 29.8497 59 42Z" fill="#FFAB49"/>
</mask>
<g mask="url(#mask0_133_49404)">
<path d="M26.7139 53.3024C26.7139 58.4399 22.5199 62.6048 17.3464 62.6048C12.1729 62.6048 7.979 58.4399 7.979 53.3024C7.979 48.1648 12.1729 44 17.3464 44C22.5199 44 26.7139 48.1648 26.7139 53.3024Z" fill="#BF92CF"/>
<path d="M61.6343 53.3024C61.6343 58.4399 57.4403 62.6048 52.2668 62.6048C47.0934 62.6048 42.8994 58.4399 42.8994 53.3024C42.8994 48.1648 47.0934 44 52.2668 44C57.4403 44 61.6343 48.1648 61.6343 53.3024Z" fill="#BF92CF"/>
<path fill-rule="evenodd" clip-rule="evenodd" d="M37.6027 55.3659C37.916 54.7952 37.982 54.1133 37.7971 53.4695C37.6123 52.8257 37.1878 52.2592 36.6071 51.8987C36.0249 51.5372 35.3316 51.4126 34.6812 51.5656C34.3049 51.6541 34.0863 52.0271 34.193 52.3986C34.2997 52.7702 34.6913 52.9997 35.0676 52.9112C35.3323 52.8489 35.6254 52.8966 35.8839 53.057C36.1438 53.2184 36.3454 53.4806 36.4343 53.79C36.5232 54.0995 36.4881 54.4173 36.3478 54.6728C36.2084 54.9268 35.978 55.0976 35.7133 55.1598C35.3369 55.2483 35.1184 55.6213 35.225 55.9929C35.3317 56.3645 35.7233 56.594 36.0997 56.5055C36.7501 56.3525 37.2886 55.9382 37.6027 55.3659Z" fill="#A75A00"/>
</g>
<path d="M36 49C36 49.5523 35.5523 50 35 50C34.4477 50 34 49.5523 34 49C34 48.4477 34.4477 48 35 48C35.5523 48 36 48.4477 36 49Z" fill="black"/>
<path d="M32 45C32 47.2091 30.2091 49 28 49C25.7909 49 24 47.2091 24 45C24 42.7909 25.7909 41 28 41C30.2091 41 32 42.7909 32 45Z" fill="white"/>
<path d="M30 45C30 46.1046 29.1046 47 28 47C26.8954 47 26 46.1046 26 45C26 43.8954 26.8954 43 28 43C29.1046 43 30 43.8954 30 45Z" fill="black"/>
<path d="M46 45C46 47.2091 44.2091 49 42 49C39.7909 49 38 47.2091 38 45C38 42.7909 39.7909 41 42 41C44.2091 41 46 42.7909 46 45Z" fill="white"/>
<path d="M44 45C44 46.1046 43.1046 47 42 47C40.8954 47 40 46.1046 40 45C40 43.8954 40.8954 43 42 43C43.1046 43 44 43.8954 44 45Z" fill="black"/>
<path fill-rule="evenodd" clip-rule="evenodd" d="M30.5254 39.3527C30.4391 39.7296 30.0636 39.9651 29.6868 39.8788L23.7575 38.521C23.3807 38.4347 23.1451 38.0592 23.2314 37.6824C23.3177 37.3055 23.6932 37.07 24.07 37.1563L29.9993 38.5141C30.3761 38.6004 30.6117 38.9759 30.5254 39.3527Z" fill="#905A09"/>
<path fill-rule="evenodd" clip-rule="evenodd" d="M39.1099 39.3527C39.1962 39.7296 39.5716 39.9651 39.9485 39.8788L45.8778 38.521C46.2546 38.4347 46.4901 38.0592 46.4038 37.6824C46.3175 37.3055 45.9421 37.07 45.5652 37.1563L39.636 38.5141C39.2591 38.6004 39.0236 38.9759 39.1099 39.3527Z" fill="#905A09"/>
<path fill-rule="evenodd" clip-rule="evenodd" d="M38.0159 16.1356C34.9694 14.3598 31.1244 11.1362 28.2772 5.70056C26.9146 3.09939 23.4173 8.18171 23.8552 13.7121C22.6495 12.2889 21.4894 10.6125 20.4598 8.64685C18.7109 5.30809 13.4449 14.6281 17.4979 21.3062C12.2768 25.0319 9 30.4011 9 36.37C9 39.8534 10.116 43.1325 12.0832 46C12.5094 44.8838 13.0547 43.8102 13.7071 42.789C13.6769 43.7431 14.3677 44.5291 15.3652 44.6064L17.6465 44.783C18.7478 44.8683 19.8058 44.0574 20.0097 42.9718L21.3767 35.6936C25.2919 33.4766 30.0518 32.1766 35.1852 32.1766C39.8353 32.1766 44.1789 33.2434 47.8658 35.0922L49.3457 42.9718C49.5496 44.0574 50.6077 44.8683 51.709 44.783L53.9903 44.6064C55.0915 44.5211 55.819 43.5719 55.6151 42.4863L55.3263 40.9485C56.5105 42.3931 57.4658 43.9725 58.1499 45.6522C59.9719 42.8685 61 39.7133 61 36.37C61 25.9192 50.9546 17.3065 38.0159 16.1356Z" fill="#337AFF"/>
</svg>
