<svg width="70" height="70" viewBox="0 0 70 70" fill="none" xmlns="http://www.w3.org/2000/svg">
<path d="M25.0699 42.5349C25.0699 47.8009 20.8009 52.0699 15.5349 52.0699C10.2689 52.0699 6 47.8009 6 42.5349C6 37.2689 10.2689 33 15.5349 33C20.8009 33 25.0699 37.2689 25.0699 42.5349Z" fill="#FF9C27"/>
<path d="M64.0015 42.5349C64.0015 47.8009 59.7326 52.0699 54.4666 52.0699C49.2006 52.0699 44.9316 47.8009 44.9316 42.5349C44.9316 37.2689 49.2006 33 54.4666 33C59.7326 33 64.0015 37.2689 64.0015 42.5349Z" fill="#FF9C27"/>
<path d="M59 37.0039C59 49.1542 48.2548 59.0039 35 59.0039C21.7452 59.0039 11 49.1542 11 37.0039C11 24.8536 21.7452 15.0039 35 15.0039C48.2548 15.0039 59 24.8536 59 37.0039Z" fill="#FFBA68"/>
<mask id="mask0_35_2868" style="mask-type:alpha" maskUnits="userSpaceOnUse" x="11" y="15" width="48" height="44">
<path d="M59 37C59 49.1503 48.2548 59 35 59C21.7452 59 11 49.1503 11 37C11 24.8497 21.7452 15 35 15C48.2548 15 59 24.8497 59 37Z" fill="#FFAB49"/>
</mask>
<g mask="url(#mask0_35_2868)">
<path d="M26.7144 48.3024C26.7144 53.4399 22.5204 57.6048 17.3469 57.6048C12.1734 57.6048 7.97949 53.4399 7.97949 48.3024C7.97949 43.1648 12.1734 39 17.3469 39C22.5204 39 26.7144 43.1648 26.7144 48.3024Z" fill="#FF9A24"/>
<path d="M61.6343 48.3024C61.6343 53.4399 57.4403 57.6048 52.2668 57.6048C47.0934 57.6048 42.8994 53.4399 42.8994 48.3024C42.8994 43.1648 47.0934 39 52.2668 39C57.4403 39 61.6343 43.1648 61.6343 48.3024Z" fill="#FF9A24"/>
</g>
<path d="M36 44C36 44.5523 35.5523 45 35 45C34.4477 45 34 44.5523 34 44C34 43.4477 34.4477 43 35 43C35.5523 43 36 43.4477 36 44Z" fill="black"/>
<path d="M37 48C37 49.1046 36.1046 50.0001 35 50.0001C33.8954 50.0001 33 49.1046 33 48C33 46.8954 33.8954 46 35 46C36.1046 46 37 46.8954 37 48Z" fill="#E16037"/>
<path fill-rule="evenodd" clip-rule="evenodd" d="M27.9453 33.5C28.2215 33.5 28.4453 33.7239 28.4453 34V35.4C28.4453 35.6761 28.2215 35.9 27.9453 35.9C27.6692 35.9 27.4453 35.6761 27.4453 35.4V34C27.4453 33.7239 27.6692 33.5 27.9453 33.5Z" fill="#905A09"/>
<path fill-rule="evenodd" clip-rule="evenodd" d="M31.1604 35.0512C31.393 35.2001 31.4609 35.5093 31.312 35.7419L30.514 36.9891C30.3651 37.2217 30.0559 37.2896 29.8233 37.1408C29.5907 36.9919 29.5228 36.6827 29.6716 36.4501L30.4697 35.2029C30.6185 34.9703 30.9278 34.9024 31.1604 35.0512Z" fill="#905A09"/>
<path fill-rule="evenodd" clip-rule="evenodd" d="M25.0711 35.0512C24.8385 35.2001 24.7706 35.5093 24.9194 35.7419L25.7175 36.9891C25.8663 37.2217 26.1755 37.2896 26.4081 37.1408C26.6407 36.9919 26.7086 36.6827 26.5598 36.4501L25.7617 35.2029C25.6129 34.9703 25.3037 34.9024 25.0711 35.0512Z" fill="#905A09"/>
<path d="M25 38C25 36.3431 26.3431 35 28 35C29.6569 35 31 36.3431 31 38V41C31 42.6569 29.6569 44 28 44C26.3431 44 25 42.6569 25 41V38Z" fill="#B67310"/>
<path d="M27.9056 37.2538C27.9378 37.1667 28.0609 37.1667 28.0931 37.2538L28.7937 39.1469C28.8038 39.1743 28.8254 39.1959 28.8527 39.206L30.7459 39.9065C30.833 39.9388 30.833 40.0619 30.7459 40.0941L28.8527 40.7946C28.8254 40.8048 28.8038 40.8263 28.7937 40.8537L28.0931 42.7469C28.0609 42.8339 27.9378 42.8339 27.9056 42.7469L27.205 40.8537C27.1949 40.8263 27.1733 40.8048 27.1459 40.7946L25.2528 40.0941C25.1657 40.0619 25.1657 39.9388 25.2528 39.9065L27.1459 39.206C27.1733 39.1959 27.1949 39.1743 27.205 39.1469L27.9056 37.2538Z" fill="white"/>
<path fill-rule="evenodd" clip-rule="evenodd" d="M30.6988 36.872C28.5518 35.2517 26.2108 36.1855 25.3012 36.872C25.0808 37.0383 24.7673 36.9945 24.6009 36.774C24.4346 36.5536 24.4784 36.2401 24.6988 36.0737C25.7892 35.2509 28.6483 34.0718 31.3012 36.0737C31.5216 36.2401 31.5655 36.5536 31.3991 36.774C31.2328 36.9945 30.9193 37.0383 30.6988 36.872Z" fill="#905A09"/>
<path fill-rule="evenodd" clip-rule="evenodd" d="M42.1777 33.5C42.4539 33.5 42.6777 33.7239 42.6777 34V35.4C42.6777 35.6761 42.4539 35.9 42.1777 35.9C41.9016 35.9 41.6777 35.6761 41.6777 35.4V34C41.6777 33.7239 41.9016 33.5 42.1777 33.5Z" fill="#905A09"/>
<path fill-rule="evenodd" clip-rule="evenodd" d="M45.3928 35.0512C45.6254 35.2001 45.6933 35.5093 45.5444 35.7419L44.7464 36.9891C44.5975 37.2217 44.2883 37.2896 44.0557 37.1408C43.8231 36.9919 43.7552 36.6827 43.9041 36.4501L44.7021 35.2029C44.851 34.9703 45.1602 34.9024 45.3928 35.0512Z" fill="#905A09"/>
<path fill-rule="evenodd" clip-rule="evenodd" d="M39.3035 35.0512C39.0709 35.2001 39.003 35.5093 39.1518 35.7419L39.9499 36.9891C40.0988 37.2217 40.408 37.2896 40.6406 37.1408C40.8732 36.9919 40.9411 36.6827 40.7922 36.4501L39.9942 35.2029C39.8453 34.9703 39.5361 34.9024 39.3035 35.0512Z" fill="#905A09"/>
<path d="M39.2324 38C39.2324 36.3431 40.5756 35 42.2324 35C43.8893 35 45.2324 36.3431 45.2324 38V41C45.2324 42.6569 43.8893 44 42.2324 44C40.5756 44 39.2324 42.6569 39.2324 41V38Z" fill="#B67310"/>
<path d="M42.138 37.2538C42.1702 37.1667 42.2933 37.1667 42.3256 37.2538L43.0261 39.1469C43.0362 39.1743 43.0578 39.1959 43.0852 39.206L44.9783 39.9065C45.0654 39.9388 45.0654 40.0619 44.9783 40.0941L43.0852 40.7946C43.0578 40.8048 43.0362 40.8263 43.0261 40.8537L42.3256 42.7469C42.2933 42.8339 42.1702 42.8339 42.138 42.7469L41.4375 40.8537C41.4273 40.8263 41.4057 40.8048 41.3784 40.7946L39.4852 40.0941C39.3982 40.0619 39.3982 39.9388 39.4852 39.9065L41.3784 39.206C41.4057 39.1959 41.4273 39.1743 41.4375 39.1469L42.138 37.2538Z" fill="white"/>
<path fill-rule="evenodd" clip-rule="evenodd" d="M44.9313 36.872C42.7842 35.2517 40.4433 36.1855 39.5336 36.872C39.3132 37.0383 38.9997 36.9945 38.8333 36.774C38.667 36.5536 38.7108 36.2401 38.9313 36.0737C40.0216 35.2509 42.8807 34.0718 45.5336 36.0737C45.7541 36.2401 45.7979 36.5536 45.6316 36.774C45.4652 36.9945 45.1517 37.0383 44.9313 36.872Z" fill="#905A09"/>
<path fill-rule="evenodd" clip-rule="evenodd" d="M27.0839 31.73C26.3659 31.8372 25.7851 32.21 25.49 32.4995C25.214 32.7702 24.7708 32.766 24.5001 32.49C24.2294 32.214 24.2336 31.7708 24.5096 31.5001C24.9838 31.0349 25.8261 30.5022 26.8772 30.3453C27.96 30.1837 29.2195 30.429 30.4503 31.464C30.7462 31.7128 30.7844 32.1544 30.5356 32.4503C30.2868 32.7462 29.8452 32.7844 29.5493 32.5355C28.6263 31.7594 27.7704 31.6275 27.0839 31.73Z" fill="#905A09"/>
<path fill-rule="evenodd" clip-rule="evenodd" d="M42.0839 31.73C41.3659 31.8372 40.7851 32.21 40.49 32.4995C40.214 32.7702 39.7708 32.766 39.5001 32.49C39.2294 32.214 39.2336 31.7708 39.5096 31.5001C39.9838 31.0349 40.8261 30.5022 41.8772 30.3453C42.96 30.1837 44.2195 30.429 45.4503 31.464C45.7462 31.7128 45.7844 32.1544 45.5356 32.4503C45.2868 32.7462 44.8452 32.7844 44.5493 32.5355C43.6263 31.7594 42.7704 31.6275 42.0839 31.73Z" fill="#905A09"/>
<path fill-rule="evenodd" clip-rule="evenodd" d="M61 30.37C61 33.7133 59.9719 36.8685 58.1499 39.6522C57.4658 37.9724 56.5105 36.3931 55.3263 34.9484L55.9843 38.452L49.7149 38.9375L47.8658 29.0922C44.1789 27.2434 39.8353 26.1766 35.1852 26.1766C30.0518 26.1766 25.2919 27.4766 21.3767 29.6936L19.6405 38.9375L13.3712 38.452L13.6737 36.8414C13.0361 37.8469 12.5021 38.9029 12.0832 40C10.116 37.1325 9 33.8534 9 30.37C9 19.12 20.6406 10 35 10C49.3594 10 61 19.12 61 30.37Z" fill="#B3B3B3"/>
</svg>
