<svg width="70" height="70" viewBox="0 0 70 70" fill="none" xmlns="http://www.w3.org/2000/svg">
<path d="M25.0699 44.531C25.0699 49.797 20.8009 54.066 15.5349 54.066C10.2689 54.066 6 49.797 6 44.531C6 39.265 10.2689 34.9961 15.5349 34.9961C20.8009 34.9961 25.0699 39.265 25.0699 44.531Z" fill="#FF9C27"/>
<path d="M64.0015 44.531C64.0015 49.797 59.7326 54.066 54.4666 54.066C49.2006 54.066 44.9316 49.797 44.9316 44.531C44.9316 39.265 49.2006 34.9961 54.4666 34.9961C59.7326 34.9961 64.0015 39.265 64.0015 44.531Z" fill="#FF9C27"/>
<path d="M59 39C59 51.1503 48.2548 61 35 61C21.7452 61 11 51.1503 11 39C11 26.8497 21.7452 17 35 17C48.2548 17 59 26.8497 59 39Z" fill="#FFBA68"/>
<mask id="mask0_133_49400" style="mask-type:alpha" maskUnits="userSpaceOnUse" x="11" y="17" width="48" height="44">
<path d="M59 39C59 51.1503 48.2548 61 35 61C21.7452 61 11 51.1503 11 39C11 26.8497 21.7452 17 35 17C48.2548 17 59 26.8497 59 39Z" fill="#FFAB49"/>
</mask>
<g mask="url(#mask0_133_49400)">
<path d="M27 50.3024C27 55.4399 22.8061 59.6048 17.6326 59.6048C12.4591 59.6048 8.26514 55.4399 8.26514 50.3024C8.26514 45.1648 12.4591 41 17.6326 41C22.8061 41 27 45.1648 27 50.3024Z" fill="#FF9A24"/>
<path d="M61.7349 50.3024C61.7349 55.4399 57.5409 59.6048 52.3674 59.6048C47.1939 59.6048 43 55.4399 43 50.3024C43 45.1648 47.1939 41 52.3674 41C57.5409 41 61.7349 45.1648 61.7349 50.3024Z" fill="#FF9A24"/>
</g>
<path d="M36 45.9961C36 46.5484 35.5523 46.9961 35 46.9961C34.4477 46.9961 34 46.5484 34 45.9961C34 45.4438 34.4477 44.9961 35 44.9961C35.5523 44.9961 36 45.4438 36 45.9961Z" fill="black"/>
<path d="M39.4645 43.2426C38.9266 42.5972 38.5239 41.8198 38.2783 40.9739C37.9703 39.9132 38.8954 39 40 39L46 39C47.1046 39 48.0297 39.9132 47.7217 40.9739C47.4761 41.8198 47.0734 42.5972 46.5355 43.2426C45.5979 44.3679 44.3261 45 43 45C41.6739 45 40.4021 44.3679 39.4645 43.2426Z" fill="white"/>
<path d="M23.4645 43.2426C22.9266 42.5972 22.5239 41.8198 22.2783 40.9739C21.9703 39.9132 22.8954 39 24 39L30 39C31.1046 39 32.0297 39.9132 31.7217 40.9739C31.4761 41.8198 31.0734 42.5972 30.5355 43.2426C29.5979 44.3679 28.3261 45 27 45C25.6739 45 24.4021 44.3679 23.4645 43.2426Z" fill="white"/>
<path fill-rule="evenodd" clip-rule="evenodd" d="M27.4029 51.3617C27.6048 51.6914 28.0357 51.795 28.3654 51.5932L29.7648 50.7364C30.7093 50.1581 31.8897 50.1242 32.866 50.6472C34.199 51.3613 35.8008 51.3613 37.1338 50.6472C38.1101 50.1242 39.2905 50.1581 40.2351 50.7364L41.6344 51.5932C41.9641 51.795 42.395 51.6914 42.5969 51.3617C42.7988 51.032 42.6951 50.6011 42.3654 50.3992L40.9661 49.5425C39.5975 48.7045 37.8872 48.6553 36.4727 49.4131C35.5527 49.9059 34.4471 49.9059 33.5271 49.4131C32.1126 48.6553 30.4023 48.7045 29.0337 49.5425L27.6344 50.3992C27.3047 50.6011 27.201 51.032 27.4029 51.3617Z" fill="#A75A00"/>
<path d="M29 41C29 42.1046 28.1046 43 27 43C25.8954 43 25 42.1046 25 41C25 39.8954 25.8954 39 27 39C28.1046 39 29 39.8954 29 41Z" fill="black"/>
<path d="M45 41C45 42.1046 44.1046 43 43 43C41.8954 43 41 42.1046 41 41C41 39.8954 41.8954 39 43 39C44.1046 39 45 39.8954 45 41Z" fill="black"/>
<path fill-rule="evenodd" clip-rule="evenodd" d="M22.5 36C22.5 35.1716 23.1716 34.5 24 34.5H30C30.8284 34.5 31.5 35.1716 31.5 36C31.5 36.8284 30.8284 37.5 30 37.5H24C23.1716 37.5 22.5 36.8284 22.5 36Z" fill="#905A09"/>
<path fill-rule="evenodd" clip-rule="evenodd" d="M38.5 36C38.5 35.1716 39.1716 34.5 40 34.5H46C46.8284 34.5 47.5 35.1716 47.5 36C47.5 36.8284 46.8284 37.5 46 37.5H40C39.1716 37.5 38.5 36.8284 38.5 36Z" fill="#905A09"/>
<path d="M25.6824 14.748C5.97912 12.9813 7.64091 30.7522 11.2251 35.9997L23.9193 32.7593L26.556 24.5296C28.2818 34.5114 25.0998 33.6153 59.3779 36C69.2884 10.0849 30.7555 4.68985 25.6824 14.748Z" fill="#6B4D20"/>
</svg>
