<svg width="70" height="70" viewBox="0 0 70 70" fill="none" xmlns="http://www.w3.org/2000/svg">
<path fill-rule="evenodd" clip-rule="evenodd" d="M20.6382 14C14.7629 14 10 18.7629 10 24.6382V39.5315C10 45.4069 14.7629 50.1698 20.6382 50.1698H44.6774C46.8052 52.5495 50.0496 54.921 54.8402 56.6047C55.196 56.7298 55.4954 56.1182 55.2088 55.8731C53.5712 54.4726 51.9302 52.4339 51.4449 49.9659C56.3229 48.9975 60 44.694 60 39.5316V24.6382C60 18.7629 55.2371 14 49.3618 14H20.6382Z" fill="#1BC86B"/>
<ellipse cx="24.3621" cy="32.614" rx="3.7234" ry="3.72336" fill="white"/>
<ellipse cx="35.0007" cy="32.614" rx="3.7234" ry="3.72336" fill="white"/>
<ellipse cx="45.6375" cy="32.614" rx="3.7234" ry="3.72336" fill="white"/>
</svg>
