<svg width="70" height="70" viewBox="0 0 70 70" fill="none" xmlns="http://www.w3.org/2000/svg">
<path fill-rule="evenodd" clip-rule="evenodd" d="M54.7494 47.0268C56.7278 48.5449 59.6593 47.9735 59.9241 45.4939C60.787 37.413 54.2949 27.383 43.371 21.0761C30.1712 13.4552 15.4992 14.1561 10.6 22.6417C5.70088 31.1273 12.4299 44.1842 25.6296 51.8051C30.8835 54.8384 36.3707 56.5534 41.382 56.9838C44.377 57.241 45.7382 53.8624 44.0743 51.3589C40.7349 46.3344 39.3362 42.4324 40.7335 41.0351C42.4576 39.3109 47.9951 41.8438 54.7494 47.0268ZM41.9769 35.0447C44.2218 36.3408 46.6982 36.2541 47.5083 34.851C48.3183 33.448 47.1552 31.26 44.9103 29.9639C42.6655 28.6679 40.189 28.7546 39.379 30.1576C38.569 31.5606 39.7321 33.7487 41.9769 35.0447Z" fill="#D5A05D"/>
<path fill-rule="evenodd" clip-rule="evenodd" d="M56.0629 44.4018C58.0412 45.9199 60.9728 45.3485 61.2376 42.8689C62.1005 34.788 55.6084 24.758 44.6845 18.4511C31.4847 10.8302 16.8126 11.5311 11.9135 20.0167C7.01435 28.5023 13.7433 41.5592 26.9431 49.1801C32.197 52.2134 37.6842 53.9284 42.6955 54.3588C45.6904 54.616 47.0517 51.2374 45.3878 48.7339C42.0484 43.7094 40.6496 39.8074 42.0469 38.4101C43.7711 36.6859 49.3086 39.2188 56.0629 44.4018ZM43.2904 32.4197C45.5353 33.7158 48.0117 33.6291 48.8218 32.226C49.6318 30.823 48.4687 28.635 46.2238 27.3389C43.979 26.0429 41.5025 26.1296 40.6925 27.5326C39.8824 28.9356 41.0456 31.1237 43.2904 32.4197Z" fill="#E1BB8B"/>
<path d="M31.5032 22.4785C30.8754 23.566 28.9138 22.7296 27.2934 22.4011C26.142 22.1677 24.8018 22.3183 23.783 21.7334C21.1984 20.2497 21.8002 18.3391 22.5706 17.0049C23.3671 15.6252 26.1059 14.6403 27.8003 17.0904C28.3108 17.8286 28.8711 18.551 29.6253 19.0378C31.3808 20.1709 32.2558 21.175 31.5032 22.4785Z" fill="#4ED62C"/>
<path d="M35.9006 19.6163C35.6802 20.5186 37.0099 21.1045 38.1043 21.744C39.1187 22.3367 40.0219 23.3734 41.1795 23.5736C43.248 23.9314 43.9082 22.5629 44.1891 21.4131C44.4837 20.2072 43.521 18.2084 41.3421 18.4927C40.452 18.6089 39.5498 18.7585 38.665 18.6072C37.1518 18.3484 36.1745 18.4955 35.9006 19.6163Z" fill="#FFE560"/>
<path d="M50.6273 34.6211C50.238 35.4644 51.4307 36.2943 52.3822 37.1318C53.2641 37.908 53.9517 39.0987 55.0494 39.5172C57.0109 40.265 57.9213 39.0484 58.4174 37.9738C58.9378 36.8469 58.3763 34.7005 56.1833 34.5618C55.2874 34.5051 54.3733 34.479 53.534 34.1608C52.0984 33.6166 51.111 33.5735 50.6273 34.6211Z" fill="#FA5C34"/>
<path d="M27.9171 32.9069C28.779 31.5114 27.4731 30.491 26.6562 29.2651C26.0047 28.2875 25.5976 27.0533 24.6899 26.3076C21.7238 23.8709 20.5568 24.3161 17.43 25.6155C16.6551 25.9375 15.9386 26.4875 15.8027 27.3155C15.4837 29.2582 16.5402 31.8633 19.933 32.028C20.8296 32.0715 21.7295 32.2352 22.5087 32.6808C25.0553 34.1373 26.8467 34.64 27.9171 32.9069Z" fill="#3DD3F3"/>
<path d="M25.4052 38.3589C26.1523 37.1184 27.4592 37.6613 28.7535 37.8391C29.9174 37.9989 31.2065 37.8054 32.2811 38.2801C35.3437 39.6332 35.5041 40.7724 35.7481 43.7435C35.8168 44.5798 35.6549 45.4753 34.9667 45.9554C33.5208 46.9638 31.067 47.1435 29.534 44.6024C29.0703 43.8338 28.5153 43.1052 27.7647 42.6129C25.5705 41.1741 24.4548 39.9369 25.4052 38.3589Z" fill="#AF4FCA"/>
</svg>
