<svg width="70" height="70" viewBox="0 0 70 70" fill="none" xmlns="http://www.w3.org/2000/svg">
<g clip-path="url(#clip0_35_2774)">
<path d="M20.7205 31.8107C21.6968 30.8344 23.2797 30.8344 24.256 31.8107L38.0579 45.6126C39.0342 46.5889 39.0342 48.1718 38.0579 49.1481L28.1331 59.0729C27.8538 59.3522 27.5124 59.5629 27.1225 59.6265C25.5038 59.8902 20.7255 60.0654 15.2644 54.6042C9.80326 49.1431 9.97839 44.3649 10.2421 42.7461C10.3057 42.3562 10.5164 42.0148 10.7957 41.7355L20.7205 31.8107Z" fill="#CACACA"/>
<path d="M56.6802 51.7146C52.1586 56.2362 37.9421 53.2034 27.303 42.5643C16.664 31.9252 13.6312 17.7087 18.1528 13.1871C22.6744 8.66548 34.9645 13.6247 45.6036 24.2637C56.2426 34.9028 61.2018 47.193 56.6802 51.7146Z" fill="#D9D9D9"/>
<ellipse cx="37.8975" cy="31.968" rx="23.1566" ry="9.53506" transform="rotate(45 37.8975 31.968)" fill="#6A6A6A"/>
<path d="M12.932 35.7448C14.5938 34.083 17.5856 34.8326 18.5857 36.9593C19.7988 39.5391 21.673 42.7128 24.4135 45.4534C27.154 48.1939 30.3278 50.068 32.9076 51.2812C35.0343 52.2813 35.7839 55.2731 34.1221 56.9349C33.498 57.559 32.6296 57.8765 31.7727 57.665C29.5434 57.1149 24.8476 55.4064 19.654 50.2129C14.4605 45.0193 12.7519 40.3235 12.2018 38.0941C11.9904 37.2373 12.3079 36.3689 12.932 35.7448Z" fill="#8D8D8D"/>
<mask id="mask0_35_2774" style="mask-type:alpha" maskUnits="userSpaceOnUse" x="20" y="14" width="36" height="36">
<ellipse cx="37.8975" cy="31.968" rx="23.1566" ry="9.53506" transform="rotate(45 37.8975 31.968)" fill="#9C9C9C"/>
</mask>
<g mask="url(#mask0_35_2774)">
<circle cx="35.0078" cy="34.8551" r="8.17291" transform="rotate(45 35.0078 34.8551)" fill="#C6C6C6"/>
</g>
</g>
<defs>
<clipPath id="clip0_35_2774">
<rect width="70" height="70" fill="white"/>
</clipPath>
</defs>
</svg>
