<svg width="70" height="70" viewBox="0 0 70 70" fill="none" xmlns="http://www.w3.org/2000/svg">
<path d="M10.565 52.5C14.1244 51.0762 14.5164 47.1714 14.2073 44.8018C14.1643 44.4721 14.5039 44.2026 14.8058 44.3419L26.8452 49.8986C26.9803 49.9609 27.0701 50.0997 27.0766 50.2484C27.8706 68.3515 15.71 70.516 9.96495 69.3294C9.56637 69.247 9.5968 68.7078 9.98209 68.5767C14.1394 67.1618 14.2984 63.2445 10.565 62C6.06496 60.5 5.56496 54.5 10.565 52.5Z" fill="#925319"/>
<path d="M58.5483 52.5C54.9889 51.0762 54.5969 47.1714 54.906 44.8018C54.949 44.4721 54.6094 44.2026 54.3075 44.3419L42.2681 49.8986C42.133 49.9609 42.0432 50.0997 42.0367 50.2484C41.2427 68.3515 53.4033 70.516 59.1483 69.3294C59.5469 69.247 59.5165 68.7078 59.1312 68.5767C54.9739 67.1618 54.8149 63.2445 58.5483 62C63.0483 60.5 63.5483 54.5 58.5483 52.5Z" fill="#925319"/>
<path d="M25.0699 44.1619C25.0699 49.4279 20.8009 53.6968 15.5349 53.6968C10.2689 53.6968 6 49.4279 6 44.1619C6 38.8959 10.2689 34.627 15.5349 34.627C20.8009 34.627 25.0699 38.8959 25.0699 44.1619Z" fill="#FF9C27"/>
<path d="M64.0015 44.1619C64.0015 49.4279 59.7326 53.6968 54.4666 53.6968C49.2006 53.6968 44.9316 49.4279 44.9316 44.1619C44.9316 38.8959 49.2006 34.627 54.4666 34.627C59.7326 34.627 64.0015 38.8959 64.0015 44.1619Z" fill="#FF9C27"/>
<path d="M59 38.6309C59 50.7811 48.2548 60.6309 35 60.6309C21.7452 60.6309 11 50.7811 11 38.6309C11 26.4806 21.7452 16.6309 35 16.6309C48.2548 16.6309 59 26.4806 59 38.6309Z" fill="#FFBA68"/>
<mask id="mask0_133_49399" style="mask-type:alpha" maskUnits="userSpaceOnUse" x="11" y="16" width="48" height="45">
<path d="M59 38.6309C59 50.7811 48.2548 60.6309 35 60.6309C21.7452 60.6309 11 50.7811 11 38.6309C11 26.4806 21.7452 16.6309 35 16.6309C48.2548 16.6309 59 26.4806 59 38.6309Z" fill="#FFAB49"/>
</mask>
<g mask="url(#mask0_133_49399)">
<path d="M27.0005 49.9332C27.0005 55.0708 22.8065 59.2356 17.6331 59.2356C12.4596 59.2356 8.26563 55.0708 8.26563 49.9332C8.26563 44.7957 12.4596 40.6309 17.6331 40.6309C22.8065 40.6309 27.0005 44.7957 27.0005 49.9332Z" fill="#FF9A24"/>
<path d="M61.7349 49.9332C61.7349 55.0708 57.5409 59.2356 52.3674 59.2356C47.1939 59.2356 43 55.0708 43 49.9332C43 44.7957 47.1939 40.6309 52.3674 40.6309C57.5409 40.6309 61.7349 44.7957 61.7349 49.9332Z" fill="#FF9A24"/>
<circle cx="28" cy="41.6309" r="3" fill="black"/>
<circle cx="27.3075" cy="40.9383" r="1.38462" fill="white"/>
<circle cx="28.9228" cy="43.0155" r="0.692308" fill="white"/>
<circle cx="42" cy="41.6309" r="3" fill="black"/>
<circle cx="41.3075" cy="40.9383" r="1.38462" fill="white"/>
<circle cx="42.9228" cy="43.0155" r="0.692308" fill="white"/>
</g>
<path d="M36 45.627C36 46.1792 35.5523 46.627 35 46.627C34.4477 46.627 34 46.1792 34 45.627C34 45.0747 34.4477 44.627 35 44.627C35.5523 44.627 36 45.0747 36 45.627Z" fill="black"/>
<path d="M32.8787 51.1761C32.7209 50.9867 32.5825 50.7785 32.465 50.5557C31.9498 49.5787 32.8954 48.6305 34 48.6305L36 48.6305C37.1046 48.6305 38.0502 49.5787 37.535 50.5557C37.4175 50.7785 37.2791 50.9867 37.1213 51.1761C36.5587 51.8512 35.7956 52.2305 35 52.2305C34.2044 52.2305 33.4413 51.8512 32.8787 51.1761Z" fill="#E16037"/>
<path fill-rule="evenodd" clip-rule="evenodd" d="M30.0539 35.1821C30.2865 35.3309 30.3544 35.6401 30.2056 35.8727L29.4075 37.12C29.2587 37.3526 28.9495 37.4205 28.7169 37.2716C28.4843 37.1228 28.4164 36.8136 28.5652 36.581L29.3633 35.3338C29.5121 35.1012 29.8213 35.0333 30.0539 35.1821Z" fill="black"/>
<path fill-rule="evenodd" clip-rule="evenodd" d="M24.7449 35.1821C24.5123 35.3309 24.4444 35.6401 24.5932 35.8727L25.3913 37.12C25.5402 37.3526 25.8494 37.4205 26.082 37.2716C26.3146 37.1228 26.3825 36.8136 26.2336 36.581L25.4356 35.3338C25.2867 35.1012 24.9775 35.0333 24.7449 35.1821Z" fill="black"/>
<path fill-rule="evenodd" clip-rule="evenodd" d="M27.5 34.6309C27.7761 34.6309 28 34.8547 28 35.1309V36.5309C28 36.807 27.7761 37.0309 27.5 37.0309C27.2239 37.0309 27 36.807 27 36.5309V35.1309C27 34.8547 27.2239 34.6309 27.5 34.6309Z" fill="black"/>
<path fill-rule="evenodd" clip-rule="evenodd" d="M30.1988 38.5311C28.0518 36.9109 25.7108 37.8447 24.8012 38.5311C24.5808 38.6975 24.2673 38.6536 24.1009 38.4332C23.9346 38.2128 23.9784 37.8993 24.1988 37.7329C25.2892 36.9101 28.1483 35.7309 30.8012 37.7329C31.0216 37.8993 31.0655 38.2128 30.8991 38.4332C30.7328 38.6536 30.4193 38.6975 30.1988 38.5311Z" fill="black"/>
<path fill-rule="evenodd" clip-rule="evenodd" d="M45.0539 35.1821C45.2865 35.3309 45.3544 35.6401 45.2056 35.8727L44.4075 37.12C44.2587 37.3526 43.9495 37.4205 43.7169 37.2716C43.4843 37.1228 43.4164 36.8136 43.5652 36.581L44.3633 35.3338C44.5121 35.1012 44.8213 35.0333 45.0539 35.1821Z" fill="black"/>
<path fill-rule="evenodd" clip-rule="evenodd" d="M39.7449 35.1821C39.5123 35.3309 39.4444 35.6401 39.5932 35.8727L40.3913 37.12C40.5402 37.3526 40.8494 37.4205 41.082 37.2716C41.3146 37.1228 41.3825 36.8136 41.2336 36.581L40.4356 35.3338C40.2867 35.1012 39.9775 35.0333 39.7449 35.1821Z" fill="black"/>
<path fill-rule="evenodd" clip-rule="evenodd" d="M42.5 34.6309C42.7761 34.6309 43 34.8547 43 35.1309V36.5309C43 36.807 42.7761 37.0309 42.5 37.0309C42.2239 37.0309 42 36.807 42 36.5309V35.1309C42 34.8547 42.2239 34.6309 42.5 34.6309Z" fill="black"/>
<path fill-rule="evenodd" clip-rule="evenodd" d="M45.1988 38.5311C43.0518 36.9109 40.7108 37.8447 39.8012 38.5311C39.5808 38.6975 39.2673 38.6536 39.1009 38.4332C38.9346 38.2128 38.9784 37.8993 39.1988 37.7329C40.2892 36.9101 43.1483 35.7309 45.8012 37.7329C46.0216 37.8993 46.0655 38.2128 45.8991 38.4332C45.7328 38.6536 45.4193 38.6975 45.1988 38.5311Z" fill="black"/>
<path fill-rule="evenodd" clip-rule="evenodd" d="M60 30.4666C60 33.5181 59.1538 36.4107 57.6399 39.0011C56.9372 37.7987 56.0907 36.6614 55.1181 35.6035L43.7713 36.4724L42.2173 28.2898C42.0084 28.2392 41.7984 28.1908 41.5872 28.1446V36.4961H28.6064V28.1027C28.1832 28.1924 27.7643 28.2909 27.3501 28.3978L25.8166 36.4724L14.8544 35.633C13.8932 36.6824 13.0559 37.8096 12.3598 39.0007C10.846 36.4103 10 33.5179 10 30.4666C10 19.3682 21.1929 10.3711 35 10.3711C48.8071 10.3711 60 19.3682 60 30.4666Z" fill="#925319"/>
<path d="M45.598 49.2867L43.5872 45.3686C43.3356 44.8784 42.6644 44.8784 42.4128 45.3686L40.402 49.2867C40.1463 49.7491 40 50.2861 40 50.8589C40 52.5942 41.3431 54.001 43 54.001C44.6569 54.001 46 52.5942 46 50.8589C46 50.2861 45.8537 49.7491 45.598 49.2867Z" fill="white"/>
<path d="M29.598 49.2867L27.5872 45.3686C27.3356 44.8784 26.6644 44.8784 26.4128 45.3686L24.402 49.2867C24.1463 49.7491 24 50.2861 24 50.8589C24 52.5942 25.3431 54.001 27 54.001C28.6569 54.001 30 52.5942 30 50.8589C30 50.2861 29.8537 49.7491 29.598 49.2867Z" fill="white"/>
<path d="M38.9581 0.35702C32.7203 4.81913 33.1573 9.92535 35.0411 13.4246C35.5159 14.3067 36.9134 13.746 37.0317 12.7513C37.4487 9.24743 38.9689 4.83584 40.3255 1.5389C40.6927 0.646496 39.743 -0.204418 38.9581 0.35702Z" fill="#925319"/>
<path d="M42.4091 7.31466C38.3774 7.60093 36.6441 9.7851 36.0644 12.0296C35.8149 12.9954 37.2828 13.4123 38.0029 12.7221C39.3933 11.3894 41.2144 10.0672 42.8453 9.00789C43.6564 8.48113 43.3738 7.24616 42.4091 7.31466Z" fill="#925319"/>
</svg>
