<svg width="70" height="70" viewBox="0 0 70 70" fill="none" xmlns="http://www.w3.org/2000/svg">
<path d="M25.0699 47.5349C25.0699 52.8009 20.8009 57.0699 15.5349 57.0699C10.2689 57.0699 6 52.8009 6 47.5349C6 42.2689 10.2689 38 15.5349 38C20.8009 38 25.0699 42.2689 25.0699 47.5349Z" fill="#FF9C27"/>
<path d="M64.0699 47.5349C64.0699 52.8009 59.8009 57.0699 54.5349 57.0699C49.2689 57.0699 45 52.8009 45 47.5349C45 42.2689 49.2689 38 54.5349 38C59.8009 38 64.0699 42.2689 64.0699 47.5349Z" fill="#FF9C27"/>
<path d="M59 42.0039C59 54.1542 48.2548 64.0039 35 64.0039C21.7452 64.0039 11 54.1542 11 42.0039C11 29.8536 21.7452 20.0039 35 20.0039C48.2548 20.0039 59 29.8536 59 42.0039Z" fill="#FFBA68"/>
<mask id="mask0_35_2844" style="mask-type:alpha" maskUnits="userSpaceOnUse" x="11" y="20" width="48" height="44">
<path d="M59 42C59 54.1503 48.2548 64 35 64C21.7452 64 11 54.1503 11 42C11 29.8497 21.7452 20 35 20C48.2548 20 59 29.8497 59 42Z" fill="#FFAB49"/>
</mask>
<g mask="url(#mask0_35_2844)">
<path d="M26.7144 53.3024C26.7144 58.4399 22.5204 62.6048 17.3469 62.6048C12.1734 62.6048 7.97949 58.4399 7.97949 53.3024C7.97949 48.1648 12.1734 44 17.3469 44C22.5204 44 26.7144 48.1648 26.7144 53.3024Z" fill="#FF9A24"/>
<path d="M61.6343 53.3024C61.6343 58.4399 57.4403 62.6048 52.2668 62.6048C47.0934 62.6048 42.8994 58.4399 42.8994 53.3024C42.8994 48.1648 47.0934 44 52.2668 44C57.4403 44 61.6343 48.1648 61.6343 53.3024Z" fill="#FF9A24"/>
<path d="M44 45.0967C44 46.1478 43.1046 47 42 47C40.8954 47 40 46.1478 40 45.0967C40 44.0455 40.8954 43.1933 42 43.1933C43.1046 43.1933 44 44.0455 44 45.0967Z" fill="black"/>
<path fill-rule="evenodd" clip-rule="evenodd" d="M43.0227 42.3764C43.2186 42.7238 43.0815 43.1564 42.7165 43.3428C42.5181 43.4441 42.2174 43.6515 42.0035 43.9103C41.791 44.1675 41.7325 44.3845 41.78 44.5736C41.8763 44.9569 41.6278 45.342 41.225 45.4337C40.8221 45.5254 40.4175 45.2889 40.3211 44.9055C40.1271 44.1331 40.4554 43.4745 40.8245 43.0279C41.1922 42.5829 41.6679 42.2582 42.0073 42.085C42.3723 41.8986 42.8269 42.0291 43.0227 42.3764Z" fill="black"/>
</g>
<path d="M36 49C36 49.5523 35.5523 50 35 50C34.4477 50 34 49.5523 34 49C34 48.4477 34.4477 48 35 48C35.5523 48 36 48.4477 36 49Z" fill="black"/>
<path fill-rule="evenodd" clip-rule="evenodd" d="M26.0222 43.4889C26.1116 43.1341 26.4458 42.9261 26.7687 43.0243L30.479 44.1533C31.1585 44.3601 31.1788 45.4107 30.5078 45.6489L26.7933 46.9675C26.4745 47.0807 26.1326 46.8885 26.0295 46.5381C25.9265 46.1878 26.1015 45.8121 26.4203 45.6989L28.5396 44.9466L26.4449 44.3092C26.122 44.211 25.9327 43.8437 26.0222 43.4889Z" fill="black"/>
<path fill-rule="evenodd" clip-rule="evenodd" d="M26.7841 39.4302C26.0661 39.5374 25.4853 39.9102 25.1902 40.1997C24.9142 40.4704 24.471 40.4662 24.2003 40.1902C23.9296 39.9142 23.9338 39.471 24.2098 39.2003C24.684 38.7351 25.5263 38.2024 26.5774 38.0455C27.6602 37.8839 28.9197 38.1292 30.1505 39.1642C30.4464 39.413 30.4846 39.8546 30.2358 40.1505C29.987 40.4464 29.5454 40.4845 29.2495 40.2357C28.3265 39.4596 27.4706 39.3277 26.7841 39.4302Z" fill="#905A09"/>
<path fill-rule="evenodd" clip-rule="evenodd" d="M41.7841 39.4302C41.0661 39.5374 40.4853 39.9102 40.1902 40.1997C39.9142 40.4704 39.471 40.4662 39.2003 40.1902C38.9296 39.9142 38.9338 39.471 39.2098 39.2003C39.684 38.7351 40.5263 38.2024 41.5774 38.0455C42.6602 37.8839 43.9197 38.1292 45.1505 39.1642C45.4464 39.413 45.4846 39.8546 45.2358 40.1505C44.987 40.4464 44.5454 40.4845 44.2495 40.2357C43.3265 39.4596 42.4706 39.3277 41.7841 39.4302Z" fill="#905A09"/>
<path d="M32.8787 53.5452C32.7209 53.3559 32.5825 53.1476 32.465 52.9249C31.9498 51.9479 32.8954 50.9996 34 50.9996L36 50.9996C37.1046 50.9996 38.0502 51.9479 37.535 52.9249C37.4175 53.1476 37.2791 53.3559 37.1213 53.5452C36.5587 54.2203 35.7956 54.5996 35 54.5996C34.2044 54.5996 33.4413 54.2203 32.8787 53.5452Z" fill="#E16037"/>
<path fill-rule="evenodd" clip-rule="evenodd" d="M44.6585 16.9248C44.71 16.5187 44.7366 16.1048 44.7366 15.6846C44.7366 10.3359 40.4317 6 35.1212 6C29.8108 6 25.5059 10.3359 25.5059 15.6846C25.5059 16.0781 25.5292 16.4661 25.5745 16.8474C16.4393 19.8385 10 27.0476 10 35.4656C10 38.5169 10.846 41.4094 12.3598 43.9997C13.0558 42.8087 13.893 41.6816 14.8541 40.6323L25.8166 41.4718L27.3502 33.3968C27.7643 33.2899 28.1832 33.1915 28.6064 33.1017V41.4947H41.5872V33.1436C41.7983 33.1898 42.0083 33.2382 42.2172 33.2888L43.7713 41.4718L55.1184 40.6029C56.0909 41.6606 56.9373 42.7978 57.6399 44.0001C59.1538 41.4097 60 38.5171 60 35.4656C60 27.1194 53.67 19.9615 44.6585 16.9248Z" fill="#925319"/>
</svg>
