<svg width="70" height="70" viewBox="0 0 70 70" fill="none" xmlns="http://www.w3.org/2000/svg">
<path d="M14.9153 48.9473C15.2245 47.3196 16.8143 46.1026 18.4663 46.2291L25.3712 46.7578C27.0233 46.8843 28.1119 48.3064 27.8027 49.9342L26.4471 57.0719C26.138 58.6997 24.5481 59.9167 22.8961 59.7902L15.9912 59.2615C14.3392 59.135 13.2506 57.7129 13.5597 56.0851L14.9153 48.9473Z" fill="#925319"/>
<path d="M55.447 48.9473C55.1378 47.3196 53.548 46.1026 51.896 46.2291L44.9911 46.7578C43.339 46.8843 42.2504 48.3064 42.5596 49.9342L43.9152 57.0719C44.2243 58.6997 45.8142 59.9167 47.4662 59.7902L54.3711 59.2615C56.0231 59.135 57.1117 57.7129 56.8026 56.0851L55.447 48.9473Z" fill="#925319"/>
<path d="M25.0699 41.5349C25.0699 46.8009 20.8009 51.0699 15.5349 51.0699C10.2689 51.0699 6 46.8009 6 41.5349C6 36.2689 10.2689 32 15.5349 32C20.8009 32 25.0699 36.2689 25.0699 41.5349Z" fill="#FF9C27"/>
<path d="M64.0015 41.5349C64.0015 46.8009 59.7326 51.0699 54.4666 51.0699C49.2006 51.0699 44.9316 46.8009 44.9316 41.5349C44.9316 36.2689 49.2006 32 54.4666 32C59.7326 32 64.0015 36.2689 64.0015 41.5349Z" fill="#FF9C27"/>
<path d="M59 36.0039C59 48.1542 48.2548 58.0039 35 58.0039C21.7452 58.0039 11 48.1542 11 36.0039C11 23.8536 21.7452 14.0039 35 14.0039C48.2548 14.0039 59 23.8536 59 36.0039Z" fill="#FFBA68"/>
<mask id="mask0_133_49398" style="mask-type:alpha" maskUnits="userSpaceOnUse" x="11" y="14" width="48" height="44">
<path d="M59 36C59 48.1503 48.2548 58 35 58C21.7452 58 11 48.1503 11 36C11 23.8497 21.7452 14 35 14C48.2548 14 59 23.8497 59 36Z" fill="#FFAB49"/>
</mask>
<g mask="url(#mask0_133_49398)">
<path d="M26.7139 47.3024C26.7139 52.4399 22.5199 56.6048 17.3464 56.6048C12.1729 56.6048 7.979 52.4399 7.979 47.3024C7.979 42.1648 12.1729 38 17.3464 38C22.5199 38 26.7139 42.1648 26.7139 47.3024Z" fill="#FF9A24"/>
<path d="M61.6343 47.3024C61.6343 52.4399 57.4403 56.6048 52.2668 56.6048C47.0934 56.6048 42.8994 52.4399 42.8994 47.3024C42.8994 42.1648 47.0934 38 52.2668 38C57.4403 38 61.6343 42.1648 61.6343 47.3024Z" fill="#FF9A24"/>
</g>
<path d="M36 43C36 43.5523 35.5523 44 35 44C34.4477 44 34 43.5523 34 43C34 42.4477 34.4477 42 35 42C35.5523 42 36 42.4477 36 43Z" fill="#915700"/>
<path fill-rule="evenodd" clip-rule="evenodd" d="M27.1031 45.3346C27.305 45.0049 27.7359 44.9012 28.0656 45.1031L29.465 45.9598C30.4095 46.5382 31.5899 46.5721 32.5662 46.0491C33.8992 45.335 35.501 45.335 36.834 46.0491C37.8103 46.5721 38.9907 46.5382 39.9353 45.9598L41.3346 45.1031C41.6643 44.9012 42.0952 45.0049 42.2971 45.3346C42.499 45.6643 42.3953 46.0952 42.0656 46.2971L40.6663 47.1538C39.2977 47.9917 37.5874 48.041 36.1729 47.2832C35.2529 46.7903 34.1473 46.7903 33.2273 47.2832C31.8128 48.041 30.1025 47.9917 28.7339 47.1538L27.3346 46.2971C27.0049 46.0952 26.9012 45.6643 27.1031 45.3346Z" fill="#A75A00"/>
<path d="M41.0134 44.3948L36.863 42.9219C36.3438 42.7377 35.8552 43.198 36.0082 43.7273L37.2315 47.9579C37.3625 48.4698 37.6243 48.961 38.0171 49.3779C39.2071 50.6409 41.1493 50.7437 42.3553 49.6075C43.5612 48.4714 43.5741 46.5264 42.3841 45.2634C41.9913 44.8465 41.5166 44.556 41.0134 44.3948Z" fill="white"/>
<path d="M23 38.7982C24.3125 39.0642 27.55 39.2771 30 38" stroke="#905A09" stroke-width="1.4" stroke-linecap="round"/>
<path d="M47 38.7982C45.6875 39.0642 42.45 39.2771 40 38" stroke="#905A09" stroke-width="1.4" stroke-linecap="round"/>
<path fill-rule="evenodd" clip-rule="evenodd" d="M57.6399 37.63C59.1538 35.0396 60 32.147 60 29.0955C60 17.9971 48.8071 9 35 9C21.1929 9 10 17.9971 10 29.0955C10 32.1468 10.846 35.0393 12.3598 37.6296C16.3522 30.7983 24.9888 26.0685 34.9997 26.0685C45.0109 26.0685 53.6476 30.7985 57.6399 37.63Z" fill="#925319"/>
<path d="M22.9153 21.9473C23.2245 20.3196 24.8143 19.1026 26.4663 19.2291L33.3712 19.7578C35.0233 19.8843 36.1119 21.3064 35.8027 22.9342L34.4471 30.0719C34.138 31.6997 32.5481 32.9167 30.8961 32.7902L23.9912 32.2615C22.3392 32.135 21.2506 30.7129 21.5597 29.0851L22.9153 21.9473Z" fill="#925319"/>
<path d="M47.447 21.9473C47.1378 20.3196 45.548 19.1026 43.896 19.2291L36.9911 19.7578C35.339 19.8843 34.2504 21.3064 34.5596 22.9342L35.9152 30.0719C36.2243 31.6997 37.8142 32.9167 39.4662 32.7902L46.3711 32.2615C48.0231 32.135 49.1117 30.7129 48.8026 29.0851L47.447 21.9473Z" fill="#925319"/>
</svg>
