<svg width="100" height="100" viewBox="0 0 100 100" fill="none" xmlns="http://www.w3.org/2000/svg">
<path d="M51 56.9961C51 57.5484 50.5523 57.9961 50 57.9961C49.4477 57.9961 49 57.5484 49 56.9961C49 56.4438 49.4477 55.9961 50 55.9961C50.5523 55.9961 51 56.4438 51 56.9961Z" fill="black"/>
<path fill-rule="evenodd" clip-rule="evenodd" d="M44.4957 60.2855C48.0803 61.4022 51.9197 61.4022 55.5043 60.2855C55.8892 60.1656 56.0927 59.789 55.9588 59.4442C55.825 59.0995 55.4044 58.9172 55.0196 59.0371C51.7507 60.0555 48.2493 60.0555 44.9804 59.0371C44.5956 58.9172 44.175 59.0995 44.0412 59.4442C43.9073 59.789 44.1108 60.1656 44.4957 60.2855Z" fill="#A75A00"/>
<path fill-rule="evenodd" clip-rule="evenodd" d="M37.6501 48.6863C38.0092 49.4329 38.9727 49.7146 39.8022 49.3156L45.81 46.4258C46.6395 46.0268 47.0209 45.0982 46.6618 44.3516C46.3027 43.6051 45.3391 43.3233 44.5096 43.7223L38.5018 46.6121C37.6723 47.0111 37.291 47.9398 37.6501 48.6863Z" fill="#905A09"/>
<path d="M40.2159 55.9397C39.4453 55.6051 38.736 55.0919 38.1362 54.4468C37.3841 53.6379 37.7997 52.4062 38.7863 51.9095L44.1453 49.2112C45.1318 48.7144 46.3688 49.114 46.5707 50.2C46.7318 51.0659 46.7217 51.9413 46.5316 52.7597C46.2001 54.1864 45.3485 55.323 44.1641 55.9194C42.9797 56.5157 41.5595 56.5231 40.2159 55.9397Z" fill="white"/>
<path fill-rule="evenodd" clip-rule="evenodd" d="M41.2142 53.4587C41.3324 53.7044 41.6923 53.7767 42.018 53.62L44.3771 52.4853C44.7028 52.3286 44.871 52.0023 44.7528 51.7566C44.6346 51.5108 44.2747 51.4386 43.949 51.5952L41.5899 52.73C41.2642 52.8867 41.0959 53.2129 41.2142 53.4587Z" fill="black"/>
<path d="M59.4677 55.9397C60.2383 55.6051 60.9476 55.0919 61.5474 54.4468C62.2995 53.6379 61.8839 52.4062 60.8973 51.9095L55.5383 49.2112C54.5518 48.7144 53.3148 49.114 53.1129 50.2C52.9518 51.0659 52.9619 51.9413 53.152 52.7597C53.4835 54.1864 54.3351 55.323 55.5195 55.9194C56.7039 56.5157 58.1241 56.5231 59.4677 55.9397Z" fill="white"/>
<path fill-rule="evenodd" clip-rule="evenodd" d="M58.4694 53.4587C58.3512 53.7044 57.9913 53.7767 57.6656 53.62L55.3065 52.4853C54.9808 52.3286 54.8126 52.0023 54.9308 51.7566C55.049 51.5108 55.4089 51.4386 55.7346 51.5952L58.0937 52.73C58.4194 52.8867 58.5876 53.2129 58.4694 53.4587Z" fill="black"/>
<path fill-rule="evenodd" clip-rule="evenodd" d="M62.6619 48.6863C62.3028 49.4329 61.3393 49.7146 60.5098 49.3156L54.502 46.4258C53.6725 46.0268 53.2911 45.0982 53.6502 44.3516C54.0093 43.6051 54.9729 43.3233 55.8024 43.7223L61.8102 46.6121C62.6397 47.0111 63.021 47.9398 62.6619 48.6863Z" fill="#905A09"/>
</svg>
