<svg width="100" height="100" viewBox="0 0 100 100" fill="none" xmlns="http://www.w3.org/2000/svg">
<path d="M51 56.9961C51 57.5484 50.5523 57.9961 50 57.9961C49.4477 57.9961 49 57.5484 49 56.9961C49 56.4438 49.4477 55.9961 50 55.9961C50.5523 55.9961 51 56.4438 51 56.9961Z" fill="black"/>
<path d="M46 52.9961C46 54.1007 44.6569 54.9961 43 54.9961C41.3431 54.9961 40 54.1007 40 52.9961C40 51.8915 41.3431 50.9961 43 50.9961C44.6569 50.9961 46 51.8915 46 52.9961Z" fill="black"/>
<path d="M60 52.9961C60 54.1007 58.6569 54.9961 57 54.9961C55.3431 54.9961 54 54.1007 54 52.9961C54 51.8915 55.3431 50.9961 57 50.9961C58.6569 50.9961 60 51.8915 60 52.9961Z" fill="black"/>
<path fill-rule="evenodd" clip-rule="evenodd" d="M42.9161 47.2661C43.6341 47.1589 44.2149 46.7861 44.51 46.4966C44.786 46.2259 45.2292 46.2301 45.4999 46.5061C45.7706 46.7821 45.7664 47.2253 45.4904 47.496C45.0162 47.9612 44.1739 48.4939 43.1228 48.6508C42.04 48.8124 40.7805 48.5671 39.5497 47.5321C39.2538 47.2833 39.2156 46.8417 39.4644 46.5458C39.7132 46.2499 40.1548 46.2117 40.4507 46.4605C41.3737 47.2367 42.2296 47.3686 42.9161 47.2661Z" fill="#905A09"/>
<path fill-rule="evenodd" clip-rule="evenodd" d="M57.0839 47.7261C56.3659 47.8333 55.7851 48.2061 55.49 48.4956C55.214 48.7663 54.7708 48.7621 54.5001 48.4861C54.2294 48.2101 54.2336 47.7669 54.5096 47.4962C54.9838 47.031 55.8261 46.4983 56.8772 46.3414C57.96 46.1798 59.2195 46.4251 60.4503 47.4601C60.7462 47.7089 60.7844 48.1505 60.5356 48.4464C60.2868 48.7423 59.8452 48.7804 59.5493 48.5316C58.6263 47.7555 57.7704 47.6236 57.0839 47.7261Z" fill="#905A09"/>
<path fill-rule="evenodd" clip-rule="evenodd" d="M42.4029 59.6305C42.6048 59.3008 43.0357 59.1971 43.3654 59.399L44.7648 60.2557C45.7093 60.8341 46.8897 60.868 47.866 60.345C49.199 59.6309 50.8008 59.6309 52.1338 60.345C53.1101 60.868 54.2905 60.8341 55.2351 60.2557L56.6344 59.399C56.9641 59.1971 57.395 59.3008 57.5969 59.6305C57.7988 59.9602 57.6951 60.3911 57.3654 60.593L55.9661 61.4497C54.5975 62.2876 52.8872 62.3369 51.4727 61.5791C50.5527 61.0862 49.4471 61.0862 48.5271 61.5791C47.1126 62.3369 45.4023 62.2876 44.0337 61.4497L42.6344 60.593C42.3047 60.3911 42.201 59.9602 42.4029 59.6305Z" fill="#A75A00"/>
</svg>
