<svg width="100" height="100" viewBox="0 0 100 100" fill="none" xmlns="http://www.w3.org/2000/svg">
<path fill-rule="evenodd" clip-rule="evenodd" d="M54.9429 61.0181C54.9429 60.6315 54.6295 60.3181 54.2429 60.3181L46.0665 60.3181C45.6799 60.3181 45.3665 60.6315 45.3665 61.0181C45.3665 61.4047 45.6799 61.7181 46.0665 61.7181L54.2429 61.7181C54.6295 61.7181 54.9429 61.4047 54.9429 61.0181Z" fill="#A75A00"/>
<path fill-rule="evenodd" clip-rule="evenodd" d="M45.7282 62.5332C46.0415 61.9625 46.1075 61.2806 45.9226 60.6368C45.7377 59.993 45.3133 59.4265 44.7326 59.066C44.1504 58.7045 43.4571 58.5799 42.8067 58.7329C42.4304 58.8214 42.2118 59.1944 42.3185 59.5659C42.4252 59.9375 42.8167 60.167 43.1931 60.0785C43.4578 60.0162 43.7509 60.0639 44.0094 60.2243C44.2693 60.3857 44.4709 60.6479 44.5598 60.9573C44.6486 61.2668 44.6136 61.5846 44.4733 61.8401C44.3339 62.0941 44.1035 62.2649 43.8388 62.3271C43.4624 62.4156 43.2438 62.7886 43.3505 63.1602C43.4572 63.5318 43.8488 63.7613 44.2251 63.6727C44.8756 63.5198 45.4141 63.1055 45.7282 62.5332Z" fill="#A75A00"/>
<path fill-rule="evenodd" clip-rule="evenodd" d="M54.2718 62.5332C53.9585 61.9625 53.8925 61.2806 54.0774 60.6368C54.2623 59.993 54.6867 59.4265 55.2674 59.066C55.8496 58.7045 56.5429 58.5799 57.1933 58.7329C57.5696 58.8214 57.7882 59.1944 57.6815 59.5659C57.5748 59.9375 57.1833 60.167 56.8069 60.0785C56.5422 60.0162 56.2491 60.0639 55.9906 60.2243C55.7307 60.3857 55.5291 60.6479 55.4402 60.9573C55.3514 61.2668 55.3864 61.5846 55.5267 61.8401C55.6661 62.0941 55.8965 62.2649 56.1612 62.3271C56.5376 62.4156 56.7562 62.7886 56.6495 63.1602C56.5428 63.5318 56.1512 63.7613 55.7749 63.6727C55.1244 63.5198 54.5859 63.1055 54.2718 62.5332Z" fill="#A75A00"/>
<path d="M51 57C51 57.5523 50.5523 58 50 58C49.4477 58 49 57.5523 49 57C49 56.4477 49.4477 56 50 56C50.5523 56 51 56.4477 51 57Z" fill="black"/>
<path d="M47 53C47 55.2091 45.2091 57 43 57C40.7909 57 39 55.2091 39 53C39 50.7909 40.7909 49 43 49C45.2091 49 47 50.7909 47 53Z" fill="white"/>
<path d="M45 53C45 54.1046 44.1046 55 43 55C41.8954 55 41 54.1046 41 53C41 51.8954 41.8954 51 43 51C44.1046 51 45 51.8954 45 53Z" fill="black"/>
<path d="M61 53C61 55.2091 59.2091 57 57 57C54.7909 57 53 55.2091 53 53C53 50.7909 54.7909 49 57 49C59.2091 49 61 50.7909 61 53Z" fill="white"/>
<path d="M59 53C59 54.1046 58.1046 55 57 55C55.8954 55 55 54.1046 55 53C55 51.8954 55.8954 51 57 51C58.1046 51 59 51.8954 59 53Z" fill="black"/>
<path fill-rule="evenodd" clip-rule="evenodd" d="M45.6904 45.8848C45.7539 46.2662 45.4963 46.6268 45.115 46.6904L39.115 47.6904C38.7337 47.7539 38.373 47.4963 38.3094 47.115C38.2459 46.7337 38.5035 46.373 38.8848 46.3094L44.8848 45.3094C45.2662 45.2459 45.6268 45.5035 45.6904 45.8848Z" fill="#905A09"/>
<path fill-rule="evenodd" clip-rule="evenodd" d="M61.6904 47.1152C61.7539 46.7338 61.4963 46.3732 61.115 46.3096L55.115 45.3096C54.7337 45.2461 54.373 45.5037 54.3094 45.885C54.2459 46.2663 54.5035 46.627 54.8848 46.6906L60.8848 47.6906C61.2662 47.7541 61.6268 47.4965 61.6904 47.1152Z" fill="#905A09"/>
</svg>
