<svg width="100" height="100" viewBox="0 0 100 100" fill="none" xmlns="http://www.w3.org/2000/svg">
<path d="M51 56.9961C51 57.5484 50.5523 57.9961 50 57.9961C49.4477 57.9961 49 57.5484 49 56.9961C49 56.4438 49.4477 55.9961 50 55.9961C50.5523 55.9961 51 56.4438 51 56.9961Z" fill="black"/>
<path fill-rule="evenodd" clip-rule="evenodd" d="M45.1988 45.9003C43.0518 44.2801 40.7108 45.2139 39.8012 45.9003C39.5808 46.0666 39.2673 46.0228 39.1009 45.8023C38.9346 45.5819 38.9784 45.2684 39.1988 45.1021C40.2892 44.2792 43.1483 43.1001 45.8012 45.1021C46.0216 45.2684 46.0655 45.5819 45.8991 45.8023C45.7328 46.0228 45.4193 46.0666 45.1988 45.9003Z" fill="#905A09"/>
<path fill-rule="evenodd" clip-rule="evenodd" d="M60.1988 45.9003C58.0518 44.2801 55.7108 45.2139 54.8012 45.9003C54.5808 46.0666 54.2673 46.0228 54.1009 45.8023C53.9346 45.5819 53.9784 45.2684 54.1988 45.1021C55.2892 44.2792 58.1483 43.1001 60.8012 45.1021C61.0216 45.2684 61.0655 45.5819 60.8991 45.8023C60.7328 46.0228 60.4193 46.0666 60.1988 45.9003Z" fill="#905A09"/>
<path fill-rule="evenodd" clip-rule="evenodd" d="M46.124 57.3418C46.3977 57.193 46.4776 56.8838 46.3025 56.6512L45.3633 55.404C45.1882 55.1714 44.8243 55.1035 44.5506 55.2523C44.2769 55.4011 44.197 55.7103 44.3721 55.9429L45.3113 57.1902C45.4864 57.4228 45.8503 57.4907 46.124 57.3418Z" fill="black"/>
<path fill-rule="evenodd" clip-rule="evenodd" d="M39.876 57.3418C39.6023 57.193 39.5224 56.8838 39.6975 56.6512L40.6367 55.404C40.8118 55.1714 41.1757 55.1035 41.4494 55.2523C41.7231 55.4011 41.803 55.7103 41.6279 55.9429L40.6887 57.1902C40.5136 57.4228 40.1497 57.4907 39.876 57.3418Z" fill="black"/>
<path fill-rule="evenodd" clip-rule="evenodd" d="M43.1186 57.8936C43.4436 57.8936 43.707 57.6697 43.707 57.3936V55.9936C43.707 55.7174 43.4436 55.4936 43.1186 55.4936C42.7937 55.4936 42.5303 55.7174 42.5303 55.9936V57.3936C42.5303 57.6697 42.7937 57.8936 43.1186 57.8936Z" fill="black"/>
<path fill-rule="evenodd" clip-rule="evenodd" d="M60.124 57.3418C60.3977 57.193 60.4776 56.8838 60.3025 56.6512L59.3633 55.404C59.1882 55.1714 58.8243 55.1035 58.5506 55.2523C58.2769 55.4011 58.197 55.7103 58.3721 55.9429L59.3113 57.1902C59.4864 57.4228 59.8503 57.4907 60.124 57.3418Z" fill="black"/>
<path fill-rule="evenodd" clip-rule="evenodd" d="M53.876 57.3418C53.6023 57.193 53.5224 56.8838 53.6975 56.6512L54.6367 55.404C54.8118 55.1714 55.1757 55.1035 55.4494 55.2523C55.7231 55.4011 55.803 55.7103 55.6279 55.9429L54.6887 57.1902C54.5136 57.4228 54.1497 57.4907 53.876 57.3418Z" fill="black"/>
<path fill-rule="evenodd" clip-rule="evenodd" d="M57.1186 57.8936C57.4436 57.8936 57.707 57.6697 57.707 57.3936V55.9936C57.707 55.7174 57.4436 55.4936 57.1186 55.4936C56.7937 55.4936 56.5303 55.7174 56.5303 55.9936V57.3936C56.5303 57.6697 56.7937 57.8936 57.1186 57.8936Z" fill="black"/>
<path d="M47 53C47 55.2091 45.2091 57 43 57C40.7909 57 39 55.2091 39 53C39 50.7909 40.7909 49 43 49C45.2091 49 47 50.7909 47 53Z" fill="white"/>
<path d="M47 53C47 54.1046 46.1046 55 45 55C43.8954 55 43 54.1046 43 53C43 51.8954 43.8954 51 45 51C46.1046 51 47 51.8954 47 53Z" fill="black"/>
<path d="M61 53C61 55.2091 59.2091 57 57 57C54.7909 57 53 55.2091 53 53C53 50.7909 54.7909 49 57 49C59.2091 49 61 50.7909 61 53Z" fill="white"/>
<path d="M61 53C61 54.1046 60.1046 55 59 55C57.8954 55 57 54.1046 57 53C57 51.8954 57.8954 51 59 51C60.1046 51 61 51.8954 61 53Z" fill="black"/>
<path fill-rule="evenodd" clip-rule="evenodd" d="M57.8303 62.5481L58.2338 63.2471C58.3294 63.4125 58.2727 63.6241 58.1072 63.7196C57.9418 63.8151 57.7302 63.7584 57.6347 63.593L57.1159 62.6943C56.9885 62.4737 57.0641 62.1916 57.2847 62.0643L58.2832 61.4877C58.5038 61.3604 58.7859 61.436 58.9132 61.6566L59.4321 62.5553C59.5276 62.7207 59.4709 62.9322 59.3055 63.0278C59.14 63.1233 58.9285 63.0666 58.833 62.9012L58.4294 62.2022L57.8303 62.5481Z" fill="#646464"/>
<path d="M57.5656 64.1652C57.4382 63.9446 57.5138 63.6625 57.7344 63.5351L59.332 62.6127C59.5526 62.4854 59.8347 62.5609 59.9621 62.7815L60.7692 64.1795C60.8965 64.4001 60.821 64.6822 60.6004 64.8095L59.0027 65.7319C58.7821 65.8593 58.5 65.7837 58.3727 65.5631L57.5656 64.1652Z" fill="#646464"/>
<path d="M42 61.6141C42 61.232 42.3097 60.9222 42.6918 60.9222H44.0754C44.4575 60.9222 44.7672 61.232 44.7672 61.6141C44.7672 61.9961 44.4575 62.3059 44.0754 62.3059H42.6918C42.3097 62.3059 42 61.9961 42 61.6141Z" fill="#9D9D9D"/>
<path d="M46.6118 61.6141C46.6118 61.232 46.9216 60.9222 47.3036 60.9222H48.6873C49.0693 60.9222 49.3791 61.232 49.3791 61.6141C49.3791 61.9961 49.0693 62.3059 48.6873 62.3059H47.3036C46.9216 62.3059 46.6118 61.9961 46.6118 61.6141Z" fill="#9D9D9D"/>
<path d="M44.3062 60.6918C44.3062 60.3097 44.6159 60 44.998 60H46.3816C46.7637 60 47.0734 60.3097 47.0734 60.6918C47.0734 61.0739 46.7637 61.3836 46.3816 61.3836H44.998C44.6159 61.3836 44.3062 61.0739 44.3062 60.6918Z" fill="#9D9D9D"/>
<path d="M48.918 60.6918C48.918 60.3097 49.2277 60 49.6098 60H50.9934C51.3755 60 51.6852 60.3097 51.6852 60.6918C51.6852 61.0739 51.3755 61.3836 50.9934 61.3836H49.6098C49.2277 61.3836 48.918 61.0739 48.918 60.6918Z" fill="#9D9D9D"/>
<path d="M51.2241 61.6141C51.2241 61.232 51.5339 60.9222 51.9159 60.9222H53.2996C53.6816 60.9222 53.9914 61.232 53.9914 61.6141C53.9914 61.9961 53.6816 62.3059 53.2996 62.3059H51.9159C51.5339 62.3059 51.2241 61.9961 51.2241 61.6141Z" fill="#9D9D9D"/>
<path d="M53.5303 60.6918C53.5303 60.3097 53.84 60 54.2221 60H55.6057C55.9878 60 56.2975 60.3097 56.2975 60.6918C56.2975 61.0739 55.9878 61.3836 55.6057 61.3836H54.2221C53.84 61.3836 53.5303 61.0739 53.5303 60.6918Z" fill="#9D9D9D"/>
<path d="M55.8364 61.6141C55.8364 61.232 56.1462 60.9222 56.5282 60.9222H57.9119C58.2939 60.9222 58.6037 61.232 58.6037 61.6141C58.6037 61.9961 58.2939 62.3059 57.9119 62.3059H56.5282C56.1462 62.3059 55.8364 61.9961 55.8364 61.6141Z" fill="#9D9D9D"/>
</svg>
