<svg width="100" height="100" viewBox="0 0 100 100" fill="none" xmlns="http://www.w3.org/2000/svg">
<path d="M51 57C51 57.5523 50.5523 58 50 58C49.4477 58 49 57.5523 49 57C49 56.4477 49.4477 56 50 56C50.5523 56 51 56.4477 51 57Z" fill="black"/>
<path d="M45 53.0967C45 54.1479 44.1046 55 43 55C41.8954 55 41 54.1479 41 53.0967C41 52.0455 41.8954 51.1934 43 51.1934C44.1046 51.1934 45 52.0455 45 53.0967Z" fill="black"/>
<path d="M59 53.0967C59 54.1479 58.1046 55 57 55C55.8954 55 55 54.1479 55 53.0967C55 52.0455 55.8954 51.1934 57 51.1934C58.1046 51.1934 59 52.0455 59 53.0967Z" fill="black"/>
<path fill-rule="evenodd" clip-rule="evenodd" d="M44.4957 60.2855C48.0803 61.4022 51.9197 61.4022 55.5043 60.2855C55.8892 60.1656 56.0927 59.789 55.9588 59.4442C55.825 59.0995 55.4044 58.9172 55.0196 59.0371C51.7507 60.0555 48.2493 60.0555 44.9804 59.0371C44.5956 58.9172 44.175 59.0995 44.0412 59.4442C43.9073 59.789 44.1108 60.1656 44.4957 60.2855Z" fill="#A75A00"/>
<path fill-rule="evenodd" clip-rule="evenodd" d="M42.0839 47.73C41.3659 47.8372 40.7851 48.21 40.49 48.4995C40.214 48.7702 39.7708 48.766 39.5001 48.49C39.2294 48.214 39.2336 47.7708 39.5096 47.5001C39.9838 47.0349 40.8261 46.5022 41.8772 46.3453C42.96 46.1837 44.2195 46.429 45.4503 47.464C45.7462 47.7128 45.7844 48.1544 45.5356 48.4503C45.2868 48.7462 44.8452 48.7844 44.5493 48.5355C43.6263 47.7594 42.7704 47.6275 42.0839 47.73Z" fill="#905A09"/>
<path fill-rule="evenodd" clip-rule="evenodd" d="M57.0839 47.73C56.3659 47.8372 55.7851 48.21 55.49 48.4995C55.214 48.7702 54.7708 48.766 54.5001 48.49C54.2294 48.214 54.2336 47.7708 54.5096 47.5001C54.9838 47.0349 55.8261 46.5022 56.8772 46.3453C57.96 46.1837 59.2195 46.429 60.4503 47.464C60.7462 47.7128 60.7844 48.1544 60.5356 48.4503C60.2868 48.7462 59.8452 48.7844 59.5493 48.5355C58.6263 47.7594 57.7704 47.6275 57.0839 47.73Z" fill="#905A09"/>
</svg>
