<svg width="100" height="100" viewBox="0 0 100 100" fill="none" xmlns="http://www.w3.org/2000/svg">
<path d="M51 56.9961C51 57.5484 50.5523 57.9961 50 57.9961C49.4477 57.9961 49 57.5484 49 56.9961C49 56.4438 49.4477 55.9961 50 55.9961C50.5523 55.9961 51 56.4438 51 56.9961Z" fill="black"/>
<path fill-rule="evenodd" clip-rule="evenodd" d="M42.7841 48.4302C42.0661 48.5374 41.4853 48.9102 41.1902 49.1997C40.9142 49.4704 40.471 49.4662 40.2003 49.1902C39.9296 48.9142 39.9338 48.471 40.2098 48.2003C40.684 47.7351 41.5263 47.2024 42.5774 47.0455C43.6602 46.8839 44.9197 47.1292 46.1505 48.1642C46.4464 48.413 46.4846 48.8546 46.2358 49.1505C45.987 49.4464 45.5454 49.4845 45.2495 49.2357C44.3265 48.4596 43.4706 48.3277 42.7841 48.4302Z" fill="#905A09"/>
<path fill-rule="evenodd" clip-rule="evenodd" d="M56.184 48.4302C55.466 48.5374 54.8852 48.9102 54.5901 49.1997C54.3141 49.4704 53.8709 49.4662 53.6002 49.1902C53.3295 48.9142 53.3337 48.471 53.6097 48.2003C54.0839 47.7351 54.9262 47.2024 55.9773 47.0455C57.0601 46.8839 58.3196 47.1292 59.5504 48.1642C59.8463 48.413 59.8845 48.8546 59.6357 49.1505C59.3869 49.4464 58.9453 49.4845 58.6494 49.2357C57.7264 48.4596 56.8705 48.3277 56.184 48.4302Z" fill="#905A09"/>
<path d="M42.8666 50.0929C42.9124 49.969 43.0876 49.969 43.1334 50.0929L44.13 52.786C44.1444 52.8249 44.1751 52.8556 44.214 52.87L46.9071 53.8666C47.031 53.9124 47.031 54.0876 46.9071 54.1334L44.214 55.13C44.1751 55.1444 44.1444 55.1751 44.13 55.214L43.1334 57.9071C43.0876 58.031 42.9124 58.031 42.8666 57.9071L41.87 55.214C41.8556 55.1751 41.8249 55.1444 41.786 55.13L39.0929 54.1334C38.969 54.0876 38.969 53.9124 39.0929 53.8666L41.786 52.87C41.8249 52.8556 41.8556 52.8249 41.87 52.786L42.8666 50.0929Z" fill="#FFED4A"/>
<path d="M56.8666 50.0929C56.9124 49.969 57.0876 49.969 57.1334 50.0929L58.13 52.786C58.1444 52.8249 58.1751 52.8556 58.214 52.87L60.9071 53.8666C61.031 53.9124 61.031 54.0876 60.9071 54.1334L58.214 55.13C58.1751 55.1444 58.1444 55.1751 58.13 55.214L57.1334 57.9071C57.0876 58.031 56.9124 58.031 56.8666 57.9071L55.87 55.214C55.8556 55.1751 55.8249 55.1444 55.786 55.13L53.0929 54.1334C52.969 54.0876 52.969 53.9124 53.0929 53.8666L55.786 52.87C55.8249 52.8556 55.8556 52.8249 55.87 52.786L56.8666 50.0929Z" fill="#FFED4A"/>
<path d="M45.7574 63.9497C45.0421 63.1153 44.5261 62.0918 44.245 60.9799C43.9743 59.909 44.8954 59 46 59L54 59C55.1046 59 56.0257 59.909 55.755 60.9799C55.4739 62.0918 54.9579 63.1153 54.2426 63.9497C53.1174 65.2625 51.5913 66 50 66C48.4087 66 46.8826 65.2625 45.7574 63.9497Z" fill="#E16037"/>
</svg>
