<svg width="100" height="100" viewBox="0 0 100 100" fill="none" xmlns="http://www.w3.org/2000/svg">
<path d="M51 56.9961C51 57.5484 50.5523 57.9961 50 57.9961C49.4477 57.9961 49 57.5484 49 56.9961C49 56.4438 49.4477 55.9961 50 55.9961C50.5523 55.9961 51 56.4438 51 56.9961Z" fill="black"/>
<path d="M47.8787 62.5457C47.7209 62.3563 47.5825 62.1481 47.465 61.9254C46.9498 60.9484 47.8954 60.0001 49 60.0001L51 60.0001C52.1046 60.0001 53.0502 60.9484 52.535 61.9254C52.4175 62.1481 52.2791 62.3564 52.1213 62.5457C51.5587 63.2208 50.7956 63.6001 50 63.6001C49.2044 63.6001 48.4413 63.2208 47.8787 62.5457Z" fill="#E16037"/>
<path fill-rule="evenodd" clip-rule="evenodd" d="M44.4957 60.2855C48.0803 61.4022 51.9197 61.4022 55.5043 60.2855C55.8892 60.1656 56.0927 59.789 55.9588 59.4442C55.825 59.0995 55.4044 58.9172 55.0196 59.0371C51.7507 60.0555 48.2493 60.0555 44.9804 59.0371C44.5956 58.9172 44.175 59.0995 44.0412 59.4442C43.9073 59.789 44.1108 60.1656 44.4957 60.2855Z" fill="#A75A00"/>
<path fill-rule="evenodd" clip-rule="evenodd" d="M45.0539 49.5517C45.2865 49.7006 45.3544 50.0098 45.2056 50.2424L44.4075 51.4896C44.2587 51.7222 43.9495 51.7901 43.7169 51.6413C43.4843 51.4924 43.4164 51.1832 43.5652 50.9506L44.3633 49.7034C44.5121 49.4708 44.8213 49.4029 45.0539 49.5517Z" fill="black"/>
<path fill-rule="evenodd" clip-rule="evenodd" d="M39.7444 49.5517C39.5118 49.7006 39.4439 50.0098 39.5928 50.2424L40.3908 51.4896C40.5397 51.7222 40.8489 51.7901 41.0815 51.6413C41.3141 51.4924 41.382 51.1832 41.2331 50.9506L40.4351 49.7034C40.2862 49.4708 39.977 49.4029 39.7444 49.5517Z" fill="black"/>
<path fill-rule="evenodd" clip-rule="evenodd" d="M42.5 49C42.7761 49 43 49.2239 43 49.5V50.9C43 51.1761 42.7761 51.4 42.5 51.4C42.2239 51.4 42 51.1761 42 50.9V49.5C42 49.2239 42.2239 49 42.5 49Z" fill="black"/>
<path fill-rule="evenodd" clip-rule="evenodd" d="M45.1988 52.9003C43.0518 51.2801 40.7108 52.2139 39.8012 52.9003C39.5808 53.0666 39.2673 53.0228 39.1009 52.8023C38.9346 52.5819 38.9784 52.2684 39.1988 52.1021C40.2892 51.2792 43.1483 50.1001 45.8012 52.1021C46.0216 52.2684 46.0655 52.5819 45.8991 52.8023C45.7328 53.0228 45.4193 53.0666 45.1988 52.9003Z" fill="black"/>
<path fill-rule="evenodd" clip-rule="evenodd" d="M60.0539 49.5517C60.2865 49.7006 60.3544 50.0098 60.2056 50.2424L59.4075 51.4896C59.2587 51.7222 58.9495 51.7901 58.7169 51.6413C58.4843 51.4924 58.4164 51.1832 58.5652 50.9506L59.3633 49.7034C59.5121 49.4708 59.8213 49.4029 60.0539 49.5517Z" fill="black"/>
<path fill-rule="evenodd" clip-rule="evenodd" d="M54.7444 49.5517C54.5118 49.7006 54.4439 50.0098 54.5928 50.2424L55.3908 51.4896C55.5397 51.7222 55.8489 51.7901 56.0815 51.6413C56.3141 51.4924 56.382 51.1832 56.2331 50.9506L55.4351 49.7034C55.2862 49.4708 54.977 49.4029 54.7444 49.5517Z" fill="black"/>
<path fill-rule="evenodd" clip-rule="evenodd" d="M57.5 49C57.7761 49 58 49.2239 58 49.5V50.9C58 51.1761 57.7761 51.4 57.5 51.4C57.2239 51.4 57 51.1761 57 50.9V49.5C57 49.2239 57.2239 49 57.5 49Z" fill="black"/>
<path fill-rule="evenodd" clip-rule="evenodd" d="M60.1988 52.9003C58.0518 51.2801 55.7108 52.2139 54.8012 52.9003C54.5808 53.0666 54.2673 53.0228 54.1009 52.8023C53.9346 52.5819 53.9784 52.2684 54.1988 52.1021C55.2892 51.2792 58.1483 50.1001 60.8012 52.1021C61.0216 52.2684 61.0655 52.5819 60.8991 52.8023C60.7328 53.0228 60.4193 53.0666 60.1988 52.9003Z" fill="black"/>
<ellipse cx="43" cy="46" rx="3" ry="2" fill="#905A09"/>
<ellipse cx="57" cy="46" rx="3" ry="2" fill="#905A09"/>
</svg>
