<svg width="100" height="100" viewBox="0 0 100 100" fill="none" xmlns="http://www.w3.org/2000/svg">
<path d="M51 57C51 57.5523 50.5523 58 50 58C49.4477 58 49 57.5523 49 57C49 56.4477 49.4477 56 50 56C50.5523 56 51 56.4477 51 57Z" fill="black"/>
<path d="M52 61C52 62.1046 51.1046 63.0001 50 63.0001C48.8954 63.0001 48 62.1046 48 61C48 59.8954 48.8954 59 50 59C51.1046 59 52 59.8954 52 61Z" fill="#E16037"/>
<path fill-rule="evenodd" clip-rule="evenodd" d="M42.9463 46.5C43.2224 46.5 43.4463 46.7239 43.4463 47V48.4C43.4463 48.6761 43.2224 48.9 42.9463 48.9C42.6701 48.9 42.4463 48.6761 42.4463 48.4V47C42.4463 46.7239 42.6701 46.5 42.9463 46.5Z" fill="#905A09"/>
<path fill-rule="evenodd" clip-rule="evenodd" d="M46.1608 48.0515C46.3934 48.2003 46.4614 48.5095 46.3125 48.7421L45.5144 49.9893C45.3656 50.2219 45.0564 50.2898 44.8238 50.141C44.5912 49.9922 44.5233 49.683 44.6721 49.4504L45.4702 48.2031C45.619 47.9705 45.9282 47.9026 46.1608 48.0515Z" fill="#905A09"/>
<path fill-rule="evenodd" clip-rule="evenodd" d="M40.0711 48.0515C39.8385 48.2003 39.7706 48.5095 39.9194 48.7421L40.7175 49.9893C40.8663 50.2219 41.1755 50.2898 41.4081 50.141C41.6407 49.9922 41.7086 49.683 41.5598 49.4504L40.7617 48.2031C40.6129 47.9705 40.3037 47.9026 40.0711 48.0515Z" fill="#905A09"/>
<path d="M40.0005 51C40.0005 49.3431 41.3436 48 43.0005 48C44.6573 48 46.0005 49.3431 46.0005 51V54C46.0005 55.6569 44.6573 57 43.0005 57C41.3436 57 40.0005 55.6569 40.0005 54V51Z" fill="#B67310"/>
<path d="M42.9065 50.2534C42.9388 50.1663 43.0619 50.1663 43.0941 50.2534L43.7946 52.1466C43.8048 52.1739 43.8263 52.1955 43.8537 52.2056L45.7469 52.9062C45.8339 52.9384 45.8339 53.0615 45.7469 53.0937L43.8537 53.7943C43.8263 53.8044 43.8048 53.826 43.7946 53.8534L43.0941 55.7465C43.0619 55.8336 42.9388 55.8336 42.9065 55.7465L42.206 53.8534C42.1959 53.826 42.1743 53.8044 42.1469 53.7943L40.2538 53.0937C40.1667 53.0615 40.1667 52.9384 40.2538 52.9062L42.1469 52.2056C42.1743 52.1955 42.1959 52.1739 42.206 52.1466L42.9065 50.2534Z" fill="white"/>
<path fill-rule="evenodd" clip-rule="evenodd" d="M45.6993 49.8717C43.5523 48.2515 41.2113 49.1853 40.3017 49.8717C40.0813 50.0381 39.7677 49.9942 39.6014 49.7738C39.4351 49.5534 39.4789 49.2398 39.6993 49.0735C40.7897 48.2507 43.6487 47.0715 46.3017 49.0735C46.5221 49.2398 46.566 49.5534 46.3996 49.7738C46.2333 49.9942 45.9198 50.0381 45.6993 49.8717Z" fill="#905A09"/>
<path fill-rule="evenodd" clip-rule="evenodd" d="M57.1777 46.5C57.4539 46.5 57.6777 46.7239 57.6777 47V48.4C57.6777 48.6761 57.4539 48.9 57.1777 48.9C56.9016 48.9 56.6777 48.6761 56.6777 48.4V47C56.6777 46.7239 56.9016 46.5 57.1777 46.5Z" fill="#905A09"/>
<path fill-rule="evenodd" clip-rule="evenodd" d="M60.3923 48.0515C60.6249 48.2003 60.6928 48.5095 60.544 48.7421L59.7459 49.9893C59.597 50.2219 59.2878 50.2898 59.0552 50.141C58.8226 49.9922 58.7547 49.683 58.9036 49.4504L59.7016 48.2031C59.8505 47.9705 60.1597 47.9026 60.3923 48.0515Z" fill="#905A09"/>
<path fill-rule="evenodd" clip-rule="evenodd" d="M54.3025 48.0515C54.0699 48.2003 54.002 48.5095 54.1509 48.7421L54.9489 49.9893C55.0978 50.2219 55.407 50.2898 55.6396 50.141C55.8722 49.9922 55.9401 49.683 55.7913 49.4504L54.9932 48.2031C54.8443 47.9705 54.5351 47.9026 54.3025 48.0515Z" fill="#905A09"/>
<path d="M54.2319 51C54.2319 49.3431 55.5751 48 57.2319 48C58.8888 48 60.2319 49.3431 60.2319 51V54C60.2319 55.6569 58.8888 57 57.2319 57C55.5751 57 54.2319 55.6569 54.2319 54V51Z" fill="#B67310"/>
<path d="M57.138 50.2534C57.1702 50.1663 57.2933 50.1663 57.3256 50.2534L58.0261 52.1466C58.0362 52.1739 58.0578 52.1955 58.0852 52.2056L59.9783 52.9062C60.0654 52.9384 60.0654 53.0615 59.9783 53.0937L58.0852 53.7943C58.0578 53.8044 58.0362 53.826 58.0261 53.8534L57.3256 55.7465C57.2933 55.8336 57.1702 55.8336 57.138 55.7465L56.4375 53.8534C56.4273 53.826 56.4057 53.8044 56.3784 53.7943L54.4852 53.0937C54.3982 53.0615 54.3982 52.9384 54.4852 52.9062L56.3784 52.2056C56.4057 52.1955 56.4273 52.1739 56.4375 52.1466L57.138 50.2534Z" fill="white"/>
<path fill-rule="evenodd" clip-rule="evenodd" d="M59.9308 49.8717C57.7837 48.2515 55.4428 49.1853 54.5331 49.8717C54.3127 50.0381 53.9992 49.9942 53.8328 49.7738C53.6665 49.5534 53.7104 49.2398 53.9308 49.0735C55.0212 48.2507 57.8802 47.0715 60.5331 49.0735C60.7536 49.2398 60.7974 49.5534 60.6311 49.7738C60.4647 49.9942 60.1512 50.0381 59.9308 49.8717Z" fill="#905A09"/>
<path fill-rule="evenodd" clip-rule="evenodd" d="M42.0839 44.73C41.3659 44.8372 40.7851 45.21 40.49 45.4995C40.214 45.7702 39.7708 45.766 39.5001 45.49C39.2294 45.214 39.2336 44.7708 39.5096 44.5001C39.9838 44.0349 40.8261 43.5022 41.8772 43.3453C42.96 43.1837 44.2195 43.429 45.4503 44.464C45.7462 44.7128 45.7844 45.1544 45.5356 45.4503C45.2868 45.7462 44.8452 45.7844 44.5493 45.5355C43.6263 44.7594 42.7704 44.6275 42.0839 44.73Z" fill="#905A09"/>
<path fill-rule="evenodd" clip-rule="evenodd" d="M57.0839 44.73C56.3659 44.8372 55.7851 45.21 55.49 45.4995C55.214 45.7702 54.7708 45.766 54.5001 45.49C54.2294 45.214 54.2336 44.7708 54.5096 44.5001C54.9838 44.0349 55.8261 43.5022 56.8772 43.3453C57.96 43.1837 59.2195 43.429 60.4503 44.464C60.7462 44.7128 60.7844 45.1544 60.5356 45.4503C60.2868 45.7462 59.8452 45.7844 59.5493 45.5355C58.6263 44.7594 57.7704 44.6275 57.0839 44.73Z" fill="#905A09"/>
</svg>
