<svg width="100" height="100" viewBox="0 0 100 100" fill="none" xmlns="http://www.w3.org/2000/svg">
<path d="M51 57C51 57.5523 50.5523 58 50 58C49.4477 58 49 57.5523 49 57C49 56.4477 49.4477 56 50 56C50.5523 56 51 56.4477 51 57Z" fill="black"/>
<path fill-rule="evenodd" clip-rule="evenodd" d="M42.9463 46.5C43.2224 46.5 43.4463 46.7239 43.4463 47V48.4C43.4463 48.6761 43.2224 48.9 42.9463 48.9C42.6701 48.9 42.4463 48.6761 42.4463 48.4V47C42.4463 46.7239 42.6701 46.5 42.9463 46.5Z" fill="#905A09"/>
<path fill-rule="evenodd" clip-rule="evenodd" d="M46.1608 48.0515C46.3934 48.2003 46.4614 48.5095 46.3125 48.7421L45.5144 49.9893C45.3656 50.2219 45.0564 50.2898 44.8238 50.141C44.5912 49.9922 44.5233 49.683 44.6721 49.4504L45.4702 48.2031C45.619 47.9705 45.9282 47.9026 46.1608 48.0515Z" fill="#905A09"/>
<path fill-rule="evenodd" clip-rule="evenodd" d="M40.0711 48.0515C39.8385 48.2003 39.7706 48.5095 39.9194 48.7421L40.7175 49.9893C40.8663 50.2219 41.1755 50.2898 41.4081 50.141C41.6407 49.9922 41.7086 49.683 41.5598 49.4504L40.7617 48.2031C40.6129 47.9705 40.3037 47.9026 40.0711 48.0515Z" fill="#905A09"/>
<path d="M40.0005 51C40.0005 49.3431 41.3436 48 43.0005 48C44.6573 48 46.0005 49.3431 46.0005 51V54C46.0005 55.6569 44.6573 57 43.0005 57C41.3436 57 40.0005 55.6569 40.0005 54V51Z" fill="#B67310"/>
<path fill-rule="evenodd" clip-rule="evenodd" d="M45.6993 49.8718C43.5523 48.2516 41.2113 49.1854 40.3017 49.8718C40.0813 50.0381 39.7677 49.9943 39.6014 49.7738C39.4351 49.5534 39.4789 49.2399 39.6993 49.0736C40.7897 48.2507 43.6487 47.0716 46.3017 49.0736C46.5221 49.2399 46.566 49.5534 46.3996 49.7738C46.2333 49.9943 45.9198 50.0381 45.6993 49.8718Z" fill="#905A09"/>
<path fill-rule="evenodd" clip-rule="evenodd" d="M57.1777 46.5C57.4539 46.5 57.6777 46.7239 57.6777 47V48.4C57.6777 48.6761 57.4539 48.9 57.1777 48.9C56.9016 48.9 56.6777 48.6761 56.6777 48.4V47C56.6777 46.7239 56.9016 46.5 57.1777 46.5Z" fill="#905A09"/>
<path fill-rule="evenodd" clip-rule="evenodd" d="M60.3923 48.0515C60.6249 48.2003 60.6928 48.5095 60.544 48.7421L59.7459 49.9893C59.597 50.2219 59.2878 50.2898 59.0552 50.141C58.8226 49.9922 58.7547 49.683 58.9036 49.4504L59.7016 48.2031C59.8505 47.9705 60.1597 47.9026 60.3923 48.0515Z" fill="#905A09"/>
<path fill-rule="evenodd" clip-rule="evenodd" d="M54.3025 48.0515C54.0699 48.2003 54.002 48.5095 54.1509 48.7421L54.9489 49.9893C55.0978 50.2219 55.407 50.2898 55.6396 50.141C55.8722 49.9922 55.9401 49.683 55.7913 49.4504L54.9932 48.2031C54.8443 47.9705 54.5351 47.9026 54.3025 48.0515Z" fill="#905A09"/>
<path d="M54.2319 51C54.2319 49.3431 55.5751 48 57.2319 48C58.8888 48 60.2319 49.3431 60.2319 51V54C60.2319 55.6569 58.8888 57 57.2319 57C55.5751 57 54.2319 55.6569 54.2319 54V51Z" fill="#B67310"/>
<path fill-rule="evenodd" clip-rule="evenodd" d="M59.9308 49.8718C57.7837 48.2516 55.4428 49.1854 54.5331 49.8718C54.3127 50.0381 53.9992 49.9943 53.8328 49.7738C53.6665 49.5534 53.7104 49.2399 53.9308 49.0736C55.0212 48.2507 57.8802 47.0716 60.5331 49.0736C60.7536 49.2399 60.7974 49.5534 60.6311 49.7738C60.4647 49.9943 60.1512 50.0381 59.9308 49.8718Z" fill="#905A09"/>
<path fill-rule="evenodd" clip-rule="evenodd" d="M42.0839 44.27C41.3659 44.1628 40.7851 43.79 40.49 43.5005C40.214 43.2298 39.7708 43.234 39.5001 43.51C39.2294 43.786 39.2336 44.2292 39.5096 44.4999C39.9838 44.9651 40.8261 45.4978 41.8772 45.6547C42.96 45.8163 44.2195 45.571 45.4503 44.536C45.7462 44.2872 45.7844 43.8456 45.5356 43.5497C45.2868 43.2538 44.8452 43.2156 44.5493 43.4645C43.6263 44.2406 42.7704 44.3725 42.0839 44.27Z" fill="#905A09"/>
<path fill-rule="evenodd" clip-rule="evenodd" d="M57.0839 44.73C56.3659 44.8372 55.7851 45.21 55.49 45.4995C55.214 45.7702 54.7708 45.766 54.5001 45.49C54.2294 45.214 54.2336 44.7708 54.5096 44.5001C54.9838 44.0349 55.8261 43.5022 56.8772 43.3453C57.96 43.1837 59.2195 43.429 60.4503 44.464C60.7462 44.7128 60.7844 45.1544 60.5356 45.4503C60.2868 45.7462 59.8452 45.7844 59.5493 45.5355C58.6263 44.7594 57.7704 44.6275 57.0839 44.73Z" fill="#905A09"/>
<circle cx="42.3846" cy="51.3846" r="1.38462" fill="white"/>
<circle cx="56.3846" cy="51.3846" r="1.38462" fill="white"/>
<circle cx="43.9999" cy="53.4618" r="0.692308" fill="white"/>
<circle cx="57.9999" cy="53.4618" r="0.692308" fill="white"/>
<path fill-rule="evenodd" clip-rule="evenodd" d="M42.1071 59.3561C42.3168 59.0052 42.7646 58.8949 43.1071 59.1097L44.561 60.0216C45.5423 60.637 46.7687 60.6732 47.783 60.1166C49.1679 59.3566 50.8321 59.3566 52.217 60.1166C53.2313 60.6732 54.4577 60.637 55.439 60.0216L56.8929 59.1097C57.2354 58.8949 57.6832 59.0052 57.8929 59.3561C58.1026 59.707 57.9949 60.1656 57.6524 60.3805L56.1985 61.2923C54.7767 62.1841 52.9997 62.2365 51.5301 61.43C50.5743 60.9055 49.4257 60.9055 48.4699 61.43C47.0003 62.2365 45.2234 62.1841 43.8015 61.2923L42.3476 60.3805C42.0051 60.1656 41.8974 59.707 42.1071 59.3561Z" fill="#A75A00"/>
</svg>
