<svg width="100" height="100" viewBox="0 0 100 100" fill="none" xmlns="http://www.w3.org/2000/svg">
<path d="M51 57C51 57.5523 50.5523 58 50 58C49.4477 58 49 57.5523 49 57C49 56.4477 49.4477 56 50 56C50.5523 56 51 56.4477 51 57Z" fill="black"/>
<path fill-rule="evenodd" clip-rule="evenodd" d="M42.1031 59.3346C42.305 59.0049 42.7359 58.9012 43.0656 59.1031L44.465 59.9598C45.4095 60.5382 46.5899 60.5721 47.5662 60.0491C48.8992 59.335 50.501 59.335 51.834 60.0491C52.8103 60.5721 53.9907 60.5382 54.9353 59.9598L56.3346 59.1031C56.6643 58.9012 57.0952 59.0049 57.2971 59.3346C57.499 59.6643 57.3953 60.0952 57.0656 60.2971L55.6663 61.1538C54.2977 61.9917 52.5874 62.041 51.1729 61.2832C50.2529 60.7903 49.1473 60.7903 48.2273 61.2832C46.8128 62.041 45.1025 61.9917 43.7339 61.1538L42.3346 60.2971C42.0049 60.0952 41.9012 59.6643 42.1031 59.3346Z" fill="#A75A00"/>
<path d="M56.0134 58.3948L51.863 56.9219C51.3438 56.7377 50.8552 57.198 51.0082 57.7273L52.2315 61.9579C52.3625 62.4698 52.6243 62.961 53.0171 63.3779C54.2071 64.6409 56.1493 64.7437 57.3553 63.6075C58.5612 62.4714 58.5741 60.5264 57.3841 59.2634C56.9913 58.8465 56.5166 58.556 56.0134 58.3948Z" fill="white"/>
<path d="M38 52.7982C39.3125 53.0642 42.55 53.2771 45 52" stroke="#905A09" stroke-width="1.4" stroke-linecap="round"/>
<path d="M62 52.7982C60.6875 53.0642 57.45 53.2771 55 52" stroke="#905A09" stroke-width="1.4" stroke-linecap="round"/>
</svg>
