<svg width="100" height="100" viewBox="0 0 100 100" fill="none" xmlns="http://www.w3.org/2000/svg">
<path fill-rule="evenodd" clip-rule="evenodd" d="M52.6027 63.3665C52.916 62.7957 52.982 62.1139 52.7971 61.4701C52.6123 60.8263 52.1878 60.2597 51.6071 59.8992C51.0249 59.5378 50.3316 59.4132 49.6812 59.5661C49.3049 59.6546 49.0863 60.0276 49.193 60.3992C49.2997 60.7708 49.6913 61.0003 50.0676 60.9117C50.3323 60.8495 50.6254 60.8971 50.8839 61.0576C51.1438 61.2189 51.3454 61.4811 51.4343 61.7906C51.5232 62.1 51.4881 62.4179 51.3478 62.6734C51.2084 62.9273 50.978 63.0981 50.7133 63.1604C50.3369 63.2489 50.1184 63.6219 50.225 63.9934C50.3317 64.365 50.7233 64.5945 51.0997 64.506C51.7501 64.353 52.2886 63.9387 52.6027 63.3665Z" fill="#A75A00"/>
<path d="M51 57C51 57.5523 50.5523 58 50 58C49.4477 58 49 57.5523 49 57C49 56.4477 49.4477 56 50 56C50.5523 56 51 56.4477 51 57Z" fill="black"/>
<path d="M47 53C47 55.2091 45.2091 57 43 57C40.7909 57 39 55.2091 39 53C39 50.7909 40.7909 49 43 49C45.2091 49 47 50.7909 47 53Z" fill="white"/>
<path d="M45 53C45 54.1046 44.1046 55 43 55C41.8954 55 41 54.1046 41 53C41 51.8954 41.8954 51 43 51C44.1046 51 45 51.8954 45 53Z" fill="black"/>
<path d="M61 53C61 55.2091 59.2091 57 57 57C54.7909 57 53 55.2091 53 53C53 50.7909 54.7909 49 57 49C59.2091 49 61 50.7909 61 53Z" fill="white"/>
<path d="M59 53C59 54.1046 58.1046 55 57 55C55.8954 55 55 54.1046 55 53C55 51.8954 55.8954 51 57 51C58.1046 51 59 51.8954 59 53Z" fill="black"/>
<path fill-rule="evenodd" clip-rule="evenodd" d="M45.5254 47.3527C45.4391 47.7296 45.0636 47.9651 44.6868 47.8788L38.7575 46.521C38.3807 46.4347 38.1451 46.0592 38.2314 45.6824C38.3177 45.3055 38.6932 45.07 39.07 45.1563L44.9993 46.5141C45.3761 46.6004 45.6117 46.9759 45.5254 47.3527Z" fill="#905A09"/>
<path fill-rule="evenodd" clip-rule="evenodd" d="M54.1099 47.3527C54.1962 47.7296 54.5716 47.9651 54.9485 47.8788L60.8778 46.521C61.2546 46.4347 61.4901 46.0592 61.4038 45.6824C61.3175 45.3055 60.9421 45.07 60.5652 45.1563L54.636 46.5141C54.2591 46.6004 54.0236 46.9759 54.1099 47.3527Z" fill="#905A09"/>
</svg>
