<svg width="100" height="100" viewBox="0 0 100 100" fill="none" xmlns="http://www.w3.org/2000/svg">
<path d="M51 57C51 57.5523 50.5523 58 50 58C49.4477 58 49 57.5523 49 57C49 56.4477 49.4477 56 50 56C50.5523 56 51 56.4477 51 57Z" fill="black"/>
<path d="M45 53.0967C45 54.1478 44.1046 55 43 55C41.8954 55 41 54.1478 41 53.0967C41 52.0455 41.8954 51.1933 43 51.1933C44.1046 51.1933 45 52.0455 45 53.0967Z" fill="black"/>
<path fill-rule="evenodd" clip-rule="evenodd" d="M44.0227 50.3764C44.2186 50.7238 44.0815 51.1564 43.7165 51.3428C43.5181 51.4441 43.2174 51.6515 43.0035 51.9103C42.791 52.1675 42.7325 52.3845 42.78 52.5736C42.8763 52.9569 42.6278 53.342 42.225 53.4337C41.8221 53.5254 41.4175 53.2889 41.3211 52.9055C41.1271 52.1331 41.4554 51.4745 41.8245 51.0279C42.1922 50.5829 42.6679 50.2582 43.0073 50.085C43.3723 49.8986 43.8269 50.0291 44.0227 50.3764Z" fill="black"/>
<path d="M59 53.0967C59 54.1478 58.1046 55 57 55C55.8954 55 55 54.1478 55 53.0967C55 52.0455 55.8954 51.1933 57 51.1933C58.1046 51.1933 59 52.0455 59 53.0967Z" fill="black"/>
<path fill-rule="evenodd" clip-rule="evenodd" d="M58.0227 50.3764C58.2186 50.7238 58.0815 51.1564 57.7165 51.3428C57.5181 51.4441 57.2174 51.6515 57.0035 51.9103C56.791 52.1675 56.7325 52.3845 56.78 52.5736C56.8763 52.9569 56.6278 53.342 56.225 53.4337C55.8221 53.5254 55.4175 53.2889 55.3211 52.9055C55.1271 52.1331 55.4554 51.4745 55.8245 51.0279C56.1922 50.5829 56.6679 50.2582 57.0073 50.085C57.3723 49.8986 57.8269 50.0291 58.0227 50.3764Z" fill="black"/>
<path d="M52 61C52 62.1046 51.1046 63.0001 50 63.0001C48.8954 63.0001 48 62.1046 48 61C48 59.8954 48.8954 59 50 59C51.1046 59 52 59.8954 52 61Z" fill="#E16037"/>
<path fill-rule="evenodd" clip-rule="evenodd" d="M42.0839 47.73C41.3659 47.8372 40.7851 48.21 40.49 48.4995C40.214 48.7702 39.7708 48.766 39.5001 48.49C39.2294 48.214 39.2336 47.7708 39.5096 47.5001C39.9838 47.0349 40.8261 46.5022 41.8772 46.3453C42.96 46.1837 44.2195 46.429 45.4503 47.464C45.7462 47.7128 45.7844 48.1544 45.5356 48.4503C45.2868 48.7462 44.8452 48.7844 44.5493 48.5355C43.6263 47.7594 42.7704 47.6275 42.0839 47.73Z" fill="#905A09"/>
<path fill-rule="evenodd" clip-rule="evenodd" d="M57.0839 47.73C56.3659 47.8372 55.7851 48.21 55.49 48.4995C55.214 48.7702 54.7708 48.766 54.5001 48.49C54.2294 48.214 54.2336 47.7708 54.5096 47.5001C54.9838 47.0349 55.8261 46.5022 56.8772 46.3453C57.96 46.1837 59.2195 46.429 60.4503 47.464C60.7462 47.7128 60.7844 48.1544 60.5356 48.4503C60.2868 48.7462 59.8452 48.7844 59.5493 48.5355C58.6263 47.7594 57.7704 47.6275 57.0839 47.73Z" fill="#905A09"/>
</svg>
