<svg width="100" height="100" viewBox="0 0 100 100" fill="none" xmlns="http://www.w3.org/2000/svg">
<path d="M51 57C51 57.5523 50.5523 58 50 58C49.4477 58 49 57.5523 49 57C49 56.4477 49.4477 56 50 56C50.5523 56 51 56.4477 51 57Z" fill="black"/>
<path d="M45 53.0967C45 54.1478 44.1046 55 43 55C41.8954 55 41 54.1478 41 53.0967C41 52.0455 41.8954 51.1933 43 51.1933C44.1046 51.1933 45 52.0455 45 53.0967Z" fill="black"/>
<path fill-rule="evenodd" clip-rule="evenodd" d="M44.0227 50.3764C44.2186 50.7238 44.0815 51.1564 43.7165 51.3428C43.5181 51.4441 43.2174 51.6515 43.0035 51.9103C42.791 52.1675 42.7325 52.3845 42.78 52.5736C42.8763 52.9569 42.6278 53.342 42.225 53.4337C41.8221 53.5254 41.4175 53.2889 41.3211 52.9055C41.1271 52.1331 41.4554 51.4745 41.8245 51.0279C42.1922 50.5829 42.6679 50.2582 43.0073 50.085C43.3723 49.8986 43.8269 50.0291 44.0227 50.3764Z" fill="black"/>
<path d="M59 53.0967C59 54.1478 58.1046 55 57 55C55.8954 55 55 54.1478 55 53.0967C55 52.0455 55.8954 51.1933 57 51.1933C58.1046 51.1933 59 52.0455 59 53.0967Z" fill="black"/>
<path fill-rule="evenodd" clip-rule="evenodd" d="M58.0227 50.3764C58.2186 50.7238 58.0815 51.1564 57.7165 51.3428C57.5181 51.4441 57.2174 51.6515 57.0035 51.9103C56.791 52.1675 56.7325 52.3845 56.78 52.5736C56.8763 52.9569 56.6278 53.342 56.225 53.4337C55.8221 53.5254 55.4175 53.2889 55.3211 52.9055C55.1271 52.1331 55.4554 51.4745 55.8245 51.0279C56.1922 50.5829 56.6679 50.2582 57.0073 50.085C57.3723 49.8986 57.8269 50.0291 58.0227 50.3764Z" fill="black"/>
<path fill-rule="evenodd" clip-rule="evenodd" d="M50 62L44.4957 60.2852C44.1108 60.1653 43.9073 59.7887 44.0412 59.4439C44.175 59.0992 44.5956 58.917 44.9804 59.0369L50 60.6006L55.0196 59.0369C55.4044 58.917 55.825 59.0992 55.9588 59.4439C56.0927 59.7887 55.8892 60.1653 55.5043 60.2852L50 62Z" fill="#A75A00"/>
<path fill-rule="evenodd" clip-rule="evenodd" d="M43.0059 47.9889C43.728 48.0642 44.3835 47.848 44.7414 47.6413C45.0762 47.448 45.5043 47.5627 45.6976 47.8975C45.8909 48.2322 45.7763 48.6604 45.4415 48.8537C44.8662 49.1859 43.9177 49.4916 42.8606 49.3813C41.7718 49.2677 40.6133 48.7159 39.6796 47.4066C39.4551 47.0919 39.5283 46.6547 39.8431 46.4303C40.1578 46.2058 40.595 46.279 40.8194 46.5937C41.5196 47.5756 42.3156 47.9169 43.0059 47.9889Z" fill="#905A09"/>
<path fill-rule="evenodd" clip-rule="evenodd" d="M57.1767 47.9889C56.4546 48.0642 55.7992 47.848 55.4412 47.6413C55.1064 47.448 54.6783 47.5627 54.485 47.8975C54.2917 48.2322 54.4063 48.6604 54.7411 48.8537C55.3164 49.1859 56.2649 49.4916 57.322 49.3813C58.4108 49.2677 59.5693 48.7159 60.503 47.4066C60.7275 47.0919 60.6543 46.6547 60.3395 46.4303C60.0248 46.2058 59.5877 46.279 59.3632 46.5937C58.663 47.5756 57.8671 47.9169 57.1767 47.9889Z" fill="#905A09"/>
</svg>
