<svg width="100" height="100" viewBox="0 0 100 100" fill="none" xmlns="http://www.w3.org/2000/svg">
<path d="M51 57C51 57.5523 50.5523 58 50 58C49.4477 58 49 57.5523 49 57C49 56.4477 49.4477 56 50 56C50.5523 56 51 56.4477 51 57Z" fill="black"/>
<path fill-rule="evenodd" clip-rule="evenodd" d="M40.0266 51.4889C40.1339 51.1341 40.535 50.9261 40.9225 51.0243L45.3748 52.1533C46.1902 52.3601 46.2145 53.4107 45.4094 53.6489L40.952 54.9675C40.5694 55.0807 40.1591 54.8885 40.0355 54.5381C39.9118 54.1878 40.1218 53.8121 40.5044 53.6989L43.0475 52.9466L40.5339 52.3092C40.1464 52.211 39.9193 51.8437 40.0266 51.4889Z" fill="black"/>
<path fill-rule="evenodd" clip-rule="evenodd" d="M60.3357 51.4889C60.2284 51.1341 59.8273 50.9261 59.4398 51.0243L54.9875 52.1533C54.1721 52.3601 54.1478 53.4107 54.9529 53.6489L59.4103 54.9675C59.7929 55.0807 60.2032 54.8885 60.3269 54.5381C60.4505 54.1878 60.2405 53.8121 59.8579 53.6989L57.3148 52.9466L59.8284 52.3092C60.2159 52.211 60.443 51.8437 60.3357 51.4889Z" fill="black"/>
<rect x="42" y="60" width="16" height="5" rx="2.5" fill="white"/>
<path d="M42 62.5006L58 62.5006" stroke="#FF9A24"/>
<path d="M45.7334 60L45.7334 65" stroke="#FF9A24"/>
<path d="M50 60L50 65" stroke="#FF9A24"/>
<path d="M54.2666 60L54.2666 65" stroke="#FF9A24"/>
<path fill-rule="evenodd" clip-rule="evenodd" d="M43.0059 47.9889C43.728 48.0642 44.3835 47.848 44.7414 47.6413C45.0762 47.448 45.5043 47.5627 45.6976 47.8975C45.8909 48.2322 45.7763 48.6604 45.4415 48.8537C44.8662 49.1859 43.9177 49.4916 42.8606 49.3813C41.7718 49.2677 40.6133 48.7159 39.6796 47.4066C39.4551 47.0919 39.5283 46.6547 39.8431 46.4303C40.1578 46.2058 40.595 46.279 40.8194 46.5937C41.5196 47.5756 42.3156 47.9169 43.0059 47.9889Z" fill="#905A09"/>
<path fill-rule="evenodd" clip-rule="evenodd" d="M57.1767 47.9889C56.4546 48.0642 55.7992 47.848 55.4412 47.6413C55.1064 47.448 54.6783 47.5627 54.485 47.8975C54.2917 48.2322 54.4063 48.6604 54.7411 48.8537C55.3164 49.1859 56.2649 49.4916 57.322 49.3813C58.4108 49.2677 59.5693 48.7159 60.503 47.4066C60.7275 47.0919 60.6543 46.6547 60.3395 46.4303C60.0248 46.2058 59.5877 46.279 59.3632 46.5937C58.663 47.5756 57.8671 47.9169 57.1767 47.9889Z" fill="#905A09"/>
</svg>
