<svg width="100" height="100" viewBox="0 0 100 100" fill="none" xmlns="http://www.w3.org/2000/svg">
<path fill-rule="evenodd" clip-rule="evenodd" d="M44.4957 61.285C48.0803 62.4017 51.9197 62.4017 55.5043 61.285C55.8892 61.1651 56.0927 60.7885 55.9588 60.4437C55.825 60.099 55.4044 59.9168 55.0196 60.0367C51.7507 61.055 48.2493 61.055 44.9804 60.0367C44.5956 59.9168 44.175 60.099 44.0412 60.4437C43.9073 60.7885 44.1108 61.1651 44.4957 61.285Z" fill="#A75A00"/>
<path d="M38.6166 56.4706C36.7625 54.6 34.9294 49.7163 36.752 47.8124C38.5747 45.9084 43.3629 47.7051 45.217 49.5756C47.0711 51.4462 47.0966 54.5061 45.2739 56.4101C43.4512 58.3141 40.4707 58.3412 38.6166 56.4706Z" fill="black"/>
<path d="M61.0079 56.4706C62.862 54.6 64.6951 49.7163 62.8725 47.8124C61.0498 45.9084 56.2616 47.7051 54.4075 49.5756C52.5534 51.4462 52.528 54.5061 54.3506 56.4101C56.1733 58.3141 59.1539 58.3412 61.0079 56.4706Z" fill="black"/>
<path d="M45 52C45 52.5523 44.5523 53 44 53C43.4477 53 43 52.5523 43 52C43 51.4477 43.4477 51 44 51C44.5523 51 45 51.4477 45 52Z" fill="white"/>
<path d="M57 52C57 52.5523 56.5523 53 56 53C55.4477 53 55 52.5523 55 52C55 51.4477 55.4477 51 56 51C56.5523 51 57 51.4477 57 52Z" fill="white"/>
</svg>
