<svg width="100" height="100" viewBox="0 0 100 100" fill="none" xmlns="http://www.w3.org/2000/svg">
<path d="M51 56.9961C51 57.5484 50.5523 57.9961 50 57.9961C49.4477 57.9961 49 57.5484 49 56.9961C49 56.4438 49.4477 55.9961 50 55.9961C50.5523 55.9961 51 56.4438 51 56.9961Z" fill="black"/>
<path d="M54.4645 54.2426C53.9266 53.5972 53.5239 52.8198 53.2783 51.9739C52.9703 50.9132 53.8954 50 55 50L61 50C62.1046 50 63.0297 50.9132 62.7217 51.9739C62.4761 52.8198 62.0734 53.5972 61.5355 54.2426C60.5979 55.3679 59.3261 56 58 56C56.6739 56 55.4021 55.3679 54.4645 54.2426Z" fill="white"/>
<path d="M38.4645 54.2426C37.9266 53.5972 37.5239 52.8198 37.2783 51.9739C36.9703 50.9132 37.8954 50 39 50L45 50C46.1046 50 47.0297 50.9132 46.7217 51.9739C46.4761 52.8198 46.0734 53.5972 45.5355 54.2426C44.5979 55.3679 43.3261 56 42 56C40.6739 56 39.4021 55.3679 38.4645 54.2426Z" fill="white"/>
<path fill-rule="evenodd" clip-rule="evenodd" d="M42.4029 62.3617C42.6048 62.6914 43.0357 62.795 43.3654 62.5932L44.7648 61.7364C45.7093 61.1581 46.8897 61.1242 47.866 61.6472C49.199 62.3613 50.8008 62.3613 52.1338 61.6472C53.1101 61.1242 54.2905 61.1581 55.2351 61.7364L56.6344 62.5932C56.9641 62.795 57.395 62.6914 57.5969 62.3617C57.7988 62.032 57.6951 61.6011 57.3654 61.3992L55.9661 60.5425C54.5975 59.7045 52.8872 59.6553 51.4727 60.4131C50.5527 60.9059 49.4471 60.9059 48.5271 60.4131C47.1126 59.6553 45.4023 59.7045 44.0337 60.5425L42.6344 61.3992C42.3047 61.6011 42.201 62.032 42.4029 62.3617Z" fill="#A75A00"/>
<path d="M44 52C44 53.1046 43.1046 54 42 54C40.8954 54 40 53.1046 40 52C40 50.8954 40.8954 50 42 50C43.1046 50 44 50.8954 44 52Z" fill="black"/>
<path d="M60 52C60 53.1046 59.1046 54 58 54C56.8954 54 56 53.1046 56 52C56 50.8954 56.8954 50 58 50C59.1046 50 60 50.8954 60 52Z" fill="black"/>
<path fill-rule="evenodd" clip-rule="evenodd" d="M37.5 47C37.5 46.1716 38.1716 45.5 39 45.5H45C45.8284 45.5 46.5 46.1716 46.5 47C46.5 47.8284 45.8284 48.5 45 48.5H39C38.1716 48.5 37.5 47.8284 37.5 47Z" fill="#905A09"/>
<path fill-rule="evenodd" clip-rule="evenodd" d="M53.5 47C53.5 46.1716 54.1716 45.5 55 45.5H61C61.8284 45.5 62.5 46.1716 62.5 47C62.5 47.8284 61.8284 48.5 61 48.5H55C54.1716 48.5 53.5 47.8284 53.5 47Z" fill="#905A09"/>
</svg>
