<svg width="100" height="100" viewBox="0 0 100 100" fill="none" xmlns="http://www.w3.org/2000/svg">
<rect x="42" y="60" width="16" height="5" rx="2.5" fill="white"/>
<path d="M42 62.5006L58 62.5006" stroke="#FF9A24"/>
<path d="M45.7334 60L45.7334 65" stroke="#FF9A24"/>
<path d="M50 60L50 65" stroke="#FF9A24"/>
<path d="M54.2666 60L54.2666 65" stroke="#FF9A24"/>
<path fill-rule="evenodd" clip-rule="evenodd" d="M42.8584 47.8414C43.5805 47.9167 44.236 47.7005 44.5939 47.4939C44.9287 47.3005 45.3568 47.4152 45.5502 47.75C45.7435 48.0848 45.6288 48.5129 45.294 48.7062C44.7188 49.0384 43.7703 49.3441 42.7132 49.2339C41.6243 49.1203 40.4659 48.5685 39.5321 47.2592C39.3077 46.9444 39.3809 46.5073 39.6956 46.2828C40.0104 46.0583 40.4475 46.1315 40.672 46.4463C41.3722 47.4281 42.1681 47.7694 42.8584 47.8414Z" fill="#905A09"/>
<path fill-rule="evenodd" clip-rule="evenodd" d="M57.0293 47.8414C56.3072 47.9167 55.6517 47.7005 55.2938 47.4939C54.959 47.3005 54.5309 47.4152 54.3375 47.75C54.1442 48.0848 54.2589 48.5129 54.5937 48.7062C55.1689 49.0384 56.1174 49.3441 57.1745 49.2339C58.2634 49.1203 59.4218 48.5685 60.3556 47.2592C60.58 46.9444 60.5068 46.5073 60.1921 46.2828C59.8773 46.0583 59.4402 46.1315 59.2157 46.4463C58.5155 47.4281 57.7196 47.7694 57.0293 47.8414Z" fill="#905A09"/>
<path d="M51 56.9961C51 57.5484 50.5523 57.9961 50 57.9961C49.4477 57.9961 49 57.5484 49 56.9961C49 56.4438 49.4477 55.9961 50 55.9961C50.5523 55.9961 51 56.4438 51 56.9961Z" fill="black"/>
<path d="M38.3935 52.519C38.325 51.6816 38.4431 50.8142 38.729 49.981C39.0876 48.9363 40.3697 48.7219 41.273 49.3575L46.1799 52.8104C47.0832 53.4461 47.3142 54.7253 46.4519 55.4155C45.7643 55.966 44.9876 56.37 44.1763 56.5883C42.7619 56.9689 41.358 56.754 40.2735 55.9909C39.1891 55.2277 38.5128 53.9789 38.3935 52.519Z" fill="white"/>
<path d="M44.2111 53.8702C43.5755 54.7735 42.3279 54.9905 41.4245 54.3548C40.5212 53.7192 40.3042 52.4716 40.9399 51.5682C41.5755 50.6649 42.8231 50.4479 43.7264 51.0836C44.6298 51.7192 44.8468 52.9668 44.2111 53.8702Z" fill="black"/>
<path d="M61.4221 52.519C61.4905 51.6816 61.3725 50.8142 61.0865 49.981C60.7279 48.9363 59.4459 48.7219 58.5425 49.3575L53.6357 52.8104C52.7323 53.4461 52.5013 54.7253 53.3636 55.4155C54.0513 55.966 54.8279 56.37 55.6393 56.5883C57.0536 56.9689 58.4575 56.754 59.542 55.9909C60.6265 55.2277 61.3028 53.9789 61.4221 52.519Z" fill="white"/>
<path d="M55.6048 53.8703C56.2405 54.7736 57.4881 54.9906 58.3914 54.355C59.2947 53.7193 59.5117 52.4717 58.8761 51.5684C58.2404 50.665 56.9928 50.448 56.0895 51.0837C55.1861 51.7194 54.9691 52.967 55.6048 53.8703Z" fill="black"/>
</svg>
