<svg width="100" height="100" viewBox="0 0 100 100" fill="none" xmlns="http://www.w3.org/2000/svg">
<path d="M51 57C51 57.5523 50.5523 58 50 58C49.4477 58 49 57.5523 49 57C49 56.4477 49.4477 56 50 56C50.5523 56 51 56.4477 51 57Z" fill="black"/>
<path d="M47.8787 64.2426C47.558 63.6014 47.3175 62.8299 47.1699 61.9904C46.9786 60.9025 47.8954 60 49 60L51 60C52.1046 60 53.0214 60.9025 52.8301 61.9904C52.6825 62.8299 52.442 63.6014 52.1213 64.2426C51.5587 65.3679 50.7956 66 50 66C49.2043 66 48.4413 65.3679 47.8787 64.2426Z" fill="#E16037"/>
<path d="M45.268 63.8572L46.6085 61.2451C46.7762 60.9183 47.2238 60.9183 47.3915 61.2451L48.732 63.8571C48.9025 64.1654 49 64.5234 49 64.9053C49 66.0622 48.1046 67 47 67C45.8954 67 45 66.0622 45 64.9053C45 64.5234 45.0976 64.1654 45.268 63.8572Z" fill="white"/>
<path fill-rule="evenodd" clip-rule="evenodd" d="M42.1031 59.3346C42.305 59.0049 42.7359 58.9012 43.0656 59.1031L44.465 59.9598C45.4095 60.5382 46.5899 60.5721 47.5662 60.0491C48.8992 59.335 50.501 59.335 51.834 60.0491C52.8103 60.5721 53.9907 60.5382 54.9353 59.9598L56.3346 59.1031C56.6643 58.9012 57.0952 59.0049 57.2971 59.3346C57.499 59.6643 57.3953 60.0952 57.0656 60.2971L55.6663 61.1538C54.2977 61.9917 52.5874 62.041 51.1729 61.2832C50.2529 60.7903 49.1473 60.7903 48.2273 61.2832C46.8128 62.041 45.1025 61.9917 43.7339 61.1538L42.3346 60.2971C42.0049 60.0952 41.9012 59.6643 42.1031 59.3346Z" fill="#A75A00"/>
<path d="M40.2159 55.9397C39.4453 55.6051 38.736 55.0919 38.1362 54.4468C37.3841 53.6379 37.7997 52.4062 38.7863 51.9095L44.1453 49.2112C45.1318 48.7144 46.3688 49.114 46.5707 50.2C46.7318 51.0659 46.7217 51.9413 46.5316 52.7597C46.2001 54.1864 45.3485 55.323 44.1641 55.9194C42.9797 56.5157 41.5595 56.5231 40.2159 55.9397Z" fill="white"/>
<path fill-rule="evenodd" clip-rule="evenodd" d="M41.2142 53.4586C41.3324 53.7044 41.6923 53.7766 42.018 53.6199L44.3771 52.4852C44.7028 52.3285 44.871 52.0023 44.7528 51.7565C44.6346 51.5107 44.2747 51.4385 43.949 51.5952L41.5899 52.7299C41.2642 52.8866 41.0959 53.2128 41.2142 53.4586Z" fill="black"/>
<path d="M59.4677 55.9397C60.2383 55.6051 60.9476 55.0919 61.5474 54.4468C62.2995 53.6379 61.8839 52.4062 60.8973 51.9095L55.5383 49.2112C54.5518 48.7144 53.3148 49.114 53.1129 50.2C52.9518 51.0659 52.9619 51.9413 53.152 52.7597C53.4835 54.1864 54.3351 55.323 55.5195 55.9194C56.7039 56.5157 58.1241 56.5231 59.4677 55.9397Z" fill="white"/>
<path fill-rule="evenodd" clip-rule="evenodd" d="M58.4694 53.4586C58.3512 53.7044 57.9913 53.7766 57.6656 53.6199L55.3065 52.4852C54.9808 52.3285 54.8126 52.0023 54.9308 51.7565C55.049 51.5107 55.4089 51.4385 55.7346 51.5952L58.0937 52.7299C58.4194 52.8866 58.5876 53.2128 58.4694 53.4586Z" fill="black"/>
<ellipse cx="43" cy="46" rx="3" ry="2" fill="#905A09"/>
<ellipse cx="57" cy="46" rx="3" ry="2" fill="#905A09"/>
</svg>
