<svg width="100" height="100" viewBox="0 0 100 100" fill="none" xmlns="http://www.w3.org/2000/svg">
<path d="M51 57C51 57.5523 50.5523 58 50 58C49.4477 58 49 57.5523 49 57C49 56.4477 49.4477 56 50 56C50.5523 56 51 56.4477 51 57Z" fill="black"/>
<circle cx="43" cy="53" r="3" fill="black"/>
<circle cx="42.3075" cy="52.3076" r="1.38462" fill="white"/>
<circle cx="43.9228" cy="54.3847" r="0.692308" fill="white"/>
<circle cx="57" cy="53" r="3" fill="black"/>
<circle cx="56.3075" cy="52.3076" r="1.38462" fill="white"/>
<circle cx="57.9228" cy="54.3847" r="0.692308" fill="white"/>
<path fill-rule="evenodd" clip-rule="evenodd" d="M44.4957 60.2855C48.0803 61.4022 51.9197 61.4022 55.5043 60.2855C55.8892 60.1656 56.0927 59.789 55.9588 59.4442C55.825 59.0995 55.4044 58.9172 55.0196 59.0371C51.7507 60.0555 48.2493 60.0555 44.9804 59.0371C44.5956 58.9172 44.175 59.0995 44.0412 59.4442C43.9073 59.789 44.1108 60.1656 44.4957 60.2855Z" fill="#A75A00"/>
<path fill-rule="evenodd" clip-rule="evenodd" d="M42.8193 46.9971C43.4515 46.6402 43.8607 46.0844 44.0327 45.7086C44.1937 45.3571 44.6091 45.2026 44.9606 45.3636C45.3121 45.5245 45.4666 45.9399 45.3056 46.2914C45.0291 46.8954 44.4329 47.694 43.5073 48.2163C42.5539 48.7544 41.2899 48.9755 39.7704 48.4489C39.4051 48.3223 39.2116 47.9236 39.3382 47.5583C39.4648 47.193 39.8635 46.9995 40.2288 47.1261C41.3683 47.5209 42.2148 47.3382 42.8193 46.9971Z" fill="#905A09"/>
<path fill-rule="evenodd" clip-rule="evenodd" d="M57.2345 46.9971C56.6022 46.6402 56.193 46.0844 56.021 45.7086C55.86 45.3571 55.4446 45.2026 55.0931 45.3636C54.7416 45.5245 54.5871 45.9399 54.7481 46.2914C55.0246 46.8954 55.6208 47.694 56.5464 48.2163C57.4998 48.7544 58.7638 48.9755 60.2833 48.4489C60.6486 48.3223 60.8421 47.9236 60.7155 47.5583C60.5889 47.193 60.1902 46.9995 59.8249 47.1261C58.6854 47.5209 57.8389 47.3382 57.2345 46.9971Z" fill="#905A09"/>
</svg>
