<svg width="100" height="100" viewBox="0 0 100 100" fill="none" xmlns="http://www.w3.org/2000/svg">
<path d="M59 53.0967C59 54.1478 58.1046 55 57 55C55.8954 55 55 54.1478 55 53.0967C55 52.0455 55.8954 51.1933 57 51.1933C58.1046 51.1933 59 52.0455 59 53.0967Z" fill="black"/>
<path fill-rule="evenodd" clip-rule="evenodd" d="M58.0227 50.3764C58.2186 50.7238 58.0815 51.1564 57.7165 51.3428C57.5181 51.4441 57.2174 51.6515 57.0035 51.9103C56.791 52.1675 56.7325 52.3845 56.78 52.5736C56.8763 52.9569 56.6278 53.342 56.225 53.4337C55.8221 53.5254 55.4175 53.2889 55.3211 52.9055C55.1271 52.1331 55.4554 51.4745 55.8245 51.0279C56.1922 50.5829 56.6679 50.2582 57.0073 50.085C57.3723 49.8986 57.8269 50.0291 58.0227 50.3764Z" fill="black"/>
<path d="M51 57C51 57.5523 50.5523 58 50 58C49.4477 58 49 57.5523 49 57C49 56.4477 49.4477 56 50 56C50.5523 56 51 56.4477 51 57Z" fill="black"/>
<path fill-rule="evenodd" clip-rule="evenodd" d="M41.0222 51.4889C41.1116 51.1341 41.4458 50.9261 41.7687 51.0243L45.479 52.1533C46.1585 52.3601 46.1788 53.4107 45.5078 53.6489L41.7933 54.9675C41.4745 55.0807 41.1326 54.8885 41.0295 54.5381C40.9265 54.1878 41.1015 53.8121 41.4203 53.6989L43.5396 52.9466L41.4449 52.3092C41.122 52.211 40.9327 51.8437 41.0222 51.4889Z" fill="black"/>
<path fill-rule="evenodd" clip-rule="evenodd" d="M41.7841 47.4302C41.0661 47.5374 40.4853 47.9102 40.1902 48.1997C39.9142 48.4704 39.471 48.4662 39.2003 48.1902C38.9296 47.9142 38.9338 47.471 39.2098 47.2003C39.684 46.7351 40.5263 46.2024 41.5774 46.0455C42.6602 45.8839 43.9197 46.1292 45.1505 47.1642C45.4464 47.413 45.4846 47.8546 45.2358 48.1505C44.987 48.4464 44.5454 48.4845 44.2495 48.2357C43.3265 47.4596 42.4706 47.3277 41.7841 47.4302Z" fill="#905A09"/>
<path fill-rule="evenodd" clip-rule="evenodd" d="M56.7841 47.4302C56.0661 47.5374 55.4853 47.9102 55.1902 48.1997C54.9142 48.4704 54.471 48.4662 54.2003 48.1902C53.9296 47.9142 53.9338 47.471 54.2098 47.2003C54.684 46.7351 55.5263 46.2024 56.5774 46.0455C57.6602 45.8839 58.9197 46.1292 60.1505 47.1642C60.4464 47.413 60.4846 47.8546 60.2358 48.1505C59.987 48.4464 59.5454 48.4845 59.2495 48.2357C58.3265 47.4596 57.4706 47.3277 56.7841 47.4302Z" fill="#905A09"/>
<path d="M47.8787 61.5457C47.7209 61.3563 47.5825 61.1481 47.465 60.9254C46.9498 59.9484 47.8954 59.0001 49 59.0001L51 59.0001C52.1046 59.0001 53.0502 59.9484 52.535 60.9254C52.4175 61.1481 52.2791 61.3564 52.1213 61.5457C51.5587 62.2208 50.7956 62.6001 50 62.6001C49.2044 62.6001 48.4413 62.2208 47.8787 61.5457Z" fill="#E16037"/>
</svg>
