<svg width="100" height="100" viewBox="0 0 100 100" fill="none" xmlns="http://www.w3.org/2000/svg">
<circle cx="43" cy="53" r="3" fill="black"/>
<circle cx="43" cy="53" r="1" fill="white"/>
<circle cx="57" cy="53" r="3" fill="black"/>
<circle cx="57" cy="53" r="1" fill="white"/>
<path d="M51 56.9961C51 57.5484 50.5523 57.9961 50 57.9961C49.4477 57.9961 49 57.5484 49 56.9961C49 56.4438 49.4477 55.9961 50 55.9961C50.5523 55.9961 51 56.4438 51 56.9961Z" fill="black"/>
<path fill-rule="evenodd" clip-rule="evenodd" d="M45.1988 49.9003C43.0518 48.2801 40.7108 49.2139 39.8012 49.9003C39.5808 50.0666 39.2673 50.0228 39.1009 49.8023C38.9346 49.5819 38.9784 49.2684 39.1988 49.1021C40.2892 48.2792 43.1483 47.1001 45.8012 49.1021C46.0216 49.2684 46.0655 49.5819 45.8991 49.8023C45.7328 50.0228 45.4193 50.0666 45.1988 49.9003Z" fill="black"/>
<path fill-rule="evenodd" clip-rule="evenodd" d="M60.1988 49.9003C58.0518 48.2801 55.7108 49.2139 54.8012 49.9003C54.5808 50.0666 54.2673 50.0228 54.1009 49.8023C53.9346 49.5819 53.9784 49.2684 54.1988 49.1021C55.2892 48.2792 58.1483 47.1001 60.8012 49.1021C61.0216 49.2684 61.0655 49.5819 60.8991 49.8023C60.7328 50.0228 60.4193 50.0666 60.1988 49.9003Z" fill="black"/>
<path d="M55 60L53.7174 61.5391C53.5175 61.7789 53.1491 61.7789 52.9492 61.5391L52.0508 60.4609C51.8509 60.2211 51.4825 60.2211 51.2826 60.4609L50.3841 61.5391C50.1842 61.7789 49.8158 61.7789 49.6159 61.5391L48.7174 60.4609C48.5175 60.2211 48.1491 60.2211 47.9492 60.4609L47.0508 61.5391C46.8509 61.7789 46.4825 61.7789 46.2826 61.5391L45 60" stroke="#F68600" stroke-width="1.4" stroke-linecap="round"/>
</svg>
