<svg width="100" height="100" viewBox="0 0 100 100" fill="none" xmlns="http://www.w3.org/2000/svg">
<path d="M51 57C51 57.5523 50.5523 58 50 58C49.4477 58 49 57.5523 49 57C49 56.4477 49.4477 56 50 56C50.5523 56 51 56.4477 51 57Z" fill="black"/>
<path fill-rule="evenodd" clip-rule="evenodd" d="M42.1031 59.3346C42.305 59.0049 42.7359 58.9012 43.0656 59.1031L44.465 59.9598C45.4095 60.5382 46.5899 60.5721 47.5662 60.0491C48.8992 59.335 50.501 59.335 51.834 60.0491C52.8103 60.5721 53.9907 60.5382 54.9353 59.9598L56.3346 59.1031C56.6643 58.9012 57.0952 59.0049 57.2971 59.3346C57.499 59.6643 57.3953 60.0952 57.0656 60.2971L55.6663 61.1538C54.2977 61.9917 52.5874 62.041 51.1729 61.2832C50.2529 60.7903 49.1473 60.7903 48.2273 61.2832C46.8128 62.041 45.1025 61.9917 43.7339 61.1538L42.3346 60.2971C42.0049 60.0952 41.9012 59.6643 42.1031 59.3346Z" fill="#A75A00"/>
<path d="M40 45.7982C41.3125 46.0642 44.55 46.2771 47 45" stroke="#905A09" stroke-width="1.4" stroke-linecap="round"/>
<path d="M60 45.7982C58.6875 46.0642 55.45 46.2771 53 45" stroke="#905A09" stroke-width="1.4" stroke-linecap="round"/>
<path fill-rule="evenodd" clip-rule="evenodd" d="M45.124 57.3418C45.3977 57.193 45.4776 56.8838 45.3025 56.6512L44.3633 55.404C44.1882 55.1714 43.8243 55.1035 43.5506 55.2523C43.2769 55.4011 43.197 55.7103 43.3721 55.9429L44.3113 57.1902C44.4864 57.4228 44.8503 57.4907 45.124 57.3418Z" fill="black"/>
<path fill-rule="evenodd" clip-rule="evenodd" d="M38.876 57.3418C38.6023 57.193 38.5224 56.8838 38.6975 56.6512L39.6367 55.404C39.8118 55.1714 40.1757 55.1035 40.4494 55.2523C40.7231 55.4011 40.803 55.7103 40.6279 55.9429L39.6887 57.1902C39.5136 57.4228 39.1497 57.4907 38.876 57.3418Z" fill="black"/>
<path fill-rule="evenodd" clip-rule="evenodd" d="M42.1186 57.8936C42.4436 57.8936 42.707 57.6697 42.707 57.3936V55.9936C42.707 55.7174 42.4436 55.4936 42.1186 55.4936C41.7937 55.4936 41.5303 55.7174 41.5303 55.9936V57.3936C41.5303 57.6697 41.7937 57.8936 42.1186 57.8936Z" fill="black"/>
<path d="M46 53C46 55.2091 44.2091 57 42 57C39.7909 57 38 55.2091 38 53C38 50.7909 39.7909 49 42 49C44.2091 49 46 50.7909 46 53Z" fill="white"/>
<path d="M44 53C44 54.1046 43.1046 55 42 55C40.8954 55 40 54.1046 40 53C40 51.8954 40.8954 51 42 51C43.1046 51 44 51.8954 44 53Z" fill="black"/>
<path fill-rule="evenodd" clip-rule="evenodd" d="M61.124 57.3418C61.3977 57.193 61.4776 56.8838 61.3025 56.6512L60.3633 55.404C60.1882 55.1714 59.8243 55.1035 59.5506 55.2523C59.2769 55.4011 59.197 55.7103 59.3721 55.9429L60.3113 57.1902C60.4864 57.4228 60.8503 57.4907 61.124 57.3418Z" fill="black"/>
<path fill-rule="evenodd" clip-rule="evenodd" d="M54.876 57.3418C54.6023 57.193 54.5224 56.8838 54.6975 56.6512L55.6367 55.404C55.8118 55.1714 56.1757 55.1035 56.4494 55.2523C56.7231 55.4011 56.803 55.7103 56.6279 55.9429L55.6887 57.1902C55.5136 57.4228 55.1497 57.4907 54.876 57.3418Z" fill="black"/>
<path fill-rule="evenodd" clip-rule="evenodd" d="M58.1186 57.8936C58.4436 57.8936 58.707 57.6697 58.707 57.3936V55.9936C58.707 55.7174 58.4436 55.4936 58.1186 55.4936C57.7937 55.4936 57.5303 55.7174 57.5303 55.9936V57.3936C57.5303 57.6697 57.7937 57.8936 58.1186 57.8936Z" fill="black"/>
<path d="M62 53C62 55.2091 60.2091 57 58 57C55.7909 57 54 55.2091 54 53C54 50.7909 55.7909 49 58 49C60.2091 49 62 50.7909 62 53Z" fill="white"/>
<path d="M60 53C60 54.1046 59.1046 55 58 55C56.8954 55 56 54.1046 56 53C56 51.8954 56.8954 51 58 51C59.1046 51 60 51.8954 60 53Z" fill="black"/>
</svg>
