<svg width="100" height="100" viewBox="0 0 100 100" fill="none" xmlns="http://www.w3.org/2000/svg">
<circle cx="43" cy="53" r="3" fill="black"/>
<circle cx="42.3075" cy="52.3076" r="1.38462" fill="white"/>
<circle cx="43.9228" cy="54.3848" r="0.692308" fill="white"/>
<circle cx="57" cy="53" r="3" fill="black"/>
<circle cx="56.3075" cy="52.3076" r="1.38462" fill="white"/>
<circle cx="57.9228" cy="54.3848" r="0.692308" fill="white"/>
<path d="M51 56.9961C51 57.5484 50.5523 57.9961 50 57.9961C49.4477 57.9961 49 57.5484 49 56.9961C49 56.4438 49.4477 55.9961 50 55.9961C50.5523 55.9961 51 56.4438 51 56.9961Z" fill="black"/>
<path d="M47.8787 62.5457C47.7209 62.3563 47.5825 62.1481 47.465 61.9254C46.9498 60.9484 47.8954 60.0001 49 60.0001L51 60.0001C52.1046 60.0001 53.0502 60.9484 52.535 61.9254C52.4175 62.1481 52.2791 62.3564 52.1213 62.5457C51.5587 63.2208 50.7956 63.6001 50 63.6001C49.2044 63.6001 48.4413 63.2208 47.8787 62.5457Z" fill="#E16037"/>
<path fill-rule="evenodd" clip-rule="evenodd" d="M45.0539 46.5517C45.2865 46.7006 45.3544 47.0098 45.2056 47.2424L44.4075 48.4896C44.2587 48.7222 43.9495 48.7901 43.7169 48.6413C43.4843 48.4924 43.4164 48.1832 43.5652 47.9506L44.3633 46.7034C44.5121 46.4708 44.8213 46.4029 45.0539 46.5517Z" fill="black"/>
<path fill-rule="evenodd" clip-rule="evenodd" d="M39.7444 46.5517C39.5118 46.7006 39.4439 47.0098 39.5928 47.2424L40.3908 48.4896C40.5397 48.7222 40.8489 48.7901 41.0815 48.6413C41.3141 48.4924 41.382 48.1832 41.2331 47.9506L40.4351 46.7034C40.2862 46.4708 39.977 46.4029 39.7444 46.5517Z" fill="black"/>
<path fill-rule="evenodd" clip-rule="evenodd" d="M42.5 46C42.7761 46 43 46.2239 43 46.5V47.9C43 48.1761 42.7761 48.4 42.5 48.4C42.2239 48.4 42 48.1761 42 47.9V46.5C42 46.2239 42.2239 46 42.5 46Z" fill="black"/>
<path fill-rule="evenodd" clip-rule="evenodd" d="M45.1988 49.9003C43.0518 48.2801 40.7108 49.2139 39.8012 49.9003C39.5808 50.0666 39.2673 50.0228 39.1009 49.8023C38.9346 49.5819 38.9784 49.2684 39.1988 49.1021C40.2892 48.2792 43.1483 47.1001 45.8012 49.1021C46.0216 49.2684 46.0655 49.5819 45.8991 49.8023C45.7328 50.0228 45.4193 50.0666 45.1988 49.9003Z" fill="black"/>
<path fill-rule="evenodd" clip-rule="evenodd" d="M60.0539 46.5517C60.2865 46.7006 60.3544 47.0098 60.2056 47.2424L59.4075 48.4896C59.2587 48.7222 58.9495 48.7901 58.7169 48.6413C58.4843 48.4924 58.4164 48.1832 58.5652 47.9506L59.3633 46.7034C59.5121 46.4708 59.8213 46.4029 60.0539 46.5517Z" fill="black"/>
<path fill-rule="evenodd" clip-rule="evenodd" d="M54.7444 46.5517C54.5118 46.7006 54.4439 47.0098 54.5928 47.2424L55.3908 48.4896C55.5397 48.7222 55.8489 48.7901 56.0815 48.6413C56.3141 48.4924 56.382 48.1832 56.2331 47.9506L55.4351 46.7034C55.2862 46.4708 54.977 46.4029 54.7444 46.5517Z" fill="black"/>
<path fill-rule="evenodd" clip-rule="evenodd" d="M57.5 46C57.7761 46 58 46.2239 58 46.5V47.9C58 48.1761 57.7761 48.4 57.5 48.4C57.2239 48.4 57 48.1761 57 47.9V46.5C57 46.2239 57.2239 46 57.5 46Z" fill="black"/>
<path fill-rule="evenodd" clip-rule="evenodd" d="M60.1988 49.9003C58.0518 48.2801 55.7108 49.2139 54.8012 49.9003C54.5808 50.0666 54.2673 50.0228 54.1009 49.8023C53.9346 49.5819 53.9784 49.2684 54.1988 49.1021C55.2892 48.2792 58.1483 47.1001 60.8012 49.1021C61.0216 49.2684 61.0655 49.5819 60.8991 49.8023C60.7328 50.0228 60.4193 50.0666 60.1988 49.9003Z" fill="black"/>
</svg>
