<svg width="20" height="20" viewBox="0 0 20 20" fill="none" xmlns="http://www.w3.org/2000/svg">
<path d="M12.7576 10.4547L12.3531 10.0536C12.2772 9.97834 12.2477 9.86551 12.2688 9.76104C12.4373 8.94613 12.214 8.27331 11.5945 7.7384C10.9751 7.20349 10.3345 7.01544 9.6392 7.15334C9.52963 7.17424 9.42007 7.14916 9.34421 7.06976L8.94388 6.67276C9.08294 6.60172 9.24308 6.54739 9.41585 6.5056C9.59284 6.46381 9.78669 6.44291 9.9974 6.44291C10.8276 6.44291 11.5313 6.73126 12.1129 7.31214C12.6944 7.88885 12.9852 8.59092 12.9894 9.41C12.9894 9.61895 12.9683 9.81954 12.9262 10.0034C12.884 10.1915 12.8293 10.3419 12.7576 10.4547ZM15.6485 12.8911C15.5263 12.9914 15.3451 12.9872 15.2271 12.8786L14.97 12.6445C15.5726 12.1849 16.1078 11.6834 16.5714 11.1401C17.0349 10.5968 17.4015 10.0201 17.667 9.40582C16.9633 7.93064 15.9308 6.7647 14.5697 5.908C13.2085 5.05131 11.7167 4.62087 10.1027 4.62505C9.6097 4.62505 9.11665 4.66684 8.61939 4.75042C8.2022 4.82146 7.83136 4.90504 7.50688 5.00534C7.3931 5.03877 7.27089 5.0137 7.18661 4.92594L6.81998 4.56237C7.27089 4.38267 7.78501 4.24058 8.36655 4.13611C8.94809 4.03163 9.51699 3.97731 10.0648 3.97731C11.8347 3.97731 13.4824 4.47043 15.0079 5.44831C16.4913 6.40112 17.5912 7.67572 18.3076 9.26791C18.3455 9.35567 18.3455 9.45597 18.3076 9.54373C17.9957 10.204 17.6122 10.8141 17.1613 11.3825C16.7104 11.9508 16.23 12.4231 15.6611 12.8911H15.6485ZM16.4955 17.1495L13.6089 14.3078C13.5119 14.2158 13.3729 14.1908 13.2507 14.2451C12.9135 14.3872 12.4921 14.5167 11.9864 14.6337C11.3754 14.7717 10.7096 14.8427 9.99318 14.8427C8.18113 14.8427 6.52078 14.3538 5.01215 13.3675C3.54986 12.4189 2.44156 11.1443 1.69567 9.55209C1.65353 9.46433 1.65353 9.36403 1.69567 9.27627C2.01172 8.58674 2.43313 7.93064 2.95989 7.30379C3.4403 6.73126 3.95863 6.22978 4.52331 5.79099C4.67502 5.6698 4.69188 5.45249 4.55702 5.31459L2.51741 3.30449C2.39099 3.17912 2.39099 2.97853 2.51741 2.85316L2.52584 2.8448C2.64805 2.72361 2.85032 2.72361 2.97675 2.8448L16.9506 16.7023C17.0686 16.8194 17.077 17.0116 16.9675 17.137C16.8453 17.2749 16.6304 17.2832 16.4997 17.1537L16.4955 17.1495ZM5.25656 6.02501C4.72137 6.37187 4.16933 6.86499 3.592 7.49602C3.05681 8.08526 2.65648 8.6745 2.38678 9.26791C2.34885 9.35567 2.34885 9.46015 2.3952 9.54791C3.09474 10.9604 4.11455 12.0804 5.44619 12.9078C6.8242 13.7645 8.36233 14.1949 10.0606 14.1949C10.6506 14.1949 11.2321 14.1448 11.8094 14.0361C12.3868 13.9317 12.7871 13.823 13.0105 13.7102L11.367 12.0804C11.211 12.1514 11.0003 12.2183 10.7349 12.281C10.4694 12.3437 10.2207 12.3771 9.9974 12.3771C9.16722 12.3771 8.46347 12.0929 7.88193 11.5204C7.30039 10.9479 7.0054 10.2458 7.0054 9.41C7.0054 9.20105 7.03911 8.96285 7.10233 8.69957C7.16554 8.43629 7.23296 8.21899 7.3046 8.05183L5.26078 6.02501H5.25656Z" fill="#333333" stroke="#333333" stroke-width="0.25"/>
</svg>
