<svg width="20" height="20" viewBox="0 0 20 20" fill="none" xmlns="http://www.w3.org/2000/svg">
<mask id="path-1-inside-1_449_46835" fill="white">
<path fill-rule="evenodd" clip-rule="evenodd" d="M10.0007 17.0546C14.7871 17.0546 18.6673 13.6845 18.6673 9.5273C18.6673 5.37009 14.7871 2 10.0007 2C5.28252 2 1.44496 5.27455 1.33635 9.34974C1.33467 9.40585 1.33391 9.46211 1.33399 9.51847C1.33399 9.52141 1.33398 9.52436 1.33398 9.5273C1.33398 9.82636 1.35407 10.1214 1.39312 10.4113C1.41347 10.5838 1.43766 10.7555 1.46337 10.9254C1.65104 12.1598 2.22524 13.2322 3.05488 14.1373C3.40416 14.5186 3.52555 14.9398 3.5613 15.3995C3.6298 16.2818 3.53007 17.146 3.08274 17.9981C3.08255 17.9985 3.08254 17.9989 3.08273 17.9993C3.08299 17.9998 3.08361 18.0001 3.08419 18C3.12676 17.9906 3.15938 17.9841 3.18576 17.9789C3.22676 17.9707 3.25271 17.9655 3.27756 17.9573C4.12879 17.6845 4.87949 17.2428 5.48794 16.5759C5.70168 16.3415 5.93106 16.2971 6.22375 16.3988C7.11387 16.707 8.02916 16.9367 8.96374 17.0013C9.30373 17.0365 9.64975 17.0546 10.0007 17.0546Z"/>
</mask>
<path d="M1.33635 9.34974L2.66909 9.38963L2.66921 9.38526L1.33635 9.34974ZM1.33399 9.51847L2.66733 9.52024L2.66732 9.51656L1.33399 9.51847ZM1.39312 10.4113L2.71727 10.2551L2.71598 10.2442L2.71452 10.2333L1.39312 10.4113ZM1.46337 10.9254L0.145042 11.1249L0.145185 11.1258L1.46337 10.9254ZM3.05488 14.1373L4.03809 13.2367L4.03776 13.2363L3.05488 14.1373ZM3.5613 15.3995L4.89063 15.2963L4.89062 15.2962L3.5613 15.3995ZM3.08274 17.9981L1.90219 17.3784L1.90184 17.3791L3.08274 17.9981ZM3.08273 17.9993L4.27794 17.4083L4.27788 17.4082L3.08273 17.9993ZM3.08419 18L3.36926 19.3025L3.37072 19.3022L3.08419 18ZM3.18576 17.9789L2.92481 16.6713L2.9248 16.6713L3.18576 17.9789ZM3.27756 17.9573L2.87062 16.6875L2.85836 16.6915L3.27756 17.9573ZM5.48794 16.5759L6.47295 17.4745L6.47311 17.4744L5.48794 16.5759ZM6.22375 16.3988L5.78597 17.6582L5.78755 17.6588L6.22375 16.3988ZM8.96374 17.0013L9.10108 15.675L9.07839 15.6727L9.05564 15.6711L8.96374 17.0013ZM17.334 9.5273C17.334 12.7779 14.2334 15.7213 10.0007 15.7213V18.3879C15.3408 18.3879 20.0007 14.5911 20.0007 9.5273H17.334ZM10.0007 3.33333C14.2334 3.33333 17.334 6.27672 17.334 9.5273H20.0007C20.0007 4.46345 15.3408 0.666667 10.0007 0.666667V3.33333ZM2.66921 9.38526C2.75425 6.19429 5.8314 3.33333 10.0007 3.33333V0.666667C4.73364 0.666667 0.135668 4.3548 0.0034883 9.31421L2.66921 9.38526ZM2.66732 9.51656C2.66726 9.47343 2.66784 9.43113 2.66908 9.38963L0.00361204 9.30984C0.00149417 9.38058 0.000558376 9.4508 0.000658154 9.52039L2.66732 9.51656ZM2.66732 9.5273C2.66732 9.52494 2.66732 9.52259 2.66732 9.52024L0.000658035 9.51671C0.000653386 9.52024 0.000651002 9.52377 0.000651002 9.5273H2.66732ZM2.71452 10.2333C2.68338 10.0021 2.66732 9.76658 2.66732 9.5273H0.000651002C0.000651002 9.88615 0.0247529 10.2406 0.0717186 10.5893L2.71452 10.2333ZM2.7817 10.7259C2.75728 10.5646 2.73534 10.4083 2.71727 10.2551L0.0689709 10.5675C0.0916017 10.7594 0.118043 10.9465 0.145042 11.1249L2.7817 10.7259ZM4.03776 13.2363C3.3588 12.4956 2.92363 11.6595 2.78156 10.725L0.145185 11.1258C0.378462 12.6602 1.09168 13.9688 2.072 15.0382L4.03776 13.2363ZM4.89062 15.2962C4.84004 14.6457 4.65028 13.905 4.03809 13.2367L2.07167 15.0379C2.12753 15.0988 2.15626 15.151 2.17637 15.2049C2.19909 15.2658 2.22057 15.3562 2.23198 15.5029L4.89062 15.2962ZM4.2633 18.6178C4.85739 17.4861 4.97284 16.3551 4.89063 15.2963L2.23197 15.5028C2.28676 16.2085 2.20275 16.8058 1.90219 17.3784L4.2633 18.6178ZM4.27788 17.4082C4.46874 17.7941 4.45954 18.2435 4.26365 18.6172L1.90184 17.3791C1.70556 17.7535 1.69634 18.2037 1.88757 18.5904L4.27788 17.4082ZM2.79912 16.6975C3.37508 16.5714 3.99702 16.8402 4.27794 17.4083L1.88751 18.5903C2.16897 19.1595 2.79213 19.4288 3.36926 19.3025L2.79912 16.6975ZM2.9248 16.6713C2.89721 16.6768 2.8538 16.6855 2.79766 16.6978L3.37072 19.3022C3.39972 19.2958 3.42154 19.2914 3.44671 19.2864L2.9248 16.6713ZM2.85836 16.6915C2.89944 16.6779 2.93085 16.6705 2.94213 16.6679C2.94724 16.6668 2.94927 16.6664 2.94549 16.6671C2.94136 16.668 2.936 16.6691 2.92481 16.6713L3.44671 19.2864C3.46314 19.2831 3.57784 19.2624 3.69675 19.223L2.85836 16.6915ZM4.50294 15.6773C4.074 16.1474 3.53425 16.4749 2.87064 16.6875L3.68447 19.227C4.72334 18.894 5.68499 18.3382 6.47295 17.4745L4.50294 15.6773ZM6.66152 15.1394C6.35992 15.0346 5.9651 14.9614 5.52793 15.0618C5.08151 15.1643 4.74489 15.412 4.50277 15.6775L6.47311 17.4744C6.44474 17.5055 6.32967 17.6138 6.12455 17.6609C5.92868 17.7058 5.79489 17.6613 5.78598 17.6582L6.66152 15.1394ZM9.05564 15.6711C8.27559 15.6172 7.48071 15.423 6.65994 15.1388L5.78755 17.6588C6.74704 17.991 7.78272 18.2562 8.87185 18.3314L9.05564 15.6711ZM10.0007 15.7213C9.69565 15.7213 9.39546 15.7055 9.10108 15.675L8.82641 18.3275C9.21199 18.3674 9.60386 18.3879 10.0007 18.3879V15.7213Z" fill="#337AFF" mask="url(#path-1-inside-1_449_46835)"/>
</svg>
