<svg width="20" height="20" viewBox="0 0 20 20" fill="none" xmlns="http://www.w3.org/2000/svg">
<g clip-path="url(#clip0_301_32393)">
<mask id="mask0_301_32393" style="mask-type:luminance" maskUnits="userSpaceOnUse" x="1" y="4" width="18" height="12">
<path fill-rule="evenodd" clip-rule="evenodd" d="M1.66602 4.44434H18.3326V15.6284H1.66602V4.44434Z" fill="white"/>
</mask>
<g mask="url(#mask0_301_32393)">
<path fill-rule="evenodd" clip-rule="evenodd" d="M2.97331 10.0366C4.52331 12.8901 7.13414 14.5866 9.99831 14.5873C12.8625 14.5866 15.4733 12.8901 17.0233 10.0366C15.4733 7.18384 12.8625 5.48731 9.99831 5.48661C7.13497 5.48731 4.52331 7.18384 2.97331 10.0366ZM10.0003 15.6289H9.99699H9.99615C6.54949 15.6268 3.45449 13.6136 1.71615 10.2421C1.64865 10.1108 1.64865 9.96222 1.71615 9.83097C3.45449 6.46013 6.55032 4.44694 9.99615 4.44486C9.99782 4.44416 9.99782 4.44416 9.99865 4.44486C10.0003 4.44416 10.0003 4.44416 10.0012 4.44486C13.4478 4.44694 16.5428 6.46013 18.2812 9.83097C18.3495 9.96222 18.3495 10.1108 18.2812 10.2421C16.5437 13.6136 13.4478 15.6268 10.0012 15.6289H10.0003Z" fill="#333333"/>
</g>
<circle cx="10" cy="10" r="3.04167" stroke="#333333" stroke-width="1.08333"/>
</g>
<defs>
<clipPath id="clip0_301_32393">
<rect width="20" height="20" fill="white"/>
</clipPath>
</defs>
</svg>
