<svg width="20" height="20" viewBox="0 0 20 20" fill="none" xmlns="http://www.w3.org/2000/svg">
<path fill-rule="evenodd" clip-rule="evenodd" d="M11.7433 3.38423C11.2859 1.53859 8.7141 1.53859 8.25671 3.38423C7.98217 4.49202 6.7915 5.07667 5.7709 4.60483C4.07052 3.81872 2.46704 5.86891 3.59705 7.38426C4.27531 8.29382 3.98124 9.60752 2.98311 10.1269C1.32017 10.9923 1.89244 13.5488 3.75894 13.5928C4.87926 13.6192 5.70323 14.6727 5.47918 15.7923C5.1059 17.6575 7.42301 18.7953 8.62048 17.3348C9.33923 16.4581 10.6608 16.4581 11.3795 17.3348C12.577 18.7953 14.8941 17.6575 14.5208 15.7923C14.2968 14.6727 15.1207 13.6192 16.2411 13.5928C18.1076 13.5488 18.6798 10.9923 17.0169 10.1269C16.0188 9.60752 15.7247 8.29382 16.4029 7.38426C17.533 5.86891 15.9295 3.81872 14.2291 4.60483C13.2085 5.07667 12.0178 4.49202 11.7433 3.38423ZM10.0003 14.9728C12.5221 14.9728 14.5664 12.8884 14.5664 10.317C14.5664 7.74573 12.5221 5.66127 10.0003 5.66127C7.47848 5.66127 5.43415 7.74573 5.43415 10.317C5.43415 12.8884 7.47848 14.9728 10.0003 14.9728Z" fill="#999999"/>
</svg>
