<svg width="16" height="16" viewBox="0 0 16 16" fill="none" xmlns="http://www.w3.org/2000/svg">
<path d="M4.79922 4.79951L6.69013 3.99951H9.74467L11.4901 5.26267L12.3992 6.39951L12.7992 7.78899L12.3992 8.79951L11.1992 10.3995L8.39922 11.5995L5.8174 11.5785L4.79922 11.5995L3.63558 9.05214L3.19922 7.59951L4.79922 4.79951Z" fill="#337AFF"/>
<mask id="path-2-inside-1_3566_10632" fill="white">
<path fill-rule="evenodd" clip-rule="evenodd" d="M7.99982 11.9491C10.6802 11.9491 12.8532 10.0619 12.8532 7.73384C12.8532 5.4058 10.6802 3.51855 7.99982 3.51855C5.35858 3.51855 3.21012 5.35103 3.14787 7.63204C3.14689 7.66421 3.14644 7.69646 3.14649 7.72877C3.14649 7.73046 3.14648 7.73215 3.14648 7.73384C3.14648 7.90195 3.15781 8.06776 3.17985 8.23072C3.19119 8.32662 3.20465 8.42207 3.21894 8.51653C3.32404 9.20779 3.64559 9.80832 4.11019 10.3152C4.30578 10.5287 4.37376 10.7646 4.39378 11.022C4.43214 11.5161 4.37629 12 4.12579 12.4772C4.12568 12.4774 4.12568 12.4777 4.12578 12.4779C4.12587 12.4781 4.12602 12.4782 4.12619 12.4783C4.12632 12.4783 4.12646 12.4783 4.1266 12.4783C4.15044 12.473 4.1687 12.4694 4.18347 12.4665C4.20644 12.4619 4.22097 12.459 4.23488 12.4544C4.71158 12.3016 5.13197 12.0543 5.4727 11.6808C5.5924 11.5496 5.72085 11.5247 5.88475 11.5816C6.38081 11.7534 6.89082 11.8816 7.41155 11.9185C7.60438 11.9387 7.8007 11.9491 7.99982 11.9491Z"/>
</mask>
<path d="M3.14787 7.63204L3.89419 7.65493L3.89426 7.65241L3.14787 7.63204ZM3.14649 7.72877L3.89316 7.72978L3.89315 7.72766L3.14649 7.72877ZM3.17985 8.23072L3.92144 8.14298L3.91978 8.13068L3.17985 8.23072ZM3.21894 8.51653L2.48068 8.62823L2.48076 8.62876L3.21894 8.51653ZM4.11019 10.3152L4.66078 9.81082L4.6606 9.81062L4.11019 10.3152ZM4.39378 11.022L5.13821 10.9642L5.1382 10.9641L4.39378 11.022ZM4.12579 12.4772L4.7866 12.8249L4.7869 12.8243L4.12579 12.4772ZM4.12578 12.4779L3.4565 12.8089L3.45684 12.8096L4.12578 12.4779ZM4.12619 12.4783L4.37394 11.7739L4.3706 11.7727L4.12619 12.4783ZM4.1266 12.4783L4.28387 13.2082L4.28704 13.2075L4.1266 12.4783ZM4.18347 12.4665L4.03732 11.7342L4.03731 11.7342L4.18347 12.4665ZM4.23488 12.4544L4.007 11.7433L4.00012 11.7456L4.23488 12.4544ZM5.4727 11.6808L6.02431 12.184L6.0244 12.1839L5.4727 11.6808ZM5.88475 11.5816L5.6396 12.2869L5.64048 12.2872L5.88475 11.5816ZM7.41155 11.9185L7.48948 11.1759L7.4769 11.1746L7.46429 11.1737L7.41155 11.9185ZM12.1065 7.73384C12.1065 9.55417 10.3702 11.2025 7.99982 11.2025V12.6958C10.9903 12.6958 13.5998 10.5696 13.5998 7.73384H12.1065ZM7.99982 4.26522C10.3702 4.26522 12.1065 5.91352 12.1065 7.73384H13.5998C13.5998 4.89809 10.9903 2.77189 7.99982 2.77189V4.26522ZM3.89426 7.65241C3.943 5.86626 5.66588 4.26522 7.99982 4.26522V2.77189C5.05127 2.77189 2.47723 4.8358 2.40148 7.61167L3.89426 7.65241ZM3.89315 7.72766C3.89312 7.70294 3.89346 7.6787 3.89419 7.65493L2.40156 7.60915C2.40031 7.64971 2.39976 7.68997 2.39982 7.72987L3.89315 7.72766ZM3.89315 7.73384C3.89315 7.73249 3.89315 7.73113 3.89315 7.72978L2.39982 7.72775C2.39982 7.72978 2.39982 7.73181 2.39982 7.73384H3.89315ZM3.91978 8.13068C3.90221 8.00073 3.89315 7.86834 3.89315 7.73384H2.39982C2.39982 7.93556 2.41342 8.13478 2.43991 8.33076L3.91978 8.13068ZM3.9572 8.40482C3.94363 8.31512 3.93142 8.22819 3.92134 8.14299L2.43835 8.31845C2.45096 8.42504 2.46567 8.52902 2.48068 8.62823L3.9572 8.40482ZM4.6606 9.81062C4.28038 9.39584 4.03668 8.92759 3.95712 8.4043L2.48076 8.62876C2.61139 9.48799 3.01079 10.2208 3.55977 10.8197L4.6606 9.81062ZM5.1382 10.9641C5.10988 10.5999 5.00361 10.1851 4.66078 9.81082L3.55959 10.8195C3.59087 10.8536 3.60696 10.8828 3.61822 10.913C3.63094 10.9471 3.64297 10.9978 3.64936 11.0799L5.1382 10.9641ZM4.7869 12.8243C5.11959 12.1905 5.18425 11.5572 5.13821 10.9642L3.64936 11.0798C3.68004 11.475 3.63299 11.8096 3.46468 12.1302L4.7869 12.8243ZM4.79507 12.1469C4.90177 12.3626 4.89714 12.6147 4.7866 12.8249L3.46498 12.1296C3.35422 12.3402 3.34959 12.5928 3.4565 12.8089L4.79507 12.1469ZM4.3706 11.7727C4.54312 11.8325 4.70215 11.9595 4.79472 12.1462L3.45684 12.8096C3.54958 12.9966 3.70891 13.1239 3.88179 13.1838L4.3706 11.7727ZM3.96933 11.7484C4.1074 11.7186 4.24736 11.7294 4.37394 11.7739L3.87845 13.1826C4.00528 13.2272 4.14553 13.238 4.28387 13.2082L3.96933 11.7484ZM4.03731 11.7342C4.02189 11.7373 3.99758 11.7422 3.96616 11.7491L4.28704 13.2075C4.30329 13.2039 4.31551 13.2015 4.32963 13.1987L4.03731 11.7342ZM4.00012 11.7456C4.02314 11.7379 4.04074 11.7338 4.04705 11.7323C4.0499 11.7317 4.05104 11.7315 4.04891 11.7319C4.04659 11.7324 4.04359 11.733 4.03732 11.7342L4.32963 13.1987C4.33879 13.1968 4.40305 13.1852 4.46965 13.1632L4.00012 11.7456ZM4.9211 11.1776C4.68089 11.4409 4.37863 11.6242 4.00701 11.7433L4.46276 13.1654C5.04452 12.979 5.58305 12.6677 6.02431 12.184L4.9211 11.1776ZM6.1299 10.8764C5.96101 10.8176 5.73991 10.7767 5.4951 10.8329C5.2451 10.8903 5.05659 11.029 4.92101 11.1777L6.0244 12.1839C6.00851 12.2014 5.94407 12.262 5.8292 12.2884C5.71951 12.3136 5.64459 12.2886 5.6396 12.2869L6.1299 10.8764ZM7.46429 11.1737C7.02947 11.1429 6.58641 11.0344 6.12902 10.8761L5.64048 12.2872C6.17521 12.4723 6.75217 12.6203 7.35881 12.6633L7.46429 11.1737ZM7.99982 11.2025C7.82674 11.2025 7.65644 11.1934 7.48948 11.1759L7.33362 12.6611C7.55233 12.684 7.77466 12.6958 7.99982 12.6958V11.2025Z" fill="#337AFF" mask="url(#path-2-inside-1_3566_10632)"/>
<ellipse cx="6.33" cy="7.78435" rx="0.455" ry="0.473806" fill="white"/>
<ellipse cx="8.15031" cy="7.78435" rx="0.455" ry="0.473806" fill="white"/>
<ellipse cx="9.96965" cy="7.78435" rx="0.455" ry="0.473806" fill="white"/>
</svg>
