<svg width="20" height="20" viewBox="0 0 20 20" fill="none" xmlns="http://www.w3.org/2000/svg">
<mask id="mask0_69_5812" style="mask-type:luminance" maskUnits="userSpaceOnUse" x="1" y="2" width="18" height="16">
<path fill-rule="evenodd" clip-rule="evenodd" d="M1.66699 2.5H18.3337V17.6383H1.66699V2.5Z" fill="white"/>
</mask>
<g mask="url(#mask0_69_5812)">
<path fill-rule="evenodd" clip-rule="evenodd" d="M2.91699 12.4825V14.1867C2.91699 14.775 3.14533 15.3275 3.56116 15.7433C3.97699 16.1592 4.53033 16.3883 5.11783 16.3883H14.8812C16.0945 16.3883 17.0828 15.4017 17.0837 14.1883V12.4817C16.012 12.2042 15.2178 11.2283 15.217 10.0708C15.217 8.91333 16.0112 7.9375 17.0828 7.65917L17.0837 5.955C17.0845 4.74 16.0987 3.75083 14.8845 3.75H5.12033C3.90616 3.75 2.91783 4.7375 2.91699 5.95167V7.71583C3.32199 7.8125 3.69783 8.01167 4.01033 8.30333C4.48449 8.74583 4.75783 9.34583 4.78116 9.99417C4.78366 11.2158 3.98949 12.2025 2.91699 12.4825ZM14.8812 17.6383H5.11866C4.19616 17.6383 3.32949 17.28 2.67699 16.6275C2.02533 15.975 1.66699 15.1083 1.66699 14.1867V11.9367C1.66699 11.5917 1.94699 11.3117 2.29199 11.3117C2.97866 11.3108 3.53366 10.7542 3.53283 10.0708C3.52116 9.7225 3.38783 9.4325 3.15783 9.2175C2.92866 9.0025 2.63199 8.885 2.31366 8.9025C2.14116 8.90417 1.97949 8.845 1.85783 8.7275C1.73616 8.61 1.66699 8.44667 1.66699 8.2775V5.9525C1.66783 4.04833 3.21699 2.5 5.12033 2.5H14.8803C16.7887 2.50083 18.3353 4.0525 18.3337 5.95583V8.205C18.3337 8.55 18.0537 8.83 17.7087 8.83C17.0245 8.83 16.467 9.38667 16.467 10.07C16.4678 10.755 17.0245 11.3117 17.7087 11.3117C18.0537 11.3117 18.3337 11.5917 18.3337 11.9367V14.1867C18.3328 16.09 16.7837 17.6383 14.8812 17.6383Z" fill="#337AFF"/>
</g>
<path fill-rule="evenodd" clip-rule="evenodd" d="M8.41992 9.48441L8.84409 9.89775C9.07409 10.1236 9.17826 10.4452 9.12326 10.7594L9.02326 11.3411L9.54742 11.0652C9.82992 10.9144 10.1691 10.9152 10.4541 11.0669L10.9749 11.3402L10.8749 10.7577C10.8224 10.4386 10.9274 10.1194 11.1549 9.89775L11.5791 9.48441L10.9916 9.39941C10.6766 9.35358 10.4033 9.15525 10.2624 8.86775L9.99992 8.33691L9.73742 8.86858C9.59659 9.15525 9.32326 9.35358 9.00659 9.39941L8.41992 9.48441ZM11.3487 12.8229C11.1937 12.8229 11.0387 12.7854 10.8953 12.7095L10.0003 12.2404L9.10451 12.7104C8.77451 12.8829 8.38201 12.8554 8.08201 12.637C7.78118 12.4179 7.63368 12.0545 7.69618 11.6879L7.86701 10.6912L7.14284 9.98535C6.87701 9.72618 6.78201 9.34535 6.89618 8.99202C7.01118 8.63785 7.31118 8.38368 7.67868 8.33035L8.68201 8.18368L9.12951 7.27618C9.29368 6.94285 9.62701 6.73535 10.0003 6.73535C10.372 6.73535 10.7062 6.94285 10.8703 7.27702L11.3187 8.18368L12.3203 8.33035C12.6887 8.38368 12.9895 8.63785 13.1037 8.99202C13.2178 9.34535 13.1237 9.72618 12.857 9.98618L12.132 10.692L12.3037 11.6879C12.3662 12.0554 12.2178 12.4195 11.9162 12.6379C11.7462 12.7604 11.5478 12.8229 11.3487 12.8229Z" fill="#337AFF"/>
</svg>
