<svg width="20" height="20" viewBox="0 0 20 20" fill="none" xmlns="http://www.w3.org/2000/svg">
<mask id="path-1-inside-1_84_38717" fill="white">
<path fill-rule="evenodd" clip-rule="evenodd" d="M3 5.54753C3 5.24514 3.16941 5 3.37838 5H16.6216C16.8306 5 17 5.24514 17 5.54753V8.66113C17 8.86817 16.7921 9.014 16.5854 9.00239C16.5571 9.0008 16.5287 9 16.5 9C15.6716 9 15 9.67157 15 10.5C15 11.3284 15.6716 12 16.5 12C16.5287 12 16.5571 11.9992 16.5854 11.9976C16.7921 11.986 17 12.1318 17 12.3389V14.4525C17 14.7549 16.8306 15 16.6216 15H3.37838C3.16941 15 3 14.7549 3 14.4525V12.3389C3 12.1318 3.20786 11.986 3.41458 11.9976C3.44285 11.9992 3.47133 12 3.5 12C4.32843 12 5 11.3284 5 10.5C5 9.67157 4.32843 9 3.5 9C3.47133 9 3.44285 9.0008 3.41458 9.00239C3.20786 9.014 3 8.86817 3 8.66113V5.54753Z"/>
</mask>
<path fill-rule="evenodd" clip-rule="evenodd" d="M3 5.54753C3 5.24514 3.16941 5 3.37838 5H16.6216C16.8306 5 17 5.24514 17 5.54753V8.66113C17 8.86817 16.7921 9.014 16.5854 9.00239C16.5571 9.0008 16.5287 9 16.5 9C15.6716 9 15 9.67157 15 10.5C15 11.3284 15.6716 12 16.5 12C16.5287 12 16.5571 11.9992 16.5854 11.9976C16.7921 11.986 17 12.1318 17 12.3389V14.4525C17 14.7549 16.8306 15 16.6216 15H3.37838C3.16941 15 3 14.7549 3 14.4525V12.3389C3 12.1318 3.20786 11.986 3.41458 11.9976C3.44285 11.9992 3.47133 12 3.5 12C4.32843 12 5 11.3284 5 10.5C5 9.67157 4.32843 9 3.5 9C3.47133 9 3.44285 9.0008 3.41458 9.00239C3.20786 9.014 3 8.86817 3 8.66113V5.54753Z" fill="#337AFF"/>
<path d="M3.41458 9.00239L3.47063 10.0008L3.41458 9.00239ZM3.41458 11.9976L3.35853 12.996L3.41458 11.9976ZM16.5854 11.9976L16.5294 10.9992L16.5854 11.9976ZM16.5854 9.00239L16.5294 10.0008L16.5854 9.00239ZM3.37838 4C2.85216 4 2.48317 4.30966 2.28815 4.59185C2.09034 4.87809 2 5.21905 2 5.54753H4C4 5.57362 3.99436 5.64081 3.9335 5.72889C3.87543 5.81291 3.69563 6 3.37838 6V4ZM16.6216 4H3.37838V6H16.6216V4ZM18 5.54753C18 5.21905 17.9097 4.87809 17.7118 4.59185C17.5168 4.30965 17.1478 4 16.6216 4V6C16.3044 6 16.1246 5.81291 16.0665 5.72888C16.0056 5.64081 16 5.57362 16 5.54753H18ZM18 8.66113V5.54753H16V8.66113H18ZM16.5 10C16.51 10 16.5198 10.0003 16.5294 10.0008L16.6415 8.00396C16.5945 8.00133 16.5474 8 16.5 8V10ZM16 10.5C16 10.2239 16.2239 10 16.5 10V8C15.1193 8 14 9.11929 14 10.5H16ZM16.5 11C16.2239 11 16 10.7761 16 10.5H14C14 11.8807 15.1193 13 16.5 13V11ZM16.5294 10.9992C16.5198 10.9997 16.51 11 16.5 11V13C16.5474 13 16.5945 12.9987 16.6415 12.996L16.5294 10.9992ZM18 14.4525V12.3389H16V14.4525H18ZM16.6216 16C17.1478 16 17.5168 15.6903 17.7118 15.4081C17.9097 15.1219 18 14.781 18 14.4525H16C16 14.4264 16.0056 14.3592 16.0665 14.2711C16.1246 14.1871 16.3044 14 16.6216 14V16ZM3.37838 16H16.6216V14H3.37838V16ZM2 14.4525C2 14.781 2.09034 15.1219 2.28815 15.4082C2.48317 15.6903 2.85216 16 3.37838 16V14C3.69562 14 3.87543 14.1871 3.9335 14.2711C3.99436 14.3592 4 14.4264 4 14.4525H2ZM2 12.3389V14.4525H4V12.3389H2ZM3.5 11C3.49004 11 3.48025 10.9997 3.47063 10.9992L3.35853 12.996C3.40545 12.9987 3.45263 13 3.5 13V11ZM4 10.5C4 10.7761 3.77614 11 3.5 11V13C4.88071 13 6 11.8807 6 10.5H4ZM3.5 10C3.77614 10 4 10.2239 4 10.5H6C6 9.11929 4.88071 8 3.5 8V10ZM3.47063 10.0008C3.48025 10.0003 3.49004 10 3.5 10V8C3.45263 8 3.40545 8.00133 3.35853 8.00396L3.47063 10.0008ZM2 5.54753V8.66113H4V5.54753H2ZM3.35853 8.00396C3.49858 7.9961 3.63365 8.03827 3.74605 8.12622C3.86628 8.22031 4 8.40507 4 8.66113H2C2 9.61541 2.87911 10.034 3.47063 10.0008L3.35853 8.00396ZM4 12.3389C4 12.5949 3.86628 12.7797 3.74605 12.8738C3.63365 12.9617 3.49858 13.0039 3.35853 12.996L3.47063 10.9992C2.87911 10.966 2 11.3846 2 12.3389H4ZM16.6415 12.996C16.5014 13.0039 16.3664 12.9617 16.254 12.8738C16.1337 12.7797 16 12.5949 16 12.3389H18C18 11.3846 17.1209 10.966 16.5294 10.9992L16.6415 12.996ZM16 8.66113C16 8.40507 16.1337 8.22031 16.254 8.12622C16.3664 8.03827 16.5014 7.9961 16.6415 8.00396L16.5294 10.0008C17.1209 10.034 18 9.61542 18 8.66113H16Z" fill="#337AFF" mask="url(#path-1-inside-1_84_38717)"/>
<path d="M9.52447 8.46353C9.67415 8.00287 10.3259 8.00287 10.4755 8.46353L10.5613 8.72746C10.6282 8.93347 10.8202 9.07295 11.0368 9.07295H11.3143C11.7987 9.07295 12.0001 9.69276 11.6082 9.97746L11.3837 10.1406C11.2085 10.2679 11.1351 10.4936 11.2021 10.6996L11.2878 10.9635C11.4375 11.4242 10.9103 11.8072 10.5184 11.5225L10.2939 11.3594C10.1186 11.2321 9.88135 11.2321 9.70611 11.3594L9.48159 11.5225C9.08974 11.8072 8.5625 11.4242 8.71217 10.9635L8.79793 10.6996C8.86487 10.4936 8.79154 10.2679 8.61629 10.1406L8.39178 9.97746C7.99992 9.69276 8.20131 9.07295 8.68567 9.07295H8.96319C9.1798 9.07295 9.37178 8.93347 9.43871 8.72746L9.52447 8.46353Z" fill="#FFE166"/>
</svg>
