<svg width="20" height="20" viewBox="0 0 20 20" fill="none" xmlns="http://www.w3.org/2000/svg">
<ellipse cx="7.03914" cy="10.3275" rx="6.05153" ry="3.97413" transform="rotate(60 7.03914 10.3275)" fill="#D70000"/>
<ellipse cx="7.97761" cy="9.78546" rx="6.05153" ry="3.97413" transform="rotate(60 7.97761 9.78546)" fill="#FD3A3A"/>
<path d="M10.0671 13.5846C9.48781 13.9191 8.70121 13.8896 7.8482 13.454C6.99988 13.0208 6.14398 12.2087 5.50766 11.1066C4.87135 10.0045 4.59602 8.85721 4.64502 7.90595C4.6943 6.94942 5.06207 6.25347 5.64141 5.91899C6.22075 5.58451 7.00734 5.61399 7.86035 6.04958C8.70867 6.48276 9.56458 7.29485 10.2009 8.39698C10.8372 9.49911 11.1125 10.6464 11.0635 11.5976C11.0142 12.5542 10.6465 13.2501 10.0671 13.5846Z" fill="#FD3A3A" stroke="white" stroke-width="0.903213"/>
<path d="M9.16333 12.0206C9.01795 12.1046 8.71695 12.1147 8.25663 11.8187C7.81838 11.5369 7.34332 11.036 6.96019 10.3724C6.57706 9.70878 6.3808 9.04691 6.35585 8.52646C6.32964 7.9798 6.48896 7.72421 6.63434 7.64028C6.77972 7.55634 7.08072 7.54616 7.54103 7.84219C7.97928 8.12402 8.45435 8.62493 8.83748 9.28853C9.22061 9.95213 9.41687 10.614 9.44182 11.1345C9.46803 11.6811 9.30871 11.9367 9.16333 12.0206Z" fill="#FD3A3A" stroke="white" stroke-width="0.903213"/>
<path d="M9.74902 8.83203L8.34066 9.64424" stroke="#FFCD4D" stroke-width="0.361285" stroke-linecap="round"/>
<ellipse cx="10.454" cy="8.42589" rx="1.08386" ry="1.17418" transform="rotate(60.0279 10.454 8.42589)" fill="#FFCD4D"/>
<path d="M14.5471 4.97776L15.573 6.75675L12.1845 9.13831C11.4806 9.63305 10.5038 9.41717 10.074 8.67185C9.63554 7.91154 9.95983 6.93894 10.7669 6.59391L14.5471 4.97776Z" fill="#52D6E0"/>
<ellipse cx="15.1308" cy="5.82647" rx="1.02681" ry="1.06235" transform="rotate(60.0279 15.1308 5.82647)" fill="#52D6E0"/>
<ellipse cx="15.5975" cy="4.58023" rx="0.905907" ry="1.60276" transform="rotate(30.0279 15.5975 4.58023)" fill="#52D6E0"/>
<ellipse cx="0.905908" cy="1.60276" rx="0.905908" ry="1.60276" transform="matrix(0.000486251 -1 -1 -0.00048608 18.0117 6.89453)" fill="#52D6E0"/>
<path d="M12.1143 6.42578C12.1804 6.54054 12.8036 7.62115 13.107 8.14712" stroke="#A9ECF1" stroke-width="0.361285" stroke-linecap="round"/>
<path d="M12.9873 6.13086C13.0415 6.22475 13.5513 7.10889 13.7995 7.53922" stroke="#A9ECF1" stroke-width="0.361285" stroke-linecap="round"/>
</svg>
