<svg width="21" height="20" viewBox="0 0 21 20" fill="none" xmlns="http://www.w3.org/2000/svg">
<path d="M15.1558 10.3257C15.7684 11.5668 16.3645 12.9643 15.8031 14.2295C15.0033 16.0318 13.1388 17.0615 10.9664 17.0615C8.06498 17.0615 5.71289 14.8686 5.71289 12.1635C5.71289 9.71687 8.52 4.55048 10.8905 3.16294C11.3475 2.89543 11.9154 2.7893 12.4063 2.98791C13.9347 3.60627 13.2067 6.37688 15.1558 10.3257Z" fill="#FF570F"/>
<path d="M8.91219 12.0482C8.98541 12.0582 9.05181 12.1083 9.07498 12.1784C9.65363 13.9306 8.92405 15.1698 8.08091 15.472C7.21949 15.7807 6.05577 14.7326 5.48167 13.1308C4.91711 11.5558 5.02765 8.03514 5.66297 7.08844C5.68394 7.05719 5.71617 7.03233 5.75365 7.02895C6.44663 6.96639 4.50146 11.4458 8.91219 12.0482Z" fill="#FF570F"/>
<path d="M9.32006 14.9316C9.36007 14.9248 9.40323 14.9301 9.43968 14.948C10.58 15.5063 10.9625 16.1767 10.8091 16.4991C10.6531 16.8268 9.91227 17.2109 8.86577 16.7128C7.84697 16.2279 5.56829 14.7586 5.45642 13.7848C5.45066 13.7346 5.46966 13.6788 5.51757 13.6629C5.89337 13.5383 6.38475 15.4268 9.32006 14.9316Z" fill="#FF570F"/>
<path d="M13.071 14.7918C13.0311 14.7906 12.9899 14.8014 12.9566 14.8233C11.8956 15.5222 11.5956 16.2274 11.7844 16.5206C11.9761 16.8186 12.7513 17.092 13.7259 16.4648C14.6736 15.855 16.7475 14.1178 16.75 13.1536C16.7501 13.102 16.7235 13.0472 16.6725 13.0392C16.289 12.9796 16.0163 14.8755 13.071 14.7918Z" fill="#FF570F"/>
<path d="M6.49243 5.37339C6.15421 5.82685 6.42818 6.92332 5.89757 6.72718C5.59244 6.61438 5.73145 6.08425 5.89278 5.80176C6.04731 5.53119 6.24306 5.31437 6.43481 5.15528C6.75498 4.88963 6.88159 4.96356 6.59003 5.26031C6.55567 5.29529 6.52263 5.33291 6.49243 5.37339Z" fill="#FF570F"/>
<path d="M15.4991 9.93175C14.7763 11.7371 11.5035 14.0221 13.199 14.9746C13.3102 15.0371 13.4242 15.0892 13.5386 15.1302C14.5136 15.4797 15.6789 14.7172 16.1413 13.4272C16.4519 12.7654 16.6359 11.7986 16.6784 10.8629C16.7622 9.01849 16.1853 8.2177 15.4991 9.93175Z" fill="#FF570F"/>
<path d="M13.9443 11.4717C14.4496 12.669 15.0179 14.0043 14.4148 15.1555C13.7768 16.3732 12.5155 17.0615 11.0638 17.0615C8.96826 17.0615 7.26953 15.3493 7.26953 13.2371C7.26953 11.1249 9.44254 5.9707 11.538 5.9707C13.3327 5.9707 12.5403 8.1447 13.9443 11.4717Z" fill="#FFA113"/>
<path d="M12.4987 12.794C12.8686 14.0273 13.5338 15.5028 12.5576 16.3423C12.1615 16.6829 11.6379 16.8675 11.0638 16.8675C9.82799 16.8675 8.82617 15.8462 8.82617 14.5863C8.82617 13.3264 10.1077 10.252 11.3435 10.252C12.264 10.252 12.0305 11.2329 12.4987 12.794Z" fill="#FFE166"/>
</svg>
