<svg width="21" height="20" viewBox="0 0 21 20" fill="none" xmlns="http://www.w3.org/2000/svg">
<path d="M11.7846 11.9215C12.495 13.1519 15.8493 16.6582 17.0798 15.9478C18.3102 15.2374 16.9508 10.5794 16.2404 9.34896C15.53 8.11854 13.9566 7.69697 12.7262 8.40735C11.4957 9.11773 11.0742 10.6911 11.7846 11.9215Z" fill="#575757"/>
<path d="M8.52305 11.9215C7.81266 13.1519 4.45829 16.6582 3.22785 15.9478C1.99741 15.2374 3.35683 10.5794 4.06723 9.34896C4.77763 8.11854 6.35099 7.69697 7.58143 8.40735C8.81187 9.11773 9.23345 10.6911 8.52305 11.9215Z" fill="#575757"/>
<rect x="3.77051" y="5.14258" width="12.665" height="5.93657" rx="2.77949" fill="#212121"/>
<rect x="6.54004" y="10.2871" width="7.12404" height="3.56194" rx="1.78097" fill="#212121"/>
<path d="M8.7298 8.11034C8.7298 9.21018 7.83819 10.1018 6.73831 10.1018C5.63844 10.1018 4.74682 9.21018 4.74682 8.11034C4.74682 7.0105 5.63844 6.11889 6.73831 6.11889C7.83819 6.11889 8.7298 7.0105 8.7298 8.11034Z" fill="#505050" stroke="#959595" stroke-width="0.370598"/>
<path d="M15.4583 8.11034C15.4583 9.21018 14.5667 10.1018 13.4668 10.1018C12.367 10.1018 11.4753 9.21018 11.4753 8.11034C11.4753 7.0105 12.367 6.11889 13.4668 6.11889C14.5667 6.11889 15.4583 7.0105 15.4583 8.11034Z" fill="#505050" stroke="#959595" stroke-width="0.370598"/>
<path d="M9.52168 12.0688C9.52168 12.7315 8.98446 13.2687 8.32175 13.2687C7.65905 13.2687 7.12182 12.7315 7.12182 12.0688C7.12182 11.4061 7.65905 10.8689 8.32175 10.8689C8.98446 10.8689 9.52168 11.4061 9.52168 12.0688Z" fill="#9F9F9F" stroke="#BFBFBF" stroke-width="0.370598"/>
<ellipse cx="10.1031" cy="9.89115" rx="0.79156" ry="0.791543" fill="#535353"/>
<ellipse cx="13.4918" cy="7.16659" rx="0.494725" ry="0.494714" fill="#FD3A3A"/>
<ellipse cx="14.5551" cy="8.0787" rx="0.494714" ry="0.494725" transform="rotate(90 14.5551 8.0787)" fill="#FD3A3A"/>
<ellipse cx="13.4918" cy="9.14022" rx="0.494725" ry="0.494714" fill="#BFBFBF"/>
<ellipse cx="12.4281" cy="8.0787" rx="0.494714" ry="0.494725" transform="rotate(90 12.4281 8.0787)" fill="#BFBFBF"/>
<path d="M13.0832 12.0688C13.0832 12.7315 12.546 13.2687 11.8833 13.2687C11.2206 13.2687 10.6833 12.7315 10.6833 12.0688C10.6833 11.4061 11.2206 10.8689 11.8833 10.8689C12.546 10.8689 13.0832 11.4061 13.0832 12.0688Z" fill="#9F9F9F" stroke="#BFBFBF" stroke-width="0.370598"/>
<path d="M10.4059 9.89382C10.4059 10.0612 10.2702 10.1969 10.1028 10.1969C9.9354 10.1969 9.79968 10.0612 9.79968 9.89382C9.79968 9.72641 9.9354 9.5907 10.1028 9.5907C10.2702 9.5907 10.4059 9.72641 10.4059 9.89382Z" fill="#535353" stroke="#FD3A3A" stroke-width="0.185299"/>
<rect x="6.31543" y="6.82324" width="0.759345" height="2.58172" rx="0.142206" fill="#BFBFBF"/>
<rect x="7.98535" y="7.73535" width="0.759329" height="2.58177" rx="0.142206" transform="rotate(90 7.98535 7.73535)" fill="#BFBFBF"/>
<path d="M7.07454 7.73535L6.23926 8.57061" stroke="#505050" stroke-width="0.142206" stroke-linecap="round"/>
<path d="M6.31511 7.73535L7.15039 8.57061" stroke="#505050" stroke-width="0.142206" stroke-linecap="round"/>
</svg>
