<svg width="21" height="20" viewBox="0 0 21 20" fill="none" xmlns="http://www.w3.org/2000/svg">
<rect x="3.1543" y="15.0449" width="14.2685" height="2.37808" rx="1.0582" fill="#ABABAB"/>
<rect x="3.68262" y="2.85742" width="13.2116" height="8.8077" rx="1.0582" fill="#BEBEBE"/>
<path d="M3.53577 12.5493C3.62081 12.039 4.06228 11.665 4.57957 11.665H15.9983C16.5156 11.665 16.957 12.039 17.0421 12.5493L17.5151 15.3872C17.6226 16.0322 17.1252 16.6194 16.4713 16.6194H4.10659C3.45268 16.6194 2.95528 16.0322 3.06278 15.3872L3.53577 12.5493Z" fill="#BEBEBE"/>
<path d="M4.01841 12.3012C4.04508 12.0954 4.22034 11.9414 4.42784 11.9414H5.41486C5.62236 11.9414 5.79762 12.0954 5.82429 12.3012C5.85632 12.5482 5.66395 12.7671 5.41486 12.7671H4.42784C4.17875 12.7671 3.98639 12.5482 4.01841 12.3012Z" fill="#444444"/>
<path d="M3.77299 13.3807C3.80923 13.185 3.97993 13.043 4.17895 13.043H5.93869C6.13771 13.043 6.30841 13.185 6.34465 13.3807C6.39165 13.6345 6.19682 13.8687 5.93869 13.8687H4.17895C3.92082 13.8687 3.72599 13.6345 3.77299 13.3807Z" fill="#444444"/>
<path d="M13.0739 14.5259C13.0898 14.3103 13.2694 14.1436 13.4856 14.1436H13.6974C13.9136 14.1436 14.0932 14.3103 14.1091 14.5259C14.1269 14.7653 13.9374 14.9693 13.6974 14.9693H13.4856C13.2456 14.9693 13.0561 14.7653 13.0739 14.5259Z" fill="#444444"/>
<path d="M6.74378 13.4253C6.75975 13.2097 6.93933 13.043 7.15551 13.043H7.36733C7.58351 13.043 7.76309 13.2097 7.77906 13.4253C7.79679 13.6647 7.60736 13.8687 7.36733 13.8687H7.15551C6.91548 13.8687 6.72605 13.6647 6.74378 13.4253Z" fill="#444444"/>
<path d="M3.71546 14.5259C3.73143 14.3103 3.91101 14.1436 4.12719 14.1436H4.33901C4.55519 14.1436 4.73477 14.3103 4.75074 14.5259C4.76847 14.7653 4.57904 14.9693 4.33901 14.9693H4.12719C3.88716 14.9693 3.69773 14.7653 3.71546 14.5259Z" fill="#444444"/>
<path d="M6.193 12.3238C6.20897 12.1082 6.38855 11.9414 6.60473 11.9414H6.81654C7.03273 11.9414 7.21231 12.1082 7.22828 12.3238C7.24601 12.5631 7.05658 12.7671 6.81654 12.7671H6.60473C6.3647 12.7671 6.17527 12.5631 6.193 12.3238Z" fill="#444444"/>
<path d="M10.8717 13.4253C10.8877 13.2097 11.0673 13.043 11.2834 13.043H11.4953C11.7114 13.043 11.891 13.2097 11.907 13.4253C11.9247 13.6647 11.7353 13.8687 11.4953 13.8687H11.2834C11.0434 13.8687 10.854 13.6647 10.8717 13.4253Z" fill="#444444"/>
<path d="M10.3209 12.3238C10.3369 12.1082 10.5165 11.9414 10.7327 11.9414H10.9445C11.1607 11.9414 11.3402 12.1082 11.3562 12.3238C11.3739 12.5631 11.1845 12.7671 10.9445 12.7671H10.7327C10.4926 12.7671 10.3032 12.5631 10.3209 12.3238Z" fill="#444444"/>
<path d="M13.0739 12.3238C13.0898 12.1082 13.2694 11.9414 13.4856 11.9414H13.6974C13.9136 11.9414 14.0932 12.1082 14.1091 12.3238C14.1269 12.5631 13.9374 12.7671 13.6974 12.7671H13.4856C13.2456 12.7671 13.0561 12.5631 13.0739 12.3238Z" fill="#444444"/>
<path d="M14.4498 14.5259C14.4658 14.3103 14.6454 14.1436 14.8616 14.1436H15.0734C15.2896 14.1436 15.4691 14.3103 15.4851 14.5259C15.5028 14.7653 15.3134 14.9693 15.0734 14.9693H14.8616C14.6215 14.9693 14.4321 14.7653 14.4498 14.5259Z" fill="#444444"/>
<path d="M8.11878 13.4253C8.13475 13.2097 8.31433 13.043 8.53051 13.043H8.74233C8.95851 13.043 9.13809 13.2097 9.15406 13.4253C9.17179 13.6647 8.98236 13.8687 8.74233 13.8687H8.53051C8.29048 13.8687 8.10105 13.6647 8.11878 13.4253Z" fill="#444444"/>
<path d="M5.09144 14.5259C5.10741 14.3103 5.28698 14.1436 5.50317 14.1436H5.71498C5.93117 14.1436 6.11075 14.3103 6.12672 14.5259C6.14445 14.7653 5.95501 14.9693 5.71498 14.9693H5.50317C5.26314 14.9693 5.0737 14.7653 5.09144 14.5259Z" fill="#444444"/>
<path d="M7.56897 12.3238C7.58494 12.1082 7.76452 11.9414 7.98071 11.9414H8.19252C8.40871 11.9414 8.58828 12.1082 8.60425 12.3238C8.62199 12.5631 8.43255 12.7671 8.19252 12.7671H7.98071C7.74068 12.7671 7.55124 12.5631 7.56897 12.3238Z" fill="#444444"/>
<path d="M12.2477 13.4253C12.2637 13.2097 12.4432 13.043 12.6594 13.043H12.8712C13.0874 13.043 13.267 13.2097 13.283 13.4253C13.3007 13.6647 13.1113 13.8687 12.8712 13.8687H12.6594C12.4194 13.8687 12.23 13.6647 12.2477 13.4253Z" fill="#444444"/>
<path d="M11.6969 12.3238C11.7129 12.1082 11.8925 11.9414 12.1086 11.9414H12.3205C12.5366 11.9414 12.7162 12.1082 12.7322 12.3238C12.7499 12.5631 12.5605 12.7671 12.3205 12.7671H12.1086C11.8686 12.7671 11.6792 12.5631 11.6969 12.3238Z" fill="#444444"/>
<path d="M14.4498 12.3238C14.4658 12.1082 14.6454 11.9414 14.8616 11.9414H15.0734C15.2896 11.9414 15.4691 12.1082 15.4851 12.3238C15.5028 12.5631 15.3134 12.7671 15.0734 12.7671H14.8616C14.6215 12.7671 14.4321 12.5631 14.4498 12.3238Z" fill="#444444"/>
<path d="M15.8258 14.5259C15.8418 14.3103 16.0214 14.1436 16.2375 14.1436H16.4494C16.6655 14.1436 16.8451 14.3103 16.8611 14.5259C16.8788 14.7653 16.6894 14.9693 16.4494 14.9693H16.2375C15.9975 14.9693 15.8081 14.7653 15.8258 14.5259Z" fill="#444444"/>
<path d="M9.49573 13.4253C9.5117 13.2097 9.69128 13.043 9.90747 13.043H10.1193C10.3355 13.043 10.515 13.2097 10.531 13.4253C10.5487 13.6647 10.3593 13.8687 10.1193 13.8687H9.90746C9.66743 13.8687 9.478 13.6647 9.49573 13.4253Z" fill="#444444"/>
<path d="M6.46741 14.5259C6.48338 14.3103 6.66296 14.1436 6.87914 14.1436H7.09096C7.30714 14.1436 7.48672 14.3103 7.50269 14.5259C7.52042 14.7653 7.33099 14.9693 7.09096 14.9693H6.87914C6.63911 14.9693 6.44968 14.7653 6.46741 14.5259Z" fill="#444444"/>
<path d="M8.94495 12.3238C8.96092 12.1082 9.1405 11.9414 9.35668 11.9414H9.5685C9.78468 11.9414 9.96426 12.1082 9.98023 12.3238C9.99796 12.5631 9.80853 12.7671 9.5685 12.7671H9.35668C9.11665 12.7671 8.92722 12.5631 8.94495 12.3238Z" fill="#444444"/>
<path d="M13.6927 13.3734C13.7319 13.1811 13.901 13.043 14.0972 13.043H16.114C16.3103 13.043 16.4794 13.1811 16.5186 13.3734C16.5707 13.6293 16.3751 13.8687 16.114 13.8687H14.0972C13.8361 13.8687 13.6406 13.6293 13.6927 13.3734Z" fill="#444444"/>
<path d="M8.00403 14.4194C8.06218 14.2541 8.21829 14.1436 8.39348 14.1436H12.4572C12.6324 14.1436 12.7885 14.2541 12.8466 14.4194C12.9411 14.6879 12.7419 14.9693 12.4572 14.9693H8.39349C8.1088 14.9693 7.90954 14.6879 8.00403 14.4194Z" fill="#444444"/>
<path d="M7.99288 15.6542C8.05665 15.4125 8.27521 15.2441 8.52514 15.2441H12.3255C12.5755 15.2441 12.794 15.4125 12.8578 15.6542C12.9499 16.0033 12.6866 16.3451 12.3255 16.3451H8.52514C8.16405 16.3451 7.90074 16.0033 7.99288 15.6542Z" fill="#969696"/>
<rect x="4.50879" y="3.68359" width="11.5601" height="7.15626" rx="0.793651" fill="#2B2B2B"/>
<path d="M5.05957 11.665H15.5187" stroke="#A0A0A0" stroke-width="0.428571" stroke-linecap="round"/>
</svg>
