<svg width="21" height="20" viewBox="0 0 21 20" fill="none" xmlns="http://www.w3.org/2000/svg">
<path fill-rule="evenodd" clip-rule="evenodd" d="M16.4995 13.4356C17.0648 13.8694 17.9024 13.7061 17.978 12.9976C18.2244 10.6888 16.3695 7.82323 13.2485 6.02131C9.47715 3.84391 5.28513 4.04418 3.88537 6.46864C2.48562 8.89309 4.40818 12.6236 8.17955 14.801C9.68076 15.6678 11.2486 16.1578 12.6805 16.2807C13.5362 16.3541 13.9251 15.3888 13.4497 14.6736C12.4955 13.2379 12.0958 12.123 12.4951 11.7238C12.9877 11.2312 14.5698 11.9548 16.4995 13.4356ZM12.8505 10.0122C13.4919 10.3825 14.1994 10.3577 14.4309 9.95687C14.6623 9.55601 14.33 8.93085 13.6886 8.56055C13.0472 8.19024 12.3397 8.21502 12.1082 8.61589C11.8768 9.01675 12.2091 9.64191 12.8505 10.0122Z" fill="#D5A05D"/>
<path fill-rule="evenodd" clip-rule="evenodd" d="M16.8755 12.6856C17.4408 13.1194 18.2784 12.9561 18.354 12.2476C18.6004 9.93881 16.7455 7.07323 13.6245 5.27131C9.85312 3.09391 5.6611 3.29418 4.26135 5.71864C2.86159 8.14309 4.78416 11.8736 8.55552 14.051C10.0567 14.9178 11.6246 15.4078 13.0565 15.5307C13.9122 15.6041 14.3011 14.6388 13.8257 13.9236C12.8715 12.4879 12.4718 11.373 12.871 10.9738C13.3637 10.4812 14.9457 11.2048 16.8755 12.6856ZM13.2265 9.26245C13.8678 9.63276 14.5754 9.60798 14.8068 9.20712C15.0383 8.80625 14.706 8.1811 14.0646 7.81079C13.4232 7.44049 12.7156 7.46526 12.4842 7.86613C12.2528 8.26699 12.5851 8.89215 13.2265 9.26245Z" fill="#E1BB8B"/>
<path d="M9.85778 6.42202C9.6784 6.73271 9.11794 6.49377 8.65497 6.3999C8.326 6.3332 7.9431 6.37623 7.652 6.20912C6.91356 5.7852 7.0855 5.23933 7.30559 4.85812C7.53317 4.46394 8.31571 4.18253 8.79979 4.88254C8.94567 5.09348 9.10576 5.29987 9.32124 5.43895C9.8228 5.76269 10.0728 6.04957 9.85778 6.42202Z" fill="#4ED62C"/>
<path d="M11.1142 5.60453C11.0512 5.86232 11.4311 6.02971 11.7438 6.21242C12.0336 6.38176 12.2917 6.67796 12.6224 6.73517C13.2134 6.8374 13.4021 6.44639 13.4823 6.11788C13.5665 5.77336 13.2914 5.20225 12.6689 5.2835C12.4146 5.31669 12.1568 5.35944 11.904 5.3162C11.4717 5.24225 11.1924 5.28428 11.1142 5.60453Z" fill="#FFE560"/>
<path d="M15.3222 9.89147C15.211 10.1324 15.5518 10.3695 15.8236 10.6088C16.0756 10.8306 16.272 11.1708 16.5857 11.2903C17.1461 11.504 17.4062 11.1564 17.548 10.8494C17.6967 10.5274 17.5362 9.91415 16.9096 9.87451C16.6537 9.85832 16.3925 9.85085 16.1527 9.75994C15.7425 9.60446 15.4604 9.59216 15.3222 9.89147Z" fill="#FA5C34"/>
<path d="M8.83332 9.40184C9.07958 9.00313 8.70646 8.71159 8.47305 8.36133C8.28691 8.08201 8.17062 7.72938 7.91125 7.51631C7.06379 6.82012 6.73036 6.94731 5.83701 7.31856C5.61561 7.41057 5.4109 7.56771 5.37205 7.80429C5.28093 8.35934 5.58277 9.10366 6.55215 9.15071C6.80831 9.16314 7.06543 9.2099 7.28806 9.33723C8.01567 9.75337 8.5275 9.897 8.83332 9.40184Z" fill="#3DD3F3"/>
<path d="M8.11619 10.9593C8.32966 10.6048 8.70304 10.76 9.07284 10.8108C9.40539 10.8564 9.7737 10.8011 10.0807 10.9368C10.9558 11.3234 11.0016 11.6488 11.0713 12.4977C11.0909 12.7367 11.0447 12.9925 10.848 13.1297C10.4349 13.4178 9.73385 13.4692 9.29583 12.7431C9.16335 12.5235 9.00478 12.3153 8.79032 12.1747C8.16343 11.7636 7.84465 11.4101 8.11619 10.9593Z" fill="#AF4FCA"/>
</svg>
