<svg width="20" height="20" viewBox="0 0 20 20" fill="none" xmlns="http://www.w3.org/2000/svg">
<circle cx="10" cy="10" r="10" fill="#337AFF"/>
<path d="M9.99956 5.45508C10.1502 5.45508 10.2948 5.51494 10.4013 5.62149C10.5079 5.72805 10.5677 5.87257 10.5677 6.02326V9.43235H13.9768C14.1275 9.43235 14.272 9.49221 14.3786 9.59877C14.4851 9.70532 14.545 9.84984 14.545 10.0005C14.545 10.1512 14.4851 10.2957 14.3786 10.4023C14.272 10.5089 14.1275 10.5687 13.9768 10.5687H10.5677V13.9778C10.5677 14.1285 10.5079 14.273 10.4013 14.3796C10.2948 14.4861 10.1502 14.546 9.99956 14.546C9.84887 14.546 9.70435 14.4861 9.59779 14.3796C9.49124 14.273 9.43137 14.1285 9.43137 13.9778V10.5687H6.02228C5.87159 10.5687 5.72707 10.5089 5.62052 10.4023C5.51396 10.2957 5.4541 10.1512 5.4541 10.0005C5.4541 9.84984 5.51396 9.70532 5.62052 9.59877C5.72707 9.49221 5.87159 9.43235 6.02228 9.43235H9.43137V6.02326C9.43137 5.87257 9.49124 5.72805 9.59779 5.62149C9.70435 5.51494 9.84887 5.45508 9.99956 5.45508Z" fill="white"/>
</svg>
