<svg width="20" height="20" viewBox="0 0 20 20" fill="none" xmlns="http://www.w3.org/2000/svg">
<path fill-rule="evenodd" clip-rule="evenodd" d="M14.7607 7.65073C14.7359 7.90498 14.5097 8.09099 14.2555 8.06619L10.1122 7.66208C9.85798 7.63728 9.67197 7.41107 9.69677 7.15682C9.72157 6.90257 9.94778 6.71656 10.202 6.74136L13.0034 7.01459C12.4112 6.58443 11.7289 6.28403 11.001 6.13995C9.84624 5.9114 8.64798 6.09031 7.61037 6.64619C6.57275 7.20207 5.75999 8.10053 5.31055 9.18849C4.86111 10.2765 4.80281 11.4866 5.14558 12.6127C5.48836 13.7388 6.21099 14.7113 7.19037 15.3643C8.16974 16.0174 9.34525 16.3106 10.5166 16.1941C11.688 16.0777 12.7827 15.5586 13.6143 14.7255C14.4458 13.8923 14.9628 12.7966 15.0771 11.625C15.1019 11.3708 15.3281 11.1848 15.5823 11.2096C15.8366 11.2344 16.0226 11.4606 15.9978 11.7148C15.8627 13.0994 15.2518 14.3944 14.269 15.379C13.2863 16.3636 11.9925 16.977 10.6082 17.1147C9.22382 17.2524 7.83458 16.9058 6.67714 16.134C5.5197 15.3622 4.66568 14.213 4.26058 12.8821C3.85549 11.5512 3.92439 10.1211 4.45554 8.83529C4.98669 7.54952 5.94724 6.4877 7.17351 5.83074C8.39978 5.17379 9.8159 4.96236 11.1806 5.23246C12.2053 5.43528 13.1534 5.90018 13.9363 6.57414L14.2441 3.41768C14.2689 3.16343 14.4951 2.97742 14.7494 3.00222C15.0036 3.02702 15.1896 3.25323 15.1648 3.50748L14.7607 7.65073Z" fill="#337AFF"/>
<path fill-rule="evenodd" clip-rule="evenodd" d="M14.145 3.40837C14.1751 3.09915 14.4503 2.87293 14.7595 2.90309C15.0687 2.93325 15.2949 3.20837 15.2648 3.51758L14.8607 7.66083C14.8305 7.97005 14.5554 8.19627 14.2462 8.16611L10.1029 7.76201C9.79369 7.73185 9.56747 7.45673 9.59763 7.14751C9.62779 6.83829 9.90291 6.61207 10.2121 6.64223L12.6168 6.87676C12.1175 6.57127 11.5647 6.35378 10.9819 6.23845C9.84991 6.01438 8.6752 6.18978 7.65798 6.73473C6.64076 7.27969 5.84397 8.16049 5.40336 9.22707C4.96276 10.2936 4.9056 11.48 5.24164 12.584C5.57768 13.688 6.28611 14.6413 7.24623 15.2815C8.20636 15.9217 9.35877 16.2092 10.5071 16.095C11.6554 15.9808 12.7286 15.472 13.5439 14.6552C14.3591 13.8384 14.8659 12.7643 14.9779 11.6157C15.0081 11.3065 15.2832 11.0803 15.5924 11.1104C15.9016 11.1406 16.1279 11.4157 16.0977 11.7249C15.9604 13.1326 15.3393 14.449 14.3402 15.45C13.3411 16.451 12.0258 17.0746 10.6184 17.2146C9.21109 17.3546 7.79874 17.0022 6.62206 16.2176C5.44537 15.433 4.57714 14.2646 4.16531 12.9116C3.75347 11.5586 3.82352 10.1047 4.36351 8.7975C4.90349 7.49035 5.88001 6.41087 7.12668 5.743C8.37334 5.07512 9.81301 4.86017 11.2004 5.13477C12.1791 5.32847 13.089 5.75732 13.8555 6.37663L14.145 3.40837ZM14.7401 3.10214C14.5408 3.08271 14.3635 3.2285 14.344 3.42778L14.0175 6.77607L13.8714 6.65032C13.1016 5.98757 12.1692 5.5304 11.1616 5.33096C9.81957 5.06534 8.427 5.27326 7.22112 5.91929C6.01525 6.56532 5.07068 7.60948 4.54835 8.87386C4.02603 10.1383 3.95828 11.5446 4.35664 12.8534C4.755 14.1621 5.59482 15.2922 6.73301 16.0512C7.8712 16.8101 9.23734 17.151 10.5986 17.0156C11.96 16.8802 13.2322 16.277 14.1986 15.3087C15.1651 14.3405 15.7658 13.0671 15.8986 11.7055C15.9181 11.5062 15.7723 11.3289 15.573 11.3095C15.3737 11.2901 15.1964 11.4359 15.177 11.6351C15.0605 12.8297 14.5333 13.947 13.6854 14.7965C12.8375 15.646 11.7213 16.1753 10.5269 16.2941C9.33251 16.4128 8.1339 16.1138 7.13528 15.4479C6.13666 14.782 5.39982 13.7905 5.05031 12.6422C4.7008 11.494 4.76024 10.26 5.21851 9.15071C5.67679 8.04137 6.50553 7.12525 7.56354 6.55844C8.62154 5.99163 9.84335 5.80921 11.0208 6.04225C11.763 6.18917 12.4587 6.49546 13.0626 6.93408L13.3601 7.15021L10.1927 6.84129C9.99343 6.82185 9.81612 6.96764 9.79669 7.16693C9.77725 7.36621 9.92304 7.54352 10.1223 7.56295L14.2656 7.96706C14.4649 7.98649 14.6422 7.8407 14.6616 7.64142L15.0657 3.49817C15.0851 3.29889 14.9393 3.12158 14.7401 3.10214Z" fill="#337AFF"/>
</svg>
