<svg width="20" height="20" viewBox="0 0 20 20" fill="none" xmlns="http://www.w3.org/2000/svg">
<path fill-rule="evenodd" clip-rule="evenodd" d="M5.5 3C5.77614 3 6 3.22386 6 3.5V12.5C6 12.7761 6.22386 13 6.5 13H14.2929L11.9645 10.6716C11.7692 10.4763 11.7692 10.1597 11.9645 9.96447C12.1597 9.7692 12.4763 9.7692 12.6716 9.96447L15.8536 13.1464C16.0488 13.3417 16.0488 13.6583 15.8536 13.8536L12.6716 17.0355C12.4763 17.2308 12.1597 17.2308 11.9645 17.0355C11.7692 16.8403 11.7692 16.5237 11.9645 16.3284L14.2929 14H6.5C5.67157 14 5 13.3284 5 12.5V3.5C5 3.22386 5.22386 3 5.5 3Z" fill="#337AFF"/>
</svg>
