<?xml version="1.0" standalone="no"?>
<!DOCTYPE svg PUBLIC "-//W3C//DTD SVG 20010904//EN"
 "http://www.w3.org/TR/2001/REC-SVG-20010904/DTD/svg10.dtd">
<svg version="1.0" xmlns="http://www.w3.org/2000/svg"
 width="306.000000pt" height="264.000000pt" viewBox="0 0 306.000000 264.000000"
 preserveAspectRatio="xMidYMid meet">

<g transform="translate(0.000000,264.000000) scale(0.100000,-0.100000)"
fill="#000000" stroke="none">
<path d="M1825 2036 c-11 -97 -12 -97 -103 -48 -97 51 -145 59 -273 42 -89
-12 -106 -12 -153 3 -103 33 -136 19 -136 -56 0 -25 -6 -36 -22 -44 -84 -38
-197 -156 -198 -204 0 -31 35 -79 57 -79 12 0 9 -7 -11 -25 -46 -43 -29 -131
29 -147 32 -9 149 12 212 38 19 8 43 12 53 9 10 -3 21 -1 25 5 8 13 62 13 70
0 9 -14 25 -12 25 3 0 8 -10 18 -21 23 -18 9 -5 18 102 72 68 34 148 80 178
102 29 23 55 39 57 37 3 -2 9 -33 15 -67 24 -148 92 -219 212 -220 43 0 49 3
68 33 48 76 -4 266 -100 365 -36 37 -38 42 -20 47 48 16 45 74 -7 142 -38 50
-51 43 -59 -31z"/>
<path d="M1589 1551 c-31 -25 -21 -34 19 -19 26 10 37 10 52 0 25 -15 30 -15
30 1 0 14 -40 37 -64 37 -8 0 -24 -9 -37 -19z"/>
<path d="M1330 1480 c-14 -14 -20 -31 -18 -48 2 -22 9 -28 35 -30 28 -3 33 0
39 24 5 18 3 29 -4 32 -7 2 -12 10 -12 17 0 24 -19 26 -40 5z"/>
<path d="M1601 1474 c-12 -15 -21 -32 -21 -39 0 -36 72 -47 78 -12 4 19 -19
77 -30 77 -3 0 -16 -12 -27 -26z"/>
<path d="M1466 1365 c-3 -9 1 -18 10 -22 19 -7 39 11 30 26 -10 16 -33 13 -40
-4z"/>
<path d="M1372 1308 c12 -36 228 -37 228 -2 0 11 -7 13 -27 7 -38 -9 -141 -9
-176 0 -21 6 -28 5 -25 -5z"/>
<path d="M1059 853 c-28 -7 -49 -58 -49 -121 0 -49 4 -64 25 -86 l24 -26 433
0 c339 1 437 3 450 14 55 42 48 184 -11 216 -19 10 -836 13 -872 3z m151 -108
c0 -43 -4 -75 -10 -75 -6 0 -10 32 -10 75 0 43 4 75 10 75 6 0 10 -32 10 -75z
m143 12 c9 -6 9 -10 0 -14 -7 -2 -13 -20 -13 -39 0 -19 -4 -34 -10 -34 -6 0
-10 29 -10 68 0 70 12 107 18 55 2 -15 9 -32 15 -36z m137 -18 c0 -39 -4 -69
-10 -69 -6 0 -10 32 -10 76 0 47 4 73 10 69 6 -3 10 -37 10 -76z m140 0 c0
-39 -4 -69 -10 -69 -5 0 -10 18 -10 40 0 33 -3 40 -19 40 -11 0 -23 5 -26 10
-4 6 5 10 19 10 21 0 26 5 26 26 0 14 4 23 10 19 6 -3 10 -37 10 -76z m259 0
c-3 -98 -19 -97 -19 1 0 53 4 79 10 75 6 -4 10 -37 9 -76z m-214 -4 c-9 -36
-21 -68 -26 -71 -12 -7 -12 -2 7 69 17 68 23 81 32 73 3 -3 -3 -35 -13 -71z
m-527 58 c-24 -4 -28 -9 -28 -39 0 -32 2 -34 33 -35 27 0 29 -2 12 -9 -11 -5
-30 -9 -42 -9 -21 -1 -23 4 -23 49 l0 50 38 -1 c30 -2 32 -3 10 -6z m150 0
c-22 -6 -23 -26 -2 -59 20 -29 10 -46 -10 -18 -15 19 -15 19 -30 -1 -8 -11
-18 -17 -22 -13 -4 5 0 16 9 26 22 24 22 59 0 65 -10 3 2 5 27 5 25 0 37 -2
28 -5z m146 -15 c14 -23 -4 -72 -27 -76 -37 -7 -58 36 -41 83 8 21 53 16 68
-7z m86 -18 c0 -38 1 -40 33 -40 24 0 28 -3 17 -10 -8 -5 -27 -10 -42 -10 -27
0 -28 2 -28 50 0 28 5 50 10 50 6 0 10 -18 10 -40z m218 -15 c-3 -64 -22 -78
-26 -20 -2 22 -8 43 -14 46 -15 10 0 29 23 29 17 0 19 -6 17 -55z m92 35 c0
-23 -55 -88 -66 -78 -4 4 5 17 19 29 32 24 35 49 8 49 -11 0 -23 5 -26 10 -4
6 8 10 29 10 29 0 36 -4 36 -20z"/>
<path d="M1397 784 c-4 -4 -7 -20 -7 -36 0 -23 4 -29 18 -26 11 2 17 13 17 32
0 29 -14 43 -28 30z"/>
<path d="M1000 415 c0 -19 -4 -35 -10 -35 -5 0 -10 14 -10 30 0 17 -4 30 -10
30 -6 0 -10 -32 -10 -75 0 -43 4 -75 10 -75 6 0 10 16 10 35 0 19 5 35 10 35
6 0 10 -18 10 -40 0 -22 5 -40 10 -40 6 0 10 35 10 85 0 50 -4 85 -10 85 -5 0
-10 -16 -10 -35z"/>
<path d="M1160 420 c0 -24 -4 -30 -22 -31 l-23 0 23 -9 c18 -8 22 -17 22 -55
0 -25 5 -45 10 -45 6 0 10 35 10 85 0 50 -4 85 -10 85 -5 0 -10 -13 -10 -30z"/>
<path d="M1320 385 c0 -37 4 -65 10 -65 6 0 10 28 10 65 0 37 -4 65 -10 65 -6
0 -10 -28 -10 -65z"/>
<path d="M1210 430 c0 -5 11 -10 25 -10 14 0 25 -4 25 -10 0 -5 -11 -10 -25
-10 -21 0 -25 -5 -25 -29 0 -27 3 -29 28 -27 15 2 35 4 45 5 9 0 17 5 17 10 0
6 -16 7 -35 4 -22 -3 -35 -2 -35 5 0 6 12 12 27 14 31 3 44 35 21 49 -18 12
-68 11 -68 -1z"/>
<path d="M885 420 c-4 -6 5 -10 19 -10 14 0 26 -4 26 -10 0 -5 -11 -10 -25
-10 -14 0 -25 -4 -25 -10 0 -5 10 -10 22 -10 l21 0 -23 -25 c-18 -19 -20 -25
-8 -25 23 0 48 34 55 74 5 35 5 36 -25 36 -17 0 -34 -4 -37 -10z"/>
<path d="M1080 410 c0 -24 -21 -70 -32 -70 -4 0 -8 -4 -8 -10 0 -16 22 -12 36
8 13 16 15 16 29 -2 12 -16 18 -17 27 -8 7 7 8 12 2 12 -13 0 -34 44 -34 70 0
11 -4 20 -10 20 -5 0 -10 -9 -10 -20z"/>
<path d="M1645 402 c-3 -9 -3 -13 1 -9 4 4 16 0 26 -10 26 -24 28 -12 2 13
-20 19 -23 20 -29 6z"/>
<path d="M1788 413 c33 -3 42 -8 38 -19 -3 -8 -1 -14 4 -14 6 0 10 9 10 20 0
17 -6 20 -47 18 l-48 -1 43 -4z"/>
<path d="M1892 384 c-11 -23 -11 -26 1 -16 10 9 17 9 27 -1 12 -10 12 -9 3 3
-6 8 -12 21 -15 29 -2 8 -9 3 -16 -15z"/>
<path d="M1940 390 c0 -5 5 -10 11 -10 5 0 7 5 4 10 -3 6 -8 10 -11 10 -2 0
-4 -4 -4 -10z"/>
<path d="M1610 380 c-9 -6 -10 -10 -3 -10 6 0 15 5 18 10 8 12 4 12 -15 0z"/>
<path d="M1778 383 c7 -3 16 -2 19 1 4 3 -2 6 -13 5 -11 0 -14 -3 -6 -6z"/>
<path d="M1617 343 c23 -3 33 -10 36 -26 l4 -22 2 22 c1 16 9 23 29 26 15 2
-2 4 -38 4 -36 0 -51 -2 -33 -4z"/>
<path d="M1760 339 c0 -5 5 -7 10 -4 6 3 10 8 10 11 0 2 -4 4 -10 4 -5 0 -10
-5 -10 -11z"/>
<path d="M1807 330 c-3 -12 0 -20 8 -20 8 0 11 8 8 20 -3 11 -7 20 -8 20 -1 0
-5 -9 -8 -20z"/>
<path d="M1928 333 c6 -2 18 -2 25 0 6 3 1 5 -13 5 -14 0 -19 -2 -12 -5z"/>
<path d="M1230 305 c0 -24 3 -25 55 -25 30 0 55 5 55 10 0 6 -20 10 -45 10
-33 0 -45 4 -45 15 0 8 -4 15 -10 15 -5 0 -10 -11 -10 -25z"/>
<path d="M1895 319 c-4 -6 -5 -12 -2 -15 2 -3 7 2 10 11 7 17 1 20 -8 4z"/>
<path d="M1923 293 c9 -2 23 -2 30 0 6 3 -1 5 -18 5 -16 0 -22 -2 -12 -5z"/>
</g>
</svg>
