<?xml version="1.0" standalone="no"?>
<!DOCTYPE svg PUBLIC "-//W3C//DTD SVG 20010904//EN"
 "http://www.w3.org/TR/2001/REC-SVG-20010904/DTD/svg10.dtd">
<svg version="1.0" xmlns="http://www.w3.org/2000/svg"
 width="584.000000pt" height="370.000000pt" viewBox="0 0 584.000000 370.000000"
 preserveAspectRatio="xMidYMid meet">

<g transform="translate(0.000000,370.000000) scale(0.100000,-0.100000)"
fill="#000000" stroke="none">
<path d="M822 3184 c-12 -8 -22 -21 -22 -29 0 -19 39 -45 67 -45 40 0 73 21
73 47 0 40 -75 57 -118 27z m100 -18 c9 -14 0 -26 -28 -36 -30 -12 -74 3 -74
25 0 31 83 40 102 11z"/>
<path d="M1000 3131 l0 -70 -32 -4 -33 -4 33 -1 c17 -1 32 -6 32 -12 0 -5 5
-10 10 -10 6 0 10 35 10 85 0 50 -4 85 -10 85 -6 0 -10 -30 -10 -69z"/>
<path d="M2793 3190 c-32 -13 -31 -53 2 -68 35 -16 66 -15 93 4 58 41 -21 94
-95 64z m78 -10 c49 -27 -8 -72 -59 -47 -33 15 -33 28 -1 44 29 16 35 16 60 3z"/>
<path d="M2970 3131 l0 -70 -32 -4 -33 -4 33 -1 c17 -1 32 -6 32 -12 0 -5 5
-10 10 -10 6 0 10 35 10 85 0 50 -4 85 -10 85 -6 0 -10 -30 -10 -69z"/>
<path d="M4780 3180 c-28 -28 -12 -57 36 -66 65 -12 113 28 79 66 -25 27 -88
27 -115 0z m84 0 c33 -12 33 -38 0 -50 -18 -7 -34 -7 -52 3 -33 15 -33 28 -1
44 29 15 23 15 53 3z"/>
<path d="M4970 3131 l0 -70 -32 -4 -33 -4 33 -1 c17 -1 32 -6 32 -12 0 -5 5
-10 10 -10 6 0 10 35 10 85 0 50 -4 85 -10 85 -6 0 -10 -30 -10 -69z"/>
<path d="M668 3158 c-21 -12 -38 -28 -38 -36 0 -10 8 -7 30 8 l30 21 0 -110
c0 -92 3 -111 15 -111 13 0 15 21 15 125 0 69 -3 125 -7 125 -5 0 -25 -10 -45
-22z"/>
<path d="M2593 3170 c-24 -10 -49 -48 -38 -58 4 -4 16 5 27 21 21 28 46 34 79
17 37 -20 24 -60 -46 -135 -36 -38 -65 -73 -65 -77 0 -5 36 -8 80 -8 47 0 80
4 80 10 0 6 -27 10 -60 10 -57 0 -74 10 -47 27 6 4 31 29 55 55 51 57 56 96
16 127 -29 23 -46 25 -81 11z"/>
<path d="M4578 3164 c-16 -8 -28 -21 -28 -29 0 -20 6 -19 30 5 38 38 94 16 88
-35 -3 -26 -8 -30 -35 -33 -44 -4 -42 -16 5 -28 30 -7 38 -14 40 -37 2 -16 -2
-35 -9 -43 -17 -21 -76 -18 -96 6 -10 11 -21 20 -25 20 -14 0 -8 -20 12 -40
29 -29 94 -27 125 5 31 30 32 58 1 82 -23 19 -23 19 -5 42 26 32 24 56 -7 80
-31 25 -58 26 -96 5z"/>
<path d="M4837 3093 c-59 -2 -95 -8 -92 -13 4 -6 24 -10 46 -10 32 0 39 -3 39
-20 0 -11 5 -20 10 -20 6 0 10 11 10 25 0 23 4 25 45 25 25 0 45 5 45 10 0 6
-1 9 -2 8 -2 -1 -47 -4 -101 -5z"/>
<path d="M780 3080 c0 -5 18 -10 40 -10 33 0 40 -3 40 -20 0 -11 5 -20 10 -20
6 0 10 11 10 24 0 22 5 25 48 29 26 2 3 4 -50 5 -60 1 -98 -2 -98 -8z"/>
<path d="M2745 3080 c3 -5 24 -10 46 -10 32 0 39 -3 39 -20 0 -11 5 -20 10
-20 6 0 10 11 10 24 0 22 5 25 48 29 26 2 1 4 -56 5 -67 1 -101 -2 -97 -8z"/>
<path d="M908 3003 c72 -3 92 -7 92 -18 0 -12 -18 -15 -90 -15 l-90 0 0 -30 0
-30 108 2 107 2 -97 3 c-78 3 -98 7 -98 18 0 12 18 15 90 15 l90 0 0 30 0 30
-102 -2 -103 -2 93 -3z"/>
<path d="M2878 3003 c72 -3 92 -7 92 -18 0 -12 -18 -15 -90 -15 l-90 0 0 -30
0 -30 108 2 107 2 -97 3 c-78 3 -98 7 -98 18 0 12 18 15 90 15 l90 0 0 30 0
30 -102 -2 -103 -2 93 -3z"/>
<path d="M4878 3003 c72 -3 92 -7 92 -18 0 -12 -18 -15 -90 -15 l-90 0 0 -30
0 -30 108 2 107 2 -97 3 c-78 3 -98 7 -98 18 0 12 18 15 90 15 l90 0 0 30 0
30 -102 -2 -103 -2 93 -3z"/>
<path d="M2394 674 c-35 -17 -54 -50 -54 -96 0 -25 16 -47 87 -119 48 -49 92
-89 98 -89 6 0 50 40 98 89 92 94 102 117 76 175 -24 52 -107 67 -151 29 -15
-14 -22 -13 -61 6 -51 25 -53 25 -93 5z"/>
<path d="M4326 675 c-41 -22 -55 -44 -56 -89 0 -35 8 -46 87 -127 48 -49 92
-89 98 -89 6 0 50 40 98 89 71 72 87 94 87 119 0 47 -19 79 -57 97 -35 17 -61
14 -101 -12 -21 -13 -28 -12 -66 6 -51 25 -53 25 -90 6z"/>
<path d="M2888 598 c-47 -73 -78 -124 -78 -131 0 -3 28 -7 63 -9 58 -3 62 -4
59 -25 -2 -13 2 -23 7 -23 6 0 11 11 11 24 0 18 7 26 23 29 l22 4 -22 8 c-21
7 -23 13 -23 91 0 102 -12 108 -62 32z m42 -47 l0 -69 -46 -4 c-25 -2 -47 -1
-49 2 -6 9 80 140 91 140 2 0 4 -31 4 -69z"/>
<path d="M3055 624 c-25 -27 -30 -54 -26 -124 7 -99 105 -130 144 -47 31 65
17 158 -27 189 -24 17 -67 8 -91 -18z m82 8 c19 -12 33 -60 33 -117 0 -46 -4
-56 -26 -74 -33 -26 -49 -26 -74 -1 -16 16 -20 33 -20 90 0 57 4 74 20 90 21
21 46 25 67 12z"/>
<path d="M3260 625 c-36 -38 -40 -128 -8 -174 42 -62 96 -58 131 9 23 44 17
118 -13 160 -28 39 -76 41 -110 5z m93 -9 c19 -20 23 -35 22 -83 -2 -69 -16
-100 -51 -109 -19 -5 -32 -1 -47 15 -18 18 -22 33 -22 92 0 62 3 73 24 90 31
25 47 24 74 -5z"/>
<path d="M4827 613 c-14 -21 -38 -60 -56 -87 -17 -28 -31 -53 -31 -57 0 -5 28
-9 63 -11 58 -3 62 -4 59 -25 -2 -13 2 -23 7 -23 6 0 11 11 11 25 0 19 5 25
22 25 12 0 18 3 14 8 -4 4 -13 7 -19 7 -8 0 -13 29 -15 88 -3 100 -16 112 -55
50z m30 -130 c-3 -2 -26 -3 -51 -1 l-46 3 47 73 48 74 3 -72 c2 -40 1 -74 -1
-77z"/>
<path d="M4986 625 c-42 -45 -41 -155 1 -195 36 -35 61 -34 98 3 31 31 35 41
35 86 0 50 -21 108 -44 123 -24 16 -67 8 -90 -17z m93 -11 c32 -41 30 -136 -4
-169 -29 -30 -49 -31 -75 -5 -16 16 -20 33 -20 90 0 57 4 74 20 90 27 27 55
25 79 -6z"/>
<path d="M5190 625 c-51 -54 -27 -213 33 -216 37 -2 51 2 69 19 23 22 44 104
33 128 -4 10 -7 24 -6 30 0 6 -10 23 -23 37 -32 35 -75 36 -106 2z m85 1 c24
-18 36 -124 19 -165 -25 -60 -97 -44 -110 25 -10 55 2 116 26 136 27 22 40 22
65 4z"/>
</g>
</svg>
