<svg width="100" height="100" viewBox="0 0 100 100" fill="none" xmlns="http://www.w3.org/2000/svg">
<path d="M41.8098 18.0851C41.8098 14.5664 44.6623 11.7139 48.181 11.7139H52.959C56.4777 11.7139 59.3302 14.5664 59.3302 18.0851V24.2539C59.3302 27.7726 56.4777 30.6251 52.959 30.6251H48.181C44.6623 30.6251 41.8098 27.7726 41.8098 24.2539V18.0851Z" fill="black"/>
<path d="M37.3218 11.4552L49.857 5.5614C50.2916 5.35705 50.7952 5.35973 51.2277 5.5687L63.4233 11.4621C64.598 12.0298 64.6294 13.6917 63.477 14.3033L51.2806 20.776C50.8193 21.0208 50.2673 21.0239 49.8032 20.7843L37.2688 14.312C36.0952 13.706 36.1266 12.0172 37.3218 11.4552Z" fill="#535353"/>
<path fill-rule="evenodd" clip-rule="evenodd" d="M42.2133 15.2868L49.352 11.3604L50.5034 13.4538L43.3648 17.3803C43.2375 17.4502 43.1585 17.5839 43.1585 17.7292V31.123H40.7693V17.7292C40.7693 16.7126 41.3227 15.7767 42.2133 15.2868Z" fill="#FFC266"/>
<path d="M52.7151 12.4058C52.7151 13.2855 51.6454 13.9987 50.3259 13.9987C49.0064 13.9987 47.9368 13.2855 47.9368 12.4058C47.9368 11.5261 49.0064 10.813 50.3259 10.813C51.6454 10.813 52.7151 11.5261 52.7151 12.4058Z" fill="black"/>
<path d="M39.9729 27.9355C39.9729 26.836 40.8643 25.9446 41.9639 25.9446C43.0634 25.9446 43.9548 26.836 43.9548 27.9355V30.325C43.9548 31.4246 43.0634 32.316 41.9639 32.316C40.8643 32.316 39.9729 31.4246 39.9729 30.325V27.9355Z" fill="#FFDA16"/>
</svg>
