<svg width="100" height="100" viewBox="0 0 100 100" fill="none" xmlns="http://www.w3.org/2000/svg">
<path fill-rule="evenodd" clip-rule="evenodd" d="M55.7348 20.2222C56.1563 20.2222 56.498 20.5638 56.498 20.9853V26.0729C56.498 26.4944 56.1563 26.8361 55.7348 26.8361C55.3134 26.8361 54.9717 26.4944 54.9717 26.0729V20.9853C54.9717 20.5638 55.3134 20.2222 55.7348 20.2222Z" fill="black"/>
<path fill-rule="evenodd" clip-rule="evenodd" d="M55.2472 21.3611C53.6212 21.7675 51.456 22.0027 49.1208 22.0027C46.7857 22.0027 44.6204 21.7675 42.9945 21.3611C42.1933 21.1608 41.4366 20.898 40.8435 20.5474C40.3526 20.2572 39.4541 19.5951 39.4541 18.4413C39.4541 17.2876 40.3526 16.6255 40.8435 16.3353C41.4366 15.9847 42.1933 15.7219 42.9945 15.5216C44.6204 15.1152 46.7857 14.88 49.1208 14.88C51.456 14.88 53.6212 15.1152 55.2472 15.5216C56.0484 15.7219 56.805 15.9847 57.3982 16.3353C57.8891 16.6255 58.7876 17.2876 58.7876 18.4413C58.7876 19.5951 57.8891 20.2572 57.3982 20.5474C56.805 20.898 56.0484 21.1608 55.2472 21.3611ZM49.1208 20.4764C53.6167 20.4764 57.2612 19.5653 57.2612 18.4413C57.2612 17.3174 53.6167 16.4063 49.1208 16.4063C44.625 16.4063 40.9804 17.3174 40.9804 18.4413C40.9804 19.5653 44.625 20.4764 49.1208 20.4764Z" fill="#FFC266"/>
</svg>
