<svg width="100" height="100" viewBox="0 0 100 100" fill="none" xmlns="http://www.w3.org/2000/svg">
<path d="M68.0075 30.9771C68.3758 29.6544 69.7522 28.8597 71.0819 29.2021C72.4115 29.5444 73.1908 30.8942 72.8225 32.2169L72.7749 32.3877C72.7278 32.557 72.8289 32.7321 72.9991 32.776L73.1703 32.82C74.4999 33.1624 75.2792 34.5122 74.9109 35.8348C74.5426 37.1575 73.1661 37.9521 71.8365 37.6098L66.8501 36.3258C66.6798 36.282 66.5787 36.1069 66.6259 35.9375L68.0075 30.9771Z" fill="#D0D5DA"/>
<path d="M61.526 43.5621C61.1577 44.8847 59.7812 45.6794 58.4516 45.3371C57.1219 44.9947 56.3426 43.6449 56.711 42.3223L56.7585 42.1515C56.8057 41.9821 56.7046 41.807 56.5343 41.7632L56.3632 41.7191C55.0335 41.3768 54.2542 40.027 54.6225 38.7043C54.9909 37.3817 56.3673 36.587 57.6969 36.9294L62.6834 38.2133C62.8536 38.2572 62.9547 38.4322 62.9075 38.6016L61.526 43.5621Z" fill="#D0D5DA"/>
<path d="M67.5395 32.516L70.2697 37.2448L60.812 42.7051L58.0818 37.9763L67.5395 32.516Z" fill="#D0D5DA"/>
</svg>
