<svg width="100" height="100" viewBox="0 0 100 100" fill="none" xmlns="http://www.w3.org/2000/svg">
<path fill-rule="evenodd" clip-rule="evenodd" d="M63.1176 32.738C52.8856 25.0385 42.0592 29.2637 38.1563 32.3914C37.0181 33.3035 35.3812 33.0877 34.5001 31.9095C33.619 30.7313 33.8274 29.0368 34.9656 28.1247C40.0377 24.0601 53.4754 18.8116 66.1824 28.3736C67.3467 29.2497 67.6044 30.9369 66.7581 32.1421C65.9118 33.3473 64.2818 33.6141 63.1176 32.738Z" fill="#FFC266"/>
<path d="M35.2857 27.0479C36.9481 29.9473 39.4294 29.0934 42.1779 27.4955C44.9265 25.8976 46.9016 24.1609 45.2391 21.2615C43.5767 18.3621 38.1742 14.1213 35.4257 15.7192C32.6771 17.3171 33.6232 24.1485 35.2857 27.0479Z" fill="#FFC266"/>
<path d="M37.4891 26.4228C38.467 28.1014 39.9266 27.607 41.5434 26.6819C43.1602 25.7568 44.322 24.7513 43.3441 23.0727C42.3662 21.3941 39.1883 18.9389 37.5715 19.864C35.9547 20.7891 36.5112 24.7442 37.4891 26.4228Z" fill="#FFA113"/>
<path d="M65.7114 27.0479C64.0489 29.9473 61.5677 29.0934 58.8191 27.4955C56.0706 25.8976 54.0955 24.1609 55.758 21.2615C57.4204 18.3621 62.8229 14.1213 65.5714 15.7192C68.32 17.3171 67.3739 24.1485 65.7114 27.0479Z" fill="#FFC266"/>
<path d="M63.5082 26.4229C62.5303 28.1015 61.0707 27.6071 59.4539 26.682C57.8371 25.7569 56.6753 24.7514 57.6532 23.0728C58.6311 21.3942 61.809 18.9391 63.4258 19.8641C65.0426 20.7892 64.4861 24.7443 63.5082 26.4229Z" fill="#FFA113"/>
</svg>
