<svg width="100" height="100" viewBox="0 0 100 100" fill="none" xmlns="http://www.w3.org/2000/svg">
<path fill-rule="evenodd" clip-rule="evenodd" d="M29.2432 51.3479C29.4727 50.8182 30.0881 50.5749 30.6177 50.8044L39.9224 54.8365C40.4336 54.235 41.1957 53.8534 42.0469 53.8534H58.7688C59.62 53.8534 60.3821 54.235 60.8933 54.8365L70.198 50.8045C70.7276 50.575 71.343 50.8183 71.5725 51.3479C71.802 51.8775 71.5587 52.4929 71.0291 52.7224L61.5558 56.8275V61.7997L66.2485 64.4393C66.7515 64.7223 66.93 65.3595 66.647 65.8626C66.364 66.3657 65.7268 66.5441 65.2237 66.2611L61.4998 64.1664C61.2411 65.438 60.1167 66.3949 58.7688 66.3949H42.0469C40.699 66.3949 39.5745 65.4379 39.3159 64.1663L35.5917 66.2611C35.0886 66.5441 34.4514 66.3657 34.1684 65.8626C33.8855 65.3595 34.0639 64.7223 34.567 64.4393L39.26 61.7995V56.8275L29.7866 52.7224C29.257 52.4929 29.0137 51.8775 29.2432 51.3479Z" fill="#E6E6E6"/>
</svg>
