<svg width="100" height="100" viewBox="0 0 100 100" fill="none" xmlns="http://www.w3.org/2000/svg">
<path d="M37.6995 12.9779C37.3061 10.2802 39.3978 7.86145 42.1241 7.86145H56.8222C59.5485 7.86145 61.6402 10.2802 61.2468 12.9779L59.421 25.4974C59.1006 27.6944 57.2166 29.3234 54.9964 29.3234H43.9499C41.7297 29.3234 39.8457 27.6944 39.5253 25.4974L37.6995 12.9779Z" fill="black"/>
<mask id="mask0_7_2030" style="mask-type:alpha" maskUnits="userSpaceOnUse" x="37" y="6" width="25" height="25">
<path d="M37.6362 12.0375C37.2751 9.35527 39.3611 6.96973 42.0676 6.96973H56.88C59.5865 6.96973 61.6724 9.35526 61.3113 12.0375L59.3852 26.3455C59.0865 28.5643 57.1928 30.2202 54.9538 30.2202H43.9937C41.7548 30.2202 39.861 28.5643 39.5623 26.3455L37.6362 12.0375Z" fill="#D9D9D9"/>
</mask>
<g mask="url(#mask0_7_2030)">
<path d="M38.7417 23.0654H60.2042V26.9405H38.7417V23.0654Z" fill="#DB0000"/>
</g>
<path d="M36.2697 29.4659C35.4307 28.2814 36.2777 26.6436 37.7292 26.6436H61.2171C62.6686 26.6436 63.5156 28.2814 62.6766 29.4659L61.4097 31.2543C61.0744 31.7277 60.5303 32.0091 59.9502 32.0091H38.996C38.4159 32.0091 37.8719 31.7277 37.5366 31.2543L36.2697 29.4659Z" fill="black"/>
</svg>
