<svg width="100" height="100" viewBox="0 0 100 100" fill="none" xmlns="http://www.w3.org/2000/svg">
<path d="M55.3472 56.6642C55.9882 57.3051 55.9882 58.3442 55.3472 58.9851L53.9982 60.334C54.6418 59.7332 55.6507 59.7465 56.2781 60.3738C56.9191 61.0147 56.9191 62.0538 56.2781 62.6947L54.7002 64.2725C55.2 64.192 55.73 64.3444 56.1153 64.7297C56.7528 65.3671 56.7528 66.4005 56.1153 67.0379L50.6197 72.5331C50.4258 72.727 50.1952 72.8619 49.9502 72.9378C47.4375 74.4667 44.1154 74.1451 41.9431 71.973C39.986 70.016 39.5311 67.1259 40.5783 64.735L40.5235 60.1517C40.511 59.1065 41.3409 58.3706 42.3771 58.5078C43.4134 58.6451 44.2636 59.6037 44.2761 60.6488L44.2775 60.7671L49.3153 55.7297C49.9562 55.0888 50.9954 55.0888 51.6363 55.7297C52.2773 56.3706 52.2773 57.4097 51.6363 58.0506L46.906 62.7805L46.9077 62.7822L53.0262 56.6642C53.6671 56.0233 54.7063 56.0233 55.3472 56.6642Z" fill="#FB9100"/>
</svg>
