<svg width="100" height="100" viewBox="0 0 100 100" fill="none" xmlns="http://www.w3.org/2000/svg">
<path d="M54.9223 42.8296C54.3592 42.9947 53.9977 42.3686 54.4223 41.9636L63.35 33.447C63.6245 33.1852 64.0629 33.2186 64.2336 33.5142L67.1454 38.5576C67.3161 38.8533 67.1258 39.2496 66.7618 39.3564L54.9223 42.8296Z" fill="#8C8C8C"/>
<path d="M67.7812 29.8583C68.2862 29.3671 69.1248 29.8091 69.005 30.5033L68.4871 33.5044C68.4335 33.8148 68.5859 34.1245 68.8646 34.2714L71.5589 35.6913C72.1821 36.0198 72.0209 36.9539 71.3236 37.0544L68.3093 37.4893C67.9975 37.5343 67.7501 37.7749 67.6965 38.0854L67.1786 41.0865C67.0588 41.7807 66.1206 41.916 65.8095 41.284L64.4644 38.5516C64.3253 38.269 64.02 38.1081 63.7081 38.153L60.6938 38.5879C59.9965 38.6885 59.5779 37.838 60.0829 37.3468L62.2659 35.2233C62.4918 35.0036 62.5505 34.6635 62.4113 34.3808L61.0663 31.6485C60.7551 31.0164 61.4346 30.3555 62.0578 30.684L64.752 32.1039C65.0308 32.2508 65.3724 32.2015 65.5982 31.9818L67.7812 29.8583Z" fill="#FFC266"/>
</svg>
