<svg width="100" height="100" viewBox="0 0 100 100" fill="none" xmlns="http://www.w3.org/2000/svg">
<path d="M43.385 56.6525C45.2119 54.4342 46.9433 54.1437 48.3139 54.6115C50.2871 55.2849 50.6217 57.9081 49.4402 59.6258C46.4755 63.9361 41.0026 63.2658 37.17 61.7854C36.5961 61.5637 36.7687 60.7177 37.3696 60.5856C39.067 60.2122 41.2623 59.2301 43.385 56.6525Z" fill="black"/>
<path d="M55.4734 56.6525C53.6465 54.4342 51.9151 54.1437 50.5445 54.6115C48.5713 55.2849 48.2367 57.9081 49.4182 59.6258C52.3829 63.9361 57.8558 63.2658 61.6884 61.7854C62.2623 61.5637 62.0897 60.7177 61.4888 60.5856C59.7914 60.2122 57.5961 59.2301 55.4734 56.6525Z" fill="black"/>
</svg>
