<svg width="100" height="100" viewBox="0 0 100 100" fill="none" xmlns="http://www.w3.org/2000/svg">
<path fill-rule="evenodd" clip-rule="evenodd" d="M46.8864 51.3787C46.8202 51.416 46.7543 51.4531 46.6884 51.4898C46.0444 51.8485 45.2316 51.6171 44.873 50.9732C44.5143 50.3292 44.7456 49.5164 45.3896 49.1577C45.444 49.1275 45.504 49.0932 45.5695 49.0559C46.1563 48.7211 47.1805 48.1368 48.4889 47.9214C50.0085 47.6713 51.8056 47.9202 53.8348 49.1932C54.4592 49.5849 54.6478 50.4087 54.2561 51.0331C53.8643 51.6575 53.0406 51.8461 52.4162 51.4544C50.9021 50.5045 49.7589 50.4176 48.9225 50.5553C48.1103 50.689 47.4874 51.04 46.8864 51.3787Z" fill="#646464"/>
<path d="M34.4109 51.1398C33.6301 49.375 34.9223 47.3904 36.8521 47.3904H45.2718C47.2541 47.3904 48.5448 49.4746 47.6615 51.2492L46.3328 53.9186C45.8815 54.8253 44.9559 55.3984 43.9431 55.3984H38.0331C36.9766 55.3984 36.0195 54.7753 35.592 53.8091L34.4109 51.1398Z" fill="black"/>
<path fill-rule="evenodd" clip-rule="evenodd" d="M45.2718 49.1699H36.8521C36.2088 49.1699 35.7781 49.8315 36.0384 50.4198L37.2194 53.0891C37.3619 53.4112 37.681 53.6189 38.0331 53.6189H43.9431C44.2807 53.6189 44.5892 53.4278 44.7397 53.1256L46.0684 50.4562C46.3628 49.8647 45.9326 49.1699 45.2718 49.1699ZM36.8521 47.3904C34.9223 47.3904 33.6301 49.375 34.4109 51.1398L35.592 53.8091C36.0195 54.7753 36.9766 55.3984 38.0331 55.3984H43.9431C44.9559 55.3984 45.8815 54.8253 46.3328 53.9186L47.6615 51.2492C48.5448 49.4746 47.2541 47.3904 45.2718 47.3904H36.8521Z" fill="#646464"/>
<path d="M51.2413 51.1398C50.4604 49.375 51.7526 47.3904 53.6824 47.3904H62.1021C64.0844 47.3904 65.3751 49.4746 64.4918 51.2492L63.1631 53.9186C62.7118 54.8253 61.7862 55.3984 60.7734 55.3984H54.8635C53.8069 55.3984 52.8498 54.7753 52.4223 53.8091L51.2413 51.1398Z" fill="black"/>
<path fill-rule="evenodd" clip-rule="evenodd" d="M62.1021 49.1699H53.6824C53.0391 49.1699 52.6084 49.8315 52.8687 50.4198L54.0498 53.0891C54.1922 53.4112 54.5113 53.6189 54.8635 53.6189H60.7734C61.111 53.6189 61.4195 53.4278 61.57 53.1256L62.8987 50.4562C63.1931 49.8647 62.7629 49.1699 62.1021 49.1699ZM53.6824 47.3904C51.7526 47.3904 50.4604 49.375 51.2413 51.1398L52.4223 53.8091C52.8498 54.7753 53.8069 55.3984 54.8635 55.3984H60.7734C61.7862 55.3984 62.7118 54.8253 63.1631 53.9186L64.4918 51.2492C65.3751 49.4746 64.0844 47.3904 62.1021 47.3904H53.6824Z" fill="#646464"/>
</svg>
