<svg width="100" height="100" viewBox="0 0 100 100" fill="none" xmlns="http://www.w3.org/2000/svg">
<path d="M37.9313 15.5441C43.1217 21.0377 46.7551 22.5376 46.7551 22.5376C46.063 24.5357 43.537 28.0325 38.9694 26.0343C33.2599 23.5367 33.3784 10.7253 37.9313 15.5441Z" fill="#9D1515"/>
<path d="M64.8782 15.5441C59.6879 21.0377 56.0545 22.5376 56.0545 22.5376C56.7466 24.5357 59.2726 28.0325 63.8402 26.0343C69.5496 23.5367 69.4311 10.7253 64.8782 15.5441Z" fill="#9D1515"/>
<path fill-rule="evenodd" clip-rule="evenodd" d="M64.0238 31.1221C53.7918 23.4226 42.9655 27.6478 39.0625 30.7755C37.9244 31.6876 36.2874 31.4718 35.4063 30.2936C34.5252 29.1154 34.7336 27.4209 35.8718 26.5088C40.944 22.4441 54.3817 17.1956 67.0887 26.7576C68.2529 27.6337 68.5107 29.321 67.6643 30.5262C66.818 31.7314 65.1881 31.9982 64.0238 31.1221Z" fill="#4E0303"/>
</svg>
