<svg width="100" height="100" viewBox="0 0 100 100" fill="none" xmlns="http://www.w3.org/2000/svg">
<path d="M42.1228 18.8986L43.6563 26.14C43.716 26.422 43.9701 26.6242 44.2648 26.6242H57.5279C57.8304 26.6242 58.0889 26.4114 58.1403 26.1202L59.4208 18.864C59.5023 18.4019 59.0396 18.0277 58.5902 18.1924L55.0555 19.4875C54.8038 19.5797 54.52 19.5033 54.3521 19.2982L51.3712 15.6578C51.1287 15.3616 50.6706 15.3528 50.4164 15.6394L47.1489 19.3229C46.9788 19.5147 46.7044 19.5829 46.4611 19.4938L42.9495 18.2072C42.4914 18.0393 42.0237 18.4306 42.1228 18.8986Z" fill="#FFC266"/>
<path d="M43.1374 27.2311C43.1374 26.8958 43.4156 26.6239 43.7588 26.6239H58.0514C58.3946 26.6239 58.6728 26.8958 58.6728 27.2311V29.6596C58.6728 29.995 58.3946 30.2668 58.0514 30.2668H43.7588C43.4156 30.2668 43.1374 29.995 43.1374 29.6596V27.2311Z" fill="#FFA113"/>
<path d="M43.1374 17.2129C43.1374 18.0512 42.4418 18.7308 41.5838 18.7308C40.7258 18.7308 40.0303 18.0512 40.0303 17.2129C40.0303 16.3746 40.7258 15.695 41.5838 15.695C42.4418 15.695 43.1374 16.3746 43.1374 17.2129Z" fill="#FFA113"/>
<path d="M52.4586 14.1778C52.4586 15.0161 51.7631 15.6956 50.9051 15.6956C50.0471 15.6956 49.3515 15.0161 49.3515 14.1778C49.3515 13.3395 50.0471 12.6599 50.9051 12.6599C51.7631 12.6599 52.4586 13.3395 52.4586 14.1778Z" fill="#FFA113"/>
<path d="M61.7798 17.2129C61.7798 18.0512 61.0843 18.7308 60.2263 18.7308C59.3683 18.7308 58.6728 18.0512 58.6728 17.2129C58.6728 16.3746 59.3683 15.695 60.2263 15.695C61.0843 15.695 61.7798 16.3746 61.7798 17.2129Z" fill="#FFA113"/>
</svg>
