<svg width="100" height="100" viewBox="0 0 100 100" fill="none" xmlns="http://www.w3.org/2000/svg">
<path d="M61.9859 34.1282C62.0215 34.0651 62.1015 34.0427 62.1646 34.0783L64.6032 35.4513C64.6664 35.4869 64.6887 35.5669 64.6532 35.63L60.1227 43.6766C60.068 43.7737 59.9249 43.7627 59.8856 43.6585L59.3196 42.1553C59.2972 42.0957 59.2352 42.0609 59.1727 42.0726L57.5939 42.3681C57.4844 42.3886 57.4008 42.2719 57.4554 42.1748L61.9859 34.1282Z" fill="#337AFF"/>
<path d="M65.1918 34.0933C65.1549 34.031 65.0744 34.0103 65.0121 34.0472L62.6038 35.4725C62.5414 35.5094 62.5208 35.5898 62.5577 35.6522L67.2616 43.5993C67.3183 43.6952 67.4612 43.6812 67.4982 43.5761L68.0315 42.0611C68.0526 42.001 68.1138 41.9648 68.1766 41.9752L69.7614 42.2367C69.8713 42.2548 69.9524 42.1363 69.8957 42.0405L65.1918 34.0933Z" fill="#337AFF"/>
<path d="M62.897 32.7677C64.0703 33.4283 64.0885 35.1112 62.9299 35.7969L58.6934 38.304C57.5347 38.9898 56.0681 38.164 56.0535 36.8177L56.0001 31.8952C55.9855 30.5489 57.4339 29.6918 58.6072 30.3524L62.897 32.7677Z" fill="#7FACFF"/>
<path d="M64.2088 32.7536C63.0501 33.4393 63.0683 35.1222 64.2416 35.7828L68.5314 38.1981C69.7047 38.8587 71.1531 38.0015 71.1385 36.6552L71.0851 31.7328C71.0705 30.3864 69.6039 29.5607 68.4452 30.2464L64.2088 32.7536Z" fill="#7FACFF"/>
<path d="M61.5929 33.5838C61.585 32.8593 62.1659 32.2657 62.8904 32.2579L64.2022 32.2438C64.9266 32.236 65.5203 32.8169 65.5281 33.5414L65.5423 34.853C65.5502 35.5775 64.9693 36.1711 64.2448 36.1789L62.9331 36.193C62.2086 36.2008 61.615 35.6198 61.6071 34.8954L61.5929 33.5838Z" fill="#337AFF"/>
</svg>
