<svg width="100" height="100" viewBox="0 0 100 100" fill="none" xmlns="http://www.w3.org/2000/svg">
<path d="M32.6901 9.33426C32.0574 6.90552 33.4587 4.40909 35.8201 3.75831C38.1815 3.10753 40.6088 4.54885 41.2415 6.97759L45.285 22.4986C45.9178 24.9273 44.5164 27.4238 42.155 28.0745C39.7936 28.7253 37.3664 27.284 36.7336 24.8553L32.6901 9.33426Z" fill="#E1B791"/>
<path d="M36.2645 15.4608C35.9094 14.0978 36.6959 12.6969 38.0211 12.3317C39.3462 11.9664 40.7084 12.7753 41.0635 14.1383L43.3326 22.8485C43.6877 24.2114 42.9013 25.6124 41.5761 25.9776C40.2509 26.3428 38.8888 25.534 38.5337 24.171L36.2645 15.4608Z" fill="#E1934D"/>
<path d="M66.078 9.40518C66.7107 6.97645 65.3093 4.48001 62.9479 3.82923C60.5865 3.17845 58.1593 4.61977 57.5266 7.04851L53.483 22.5695C52.8503 24.9982 54.2517 27.4947 56.6131 28.1455C58.9745 28.7962 61.4017 27.3549 62.0344 24.9262L66.078 9.40518Z" fill="#E1B791"/>
<path d="M62.5033 15.5317C62.8584 14.1688 62.072 12.7678 60.7468 12.4026C59.4216 12.0374 58.0594 12.8462 57.7044 14.2092L55.4352 22.9194C55.0801 24.2824 55.8665 25.6833 57.1917 26.0485C58.5169 26.4138 59.879 25.6049 60.2341 24.2419L62.5033 15.5317Z" fill="#E1934D"/>
<path fill-rule="evenodd" clip-rule="evenodd" d="M61.1444 32.2744C51.3302 24.8894 40.9458 28.942 37.2023 31.9419C36.1106 32.8167 34.5404 32.6098 33.6953 31.4797C32.8502 30.3496 33.0501 28.7243 34.1418 27.8495C39.0069 23.9509 51.896 18.9169 64.0841 28.0882C65.2008 28.9285 65.448 30.5468 64.6363 31.7028C63.8245 32.8588 62.2611 33.1147 61.1444 32.2744Z" fill="#E1B791"/>
</svg>
