<svg width="100" height="100" viewBox="0 0 100 100" fill="none" xmlns="http://www.w3.org/2000/svg">
<path fill-rule="evenodd" clip-rule="evenodd" d="M41.1607 56.8425C43.5708 56.8425 45.4615 54.9297 45.4615 52.6474C45.4615 50.3651 43.5708 48.4524 41.1607 48.4524C38.7505 48.4524 36.8598 50.3651 36.8598 52.6474C36.8598 54.9297 38.7505 56.8425 41.1607 56.8425ZM41.1607 59.108C44.166 59.108 46.6998 57.1216 47.4797 54.4103L47.5337 54.3806C48.0938 54.0725 48.6743 53.7533 49.4312 53.6316C50.1758 53.512 51.1815 53.5787 52.5002 54.3384C53.2556 57.0864 55.8075 59.108 58.8394 59.108C62.4659 59.108 65.4058 56.2155 65.4058 52.6474C65.4058 49.0793 62.4659 46.1868 58.8394 46.1868C55.5799 46.1868 52.8752 48.5233 52.361 51.5869C51.133 51.1394 50.0169 51.0767 49.0271 51.2357C48.5161 51.3178 48.0516 51.4589 47.6441 51.6175C47.1429 48.5389 44.431 46.1868 41.1607 46.1868C37.5341 46.1868 34.5942 49.0793 34.5942 52.6474C34.5942 56.2155 37.5341 59.108 41.1607 59.108ZM63.1402 52.6474C63.1402 54.9297 61.2495 56.8425 58.8394 56.8425C56.4293 56.8425 54.5385 54.9297 54.5385 52.6474C54.5385 50.3651 56.4293 48.4524 58.8394 48.4524C61.2495 48.4524 63.1402 50.3651 63.1402 52.6474Z" fill="black"/>
</svg>
