<svg width="100" height="100" viewBox="0 0 100 100" fill="none" xmlns="http://www.w3.org/2000/svg">
<path fill-rule="evenodd" clip-rule="evenodd" d="M48.6037 52.2059C48.5354 52.2443 48.4675 52.2826 48.3995 52.3205C47.7354 52.6903 46.8973 52.4518 46.5274 51.7877C46.1576 51.1236 46.3961 50.2854 47.0602 49.9155C47.1163 49.8843 47.1782 49.849 47.2457 49.8105C47.8508 49.4653 48.9069 48.8627 50.2562 48.6406C51.8232 48.3826 53.6765 48.6393 55.769 49.9521C56.4129 50.3561 56.6074 51.2055 56.2035 51.8495C55.7995 52.4934 54.95 52.6879 54.3061 52.2839C52.7448 51.3044 51.5659 51.2148 50.7034 51.3568C49.8659 51.4947 49.2235 51.8566 48.6037 52.2059Z" fill="#EFBF76"/>
<path fill-rule="evenodd" clip-rule="evenodd" d="M46.9389 49.9282H38.2563C37.5929 49.9282 37.1488 50.6104 37.4172 51.2171L38.6351 53.9698C38.7821 54.3019 39.1111 54.5161 39.4742 54.5161H45.5687C45.9168 54.5161 46.235 54.3191 46.3901 54.0074L47.7603 51.2547C48.0639 50.6447 47.6203 49.9282 46.9389 49.9282ZM38.2563 48.093C36.2662 48.093 34.9338 50.1397 35.739 51.9596L36.9569 54.7124C37.3977 55.7087 38.3847 56.3513 39.4742 56.3513H45.5687C46.6131 56.3513 47.5676 55.7602 48.033 54.8252L49.4032 52.0724C50.3141 50.2424 48.983 48.093 46.9389 48.093H38.2563Z" fill="#EFBF76"/>
<path fill-rule="evenodd" clip-rule="evenodd" d="M64.2946 49.9282H55.612C54.9487 49.9282 54.5045 50.6104 54.7729 51.2171L55.9908 53.9698C56.1378 54.3019 56.4668 54.5161 56.83 54.5161H62.9244C63.2725 54.5161 63.5907 54.3191 63.7458 54.0074L65.116 51.2547C65.4197 50.6447 64.976 49.9282 64.2946 49.9282ZM55.612 48.093C53.622 48.093 52.2895 50.1397 53.0947 51.9596L54.3126 54.7124C54.7535 55.7087 55.7404 56.3513 56.83 56.3513H62.9244C63.9688 56.3513 64.9233 55.7602 65.3887 54.8252L66.7589 52.0724C67.6698 50.2424 66.3388 48.093 64.2946 48.093H55.612Z" fill="#EFBF76"/>
</svg>
