<svg width="100" height="100" viewBox="0 0 100 100" fill="none" xmlns="http://www.w3.org/2000/svg">
<path d="M48.1738 22.4575C48.0533 22.1344 47.8827 21.7799 47.6572 21.3893C44.8632 16.5503 39.3866 16.1281 34.5453 18.923C29.704 21.718 27.3313 26.6716 30.1253 31.5107C30.3428 31.8873 30.5567 32.2029 30.7686 32.4634C27.7751 34.7568 26.0752 36.6161 26.5022 37.3556C27.2405 38.6343 34.0591 36.08 41.7321 31.6503C49.405 27.2207 55.0266 22.5931 54.2882 21.3144C53.8718 20.5932 51.5211 21.0913 48.1738 22.4575Z" fill="#FFC266"/>
<path d="M43.0023 24.55C42.9963 24.4912 43.0391 24.4387 43.0978 24.4328L45.3677 24.2018C45.4265 24.1959 45.4789 24.2387 45.4849 24.2974L46.247 31.7872C46.2562 31.8776 46.1557 31.9375 46.0805 31.8865L44.9971 31.1509C44.9542 31.1218 44.8966 31.1276 44.8604 31.1648L43.9474 32.1035C43.8841 32.1686 43.7735 32.1301 43.7643 32.0398L43.0023 24.55Z" fill="#337AFF"/>
<path d="M45.1218 23.0205C45.0679 22.9963 45.0046 23.0204 44.9804 23.0743L44.0455 25.1553C44.0213 25.2092 44.0453 25.2725 44.0992 25.2967L50.967 28.3817C51.0499 28.4189 51.1385 28.3424 51.1137 28.255L50.7573 26.995C50.7432 26.9451 50.7669 26.8923 50.8136 26.8697L51.9923 26.2993C52.0741 26.2597 52.0724 26.1427 51.9896 26.1055L45.1218 23.0205Z" fill="#337AFF"/>
<path d="M42.9702 23.215C44.0623 23.1039 44.8651 24.2166 44.4153 25.2178L42.7706 28.8787C42.3208 29.8799 40.9557 30.0188 40.3135 29.1287L37.9652 25.874C37.3229 24.9839 37.8852 23.7323 38.9773 23.6212L42.9702 23.215Z" fill="#7FACFF"/>
<path d="M43.8375 22.5893C43.3877 23.5905 44.1905 24.7032 45.2826 24.5921L49.2755 24.1859C50.3676 24.0748 50.9299 22.8232 50.2876 21.9331L47.9393 18.6784C47.2971 17.7883 45.932 17.9272 45.4822 18.9284L43.8375 22.5893Z" fill="#7FACFF"/>
<path d="M42.4845 24.3717C42.1389 23.8927 42.247 23.2243 42.726 22.8787L43.5934 22.253C44.0724 21.9074 44.7408 22.0156 45.0864 22.4946L45.7122 23.3618C46.0578 23.8408 45.9496 24.5092 45.4706 24.8548L44.6033 25.4805C44.1243 25.8261 43.4558 25.7179 43.1102 25.2389L42.4845 24.3717Z" fill="#337AFF"/>
</svg>
