<svg width="100" height="100" viewBox="0 0 100 100" fill="none" xmlns="http://www.w3.org/2000/svg">
<path d="M68.3604 33.1485C69.6915 31.9885 71.6561 33.1919 71.2274 34.9047L71.1425 35.2437C70.9508 36.0097 71.2631 36.7991 71.9161 37.1991L72.2051 37.3761C73.6652 38.2705 73.0884 40.5751 71.3633 40.7393L71.0218 40.7718C70.2503 40.8452 69.5982 41.4135 69.4064 42.1795L69.3216 42.5185C68.8928 44.2313 66.5717 44.4523 65.9343 42.8409L65.8081 42.522C65.523 41.8014 64.8077 41.3632 64.0362 41.4366L63.6947 41.4691C61.9696 41.6333 61.112 39.4653 62.4431 38.3052L62.7066 38.0756C63.3019 37.5568 63.512 36.7177 63.2269 35.9971L63.1007 35.6781C62.4633 34.0668 64.2543 32.506 65.7144 33.4004L66.0035 33.5774C66.6564 33.9774 67.5016 33.897 68.0969 33.3782L68.3604 33.1485Z" fill="#FFDA79"/>
<path d="M69.1517 39.3453C68.5082 40.3958 67.1348 40.7257 66.0843 40.0822C65.0337 39.4387 64.7038 38.0654 65.3473 37.0149C65.9908 35.9644 67.3642 35.6345 68.4147 36.278C69.4653 36.9215 69.7952 38.2948 69.1517 39.3453Z" fill="#FFAD33"/>
<path d="M59.1677 30.6037C59.6968 28.9192 62.0007 28.9192 62.5298 30.6037L62.6346 30.9371C62.8712 31.6905 63.5499 32.2005 64.3156 32.2005H64.6546C66.3669 32.2005 67.0788 34.467 65.6935 35.5081L65.4193 35.7141C64.7998 36.1797 64.5406 37.005 64.7772 37.7583L64.8819 38.0918C65.4111 39.7762 63.5472 41.177 62.1619 40.1359L61.8877 39.9298C61.2682 39.4643 60.4293 39.4643 59.8098 39.9298L59.5356 40.1359C58.1503 41.177 56.2864 39.7762 56.8156 38.0918L56.9203 37.7583C57.1569 37.005 56.8977 36.1797 56.2782 35.7141L56.004 35.5081C54.6187 34.467 55.3306 32.2005 57.0429 32.2005H57.3819C58.1476 32.2005 58.8263 31.6905 59.0629 30.9371L59.1677 30.6037Z" fill="#FE8C8C"/>
<ellipse cx="60.8486" cy="35.4748" rx="2.23071" ry="2.23061" fill="#EF3434"/>
</svg>
