<svg width="84" height="77" viewBox="0 0 84 77" fill="transparent" xmlns="http://www.w3.org/2000/svg">
<g style="mix-blend-mode:luminosity" opacity="1">
<path d="M27.8142 52.6213C27.8142 60.1442 21.7157 66.2427 14.1929 66.2427C6.67001 66.2427 0.571533 60.1442 0.571533 52.6213C0.571533 45.0985 6.67001 39 14.1929 39C21.7157 39 27.8142 45.0985 27.8142 52.6213Z" fill="#FF9C27" opacity="0.1"/>
<path d="M83.4309 52.6213C83.4309 60.1442 77.3324 66.2427 69.8096 66.2427C62.2867 66.2427 56.1882 60.1442 56.1882 52.6213C56.1882 45.0985 62.2867 39 69.8096 39C77.3324 39 83.4309 45.0985 83.4309 52.6213Z" fill="#FF9C27" opacity="0.1"/>
<path d="M76.2858 44.7198C76.2858 62.0774 60.9355 76.1484 42.0001 76.1484C23.0646 76.1484 7.71436 62.0774 7.71436 44.7198C7.71436 27.3623 23.0646 13.2913 42.0001 13.2913C60.9355 13.2913 76.2858 27.3623 76.2858 44.7198Z" fill="#FFBA68" opacity="0.2"/>
<mask id="mask0_201_100311" style="mask-type:alpha" maskUnits="userSpaceOnUse" x="7" y="13" width="70" height="64">
<path d="M76.2858 44.7142C76.2858 62.0717 60.9355 76.1428 42.0001 76.1428C23.0646 76.1428 7.71436 62.0717 7.71436 44.7142C7.71436 27.3567 23.0646 13.2856 42.0001 13.2856C60.9355 13.2856 76.2858 27.3567 76.2858 44.7142Z" fill="#FFAB49" opacity="0.2"/>
</mask>
<g mask="url(#mask0_201_100311)">
<path d="M30.1628 60.8606C30.1628 68.2 24.1714 74.1498 16.7807 74.1498C9.39003 74.1498 3.39868 68.2 3.39868 60.8606C3.39868 53.5213 9.39003 47.5715 16.7807 47.5715C24.1714 47.5715 30.1628 53.5213 30.1628 60.8606Z" fill="#FF9A24" opacity="0.2"/>
<path d="M80.049 60.8606C80.049 68.2 74.0577 74.1498 66.667 74.1498C59.2763 74.1498 53.2849 68.2 53.2849 60.8606C53.2849 53.5213 59.2763 47.5715 66.667 47.5715C74.0577 47.5715 80.049 53.5213 80.049 60.8606Z" fill="#FF9A24" opacity="0.2"/>
</g>
<path d="M43.4287 54.7142C43.4287 55.5032 42.7891 56.1428 42.0001 56.1428C41.2111 56.1428 40.5715 55.5032 40.5715 54.7142C40.5715 53.9252 41.2111 53.2856 42.0001 53.2856C42.7891 53.2856 43.4287 53.9252 43.4287 54.7142Z" fill="black" opacity="0.2"/>
<path d="M34.8574 49.1382C34.8574 50.6399 33.5782 51.8572 32.0002 51.8572C30.4223 51.8572 29.1431 50.6399 29.1431 49.1382C29.1431 47.6365 30.4223 46.4191 32.0002 46.4191C33.5782 46.4191 34.8574 47.6365 34.8574 49.1382Z" fill="black" opacity="0.2"/>
<path fill-rule="evenodd" clip-rule="evenodd" d="M33.4613 45.2521C33.741 45.7483 33.5452 46.3664 33.0237 46.6327C32.7403 46.7774 32.3108 47.0736 32.0052 47.4434C31.7017 47.8107 31.6181 48.1207 31.686 48.3909C31.8236 48.9386 31.4685 49.4887 30.893 49.6196C30.3175 49.7506 29.7394 49.4127 29.6018 48.865C29.3246 47.7616 29.7936 46.8208 30.3209 46.1828C30.8462 45.5471 31.5258 45.0833 32.0106 44.8357C32.532 44.5695 33.1815 44.7559 33.4613 45.2521Z" fill="black" opacity="0.2"/>
<path d="M54.8574 49.1382C54.8574 50.6399 53.5782 51.8572 52.0002 51.8572C50.4223 51.8572 49.1431 50.6399 49.1431 49.1382C49.1431 47.6365 50.4223 46.4191 52.0002 46.4191C53.5782 46.4191 54.8574 47.6365 54.8574 49.1382Z" fill="black" opacity="0.2"/>
<path fill-rule="evenodd" clip-rule="evenodd" d="M53.4613 45.2521C53.741 45.7483 53.5452 46.3664 53.0237 46.6327C52.7403 46.7774 52.3108 47.0736 52.0052 47.4434C51.7017 47.8107 51.6181 48.1207 51.686 48.3909C51.8236 48.9386 51.4685 49.4887 50.893 49.6196C50.3175 49.7506 49.7394 49.4127 49.6018 48.865C49.3246 47.7616 49.7936 46.8208 50.3209 46.1828C50.8462 45.5471 51.5258 45.0833 52.0106 44.8357C52.532 44.5695 53.1815 44.7559 53.4613 45.2521Z" fill="black" opacity="0.2"/>
<path fill-rule="evenodd" clip-rule="evenodd" d="M34.1368 59.4075C39.2577 61.0028 44.7426 61.0028 49.8635 59.4075C50.4133 59.2362 50.704 58.6982 50.5128 58.2057C50.3215 57.7132 49.7208 57.4529 49.1709 57.6241C44.5011 59.0789 39.4992 59.0789 34.8293 57.6241C34.2795 57.4528 33.6787 57.7132 33.4875 58.2057C33.2963 58.6982 33.587 59.2362 34.1368 59.4075Z" fill="#A75A00" opacity="0.2"/>
<path fill-rule="evenodd" clip-rule="evenodd" d="M30.6914 41.4718C29.6656 41.6249 28.8359 42.1576 28.4144 42.5711C28.0202 42.9579 27.387 42.9518 27.0003 42.5575C26.6135 42.1633 26.6196 41.5302 27.0138 41.1434C27.6912 40.4789 28.8945 39.7179 30.3961 39.4937C31.9429 39.2628 33.7422 39.6133 35.5005 41.0919C35.9233 41.4473 35.9778 42.0781 35.6223 42.5008C35.2669 42.9235 34.6361 42.9781 34.2134 42.6226C32.8948 41.5139 31.6721 41.3254 30.6914 41.4718Z" fill="#905A09" opacity="0.2"/>
<path fill-rule="evenodd" clip-rule="evenodd" d="M52.1199 41.4718C51.0941 41.6249 50.2644 42.1576 49.8429 42.5711C49.4486 42.9579 48.8155 42.9518 48.4287 42.5575C48.042 42.1633 48.048 41.5302 48.4423 41.1434C49.1197 40.4789 50.3229 39.7179 51.8246 39.4937C53.3714 39.2628 55.1707 39.6133 56.929 41.0919C57.3517 41.4473 57.4063 42.0781 57.0508 42.5008C56.6954 42.9235 56.0646 42.9781 55.6419 42.6226C54.3233 41.5139 53.1006 41.3254 52.1199 41.4718Z" fill="#905A09" opacity="0.2"/>
<path d="M28.2718 5.55994C38.5787 9.66177 45.6149 -2.20962 64.1226 11.8254C69.1496 11.2118 64.1226 -6.6411 71.4926 3.58149C77.3886 11.7596 72.2056 13.9487 69.0789 13.2891C81.4759 21.5332 88.512 48.2438 73.5029 45.7909C55.2968 42.8155 62.1111 19.0803 57.4203 25.0159C52.7295 30.9516 15.2116 48.8647 7.49724 45.7909C2.06694 43.6272 2.06694 36.0426 7.49724 33.9195C6.82753 33.1501 3.13911 33.7343 2.06694 28.4581C0.994768 23.182 13.0827 14.0238 18.2202 11.8254C18.2202 6.21946 17.3719 1.22213 28.2718 5.55994Z" fill="black" opacity="0.2"/>
</g>
</svg>
