<svg width="30" height="30" viewBox="0 0 30 30" fill="none" xmlns="http://www.w3.org/2000/svg">
<mask id="mask0_46_5169" style="mask-type:luminance" maskUnits="userSpaceOnUse" x="3" y="1" width="24" height="22">
<path fill-rule="evenodd" clip-rule="evenodd" d="M3.75 1.25H26.8711V22.935H3.75V1.25Z" fill="white"/>
</mask>
<g mask="url(#mask0_46_5169)">
<path fill-rule="evenodd" clip-rule="evenodd" d="M15.3087 3.12498C10.9399 3.12498 7.89491 6.54748 7.89491 9.61873C7.89491 12.2175 7.17366 13.4187 6.53616 14.4787C6.02491 15.33 5.62116 16.0025 5.62116 17.4637C5.82991 19.8212 7.38616 21.06 15.3087 21.06C23.1874 21.06 24.7924 19.7662 24.9999 17.3825C24.9962 16.0025 24.5924 15.33 24.0812 14.4787C23.4437 13.4187 22.7224 12.2175 22.7224 9.61873C22.7224 6.54748 19.6774 3.12498 15.3087 3.12498ZM15.3088 22.935C9.46377 22.935 4.18127 22.5225 3.75002 17.5438C3.74627 15.4837 4.37502 14.4362 4.93002 13.5138C5.49127 12.5787 6.02002 11.6975 6.02002 9.61875C6.02002 5.5775 9.75252 1.25 15.3088 1.25C20.865 1.25 24.5975 5.5775 24.5975 9.61875C24.5975 11.6975 25.1263 12.5787 25.6875 13.5138C26.2425 14.4362 26.8713 15.4837 26.8713 17.4637C26.435 22.5225 21.1538 22.935 15.3088 22.935Z" fill="#4F80FF"/>
</g>
<path fill-rule="evenodd" clip-rule="evenodd" d="M15.2473 28.1253H15.2448C13.8435 28.124 12.5173 27.5065 11.511 26.3853C11.1648 26.0015 11.196 25.4078 11.581 25.0628C11.966 24.7153 12.5585 24.7465 12.9048 25.1328C13.5523 25.854 14.3835 26.2503 15.246 26.2503H15.2473C16.1135 26.2503 16.9485 25.854 17.5973 25.1315C17.9448 24.7478 18.5373 24.7165 18.921 25.0628C19.306 25.409 19.3373 26.0028 18.991 26.3865C17.981 27.5078 16.6523 28.1253 15.2473 28.1253Z" fill="#4F80FF"/>
</svg>
