<svg width="30" height="30" viewBox="0 0 30 30" fill="none" xmlns="http://www.w3.org/2000/svg">
<mask id="path-1-inside-1_35_3943" fill="white">
<path fill-rule="evenodd" clip-rule="evenodd" d="M15 25.5819C22.1797 25.5819 28 20.5268 28 14.2909C28 8.05513 22.1797 3 15 3C7.92298 3 2.16675 7.91157 2.00356 14.0241C2.00103 14.1085 1.99989 14.193 2.00001 14.2777C2 14.2821 2 14.2865 2 14.2909C2 14.7397 2.03014 15.1823 2.08875 15.6173C2.11927 15.8759 2.15554 16.1334 2.19408 16.3881C2.47559 18.2397 3.33688 19.8482 4.58134 21.2058C5.10527 21.7778 5.28735 22.4097 5.34098 23.0993C5.44373 24.4227 5.29413 25.7189 4.62314 26.9971C4.62299 26.9974 4.62291 26.9977 4.62291 26.9981C4.62292 26.9984 4.62298 26.9986 4.62312 26.9989C4.62351 26.9997 4.62443 27.0001 4.62531 26.9999C4.68916 26.9859 4.73808 26.9761 4.77765 26.9682C4.83917 26.956 4.87808 26.9482 4.91536 26.9358C6.19221 26.5266 7.31826 25.8642 8.23094 24.8638C8.55155 24.5123 8.89562 24.4456 9.33464 24.5982C10.6694 25.0603 12.0418 25.4048 13.4432 25.5018C13.9536 25.5547 14.4732 25.5819 15 25.5819Z"/>
</mask>
<path d="M2.00356 14.0241L4.00267 14.0841L4.00285 14.0775L2.00356 14.0241ZM2.00001 14.2777L4.00001 14.2803L4.00001 14.2748L2.00001 14.2777ZM2.08875 15.6173L4.07497 15.3829L4.07304 15.3666L4.07084 15.3503L2.08875 15.6173ZM2.19408 16.3881L0.216586 16.6873L0.2168 16.6887L2.19408 16.3881ZM4.58134 21.2058L6.05615 19.8549L6.05566 19.8544L4.58134 21.2058ZM5.34098 23.0993L7.33497 22.9444L7.33496 22.9442L5.34098 23.0993ZM4.62314 26.9971L6.3937 27.9272L6.39397 27.9267L4.62314 26.9971ZM4.62291 26.9981L2.62306 27.0219L2.62307 27.0229L4.62291 26.9981ZM4.62312 26.9989L6.41558 26.1117L6.41456 26.1097L4.62312 26.9989ZM4.62531 26.9999L5.055 28.9532L5.05505 28.9532L4.62531 26.9999ZM4.77765 26.9682L4.38625 25.0069L4.38618 25.0069L4.77765 26.9682ZM4.91536 26.9358L4.30498 25.0313L4.29576 25.0342L4.28658 25.0373L4.91536 26.9358ZM8.23094 24.8638L9.70845 26.2118L9.70869 26.2115L8.23094 24.8638ZM9.33464 24.5982L8.67798 26.4873L8.68035 26.4881L9.33464 24.5982ZM13.4432 25.5018L13.6494 23.5124L13.6154 23.5089L13.5813 23.5065L13.4432 25.5018ZM26 14.2909C26 19.1668 21.3491 23.5819 15 23.5819V27.5819C23.0103 27.5819 30 21.8867 30 14.2909H26ZM15 5C21.3491 5 26 9.41508 26 14.2909H30C30 6.69518 23.0103 1 15 1V5ZM4.00285 14.0775C4.13063 9.29122 8.74628 5 15 5V1C7.09967 1 0.202874 6.53192 0.00427055 13.9708L4.00285 14.0775ZM4.00001 14.2748C3.99991 14.21 4.00079 14.1464 4.00266 14.0841L0.004457 13.9642C0.00126886 14.0705 -0.000139475 14.176 1.0848e-05 14.2806L4.00001 14.2748ZM4 14.2909C4 14.2874 4 14.2839 4.00001 14.2803L1.04904e-05 14.275C3.45707e-06 14.2803 0 14.2856 0 14.2909H4ZM4.07084 15.3503C4.0241 15.0034 4 14.65 4 14.2909H0C0 14.8294 0.0361723 15.3612 0.106658 15.8844L4.07084 15.3503ZM4.17157 16.0889C4.13497 15.8469 4.10207 15.6126 4.07497 15.3829L0.102533 15.8517C0.136467 16.1393 0.176108 16.4198 0.216587 16.6873L4.17157 16.0889ZM6.05566 19.8544C5.03722 18.7434 4.38446 17.4891 4.17136 16.0875L0.2168 16.6887C0.566716 18.9902 1.63654 20.9531 3.10702 22.5573L6.05566 19.8544ZM7.33496 22.9442C7.25909 21.9685 6.97445 20.8575 6.05615 19.8549L3.10653 22.5567C3.19032 22.6482 3.23342 22.7264 3.26358 22.8073C3.29766 22.8987 3.32988 23.0342 3.347 23.2543L7.33496 22.9442ZM6.39397 27.9267C7.2851 26.2292 7.45829 24.5327 7.33497 22.9444L3.34698 23.2541C3.42917 24.3126 3.30315 25.2087 2.85231 26.0675L6.39397 27.9267ZM6.62277 26.9743C6.62664 27.299 6.5512 27.6274 6.3937 27.9272L2.85258 26.067C2.69477 26.3674 2.61918 26.6964 2.62306 27.0219L6.62277 26.9743ZM6.41456 26.1097C6.55196 26.3865 6.61915 26.6827 6.62276 26.9732L2.62307 27.0229C2.62668 27.314 2.69401 27.6108 2.83167 27.8881L6.41456 26.1097ZM4.19562 25.0466C5.06065 24.8563 5.99398 25.2599 6.41557 26.1117L2.83066 27.8861C3.25305 28.7395 4.18822 29.1439 5.055 28.9532L4.19562 25.0466ZM4.38618 25.0069C4.34485 25.0152 4.27974 25.0281 4.19557 25.0467L5.05505 28.9532C5.09858 28.9436 5.13131 28.9371 5.16912 28.9295L4.38618 25.0069ZM4.28658 25.0373C4.3482 25.0168 4.39531 25.0057 4.41223 25.0018C4.41989 25.0001 4.42294 24.9995 4.41727 25.0007C4.41107 25.0019 4.40303 25.0036 4.38625 25.0069L5.16905 28.9296C5.19373 28.9246 5.36576 28.8935 5.54414 28.8344L4.28658 25.0373ZM6.75343 23.5159C6.11002 24.2211 5.3004 24.7122 4.30498 25.0313L5.52574 28.8404C7.08403 28.341 8.5265 27.5073 9.70845 26.2118L6.75343 23.5159ZM9.9913 22.709C9.5389 22.5518 8.94667 22.4421 8.29092 22.5926C7.62129 22.7463 7.11635 23.1179 6.75318 23.5161L9.70869 26.2115C9.66614 26.2582 9.49353 26.4206 9.18585 26.4912C8.89204 26.5587 8.69136 26.4919 8.67798 26.4873L9.9913 22.709ZM13.5813 23.5065C12.4116 23.4256 11.2197 23.1343 9.98893 22.7082L8.68035 26.4881C10.1191 26.9862 11.672 27.384 13.3051 27.497L13.5813 23.5065ZM15 23.5819C14.5421 23.5819 14.0914 23.5582 13.6494 23.5124L13.237 27.4911C13.8159 27.5511 14.4043 27.5819 15 27.5819V23.5819Z" fill="#337AFF" mask="url(#path-1-inside-1_35_3943)"/>
<ellipse cx="10.5312" cy="14.4224" rx="1.21875" ry="1.26912" fill="#337AFF"/>
<ellipse cx="15.4062" cy="14.4224" rx="1.21875" ry="1.26912" fill="#337AFF"/>
<ellipse cx="20.2812" cy="14.4224" rx="1.21875" ry="1.26912" fill="#337AFF"/>
</svg>
