<svg width="46" height="46" viewBox="0 0 46 46" fill="none" xmlns="http://www.w3.org/2000/svg">
<g filter="url(#filter0_d_47_11231)">
<path d="M33.6066 29.6066C27.7487 35.4645 18.2513 35.4645 12.3934 29.6066C6.53553 23.7487 6.53553 14.2513 12.3934 8.3934C18.2513 2.53553 27.7487 2.53553 33.6066 8.3934C39.4645 14.2513 39.4645 23.7487 33.6066 29.6066Z" fill="#F5F8FF"/>
<path d="M27.8212 14.1788C27.981 14.3386 28.0708 14.5554 28.0708 14.7815C28.0708 15.0075 27.981 15.2243 27.8212 15.3841L24.2053 19L27.8212 22.6159C27.981 22.7757 28.0708 22.9925 28.0708 23.2185C28.0708 23.4446 27.981 23.6614 27.8212 23.8212C27.6614 23.981 27.4446 24.0708 27.2185 24.0708C26.9925 24.0708 26.7757 23.981 26.6159 23.8212L23 20.2053L19.3841 23.8212C19.2243 23.981 19.0075 24.0708 18.7815 24.0708C18.5554 24.0708 18.3386 23.981 18.1788 23.8212C18.019 23.6614 17.9292 23.4446 17.9292 23.2185C17.9292 22.9925 18.019 22.7757 18.1788 22.6159L21.7947 19L18.1788 15.3841C18.019 15.2243 17.9292 15.0075 17.9292 14.7815C17.9292 14.5554 18.019 14.3386 18.1788 14.1788C18.3386 14.019 18.5554 13.9292 18.7815 13.9292C19.0075 13.9292 19.2243 14.019 19.3841 14.1788L23 17.7947L26.6159 14.1788C26.7757 14.019 26.9925 13.9292 27.2185 13.9292C27.4446 13.9292 27.6614 14.019 27.8212 14.1788Z" fill="#669BFF"/>
</g>
<defs>
<filter id="filter0_d_47_11231" x="0" y="0" width="46" height="46" filterUnits="userSpaceOnUse" color-interpolation-filters="sRGB">
<feFlood flood-opacity="0" result="BackgroundImageFix"/>
<feColorMatrix in="SourceAlpha" type="matrix" values="0 0 0 0 0 0 0 0 0 0 0 0 0 0 0 0 0 0 127 0" result="hardAlpha"/>
<feOffset dy="4"/>
<feGaussianBlur stdDeviation="4"/>
<feComposite in2="hardAlpha" operator="out"/>
<feColorMatrix type="matrix" values="0 0 0 0 0 0 0 0 0 0 0 0 0 0 0 0 0 0 0.25 0"/>
<feBlend mode="normal" in2="BackgroundImageFix" result="effect1_dropShadow_47_11231"/>
<feBlend mode="normal" in="SourceGraphic" in2="effect1_dropShadow_47_11231" result="shape"/>
</filter>
</defs>
</svg>
