<svg width="30" height="30" viewBox="0 0 30 30" fill="none" xmlns="http://www.w3.org/2000/svg">
<path d="M22.7549 21.0498C22.7549 21.5244 22.4022 21.9167 21.9446 21.9787L21.8174 21.9873L4.79516 21.9873C4.27739 21.9873 3.85766 21.5676 3.85766 21.0498C3.85766 20.5752 4.21035 20.1829 4.66795 20.1209L4.79516 20.1123L21.8174 20.1123C22.3351 20.1123 22.7549 20.532 22.7549 21.0498Z" fill="#337AFF"/>
<path d="M10.5764 25.4821C10.9434 25.8474 10.9448 26.441 10.5795 26.808C10.2474 27.1416 9.72666 27.173 9.35902 26.9016L9.25366 26.811L4.13283 21.7138C3.79813 21.3807 3.76771 20.8579 4.04155 20.4902L4.13283 20.3849L9.25366 15.2877C9.62062 14.9224 10.2142 14.9238 10.5795 15.2908C10.9115 15.6244 10.9406 16.1453 10.6674 16.5117L10.5764 16.6166L6.12393 21.0488L10.5764 25.4821Z" fill="#337AFF"/>
<path d="M26.1465 8.63867C26.1465 9.11329 25.7938 9.50554 25.3362 9.56761L25.209 9.57617L8.18676 9.57617C7.66899 9.57617 7.24926 9.15644 7.24926 8.63867C7.24926 8.16405 7.60196 7.77181 8.05955 7.70973L8.18676 7.70117L25.209 7.70117C25.7268 7.70117 26.1465 8.1209 26.1465 8.63867Z" fill="#337AFF"/>
<path d="M25.8713 7.97477C26.206 8.30792 26.2365 8.83073 25.9626 9.19837L25.8713 9.30366L20.7505 14.4009C20.3835 14.7661 19.79 14.7648 19.4247 14.3978C19.0926 14.0642 19.0636 13.5433 19.3367 13.1769L19.4277 13.072L23.8816 8.63894L19.4277 4.20643C19.0941 3.87437 19.0627 3.35361 19.3342 2.98597L19.4247 2.88061C19.7567 2.54701 20.2775 2.51555 20.6451 2.78702L20.7505 2.87755L25.8713 7.97477Z" fill="#337AFF"/>
</svg>
