<svg width="30" height="30" viewBox="0 0 30 30" fill="none" xmlns="http://www.w3.org/2000/svg">
<mask id="mask0_35_4365" style="mask-type:luminance" maskUnits="userSpaceOnUse" x="2" y="1" width="27" height="28">
<path fill-rule="evenodd" clip-rule="evenodd" d="M2.5 1.25H28.1248V28.1312H2.5V1.25Z" fill="white"/>
</mask>
<g mask="url(#mask0_35_4365)">
<path fill-rule="evenodd" clip-rule="evenodd" d="M17.1458 19.1141C18.6508 19.1141 19.8758 20.3303 19.8758 21.8253V25.6703C19.8758 25.9916 20.1333 26.2491 20.4633 26.2566H22.8458C24.7233 26.2566 26.2495 24.7491 26.2495 22.8966V11.9916C26.2408 11.3541 25.937 10.7541 25.4158 10.3553L17.1745 3.78281C16.0683 2.90656 14.5208 2.90656 13.4108 3.78531L5.22576 10.3528C4.68451 10.7641 4.38076 11.3641 4.37451 12.0128V22.8966C4.37451 24.7491 5.90076 26.2566 7.77826 26.2566H10.1833C10.522 26.2566 10.797 25.9878 10.797 25.6578C10.797 25.5853 10.8058 25.5128 10.8208 25.4441V21.8253C10.8208 20.3391 12.0383 19.1241 13.532 19.1141H17.1458ZM22.8458 28.1316H20.4408C19.0633 28.0991 18.0008 27.0178 18.0008 25.6703V21.8253C18.0008 21.3641 17.617 20.9891 17.1458 20.9891H13.5383C13.077 20.9916 12.6958 21.3678 12.6958 21.8253V25.6578C12.6958 25.7516 12.6833 25.8416 12.657 25.9266C12.522 27.1641 11.4645 28.1316 10.1833 28.1316H7.77826C4.86701 28.1316 2.49951 25.7828 2.49951 22.8966V12.0041C2.51201 10.7616 3.08451 9.62406 4.07326 8.87531L12.242 2.31906C14.0408 0.894063 16.547 0.894063 18.342 2.31656L26.5695 8.87906C27.5358 9.61531 28.1083 10.7503 28.1245 11.9778V22.8966C28.1245 25.7828 25.757 28.1316 22.8458 28.1316Z" fill="#337AFF"/>
</g>
</svg>
