<svg width="30" height="30" viewBox="0 0 30 30" fill="none" xmlns="http://www.w3.org/2000/svg">
<g clip-path="url(#clip0_44_8786)">
<path d="M4.23926 4.23828H25.4639V25.4631H4.23926V4.23828Z" fill="#F0DB4F"/>
<path d="M23.7266 20.4012C23.5711 19.4329 22.9397 18.6196 21.0694 17.8612C20.4197 17.5626 19.6954 17.3488 19.4796 16.8564C19.4029 16.5699 19.3928 16.4085 19.4413 16.235C19.5805 15.6721 20.2524 15.4967 20.7849 15.6581C21.1279 15.773 21.4526 16.0373 21.6484 16.459C22.5643 15.8659 22.5625 15.8698 23.202 15.4622C22.9679 15.0992 22.8429 14.9317 22.6896 14.7764C22.1388 14.1611 21.3882 13.8442 20.1878 13.8685L19.5625 13.9494C18.9633 14.1008 18.3923 14.4153 18.0574 14.8369C17.0527 15.977 17.3392 17.9722 18.5618 18.7933C19.7663 19.6974 21.5357 19.903 21.7617 20.7484C21.9816 21.7833 21.0011 22.1183 20.0265 21.9993C19.3083 21.8499 18.9089 21.4849 18.477 20.8211C17.6822 21.2811 17.6822 21.2811 16.865 21.7511C17.0588 22.1748 17.2624 22.3666 17.5873 22.7336C19.1247 24.2931 22.9721 24.2165 23.6622 21.8561C23.6901 21.775 23.876 21.2345 23.7266 20.4012ZM15.7773 13.9934H13.7921L13.784 19.126C13.784 20.2175 13.8404 21.2182 13.6629 21.5249C13.3725 22.1282 12.6198 22.0534 12.2768 21.9364C11.9277 21.7648 11.7502 21.5209 11.5446 21.176C11.4881 21.077 11.4457 21.0003 11.4315 20.9944L9.81738 21.9829C10.0858 22.5337 10.4812 23.0119 10.9876 23.3225C11.7441 23.7765 12.7609 23.9157 13.8243 23.6716C14.5164 23.47 15.1135 23.0524 15.4262 22.4167C15.8782 21.5834 15.7812 20.5748 15.7772 19.4592C15.7873 17.6391 15.7773 15.8193 15.7773 13.9934Z" fill="#323330"/>
</g>
<defs>
<clipPath id="clip0_44_8786">
<rect width="21.7021" height="21.7021" fill="white" transform="translate(4 4)"/>
</clipPath>
</defs>
</svg>
