<svg width="30" height="30" viewBox="0 0 30 30" fill="none" xmlns="http://www.w3.org/2000/svg">
<path fill-rule="evenodd" clip-rule="evenodd" d="M15 26.375C21.2822 26.375 26.375 21.2822 26.375 15C26.375 8.71776 21.2822 3.625 15 3.625C8.71776 3.625 3.625 8.71776 3.625 15C3.625 21.2822 8.71776 26.375 15 26.375ZM28 15C28 22.1797 22.1797 28 15 28C7.8203 28 2 22.1797 2 15C2 7.8203 7.8203 2 15 2C22.1797 2 28 7.8203 28 15Z" fill="#337AFF"/>
<path fill-rule="evenodd" clip-rule="evenodd" d="M12.5625 18.5184L18.6562 15.0001L12.5625 11.4819L12.5625 18.5184ZM19.4687 16.4074C20.5521 15.782 20.5521 14.2183 19.4688 13.5929L13.375 10.0746C12.2917 9.44916 10.9375 10.231 10.9375 11.4819L10.9375 18.5184C10.9375 19.7693 12.2917 20.5511 13.375 19.9257L19.4687 16.4074Z" fill="#337AFF"/>
</svg>
