<svg width="30" height="30" viewBox="0 0 30 30" fill="none" xmlns="http://www.w3.org/2000/svg">
<path fill-rule="evenodd" clip-rule="evenodd" d="M14.7207 16.8309C13.8844 16.8309 13.0507 16.5546 12.3532 16.0021L6.74692 11.4821C6.34317 11.1571 6.28067 10.5659 6.60442 10.1634C6.93067 9.76212 7.52067 9.69837 7.92317 10.0221L13.5244 14.5371C14.2282 15.0946 15.2194 15.0946 15.9282 14.5321L21.4732 10.0246C21.8757 9.69587 22.4657 9.75837 22.7932 10.1609C23.1194 10.5621 23.0582 11.1521 22.6569 11.4796L17.1019 15.9946C16.3994 16.5521 15.5594 16.8309 14.7207 16.8309Z" fill="#337AFF"/>
<mask id="mask0_397_38905" style="mask-type:luminance" maskUnits="userSpaceOnUse" x="1" y="2" width="28" height="25">
<path fill-rule="evenodd" clip-rule="evenodd" d="M1.25 2.5H28.1249V26.875H1.25V2.5Z" fill="white"/>
</mask>
<g mask="url(#mask0_397_38905)">
<path fill-rule="evenodd" clip-rule="evenodd" d="M8.54875 25H20.8237C20.8263 24.9975 20.8363 25 20.8438 25C22.27 25 23.535 24.49 24.505 23.5212C25.6313 22.4 26.25 20.7887 26.25 18.985V10.4C26.25 6.90875 23.9675 4.375 20.8237 4.375H8.55125C5.4075 4.375 3.125 6.90875 3.125 10.4V18.985C3.125 20.7887 3.745 22.4 4.87 23.5212C5.84 24.49 7.10625 25 8.53125 25H8.54875ZM8.5275 26.875C6.59875 26.875 4.87625 26.175 3.54625 24.85C2.065 23.3725 1.25 21.29 1.25 18.985V10.4C1.25 5.89625 4.38875 2.5 8.55125 2.5H20.8237C24.9862 2.5 28.125 5.89625 28.125 10.4V18.985C28.125 21.29 27.31 23.3725 25.8288 24.85C24.5 26.1737 22.7763 26.875 20.8438 26.875H20.8237H8.55125H8.5275Z" fill="#337AFF"/>
</g>
</svg>
