<svg width="30" height="30" viewBox="0 0 30 30" fill="none" xmlns="http://www.w3.org/2000/svg">
<path fill-rule="evenodd" clip-rule="evenodd" d="M15 26.375C21.2822 26.375 26.375 21.2822 26.375 15C26.375 8.71776 21.2822 3.625 15 3.625C8.71776 3.625 3.625 8.71776 3.625 15C3.625 21.2822 8.71776 26.375 15 26.375ZM28 15C28 22.1797 22.1797 28 15 28C7.8203 28 2 22.1797 2 15C2 7.8203 7.8203 2 15 2C22.1797 2 28 7.8203 28 15Z" fill="#337AFF"/>
<path fill-rule="evenodd" clip-rule="evenodd" d="M15 15.989C16.8181 15.989 18.4317 14.4132 18.4317 12.2924C18.4317 10.1715 16.8181 8.5957 15 8.5957C13.182 8.5957 11.5684 10.1715 11.5684 12.2924C11.5684 14.4132 13.182 15.989 15 15.989ZM20.0567 12.2924C20.0567 15.2314 17.7928 17.614 15 17.614C12.2073 17.614 9.94336 15.2314 9.94336 12.2924C9.94336 9.35329 12.2073 6.9707 15 6.9707C17.7928 6.9707 20.0567 9.35329 20.0567 12.2924Z" fill="#337AFF"/>
<path fill-rule="evenodd" clip-rule="evenodd" d="M7.63518 23.6657C9.62129 25.3568 12.1911 26.3755 15.0001 26.3755C17.8092 26.3755 20.3792 25.3566 22.3654 23.6653C20.5604 22.3795 17.9704 21.5195 15.0001 21.5195C12.0306 21.5195 9.44063 22.3803 7.63518 23.6657ZM24.7521 23.5922C22.3693 26.2942 18.8844 28.0005 15.0001 28.0005C11.1157 28.0005 7.63084 26.2942 5.24805 23.5922C7.3478 21.364 10.931 19.8945 15.0001 19.8945C19.0691 19.8945 22.6523 21.3619 24.7521 23.5922Z" fill="#337AFF"/>
</svg>
