<svg width="30" height="30" viewBox="0 0 30 30" fill="none" xmlns="http://www.w3.org/2000/svg">
<g clip-path="url(#clip0_44_8785)">
<path d="M9.96779 9.91701L8.56055 8.50977V18.6318L8.5775 19.1065C8.5775 19.3269 8.61141 19.5812 8.69619 19.8356L19.8185 23.7521L22.5822 22.5314L9.96779 9.91701Z" fill="#00C4B3"/>
<path d="M22.5825 22.5317L19.8189 23.7525L8.73047 19.8359C8.95088 20.6498 9.40866 21.5484 9.9173 22.074L13.5287 25.6684L21.5992 25.6853L22.5825 22.5317Z" fill="#22D3C5"/>
<path d="M4.28819 15.0377C3.93214 15.4107 4.11865 16.2076 4.67815 16.801L7.17051 19.3103L8.73035 19.8698C8.67948 19.6155 8.61166 19.3612 8.61166 19.1408L8.59471 18.666L8.5608 8.52707M22.5824 22.5317L23.8032 19.7511L19.9036 8.6288C19.6492 8.57794 19.3949 8.52707 19.1745 8.51012L18.6828 8.49316L8.57775 8.51012" fill="#0075C9"/>
<path d="M22.5829 22.5318L25.5839 21.5485V13.2915L22.1251 9.81574C21.6165 9.3071 20.7179 8.83236 19.8871 8.62891L23.8036 19.7512" fill="#00A8E1"/>
<path d="M19.3438 7.08569L16.8345 4.59333C16.258 4.01687 15.4781 3.84732 15.0712 4.20337L8.56055 8.50989H18.6486L19.1403 8.52684C19.3607 8.52684 19.6151 8.56075 19.8694 8.64553L19.3438 7.08569Z" fill="#00C4B3"/>
</g>
<defs>
<clipPath id="clip0_44_8785">
<rect width="21.7021" height="21.7021" fill="white" transform="translate(4 4)"/>
</clipPath>
</defs>
</svg>
