<svg width="30" height="30" viewBox="0 0 30 30" fill="none" xmlns="http://www.w3.org/2000/svg">
<g clip-path="url(#clip0_44_8787)">
<path d="M15.1713 17.1601C16.2702 17.1601 17.161 16.2692 17.161 15.1704C17.161 14.0715 16.2702 13.1807 15.1713 13.1807C14.0725 13.1807 13.1816 14.0715 13.1816 15.1704C13.1816 16.2692 14.0725 17.1601 15.1713 17.1601Z" fill="#61DAFB"/>
<path d="M22.7283 11.8893C22.3444 11.7497 21.9429 11.61 21.524 11.4879C21.6288 11.069 21.716 10.6501 21.7858 10.2487C22.1524 7.94481 21.7509 6.32164 20.6339 5.69332C20.3023 5.50133 19.9358 5.41406 19.5169 5.41406C18.2952 5.41406 16.7418 6.32164 15.171 7.84009C13.6002 6.32164 12.0468 5.41406 10.8251 5.41406C10.4062 5.41406 10.0397 5.50133 9.70805 5.69332C8.59103 6.3391 8.1896 7.96227 8.55612 10.2487C8.62594 10.6501 8.7132 11.069 8.81792 11.4879C8.39904 11.61 7.99761 11.7322 7.61363 11.8893C5.43195 12.7271 4.24512 13.879 4.24512 15.1705C4.24512 16.4621 5.44941 17.614 7.61363 18.4518C7.99761 18.5914 8.39904 18.7311 8.81792 18.8532C8.7132 19.2721 8.62594 19.691 8.55612 20.0924C8.1896 22.3963 8.59103 24.0194 9.70805 24.6478C10.0397 24.8398 10.4062 24.927 10.8251 24.927C12.0643 24.927 13.6176 24.0194 15.171 22.501C16.7418 24.0194 18.2952 24.927 19.5169 24.927C19.9358 24.927 20.3023 24.8398 20.6339 24.6478C21.7509 24.002 22.1524 22.3788 21.7858 20.0924C21.716 19.691 21.6288 19.2721 21.524 18.8532C21.9429 18.7311 22.3444 18.6089 22.7283 18.4518C24.91 17.614 26.0968 16.4621 26.0968 15.1705C26.0968 13.879 24.91 12.7271 22.7283 11.8893ZM20.1452 6.56599C20.8608 6.98487 21.1052 8.27643 20.8084 10.109C20.7561 10.4756 20.6688 10.8595 20.5641 11.261C19.6565 11.0515 18.6966 10.9119 17.6843 10.8246C17.0909 9.98687 16.48 9.23637 15.8691 8.55568C17.1607 7.28158 18.4697 6.40891 19.5343 6.40891C19.7612 6.40891 19.9707 6.46127 20.1452 6.56599ZM18.1904 16.9159C17.8763 17.4744 17.5097 18.0329 17.1258 18.5914C16.48 18.6438 15.8342 18.6612 15.171 18.6612C14.4903 18.6612 13.8445 18.6438 13.2162 18.5914C12.8322 18.0329 12.4831 17.4744 12.169 16.9159C11.8374 16.3399 11.5232 15.7465 11.244 15.1705C11.5232 14.5946 11.8374 14.0012 12.169 13.4252C12.4831 12.8667 12.8497 12.3082 13.2336 11.7497C13.8794 11.6973 14.5252 11.6799 15.1884 11.6799C15.8691 11.6799 16.5149 11.6973 17.1432 11.7497C17.5272 12.3082 17.8763 12.8667 18.1904 13.4252C18.522 14.0012 18.8362 14.5946 19.1155 15.1705C18.8188 15.7465 18.522 16.3225 18.1904 16.9159ZM19.6391 16.3399C19.9009 16.9508 20.1103 17.5442 20.3023 18.1376C19.7089 18.2773 19.0806 18.382 18.4173 18.4692C18.6268 18.1376 18.8537 17.7886 19.0456 17.422C19.2551 17.0555 19.4471 16.689 19.6391 16.3399ZM15.171 21.0698C14.7521 20.616 14.3507 20.1273 13.9667 19.6212C14.3681 19.6386 14.7696 19.6561 15.171 19.6561C15.5724 19.6561 15.9738 19.6386 16.3753 19.6212C15.9913 20.1273 15.5899 20.616 15.171 21.0698ZM11.9246 18.4518C11.2614 18.3645 10.6331 18.2598 10.0397 18.1202C10.2317 17.5442 10.4411 16.9333 10.7029 16.3225C10.8949 16.6715 11.0869 17.0381 11.2963 17.3871C11.5058 17.7711 11.7152 18.1027 11.9246 18.4518ZM10.7029 14.0012C10.4411 13.3903 10.2317 12.7969 10.0397 12.2035C10.6331 12.0638 11.2614 11.9591 11.9246 11.8718C11.7152 12.2035 11.4883 12.5525 11.2963 12.919C11.0869 13.2856 10.8949 13.6521 10.7029 14.0012ZM15.171 9.27128C15.5899 9.72507 15.9913 10.2138 16.3753 10.7199C15.9738 10.7025 15.5724 10.685 15.171 10.685C14.7696 10.685 14.3681 10.7025 13.9667 10.7199C14.3507 10.2138 14.7521 9.72507 15.171 9.27128ZM19.0456 12.9365L18.4173 11.8893C19.0806 11.9766 19.7089 12.0813 20.3023 12.2209C20.1103 12.7969 19.9009 13.4077 19.6391 14.0186C19.4471 13.6521 19.2551 13.2856 19.0456 12.9365ZM9.53351 10.109C9.23681 8.27643 9.48115 6.98487 10.1967 6.56599C10.3713 6.46127 10.5807 6.40891 10.8076 6.40891C11.8548 6.40891 13.1638 7.26413 14.4728 8.55568C13.862 9.21892 13.2511 9.98687 12.6577 10.8246C11.6454 10.9119 10.6854 11.069 9.77786 11.261C9.67314 10.8595 9.60333 10.4756 9.53351 10.109ZM5.22251 15.1705C5.22251 14.3502 6.21736 13.4776 7.9627 12.8318C8.31177 12.6922 8.69575 12.57 9.07972 12.4653C9.35898 13.3379 9.70805 14.263 10.1269 15.188C9.70805 16.113 9.34153 17.0206 9.07972 17.8933C6.67115 17.1951 5.22251 16.1479 5.22251 15.1705ZM10.1967 23.7751C9.48115 23.3562 9.23681 22.0647 9.53351 20.232C9.58588 19.8655 9.67314 19.4815 9.77786 19.0801C10.6854 19.2896 11.6454 19.4292 12.6577 19.5165C13.2511 20.3542 13.862 21.1047 14.4728 21.7854C13.1813 23.0595 11.8723 23.9322 10.8076 23.9322C10.5807 23.9322 10.3713 23.8798 10.1967 23.7751ZM20.8084 20.232C21.1052 22.0647 20.8608 23.3562 20.1452 23.7751C19.9707 23.8798 19.7612 23.9322 19.5343 23.9322C18.4871 23.9322 17.1781 23.077 15.8691 21.7854C16.48 21.1222 17.0909 20.3542 17.6843 19.5165C18.6966 19.4292 19.6565 19.2721 20.5641 19.0801C20.6688 19.4815 20.7386 19.8655 20.8084 20.232ZM22.3793 17.5093C22.0302 17.6489 21.6462 17.7711 21.2622 17.8758C20.983 17.0032 20.6339 16.0781 20.215 15.1531C20.6339 14.2281 21.0004 13.3205 21.2622 12.4478C23.6708 13.1459 25.1195 14.1932 25.1195 15.1705C25.1195 15.9909 24.1072 16.8635 22.3793 17.5093Z" fill="#61DAFB"/>
</g>
<defs>
<clipPath id="clip0_44_8787">
<rect width="22.3404" height="22.3404" fill="white" transform="translate(4 4)"/>
</clipPath>
</defs>
</svg>
