<svg width="30" height="30" viewBox="0 0 30 30" fill="none" xmlns="http://www.w3.org/2000/svg">
<path fill-rule="evenodd" clip-rule="evenodd" d="M6.43047 4.73085H18.7239C19.611 4.73085 20.3301 5.41318 20.3301 6.25488V14.1651C20.3301 14.951 21.3451 15.33 21.9096 14.755C22.0669 14.5948 22.1543 14.384 22.1543 14.1651V6.25488C22.1543 4.45726 20.6185 3 18.7239 3H6.43047C4.53587 3 3 4.45726 3 6.25488V21.9577C3 23.7553 4.53588 25.2126 6.43047 25.2126H13.2374C13.749 25.2126 14.1606 24.8133 14.1493 24.3279C14.1382 23.8575 13.7332 23.4817 13.2374 23.4817H6.43047C5.54337 23.4817 4.82422 22.7994 4.82422 21.9577V6.25488C4.82422 5.41318 5.54336 4.73085 6.43047 4.73085ZM14.9975 23.4817C14.9974 23.4817 14.9973 23.4818 14.9974 23.4819L16.9555 25.2125C16.9555 25.2125 16.9555 25.2126 16.9555 25.2126C16.9556 25.2126 16.9557 25.2124 16.9556 25.2124L14.9976 23.4817C14.9975 23.4817 14.9975 23.4817 14.9975 23.4817Z" fill="#337AFF"/>
<path fill-rule="evenodd" clip-rule="evenodd" d="M24.6606 19.5165L25.904 18.25C25.9357 18.2177 26.0254 18.0996 25.9771 17.8057C25.9282 17.5085 25.7394 17.1202 25.3512 16.777C24.9629 16.4339 24.5413 16.2826 24.2254 16.2574C23.9187 16.233 23.7996 16.3223 23.7653 16.3562L23.7458 16.3763L17.0682 23.1778L17.0191 25.2635L19.2091 25.0694L24.6606 19.5165ZM20.0702 26.7317L16.0888 27.0844C15.5886 27.1288 15.1595 26.7495 15.1707 26.273L15.2599 22.4802L22.4109 15.1965L22.4287 15.1782C23.4011 14.1877 25.2663 14.3365 26.5946 15.5105C27.9229 16.6846 28.2114 18.4392 27.2389 19.4297L20.0702 26.7317Z" fill="#337AFF"/>
<path fill-rule="evenodd" clip-rule="evenodd" d="M6.57227 9.05727C6.57227 8.6988 6.87854 8.4082 7.25635 8.4082H17.8976C18.2755 8.4082 18.5817 8.6988 18.5817 9.05727C18.5817 9.41574 18.2755 9.70634 17.8976 9.70634H7.25635C6.87854 9.70634 6.57227 9.41574 6.57227 9.05727Z" fill="#337AFF"/>
<path fill-rule="evenodd" clip-rule="evenodd" d="M6.57227 13.0963C6.57227 12.7379 6.87854 12.4473 7.25635 12.4473H15.7694C16.1472 12.4473 16.4535 12.7379 16.4535 13.0963C16.4535 13.4548 16.1472 13.7454 15.7694 13.7454H7.25635C6.87854 13.7454 6.57227 13.4548 6.57227 13.0963Z" fill="#337AFF"/>
<path fill-rule="evenodd" clip-rule="evenodd" d="M6.57227 17.1354C6.57227 16.7769 6.87854 16.4863 7.25635 16.4863H13.6411C14.0189 16.4863 14.3252 16.7769 14.3252 17.1354C14.3252 17.4939 14.0189 17.7845 13.6411 17.7845H7.25635C6.87854 17.7845 6.57227 17.4939 6.57227 17.1354Z" fill="#337AFF"/>
<path fill-rule="evenodd" clip-rule="evenodd" d="M21.5093 16.2349C21.8655 15.897 22.4431 15.897 22.7993 16.2349L25.5356 18.8312C25.8918 19.1692 25.8918 19.7171 25.5356 20.0551C25.1794 20.3931 24.6019 20.3931 24.2457 20.0551L21.5093 17.4588C21.1531 17.1208 21.1531 16.5729 21.5093 16.2349Z" fill="#337AFF"/>
</svg>
