<svg width="30" height="30" viewBox="0 0 30 30" fill="none" xmlns="http://www.w3.org/2000/svg">
<path fill-rule="evenodd" clip-rule="evenodd" d="M20.7212 27.9609H9.69125C5.39 27.9609 2.5 24.9421 2.5 20.4496V10.0571C2.5 5.56465 5.39 2.5459 9.69125 2.5459H14.365C14.8825 2.5459 15.3025 2.9659 15.3025 3.4834C15.3025 4.0009 14.8825 4.4209 14.365 4.4209H9.69125C6.46125 4.4209 4.375 6.6334 4.375 10.0571V20.4496C4.375 23.8734 6.46125 26.0859 9.69125 26.0859H20.7212C23.9512 26.0859 26.0387 23.8734 26.0387 20.4496V15.4146C26.0387 14.8971 26.4587 14.4771 26.9762 14.4771C27.4937 14.4771 27.9137 14.8971 27.9137 15.4146V20.4496C27.9137 24.9421 25.0225 27.9609 20.7212 27.9609Z" fill="#337AFF"/>
<path fill-rule="evenodd" clip-rule="evenodd" d="M11.085 19.2851H14.8062C15.2812 19.2851 15.7262 19.1013 16.0625 18.7651L25.4487 9.37882C25.8337 8.99382 26.0462 8.48132 26.0462 7.93632C26.0462 7.39007 25.8337 6.87632 25.4487 6.49132L23.9275 4.97007C23.1312 4.17632 21.8362 4.17632 21.0387 4.97007L11.6975 14.3113C11.3737 14.6351 11.19 15.0651 11.1787 15.5213L11.085 19.2851ZM14.8058 21.16H10.1233C9.87083 21.16 9.62833 21.0575 9.45208 20.8763C9.27583 20.6963 9.17958 20.4525 9.18583 20.1988L9.30333 15.475C9.32708 14.535 9.70583 13.6513 10.3708 12.985H10.3721L19.7133 3.64375C21.2408 2.11875 23.7246 2.11875 25.2521 3.64375L26.7733 5.165C27.5146 5.905 27.9221 6.88875 27.9208 7.93625C27.9208 8.98375 27.5133 9.96625 26.7733 10.705L17.3871 20.0913C16.6983 20.78 15.7808 21.16 14.8058 21.16Z" fill="#337AFF"/>
<path fill-rule="evenodd" clip-rule="evenodd" d="M24.6632 12.395C24.4232 12.395 24.1832 12.3037 24.0007 12.12L18.2932 6.41246C17.927 6.04621 17.927 5.45246 18.2932 5.08621C18.6595 4.71996 19.252 4.71996 19.6182 5.08621L25.3257 10.795C25.692 11.1612 25.692 11.7537 25.3257 12.12C25.1432 12.3037 24.9032 12.395 24.6632 12.395Z" fill="#337AFF"/>
</svg>
