<svg width="28" height="40" viewBox="0 0 28 40" fill="none" xmlns="http://www.w3.org/2000/svg">
<path d="M0 1.81819C0 0.814032 0.814029 0 1.81818 0H26.1818C27.186 0 28 0.814029 28 1.81818V35.9392C28 37.5099 26.1425 38.3416 24.9709 37.2955L15.2109 28.5812C14.5211 27.9653 13.4789 27.9653 12.7891 28.5812L3.02912 37.2955C1.85747 38.3416 0 37.5099 0 35.9392V1.81819Z" fill="#B2CDFF"/>
<path d="M3.63884 18V10.8392L4.42206 11.6224H2.07241V10.1678H5.45143V18H3.63884ZM9.94488 18.1343C9.30339 18.1343 8.72903 17.9776 8.2218 17.6643C7.71458 17.3436 7.31551 16.8811 7.0246 16.2769C6.73369 15.6727 6.58824 14.9417 6.58824 14.0839C6.58824 13.2261 6.73369 12.4951 7.0246 11.8909C7.31551 11.2867 7.71458 10.828 8.2218 10.5147C8.72903 10.1939 9.30339 10.0336 9.94488 10.0336C10.5938 10.0336 11.1682 10.1939 11.668 10.5147C12.1752 10.828 12.5743 11.2867 12.8652 11.8909C13.1561 12.4951 13.3015 13.2261 13.3015 14.0839C13.3015 14.9417 13.1561 15.6727 12.8652 16.2769C12.5743 16.8811 12.1752 17.3436 11.668 17.6643C11.1682 17.9776 10.5938 18.1343 9.94488 18.1343ZM9.94488 16.6014C10.2507 16.6014 10.5155 16.5156 10.7393 16.3441C10.9705 16.1725 11.1495 15.9002 11.2764 15.5273C11.4106 15.1543 11.4778 14.6732 11.4778 14.0839C11.4778 13.4946 11.4106 13.0135 11.2764 12.6406C11.1495 12.2676 10.9705 11.9953 10.7393 11.8238C10.5155 11.6522 10.2507 11.5664 9.94488 11.5664C9.64651 11.5664 9.38171 11.6522 9.15048 11.8238C8.9267 11.9953 8.74768 12.2676 8.61341 12.6406C8.48661 13.0135 8.4232 13.4946 8.4232 14.0839C8.4232 14.6732 8.48661 15.1543 8.61341 15.5273C8.74768 15.9002 8.9267 16.1725 9.15048 16.3441C9.38171 16.5156 9.64651 16.6014 9.94488 16.6014ZM16.8985 18.0895C16.1898 18.0895 15.6379 17.9105 15.2425 17.5524C14.8472 17.1869 14.6495 16.6462 14.6495 15.9301V10.6489H16.395V15.9077C16.395 16.1613 16.4621 16.359 16.5964 16.5007C16.7306 16.635 16.9134 16.7021 17.1446 16.7021C17.4206 16.7021 17.6556 16.6275 17.8495 16.4783L18.3195 17.7091C18.1404 17.8359 17.9241 17.9329 17.6705 18C17.4243 18.0597 17.167 18.0895 16.8985 18.0895ZM13.7208 13.4573V12.1147H17.8943V13.4573H13.7208ZM22.7342 11.8909C23.2116 11.8909 23.6368 11.9879 24.0098 12.1818C24.3902 12.3683 24.6885 12.6592 24.9049 13.0545C25.1212 13.4424 25.2293 13.9422 25.2293 14.5538V18H23.4839V14.8224C23.4839 14.3375 23.3757 13.9795 23.1594 13.7482C22.9505 13.517 22.6522 13.4014 22.2643 13.4014C21.9883 13.4014 21.7384 13.4611 21.5146 13.5804C21.2983 13.6923 21.1268 13.8676 21 14.1063C20.8806 14.345 20.8209 14.6508 20.8209 15.0238V18H19.0755V9.69789H20.8209V13.6475L20.4293 13.1441C20.6456 12.7413 20.9552 12.4317 21.358 12.2154C21.7608 11.9991 22.2195 11.8909 22.7342 11.8909Z" fill="#337AFF"/>
</svg>
