<svg width="40" height="58" viewBox="0 0 40 58" fill="none" xmlns="http://www.w3.org/2000/svg">
<path d="M0 2.6C0 1.16406 1.16406 0 2.6 0H37.4C38.8359 0 40 1.16406 40 2.6V51.3892C40 53.6359 37.3426 54.8249 35.6674 53.3277L21.7326 40.8735C20.7459 39.9916 19.2541 39.9916 18.2674 40.8735L4.3326 53.3277C2.65742 54.8249 0 53.6359 0 51.3892V2.6Z" fill="#FFD25E"/>
<path d="M12.3256 28V17.76L13.4456 18.88H10.0856V16.8H14.9176V28H12.3256ZM19.9673 28.128C19.2313 28.128 18.5219 28.0427 17.8393 27.872C17.1673 27.6907 16.6339 27.4667 16.2393 27.2L17.0713 25.408C17.4659 25.6533 17.9299 25.856 18.4633 26.016C19.0073 26.1653 19.5406 26.24 20.0633 26.24C20.6393 26.24 21.0446 26.1707 21.2793 26.032C21.5246 25.8933 21.6473 25.7013 21.6473 25.456C21.6473 25.2533 21.5513 25.104 21.3593 25.008C21.1779 24.9013 20.9326 24.8213 20.6233 24.768C20.3139 24.7147 19.9726 24.6613 19.5993 24.608C19.2366 24.5547 18.8686 24.4853 18.4953 24.4C18.1219 24.304 17.7806 24.1653 17.4713 23.984C17.1619 23.8027 16.9113 23.5573 16.7193 23.248C16.5379 22.9387 16.4473 22.5387 16.4473 22.048C16.4473 21.504 16.6019 21.024 16.9113 20.608C17.2313 20.192 17.6899 19.8667 18.2873 19.632C18.8846 19.3867 19.5993 19.264 20.4313 19.264C21.0179 19.264 21.6153 19.328 22.2233 19.456C22.8313 19.584 23.3379 19.7707 23.7433 20.016L22.9113 21.792C22.4953 21.5467 22.0739 21.3813 21.6473 21.296C21.2313 21.2 20.8259 21.152 20.4313 21.152C19.8766 21.152 19.4713 21.2267 19.2153 21.376C18.9593 21.5253 18.8313 21.7173 18.8313 21.952C18.8313 22.1653 18.9219 22.3253 19.1033 22.432C19.2953 22.5387 19.5459 22.624 19.8553 22.688C20.1646 22.752 20.5006 22.8107 20.8633 22.864C21.2366 22.9067 21.6099 22.976 21.9833 23.072C22.3566 23.168 22.6926 23.3067 22.9913 23.488C23.3006 23.6587 23.5513 23.8987 23.7433 24.208C23.9353 24.5067 24.0313 24.9013 24.0313 25.392C24.0313 25.9253 23.8713 26.4 23.5513 26.816C23.2313 27.2213 22.7673 27.5413 22.1593 27.776C21.5619 28.0107 20.8313 28.128 19.9673 28.128ZM28.7713 28.128C27.7579 28.128 26.9686 27.872 26.4033 27.36C25.8379 26.8373 25.5553 26.064 25.5553 25.04V17.488H28.0513V25.008C28.0513 25.3707 28.1473 25.6533 28.3393 25.856C28.5313 26.048 28.7926 26.144 29.1233 26.144C29.5179 26.144 29.8539 26.0373 30.1313 25.824L30.8033 27.584C30.5473 27.7653 30.2379 27.904 29.8753 28C29.5233 28.0853 29.1553 28.128 28.7713 28.128ZM24.2273 21.504V19.584H30.1953V21.504H24.2273Z" fill="#EA8C00"/>
</svg>
