<svg width="40" height="58" viewBox="0 0 40 58" fill="none" xmlns="http://www.w3.org/2000/svg">
<path d="M0 2.6C0 1.16406 1.16406 0 2.6 0H36.4C37.8359 0 39 1.16406 39 2.6V51.2896C39 53.5519 36.3108 54.7349 34.6431 53.2062L21.2569 40.9355C20.2628 40.0243 18.7372 40.0243 17.7431 40.9355L4.35689 53.2062C2.68924 54.7349 0 53.5519 0 51.2896V2.6Z" fill="#DADADA"/>
<path d="M5.02769 28V26.32L9.34769 22.24C9.68902 21.9307 9.93969 21.6533 10.0997 21.408C10.2597 21.1627 10.3664 20.9387 10.4197 20.736C10.4837 20.5333 10.5157 20.3467 10.5157 20.176C10.5157 19.728 10.361 19.3867 10.0517 19.152C9.75302 18.9067 9.31035 18.784 8.72369 18.784C8.25435 18.784 7.81702 18.8747 7.41169 19.056C7.01702 19.2373 6.68102 19.52 6.40369 19.904L4.51569 18.688C4.94235 18.048 5.53969 17.5413 6.30769 17.168C7.07569 16.7947 7.96102 16.608 8.96369 16.608C9.79569 16.608 10.521 16.7467 11.1397 17.024C11.769 17.2907 12.2544 17.6693 12.5957 18.16C12.9477 18.6507 13.1237 19.2373 13.1237 19.92C13.1237 20.2827 13.0757 20.6453 12.9797 21.008C12.8944 21.36 12.713 21.7333 12.4357 22.128C12.169 22.5227 11.7744 22.9653 11.2517 23.456L7.66769 26.832L7.17169 25.888H13.4917V28H5.02769ZM20.0012 19.264C20.6839 19.264 21.2919 19.4027 21.8252 19.68C22.3692 19.9467 22.7959 20.3627 23.1052 20.928C23.4145 21.4827 23.5692 22.1973 23.5692 23.072V28H21.0732V23.456C21.0732 22.7627 20.9185 22.2507 20.6092 21.92C20.3105 21.5893 19.8839 21.424 19.3292 21.424C18.9345 21.424 18.5772 21.5093 18.2572 21.68C17.9479 21.84 17.7025 22.0907 17.5212 22.432C17.3505 22.7733 17.2652 23.2107 17.2652 23.744V28H14.7692V19.392H17.1532V21.776L16.7052 21.056C17.0145 20.48 17.4572 20.0373 18.0332 19.728C18.6092 19.4187 19.2652 19.264 20.0012 19.264ZM29.2702 28.128C28.4595 28.128 27.7289 27.9467 27.0782 27.584C26.4275 27.2107 25.9102 26.6933 25.5262 26.032C25.1529 25.3707 24.9662 24.592 24.9662 23.696C24.9662 22.7893 25.1529 22.0053 25.5262 21.344C25.9102 20.6827 26.4275 20.1707 27.0782 19.808C27.7289 19.4453 28.4595 19.264 29.2702 19.264C29.9955 19.264 30.6302 19.424 31.1742 19.744C31.7182 20.064 32.1395 20.5493 32.4382 21.2C32.7369 21.8507 32.8862 22.6827 32.8862 23.696C32.8862 24.6987 32.7422 25.5307 32.4542 26.192C32.1662 26.8427 31.7502 27.328 31.2062 27.648C30.6729 27.968 30.0275 28.128 29.2702 28.128ZM29.7022 26.08C30.1075 26.08 30.4755 25.984 30.8062 25.792C31.1369 25.6 31.3982 25.328 31.5902 24.976C31.7929 24.6133 31.8942 24.1867 31.8942 23.696C31.8942 23.1947 31.7929 22.768 31.5902 22.416C31.3982 22.064 31.1369 21.792 30.8062 21.6C30.4755 21.408 30.1075 21.312 29.7022 21.312C29.2862 21.312 28.9129 21.408 28.5822 21.6C28.2515 21.792 27.9849 22.064 27.7822 22.416C27.5902 22.768 27.4942 23.1947 27.4942 23.696C27.4942 24.1867 27.5902 24.6133 27.7822 24.976C27.9849 25.328 28.2515 25.6 28.5822 25.792C28.9129 25.984 29.2862 26.08 29.7022 26.08ZM31.9582 28V26.24L32.0062 23.68L31.8462 21.136V16.128H34.3422V28H31.9582Z" fill="#999999"/>
</svg>
