<svg width="40" height="58" viewBox="0 0 40 58" fill="none" xmlns="http://www.w3.org/2000/svg">
<path d="M0 2.6C0 1.16406 1.16406 0 2.6 0H37.4C38.8359 0 40 1.16406 40 2.6V51.3892C40 53.6359 37.3426 54.8249 35.6674 53.3277L21.7326 40.8735C20.7459 39.9916 19.2541 39.9916 18.2674 40.8735L4.3326 53.3277C2.65742 54.8249 0 53.6359 0 51.3892V2.6Z" fill="#F1D676"/>
<path d="M11.9456 28.192C11.1669 28.192 10.3936 28.0907 9.62559 27.888C8.85759 27.6747 8.20692 27.376 7.67359 26.992L8.68159 25.008C9.10826 25.3173 9.60426 25.5627 10.1696 25.744C10.7349 25.9253 11.3056 26.016 11.8816 26.016C12.5323 26.016 13.0443 25.888 13.4176 25.632C13.7909 25.376 13.9776 25.024 13.9776 24.576C13.9776 24.1493 13.8123 23.8133 13.4816 23.568C13.1509 23.3227 12.6176 23.2 11.8816 23.2H10.6976V21.488L13.8176 17.952L14.1056 18.88H8.23359V16.8H16.0736V18.48L12.9696 22.016L11.6576 21.264H12.4096C13.7856 21.264 14.8256 21.5733 15.5296 22.192C16.2336 22.8107 16.5856 23.6053 16.5856 24.576C16.5856 25.2053 16.4203 25.7973 16.0896 26.352C15.7589 26.896 15.2523 27.3387 14.5696 27.68C13.8869 28.0213 13.0123 28.192 11.9456 28.192ZM17.9903 28V19.392H20.3743V21.824L20.0383 21.12C20.2943 20.512 20.705 20.0533 21.2703 19.744C21.8357 19.424 22.5237 19.264 23.3343 19.264V21.568C23.2277 21.5573 23.1317 21.552 23.0463 21.552C22.961 21.5413 22.8703 21.536 22.7743 21.536C22.0917 21.536 21.537 21.7333 21.1103 22.128C20.6943 22.512 20.4863 23.1147 20.4863 23.936V28H17.9903ZM28.132 28.128C27.3213 28.128 26.5906 27.9467 25.94 27.584C25.2893 27.2107 24.772 26.6933 24.388 26.032C24.0146 25.3707 23.828 24.592 23.828 23.696C23.828 22.7893 24.0146 22.0053 24.388 21.344C24.772 20.6827 25.2893 20.1707 25.94 19.808C26.5906 19.4453 27.3213 19.264 28.132 19.264C28.8573 19.264 29.492 19.424 30.036 19.744C30.58 20.064 31.0013 20.5493 31.3 21.2C31.5986 21.8507 31.748 22.6827 31.748 23.696C31.748 24.6987 31.604 25.5307 31.316 26.192C31.028 26.8427 30.612 27.328 30.068 27.648C29.5346 27.968 28.8893 28.128 28.132 28.128ZM28.564 26.08C28.9693 26.08 29.3373 25.984 29.668 25.792C29.9986 25.6 30.26 25.328 30.452 24.976C30.6546 24.6133 30.756 24.1867 30.756 23.696C30.756 23.1947 30.6546 22.768 30.452 22.416C30.26 22.064 29.9986 21.792 29.668 21.6C29.3373 21.408 28.9693 21.312 28.564 21.312C28.148 21.312 27.7746 21.408 27.444 21.6C27.1133 21.792 26.8466 22.064 26.644 22.416C26.452 22.768 26.356 23.1947 26.356 23.696C26.356 24.1867 26.452 24.6133 26.644 24.976C26.8466 25.328 27.1133 25.6 27.444 25.792C27.7746 25.984 28.148 26.08 28.564 26.08ZM30.82 28V26.24L30.868 23.68L30.708 21.136V16.128H33.204V28H30.82Z" fill="#B99000"/>
</svg>
