<svg width="40" height="58" viewBox="0 0 40 58" fill="none" xmlns="http://www.w3.org/2000/svg">
<path d="M0 2.6C0 1.16406 1.16406 0 2.6 0H37.4C38.8359 0 40 1.16406 40 2.6V51.3892C40 53.6359 37.3426 54.8249 35.6674 53.3277L21.7326 40.8735C20.7459 39.9916 19.2541 39.9916 18.2674 40.8735L4.3326 53.3277C2.65742 54.8249 0 53.6359 0 51.3892V2.6Z" fill="#B2CDFF"/>
<path d="M7.30254 25.648V23.904L12.5825 16.8H15.3025L10.1345 23.904L8.87054 23.536H17.6865V25.648H7.30254ZM13.3345 28V25.648L13.4145 23.536V21.44H15.8625V28H13.3345ZM22.221 28.128C21.2077 28.128 20.4184 27.872 19.853 27.36C19.2877 26.8373 19.005 26.064 19.005 25.04V17.488H21.501V25.008C21.501 25.3707 21.597 25.6533 21.789 25.856C21.981 26.048 22.2424 26.144 22.573 26.144C22.9677 26.144 23.3037 26.0373 23.581 25.824L24.253 27.584C23.997 27.7653 23.6877 27.904 23.325 28C22.973 28.0853 22.605 28.128 22.221 28.128ZM17.677 21.504V19.584H23.645V21.504H17.677ZM30.5662 19.264C31.2488 19.264 31.8568 19.4027 32.3902 19.68C32.9342 19.9467 33.3608 20.3627 33.6702 20.928C33.9795 21.4827 34.1342 22.1973 34.1342 23.072V28H31.6382V23.456C31.6382 22.7627 31.4835 22.2507 31.1742 21.92C30.8755 21.5893 30.4488 21.424 29.8942 21.424C29.4995 21.424 29.1422 21.5093 28.8222 21.68C28.5128 21.84 28.2675 22.0907 28.0862 22.432C27.9155 22.7733 27.8302 23.2107 27.8302 23.744V28H25.3342V16.128H27.8302V21.776L27.2702 21.056C27.5795 20.48 28.0222 20.0373 28.5982 19.728C29.1742 19.4187 29.8302 19.264 30.5662 19.264Z" fill="#337AFF"/>
</svg>
