<svg width="40" height="58" viewBox="0 0 40 58" fill="none" xmlns="http://www.w3.org/2000/svg">
<path d="M0 2.6C0 1.16406 1.16406 0 2.6 0H37.4C38.8359 0 40 1.16406 40 2.6V51.3892C40 53.6359 37.3426 54.8249 35.6674 53.3277L21.7326 40.8735C20.7459 39.9916 19.2541 39.9916 18.2674 40.8735L4.3326 53.3277C2.65742 54.8249 0 53.6359 0 51.3892V2.6Z" fill="#B2CDFF"/>
<path d="M12.0122 28.192C11.2335 28.192 10.4602 28.0907 9.69222 27.888C8.93488 27.6747 8.28422 27.376 7.74022 26.992L8.76422 25.008C9.19088 25.3173 9.68155 25.5627 10.2362 25.744C10.8015 25.9253 11.3722 26.016 11.9482 26.016C12.5989 26.016 13.1109 25.888 13.4842 25.632C13.8575 25.376 14.0442 25.0187 14.0442 24.56C14.0442 24.272 13.9695 24.016 13.8202 23.792C13.6709 23.568 13.4042 23.3973 13.0202 23.28C12.6469 23.1627 12.1189 23.104 11.4362 23.104H8.57222L9.14822 16.8H15.9802V18.88H10.0762L11.4202 17.696L11.0202 22.192L9.67622 21.008H12.0442C13.1535 21.008 14.0442 21.1627 14.7162 21.472C15.3989 21.7707 15.8949 22.1813 16.2042 22.704C16.5136 23.2267 16.6682 23.8187 16.6682 24.48C16.6682 25.1413 16.5029 25.7547 16.1722 26.32C15.8416 26.8747 15.3296 27.328 14.6362 27.68C13.9535 28.0213 13.0789 28.192 12.0122 28.192ZM21.4478 28.128C20.4345 28.128 19.6452 27.872 19.0798 27.36C18.5145 26.8373 18.2318 26.064 18.2318 25.04V17.488H20.7278V25.008C20.7278 25.3707 20.8238 25.6533 21.0158 25.856C21.2078 26.048 21.4692 26.144 21.7998 26.144C22.1945 26.144 22.5305 26.0373 22.8078 25.824L23.4798 27.584C23.2238 27.7653 22.9145 27.904 22.5518 28C22.1998 28.0853 21.8318 28.128 21.4478 28.128ZM16.9038 21.504V19.584H22.8718V21.504H16.9038ZM29.793 19.264C30.4756 19.264 31.0836 19.4027 31.617 19.68C32.161 19.9467 32.5876 20.3627 32.897 20.928C33.2063 21.4827 33.361 22.1973 33.361 23.072V28H30.865V23.456C30.865 22.7627 30.7103 22.2507 30.401 21.92C30.1023 21.5893 29.6756 21.424 29.121 21.424C28.7263 21.424 28.369 21.5093 28.049 21.68C27.7396 21.84 27.4943 22.0907 27.313 22.432C27.1423 22.7733 27.057 23.2107 27.057 23.744V28H24.561V16.128H27.057V21.776L26.497 21.056C26.8063 20.48 27.249 20.0373 27.825 19.728C28.401 19.4187 29.057 19.264 29.793 19.264Z" fill="#337AFF"/>
</svg>
