<svg width="40" height="58" viewBox="0 0 40 58" fill="none" xmlns="http://www.w3.org/2000/svg">
<path d="M0 2.6C0 1.16406 1.16406 0 2.6 0H37.4C38.8359 0 40 1.16406 40 2.6V51.3892C40 53.6359 37.3426 54.8249 35.6674 53.3277L21.7326 40.8735C20.7459 39.9916 19.2541 39.9916 18.2674 40.8735L4.3326 53.3277C2.65742 54.8249 0 53.6359 0 51.3892V2.6Z" fill="#B2CDFF"/>
<path d="M12.3632 28.192C11.3392 28.192 10.4486 27.9787 9.69122 27.552C8.94455 27.1253 8.36855 26.5013 7.96322 25.68C7.55789 24.8587 7.35522 23.8453 7.35522 22.64C7.35522 21.3493 7.59522 20.256 8.07522 19.36C8.56589 18.464 9.23789 17.7813 10.0912 17.312C10.9552 16.8427 11.9472 16.608 13.0672 16.608C13.6646 16.608 14.2352 16.672 14.7792 16.8C15.3232 16.928 15.7926 17.12 16.1872 17.376L15.2272 19.28C14.9179 19.0667 14.5872 18.9227 14.2352 18.848C13.8832 18.7627 13.5152 18.72 13.1312 18.72C12.1606 18.72 11.3926 19.0133 10.8272 19.6C10.2619 20.1867 9.97922 21.056 9.97922 22.208C9.97922 22.4 9.97922 22.6133 9.97922 22.848C9.98989 23.0827 10.0219 23.3173 10.0752 23.552L9.35522 22.88C9.55789 22.464 9.81922 22.1173 10.1392 21.84C10.4592 21.552 10.8379 21.3387 11.2752 21.2C11.7232 21.0507 12.2139 20.976 12.7472 20.976C13.4726 20.976 14.1232 21.12 14.6992 21.408C15.2752 21.696 15.7339 22.1013 16.0752 22.624C16.4272 23.1467 16.6032 23.76 16.6032 24.464C16.6032 25.2213 16.4112 25.8827 16.0272 26.448C15.6539 27.0027 15.1472 27.4347 14.5072 27.744C13.8779 28.0427 13.1632 28.192 12.3632 28.192ZM12.2192 26.256C12.5819 26.256 12.9019 26.192 13.1792 26.064C13.4672 25.9253 13.6912 25.728 13.8512 25.472C14.0112 25.216 14.0912 24.9227 14.0912 24.592C14.0912 24.08 13.9152 23.6747 13.5632 23.376C13.2219 23.0667 12.7632 22.912 12.1872 22.912C11.8032 22.912 11.4672 22.9867 11.1792 23.136C10.8912 23.2747 10.6619 23.472 10.4912 23.728C10.3312 23.9733 10.2512 24.2613 10.2512 24.592C10.2512 24.912 10.3312 25.2 10.4912 25.456C10.6512 25.7013 10.8752 25.8987 11.1632 26.048C11.4512 26.1867 11.8032 26.256 12.2192 26.256ZM21.2707 28.128C20.2574 28.128 19.4681 27.872 18.9027 27.36C18.3374 26.8373 18.0547 26.064 18.0547 25.04V17.488H20.5507V25.008C20.5507 25.3707 20.6467 25.6533 20.8387 25.856C21.0307 26.048 21.2921 26.144 21.6227 26.144C22.0174 26.144 22.3534 26.0373 22.6307 25.824L23.3027 27.584C23.0467 27.7653 22.7374 27.904 22.3747 28C22.0227 28.0853 21.6547 28.128 21.2707 28.128ZM16.7267 21.504V19.584H22.6947V21.504H16.7267ZM29.6158 19.264C30.2985 19.264 30.9065 19.4027 31.4398 19.68C31.9838 19.9467 32.4105 20.3627 32.7198 20.928C33.0292 21.4827 33.1838 22.1973 33.1838 23.072V28H30.6878V23.456C30.6878 22.7627 30.5332 22.2507 30.2238 21.92C29.9252 21.5893 29.4985 21.424 28.9438 21.424C28.5492 21.424 28.1918 21.5093 27.8718 21.68C27.5625 21.84 27.3172 22.0907 27.1358 22.432C26.9652 22.7733 26.8798 23.2107 26.8798 23.744V28H24.3838V16.128H26.8798V21.776L26.3198 21.056C26.6292 20.48 27.0718 20.0373 27.6478 19.728C28.2238 19.4187 28.8798 19.264 29.6158 19.264Z" fill="#337AFF"/>
</svg>
