<svg width="28" height="40" viewBox="0 0 28 40" fill="none" xmlns="http://www.w3.org/2000/svg">
<path d="M0 1.81819C0 0.814032 0.814029 0 1.81818 0H26.1818C27.186 0 28 0.814029 28 1.81818V35.9392C28 37.5099 26.1425 38.3416 24.9709 37.2955L15.2109 28.5812C14.5211 27.9653 13.4789 27.9653 12.7891 28.5812L3.02912 37.2955C1.85747 38.3416 0 37.5099 0 35.9392V1.81819Z" fill="#B2CDFF"/>
<path d="M6.1777 18L9.33295 10.8615L9.80288 11.6447H5.58469L6.39029 10.7944V12.9203H4.7791V10.1678H11.056V11.3427L8.14693 18H6.1777ZM14.4044 18.0895C13.6957 18.0895 13.1438 17.9105 12.7484 17.5524C12.3531 17.1869 12.1554 16.6462 12.1554 15.9301V10.6489H13.9009V15.9077C13.9009 16.1613 13.968 16.359 14.1023 16.5007C14.2365 16.635 14.4193 16.7021 14.6505 16.7021C14.9265 16.7021 15.1615 16.6275 15.3554 16.4783L15.8254 17.7091C15.6463 17.8359 15.43 17.9329 15.1764 18C14.9302 18.0597 14.6729 18.0895 14.4044 18.0895ZM11.2267 13.4573V12.1147H15.4002V13.4573H11.2267ZM20.2401 11.8909C20.7175 11.8909 21.1427 11.9879 21.5157 12.1818C21.8961 12.3683 22.1944 12.6592 22.4108 13.0545C22.6271 13.4424 22.7352 13.9422 22.7352 14.5538V18H20.9898V14.8224C20.9898 14.3375 20.8816 13.9795 20.6653 13.7482C20.4564 13.517 20.1581 13.4014 19.7702 13.4014C19.4942 13.4014 19.2443 13.4611 19.0205 13.5804C18.8042 13.6923 18.6327 13.8676 18.5059 14.1063C18.3865 14.345 18.3268 14.6508 18.3268 15.0238V18H16.5814V9.69789H18.3268V13.6475L17.9352 13.1441C18.1515 12.7413 18.4611 12.4317 18.8639 12.2154C19.2667 11.9991 19.7254 11.8909 20.2401 11.8909Z" fill="#337AFF"/>
</svg>
