<svg width="28" height="40" viewBox="0 0 28 40" fill="none" xmlns="http://www.w3.org/2000/svg">
<path d="M0 1.81819C0 0.814032 0.814029 0 1.81818 0H26.1818C27.186 0 28 0.814029 28 1.81818V35.9392C28 37.5099 26.1425 38.3416 24.9709 37.2955L15.2109 28.5812C14.5211 27.9653 13.4789 27.9653 12.7891 28.5812L3.02912 37.2955C1.85747 38.3416 0 37.5099 0 35.9392V1.81819Z" fill="#B2CDFF"/>
<path d="M7.91254 18.1343C7.25613 18.1343 6.68177 18.0373 6.18946 17.8434C5.69715 17.642 5.313 17.3622 5.03701 17.0042C4.76102 16.6387 4.62302 16.2135 4.62302 15.7287C4.62302 15.2438 4.75729 14.8336 5.02582 14.4979C5.30181 14.1548 5.68596 13.8974 6.17827 13.7259C6.67058 13.5468 7.24867 13.4573 7.91254 13.4573C8.58387 13.4573 9.16569 13.5468 9.65799 13.7259C10.1578 13.8974 10.5419 14.1548 10.8104 14.4979C11.0864 14.8336 11.2244 15.2438 11.2244 15.7287C11.2244 16.2135 11.0864 16.6387 10.8104 17.0042C10.5345 17.3622 10.1466 17.642 9.64681 17.8434C9.1545 18.0373 8.57641 18.1343 7.91254 18.1343ZM7.91254 16.8028C8.36755 16.8028 8.72559 16.7021 8.98667 16.5007C9.2552 16.2993 9.38946 16.0233 9.38946 15.6727C9.38946 15.3221 9.2552 15.0499 8.98667 14.8559C8.72559 14.6545 8.36755 14.5538 7.91254 14.5538C7.46499 14.5538 7.11067 14.6545 6.8496 14.8559C6.58853 15.0499 6.45799 15.3221 6.45799 15.6727C6.45799 16.0233 6.58853 16.2993 6.8496 16.5007C7.11067 16.7021 7.46499 16.8028 7.91254 16.8028ZM7.91254 14.3748C7.30834 14.3748 6.77874 14.2928 6.32373 14.1287C5.87617 13.9646 5.52559 13.7259 5.27198 13.4126C5.02582 13.0918 4.90275 12.7114 4.90275 12.2713C4.90275 11.8089 5.02955 11.4135 5.28317 11.0853C5.53678 10.7496 5.89109 10.4923 6.3461 10.3133C6.80112 10.1268 7.32326 10.0336 7.91254 10.0336C8.51673 10.0336 9.04261 10.1268 9.49016 10.3133C9.94517 10.4923 10.2995 10.7496 10.5531 11.0853C10.8142 11.4135 10.9447 11.8089 10.9447 12.2713C10.9447 12.7114 10.8179 13.0918 10.5643 13.4126C10.3181 13.7259 9.96755 13.9646 9.51254 14.1287C9.05753 14.2928 8.52419 14.3748 7.91254 14.3748ZM7.91254 13.3119C8.29296 13.3119 8.59133 13.2261 8.80764 13.0545C9.03142 12.883 9.14331 12.648 9.14331 12.3496C9.14331 12.0364 9.02769 11.7939 8.79646 11.6224C8.57268 11.4508 8.27804 11.365 7.91254 11.365C7.5545 11.365 7.26359 11.4508 7.03981 11.6224C6.81603 11.7939 6.70415 12.0364 6.70415 12.3496C6.70415 12.648 6.8123 12.883 7.02862 13.0545C7.24494 13.2261 7.53958 13.3119 7.91254 13.3119ZM14.6611 18.0895C13.9525 18.0895 13.4005 17.9105 13.0052 17.5524C12.6099 17.1869 12.4122 16.6462 12.4122 15.9301V10.6489H14.1576V15.9077C14.1576 16.1613 14.2248 16.359 14.359 16.5007C14.4933 16.635 14.6761 16.7021 14.9073 16.7021C15.1833 16.7021 15.4183 16.6275 15.6122 16.4783L16.0821 17.7091C15.9031 17.8359 15.6868 17.9329 15.4332 18C15.187 18.0597 14.9297 18.0895 14.6611 18.0895ZM11.4835 13.4573V12.1147H15.657V13.4573H11.4835ZM20.4969 11.8909C20.9743 11.8909 21.3995 11.9879 21.7724 12.1818C22.1528 12.3683 22.4512 12.6592 22.6675 13.0545C22.8839 13.4424 22.992 13.9422 22.992 14.5538V18H21.2466V14.8224C21.2466 14.3375 21.1384 13.9795 20.9221 13.7482C20.7132 13.517 20.4149 13.4014 20.027 13.4014C19.751 13.4014 19.5011 13.4611 19.2773 13.5804C19.061 13.6923 18.8894 13.8676 18.7626 14.1063C18.6433 14.345 18.5836 14.6508 18.5836 15.0238V18H16.8382V9.69789H18.5836V13.6475L18.192 13.1441C18.4083 12.7413 18.7179 12.4317 19.1207 12.2154C19.5235 11.9991 19.9822 11.8909 20.4969 11.8909Z" fill="#337AFF"/>
</svg>
