<svg width="28" height="40" viewBox="0 0 28 40" fill="none" xmlns="http://www.w3.org/2000/svg">
<path d="M0 1.81819C0 0.814032 0.814029 0 1.81818 0H26.1818C27.186 0 28 0.814029 28 1.81818V35.9392C28 37.5099 26.1425 38.3416 24.9709 37.2955L15.2109 28.5812C14.5211 27.9653 13.4789 27.9653 12.7891 28.5812L3.02912 37.2955C1.85747 38.3416 0 37.5099 0 35.9392V1.81819Z" fill="#B2CDFF"/>
<path d="M7.49672 10.0336C8.22026 10.0336 8.8431 10.1827 9.36525 10.4811C9.88739 10.7795 10.2902 11.2158 10.5736 11.7902C10.8571 12.3571 10.9988 13.0657 10.9988 13.9161C10.9988 14.8186 10.8273 15.5832 10.4841 16.2098C10.1485 16.8364 9.68227 17.3138 9.08553 17.642C8.48879 17.9702 7.79508 18.1343 7.00441 18.1343C6.59415 18.1343 6.19881 18.0895 5.81839 18C5.43797 17.9105 5.10977 17.7762 4.83378 17.5972L5.50511 16.2657C5.72142 16.4149 5.95266 16.5193 6.19881 16.579C6.44497 16.6312 6.70231 16.6573 6.97084 16.6573C7.64217 16.6573 8.1755 16.4522 8.57084 16.042C8.97364 15.6317 9.17504 15.0238 9.17504 14.2182C9.17504 14.0839 9.17131 13.9347 9.16385 13.7706C9.15639 13.6065 9.13774 13.4424 9.10791 13.2783L9.60021 13.7482C9.47341 14.0392 9.29439 14.2853 9.06315 14.4867C8.83192 14.6806 8.56338 14.8298 8.25756 14.9343C7.95173 15.0312 7.6086 15.0797 7.22818 15.0797C6.72842 15.0797 6.2734 14.979 5.86315 14.7776C5.46035 14.5762 5.13587 14.2928 4.88972 13.9273C4.65103 13.5618 4.53168 13.1329 4.53168 12.6406C4.53168 12.1035 4.66221 11.641 4.92329 11.2531C5.19182 10.8653 5.54986 10.5669 5.99741 10.358C6.45243 10.1417 6.95219 10.0336 7.49672 10.0336ZM7.6086 11.3874C7.34753 11.3874 7.12003 11.4359 6.92609 11.5329C6.73215 11.6224 6.57923 11.7566 6.46734 11.9357C6.35546 12.1072 6.29951 12.3123 6.29951 12.551C6.29951 12.9091 6.41886 13.1963 6.65755 13.4126C6.90371 13.6214 7.22818 13.7259 7.63098 13.7259C7.89205 13.7259 8.12329 13.6774 8.32469 13.5804C8.53355 13.476 8.69392 13.3343 8.80581 13.1552C8.9177 12.9762 8.97364 12.7748 8.97364 12.551C8.97364 12.3273 8.9177 12.1296 8.80581 11.958C8.70138 11.779 8.54847 11.641 8.34707 11.544C8.14567 11.4396 7.89951 11.3874 7.6086 11.3874ZM14.5847 18.0895C13.876 18.0895 13.3241 17.9105 12.9287 17.5524C12.5334 17.1869 12.3357 16.6462 12.3357 15.9301V10.6489H14.0812V15.9077C14.0812 16.1613 14.1483 16.359 14.2826 16.5007C14.4168 16.635 14.5996 16.7021 14.8308 16.7021C15.1068 16.7021 15.3418 16.6275 15.5357 16.4783L16.0056 17.7091C15.8266 17.8359 15.6103 17.9329 15.3567 18C15.1105 18.0597 14.8532 18.0895 14.5847 18.0895ZM11.407 13.4573V12.1147H15.5805V13.4573H11.407ZM20.4204 11.8909C20.8978 11.8909 21.323 11.9879 21.6959 12.1818C22.0764 12.3683 22.3747 12.6592 22.591 13.0545C22.8074 13.4424 22.9155 13.9422 22.9155 14.5538V18H21.1701V14.8224C21.1701 14.3375 21.0619 13.9795 20.8456 13.7482C20.6367 13.517 20.3384 13.4014 19.9505 13.4014C19.6745 13.4014 19.4246 13.4611 19.2008 13.5804C18.9845 13.6923 18.813 13.8676 18.6861 14.1063C18.5668 14.345 18.5071 14.6508 18.5071 15.0238V18H16.7617V9.69789H18.5071V13.6475L18.1155 13.1441C18.3318 12.7413 18.6414 12.4317 19.0442 12.2154C19.447 11.9991 19.9057 11.8909 20.4204 11.8909Z" fill="#337AFF"/>
</svg>
