<svg width="106" height="72" viewBox="0 0 106 72" fill="none" xmlns="http://www.w3.org/2000/svg">
<path d="M86 36C86 55.8823 69.8823 72 50 72C30.1177 72 14 55.8823 14 36C14 16.1177 30.1177 0 50 0C69.8823 0 86 16.1177 86 36Z" fill="#669BFF"/>
<path d="M46.2168 40.7826C46.2168 38.6935 47.9103 37 49.9994 37C52.0885 37 53.782 38.6935 53.782 40.7826V58.602C53.782 60.6911 52.0885 62.3846 49.9994 62.3846C47.9103 62.3846 46.2168 60.6911 46.2168 58.602V40.7826Z" fill="#FFD25E"/>
<path d="M58.8017 57.3076C60.9046 57.3076 62.6094 59.0124 62.6094 61.1153C62.6094 63.2182 60.9046 64.923 58.8017 64.923L41.1997 64.923C39.0967 64.923 37.392 63.2182 37.392 61.1153C37.392 59.0124 39.0967 57.3076 41.1997 57.3076L58.8017 57.3076Z" fill="#FFD25E"/>
<path d="M55.027 49.6924C56.4289 49.6924 57.5654 50.8289 57.5654 52.2308C57.5654 53.6328 56.4289 54.7693 55.027 54.7693L44.9735 54.7693C43.5715 54.7693 42.435 53.6328 42.435 52.2308C42.435 50.8289 43.5715 49.6924 44.9735 49.6924L55.027 49.6924Z" fill="#ED9E27"/>
<path d="M67.6269 62.3848C69.7298 62.3848 71.4346 64.0895 71.4346 66.1925C71.4346 68.2954 69.7298 70.0002 67.6269 70.0002L32.3727 70.0001C30.2698 70.0001 28.565 68.2954 28.565 66.1925C28.565 64.0895 30.2698 62.3848 32.3727 62.3848L67.6269 62.3848Z" fill="#ED9E27"/>
<path fill-rule="evenodd" clip-rule="evenodd" d="M21 20.4995C21 14.8917 25.5161 10.3457 31.087 10.3457V15.4226C28.3015 15.4226 26.0435 17.6956 26.0435 20.4995V22.4034C26.0435 25.2073 28.3015 27.4803 31.087 27.4803V32.5572C25.5161 32.5572 21 28.0112 21 22.4034V20.4995Z" fill="#ED9E27"/>
<path fill-rule="evenodd" clip-rule="evenodd" d="M79 20.4995C79 14.8917 74.4839 10.3457 68.913 10.3457V15.4226C71.6985 15.4226 73.9565 17.6956 73.9565 20.4995V22.4034C73.9565 25.2073 71.6985 27.4803 68.913 27.4803V32.5572C74.4839 32.5572 79 28.0112 79 22.4034V20.4995Z" fill="#ED9E27"/>
<path d="M29.8262 7.92308C29.8262 5.75643 31.5826 4 33.7492 4H66.2509C68.4176 4 70.174 5.75642 70.174 7.92307V26.9799C70.174 38.1217 61.1418 47.1538 50.0001 47.1538C38.8583 47.1538 29.8262 38.1217 29.8262 26.9799V7.92308Z" fill="#FFD25E"/>
<path d="M38.7997 20.98L40.7554 30.3762C40.8315 30.742 41.1557 31.0044 41.5315 31.0044H58.4471C58.8329 31.0044 59.1626 30.7283 59.2282 30.3504L60.8613 20.935C60.9653 20.3354 60.3752 19.8499 59.802 20.0635L55.2938 21.744C54.9729 21.8636 54.6109 21.7646 54.3967 21.4985L50.5949 16.7747C50.2856 16.3904 49.7014 16.3789 49.3771 16.7509L45.2099 21.5305C44.9929 21.7794 44.643 21.8678 44.3327 21.7522L39.854 20.0827C39.2698 19.8649 38.6732 20.3726 38.7997 20.98Z" fill="#FFBB37"/>
<path d="M40.0936 31.7919C40.0936 31.3568 40.4484 31.0041 40.8862 31.0041H59.1147C59.5525 31.0041 59.9073 31.3568 59.9073 31.7919V34.9431C59.9073 35.3782 59.5525 35.7309 59.1147 35.7309H40.8862C40.4484 35.7309 40.0936 35.3782 40.0936 34.9431V31.7919Z" fill="#ED9E27"/>
<path d="M40.0936 18.7926C40.0936 19.8803 39.2065 20.7621 38.1122 20.7621C37.0179 20.7621 36.1309 19.8803 36.1309 18.7926C36.1309 17.7048 37.0179 16.8231 38.1122 16.8231C39.2065 16.8231 40.0936 17.7048 40.0936 18.7926Z" fill="#ED9E27"/>
<path d="M51.9818 14.8543C51.9818 15.942 51.0947 16.8238 50.0004 16.8238C48.9062 16.8238 48.0191 15.942 48.0191 14.8543C48.0191 13.7666 48.9062 12.8848 50.0004 12.8848C51.0947 12.8848 51.9818 13.7666 51.9818 14.8543Z" fill="#ED9E27"/>
<path d="M63.87 18.7926C63.87 19.8803 62.9829 20.7621 61.8886 20.7621C60.7943 20.7621 59.9073 19.8803 59.9073 18.7926C59.9073 17.7048 60.7943 16.8231 61.8886 16.8231C62.9829 16.8231 63.87 17.7048 63.87 18.7926Z" fill="#ED9E27"/>
<path d="M93.0831 20.2903C93.2263 19.9032 93.7737 19.9032 93.9169 20.2903L97.0311 28.7062C97.0761 28.8279 97.1721 28.9239 97.2938 28.9689L105.71 32.0831C106.097 32.2263 106.097 32.7737 105.71 32.9169L97.2938 36.0311C97.1721 36.0761 97.0761 36.1721 97.0311 36.2938L93.9169 44.7097C93.7737 45.0968 93.2263 45.0968 93.0831 44.7097L89.9689 36.2938C89.9239 36.1721 89.8279 36.0761 89.7062 36.0311L81.2903 32.9169C80.9032 32.7737 80.9032 32.2263 81.2903 32.0831L89.7062 28.9689C89.8279 28.9239 89.9239 28.8279 89.9689 28.7062L93.0831 20.2903Z" fill="#FFED4A"/>
<path d="M8.21649 10.1974C8.31388 9.93421 8.68612 9.9342 8.7835 10.1974L10.9012 15.9202C10.9318 16.003 10.997 16.0682 11.0798 16.0988L16.8026 18.2165C17.0658 18.3139 17.0658 18.6861 16.8026 18.7835L11.0798 20.9012C10.997 20.9318 10.9318 20.997 10.9012 21.0798L8.78351 26.8026C8.68612 27.0658 8.31388 27.0658 8.21649 26.8026L6.09884 21.0798C6.06823 20.997 6.00299 20.9318 5.92025 20.9012L0.197387 18.7835C-0.0657948 18.6861 -0.0657959 18.3139 0.197386 18.2165L5.92025 16.0988C6.00299 16.0682 6.06823 16.003 6.09884 15.9202L8.21649 10.1974Z" fill="#FFED4A"/>
<path d="M80.7665 40.1626C80.8467 39.9458 81.1533 39.9458 81.2335 40.1626L82.9774 44.8755C83.0026 44.9436 83.0564 44.9974 83.1245 45.0226L87.8374 46.7665C88.0542 46.8467 88.0542 47.1533 87.8374 47.2335L83.1245 48.9774C83.0564 49.0026 83.0026 49.0564 82.9774 49.1245L81.2335 53.8374C81.1533 54.0542 80.8467 54.0542 80.7665 53.8374L79.0226 49.1245C78.9974 49.0564 78.9436 49.0026 78.8755 48.9774L74.1626 47.2335C73.9458 47.1533 73.9458 46.8467 74.1626 46.7665L78.8755 45.0226C78.9436 44.9974 78.9974 44.9436 79.0226 44.8755L80.7665 40.1626Z" fill="#FFED4A"/>
</svg>
