<svg width="40" height="58" viewBox="0 0 40 58" fill="none" xmlns="http://www.w3.org/2000/svg">
<path d="M0 2.6C0 1.16406 1.16406 0 2.6 0H37.4C38.8359 0 40 1.16406 40 2.6V51.3892C40 53.6359 37.3426 54.8249 35.6674 53.3277L21.7326 40.8735C20.7459 39.9916 19.2541 39.9916 18.2674 40.8735L4.3326 53.3277C2.65742 54.8249 0 53.6359 0 51.3892V2.6Z" fill="#E6E6E6"/>
<path d="M19.274 24.112C19.274 23.7387 19.3327 23.408 19.45 23.12C19.578 22.832 19.7327 22.576 19.914 22.352C20.106 22.128 20.3087 21.92 20.522 21.728C20.7354 21.536 20.9327 21.3547 21.114 21.184C21.306 21.0027 21.4607 20.816 21.578 20.624C21.706 20.432 21.77 20.2187 21.77 19.984C21.77 19.6 21.61 19.2907 21.29 19.056C20.9807 18.8213 20.5647 18.704 20.042 18.704C19.5407 18.704 19.0927 18.8107 18.698 19.024C18.3034 19.2267 17.978 19.5147 17.722 19.888L15.786 18.752C16.2127 18.1013 16.8047 17.584 17.562 17.2C18.3194 16.8053 19.2367 16.608 20.314 16.608C21.114 16.608 21.818 16.7253 22.426 16.96C23.034 17.184 23.5087 17.5147 23.85 17.952C24.202 18.3893 24.378 18.928 24.378 19.568C24.378 19.984 24.314 20.352 24.186 20.672C24.058 20.992 23.8927 21.2693 23.69 21.504C23.4874 21.7387 23.2687 21.9573 23.034 22.16C22.81 22.3627 22.5967 22.56 22.394 22.752C22.1914 22.944 22.0207 23.1467 21.882 23.36C21.754 23.5733 21.69 23.824 21.69 24.112H19.274ZM20.49 28.128C20.042 28.128 19.674 27.984 19.386 27.696C19.098 27.408 18.954 27.0667 18.954 26.672C18.954 26.2667 19.098 25.9307 19.386 25.664C19.674 25.3867 20.042 25.248 20.49 25.248C20.9487 25.248 21.3167 25.3867 21.594 25.664C21.882 25.9307 22.026 26.2667 22.026 26.672C22.026 27.0667 21.882 27.408 21.594 27.696C21.3167 27.984 20.9487 28.128 20.49 28.128Z" fill="#B3B3B3"/>
</svg>
