<svg width="66" height="66" viewBox="0 0 66 66" fill="none" xmlns="http://www.w3.org/2000/svg">
<g filter="url(#filter0_d_44_7585)">
<circle cx="33" cy="29" r="25" fill="#337AFF"/>
<path fill-rule="evenodd" clip-rule="evenodd" d="M38.7212 41.9609H27.6912C23.39 41.9609 20.5 38.9421 20.5 34.4496V24.0571C20.5 19.5646 23.39 16.5459 27.6912 16.5459H32.365C32.8825 16.5459 33.3025 16.9659 33.3025 17.4834C33.3025 18.0009 32.8825 18.4209 32.365 18.4209H27.6912C24.4612 18.4209 22.375 20.6334 22.375 24.0571V34.4496C22.375 37.8734 24.4612 40.0859 27.6912 40.0859H38.7212C41.9512 40.0859 44.0387 37.8734 44.0387 34.4496V29.4146C44.0387 28.8971 44.4587 28.4771 44.9762 28.4771C45.4937 28.4771 45.9137 28.8971 45.9137 29.4146V34.4496C45.9137 38.9421 43.0225 41.9609 38.7212 41.9609Z" fill="white"/>
<path fill-rule="evenodd" clip-rule="evenodd" d="M29.085 33.2851H32.8062C33.2812 33.2851 33.7262 33.1013 34.0625 32.7651L43.4487 23.3788C43.8337 22.9938 44.0462 22.4813 44.0462 21.9363C44.0462 21.3901 43.8337 20.8763 43.4487 20.4913L41.9275 18.9701C41.1312 18.1763 39.8362 18.1763 39.0387 18.9701L29.6975 28.3113C29.3737 28.6351 29.19 29.0651 29.1787 29.5213L29.085 33.2851ZM32.8058 35.16H28.1233C27.8708 35.16 27.6283 35.0575 27.4521 34.8763C27.2758 34.6963 27.1796 34.4525 27.1858 34.1988L27.3033 29.475C27.3271 28.535 27.7058 27.6513 28.3708 26.985H28.3721L37.7133 17.6438C39.2408 16.1187 41.7246 16.1187 43.2521 17.6438L44.7733 19.165C45.5146 19.905 45.9221 20.8888 45.9208 21.9363C45.9208 22.9838 45.5133 23.9663 44.7733 24.705L35.3871 34.0913C34.6983 34.78 33.7808 35.16 32.8058 35.16Z" fill="white"/>
<path fill-rule="evenodd" clip-rule="evenodd" d="M42.6632 26.395C42.4232 26.395 42.1832 26.3037 42.0007 26.12L36.2932 20.4125C35.927 20.0462 35.927 19.4525 36.2932 19.0862C36.6595 18.72 37.252 18.72 37.6182 19.0862L43.3257 24.795C43.692 25.1612 43.692 25.7537 43.3257 26.12C43.1432 26.3037 42.9032 26.395 42.6632 26.395Z" fill="white"/>
</g>
<defs>
<filter id="filter0_d_44_7585" x="0" y="0" width="66" height="66" filterUnits="userSpaceOnUse" color-interpolation-filters="sRGB">
<feFlood flood-opacity="0" result="BackgroundImageFix"/>
<feColorMatrix in="SourceAlpha" type="matrix" values="0 0 0 0 0 0 0 0 0 0 0 0 0 0 0 0 0 0 127 0" result="hardAlpha"/>
<feOffset dy="4"/>
<feGaussianBlur stdDeviation="4"/>
<feComposite in2="hardAlpha" operator="out"/>
<feColorMatrix type="matrix" values="0 0 0 0 0 0 0 0 0 0 0 0 0 0 0 0 0 0 0.25 0"/>
<feBlend mode="normal" in2="BackgroundImageFix" result="effect1_dropShadow_44_7585"/>
<feBlend mode="normal" in="SourceGraphic" in2="effect1_dropShadow_44_7585" result="shape"/>
</filter>
</defs>
</svg>
