<svg width="66" height="66" viewBox="0 0 66 66" fill="none" xmlns="http://www.w3.org/2000/svg">
<g filter="url(#filter0_d_44_6861)">
<circle cx="33" cy="29" r="25" fill="#337AFF"/>
<mask id="path-2-inside-1_44_6861" fill="white">
<path fill-rule="evenodd" clip-rule="evenodd" d="M33 39.5819C40.1797 39.5819 46 34.5268 46 28.2909C46 22.0551 40.1797 17 33 17C25.923 17 20.1668 21.9116 20.0036 28.0241C20.001 28.1085 19.9999 28.193 20 28.2777C20 28.2821 20 28.2865 20 28.2909C20 28.7397 20.0301 29.1823 20.0888 29.6173C20.1193 29.8759 20.1555 30.1334 20.1941 30.3881C20.4756 32.2397 21.3369 33.8482 22.5813 35.2058C23.1053 35.7778 23.2874 36.4097 23.341 37.0993C23.4437 38.4227 23.2941 39.7189 22.6231 40.9971C22.623 40.9974 22.6229 40.9977 22.6229 40.9981C22.6229 40.9984 22.623 40.9986 22.6231 40.9989C22.6235 40.9997 22.6244 41.0001 22.6253 40.9999C22.6892 40.9859 22.7381 40.9761 22.7777 40.9682C22.8392 40.956 22.8781 40.9482 22.9154 40.9358C24.1922 40.5266 25.3183 39.8642 26.2309 38.8638C26.5515 38.5123 26.8956 38.4456 27.3346 38.5982C28.6694 39.0603 30.0418 39.4048 31.4432 39.5018C31.9536 39.5547 32.4732 39.5819 33 39.5819Z"/>
</mask>
<path d="M20.0036 28.0241L22.0027 28.0841L22.0028 28.0775L20.0036 28.0241ZM20 28.2777L22 28.2803L22 28.2748L20 28.2777ZM20.0888 29.6173L22.075 29.3829L22.073 29.3666L22.0708 29.3503L20.0888 29.6173ZM20.1941 30.3881L18.2166 30.6873L18.2168 30.6887L20.1941 30.3881ZM22.5813 35.2058L24.0562 33.8549L24.0557 33.8544L22.5813 35.2058ZM23.341 37.0993L25.335 36.9444L25.335 36.9442L23.341 37.0993ZM22.6231 40.9971L24.3937 41.9272L24.394 41.9267L22.6231 40.9971ZM22.6229 40.9981L20.6231 41.0219L20.6231 41.0229L22.6229 40.9981ZM22.6231 40.9989L24.4156 40.1117L24.4146 40.1097L22.6231 40.9989ZM22.6253 40.9999L23.055 42.9532L23.0551 42.9532L22.6253 40.9999ZM22.7777 40.9682L22.3862 39.0069L22.3862 39.0069L22.7777 40.9682ZM22.9154 40.9358L22.305 39.0313L22.2958 39.0342L22.2866 39.0373L22.9154 40.9358ZM26.2309 38.8638L27.7084 40.2118L27.7087 40.2115L26.2309 38.8638ZM27.3346 38.5982L26.678 40.4873L26.6804 40.4881L27.3346 38.5982ZM31.4432 39.5018L31.6494 37.5124L31.6154 37.5089L31.5813 37.5065L31.4432 39.5018ZM44 28.2909C44 33.1668 39.3491 37.5819 33 37.5819V41.5819C41.0103 41.5819 48 35.8867 48 28.2909H44ZM33 19C39.3491 19 44 23.4151 44 28.2909H48C48 20.6952 41.0103 15 33 15V19ZM22.0028 28.0775C22.1306 23.2912 26.7463 19 33 19V15C25.0997 15 18.2029 20.5319 18.0043 27.9708L22.0028 28.0775ZM22 28.2748C21.9999 28.21 22.0008 28.1464 22.0027 28.0841L18.0045 27.9642C18.0013 28.0705 17.9999 28.176 18 28.2806L22 28.2748ZM22 28.2909C22 28.2874 22 28.2839 22 28.2803L18 28.275C18 28.2803 18 28.2856 18 28.2909H22ZM22.0708 29.3503C22.0241 29.0034 22 28.65 22 28.2909H18C18 28.8294 18.0362 29.3612 18.1067 29.8844L22.0708 29.3503ZM22.1716 30.0889C22.135 29.8469 22.1021 29.6126 22.075 29.3829L18.1025 29.8517C18.1365 30.1393 18.1761 30.4198 18.2166 30.6873L22.1716 30.0889ZM24.0557 33.8544C23.0372 32.7434 22.3845 31.4891 22.1714 30.0875L18.2168 30.6887C18.5667 32.9902 19.6365 34.9531 21.107 36.5573L24.0557 33.8544ZM25.335 36.9442C25.2591 35.9685 24.9744 34.8575 24.0562 33.8549L21.1065 36.5567C21.1903 36.6482 21.2334 36.7264 21.2636 36.8073C21.2977 36.8987 21.3299 37.0342 21.347 37.2543L25.335 36.9442ZM24.394 41.9267C25.2851 40.2292 25.4583 38.5327 25.335 36.9444L21.347 37.2541C21.4292 38.3126 21.3032 39.2087 20.8523 40.0675L24.394 41.9267ZM24.6228 40.9743C24.6266 41.299 24.5512 41.6274 24.3937 41.9272L20.8526 40.067C20.6948 40.3674 20.6192 40.6964 20.6231 41.0219L24.6228 40.9743ZM24.4146 40.1097C24.552 40.3865 24.6192 40.6827 24.6228 40.9732L20.6231 41.0229C20.6267 41.314 20.694 41.6108 20.8317 41.8881L24.4146 40.1097ZM22.1956 39.0466C23.0606 38.8563 23.994 39.2599 24.4156 40.1117L20.8307 41.8861C21.253 42.7395 22.1882 43.1439 23.055 42.9532L22.1956 39.0466ZM22.3862 39.0069C22.3448 39.0152 22.2797 39.0281 22.1956 39.0467L23.0551 42.9532C23.0986 42.9436 23.1313 42.9371 23.1691 42.9295L22.3862 39.0069ZM22.2866 39.0373C22.3482 39.0168 22.3953 39.0057 22.4122 39.0018C22.4199 39.0001 22.4229 38.9995 22.4173 39.0007C22.4111 39.0019 22.403 39.0036 22.3862 39.0069L23.1691 42.9296C23.1937 42.9246 23.3658 42.8935 23.5441 42.8344L22.2866 39.0373ZM24.7534 37.5159C24.11 38.2211 23.3004 38.7122 22.305 39.0313L23.5257 42.8404C25.084 42.341 26.5265 41.5073 27.7084 40.2118L24.7534 37.5159ZM27.9913 36.709C27.5389 36.5518 26.9467 36.4421 26.2909 36.5926C25.6213 36.7463 25.1164 37.1179 24.7532 37.5161L27.7087 40.2115C27.6661 40.2582 27.4935 40.4206 27.1859 40.4912C26.892 40.5587 26.6914 40.4919 26.678 40.4873L27.9913 36.709ZM31.5813 37.5065C30.4116 37.4256 29.2197 37.1343 27.9889 36.7082L26.6804 40.4881C28.1191 40.9862 29.672 41.384 31.3051 41.497L31.5813 37.5065ZM33 37.5819C32.5421 37.5819 32.0914 37.5582 31.6494 37.5124L31.237 41.4911C31.8159 41.5511 32.4043 41.5819 33 41.5819V37.5819Z" fill="white" mask="url(#path-2-inside-1_44_6861)"/>
<ellipse cx="28.5312" cy="28.4224" rx="1.21875" ry="1.26912" fill="white"/>
<ellipse cx="33.4062" cy="28.4224" rx="1.21875" ry="1.26912" fill="white"/>
<ellipse cx="38.2812" cy="28.4224" rx="1.21875" ry="1.26912" fill="white"/>
</g>
<defs>
<filter id="filter0_d_44_6861" x="0" y="0" width="66" height="66" filterUnits="userSpaceOnUse" color-interpolation-filters="sRGB">
<feFlood flood-opacity="0" result="BackgroundImageFix"/>
<feColorMatrix in="SourceAlpha" type="matrix" values="0 0 0 0 0 0 0 0 0 0 0 0 0 0 0 0 0 0 127 0" result="hardAlpha"/>
<feOffset dy="4"/>
<feGaussianBlur stdDeviation="4"/>
<feComposite in2="hardAlpha" operator="out"/>
<feColorMatrix type="matrix" values="0 0 0 0 0 0 0 0 0 0 0 0 0 0 0 0 0 0 0.25 0"/>
<feBlend mode="normal" in2="BackgroundImageFix" result="effect1_dropShadow_44_6861"/>
<feBlend mode="normal" in="SourceGraphic" in2="effect1_dropShadow_44_6861" result="shape"/>
</filter>
</defs>
</svg>
