<svg width="50" height="66" viewBox="0 0 50 66" fill="none" xmlns="http://www.w3.org/2000/svg">
<rect x="0.5" y="0.5" width="49" height="49" rx="9.5" fill="white" stroke="#E6E6E6"/>
<g clip-path="url(#clip0_44_8863)">
<path d="M15.8467 25.4226L27.6552 13.5771H34.9248L19.4999 29.002L15.8467 25.4226ZM27.6552 37.1942H34.9248L28.6331 30.9024L34.9248 24.4816H27.6552L21.3635 30.8286L27.6552 37.1942Z" fill="#3FB6D3"/>
<path d="M28.6329 30.9021L24.9427 27.2119L21.3633 30.8283L24.9427 34.4446L28.6329 30.9021Z" fill="#27AACD"/>
<path d="M34.9252 37.1941L28.6335 30.9023L24.9434 34.4449L27.6556 37.1941H34.9252Z" fill="#19599A"/>
<path d="M24.9434 34.4449L30.6262 32.895L28.6335 30.9023L24.9434 34.4449Z" fill="url(#paint0_linear_44_8863)"/>
</g>
<path d="M9.23758 54.5156H14.347V55.4531H10.2923V58.2891H13.9602V59.2148H10.2923V63H9.23758V54.5156ZM16.5562 63H15.5484V54.5156H16.5562V63ZM21.9412 56.6367H22.9373V63H21.9412V61.9219H21.8709C21.7068 62.2695 21.4646 62.5508 21.1443 62.7656C20.8279 62.9766 20.4412 63.082 19.9841 63.082C19.574 63.082 19.2146 62.9941 18.906 62.8184C18.5974 62.6387 18.3552 62.3691 18.1795 62.0098C18.0076 61.6504 17.9216 61.207 17.9216 60.6797V56.6367H18.9295V60.6094C18.9295 60.9102 18.988 61.1738 19.1052 61.4004C19.2224 61.627 19.3845 61.8027 19.5916 61.9277C19.8025 62.0488 20.0427 62.1094 20.3123 62.1094C20.5662 62.1094 20.8181 62.0449 21.0681 61.916C21.322 61.7871 21.531 61.5938 21.6951 61.3359C21.8591 61.0742 21.9412 60.7578 21.9412 60.3867V56.6367ZM27.0918 57.4805H25.7559V61.1719C25.7559 61.5469 25.8301 61.7988 25.9785 61.9277C26.127 62.0566 26.3301 62.1211 26.5879 62.1211C26.7832 62.1211 26.9824 62.1133 27.1855 62.0977V63.0352C26.9824 63.0664 26.748 63.082 26.4824 63.082C26.1855 63.082 25.9043 63.0215 25.6387 62.9004C25.373 62.7754 25.1562 62.5879 24.9883 62.3379C24.8203 62.0879 24.7363 61.7852 24.7363 61.4297V57.4805H23.7754V56.6367H24.7363V55.1133H25.7559V56.6367H27.0918V57.4805ZM30.9299 57.4805H29.594V61.1719C29.594 61.5469 29.6682 61.7988 29.8166 61.9277C29.9651 62.0566 30.1682 62.1211 30.426 62.1211C30.6213 62.1211 30.8205 62.1133 31.0237 62.0977V63.0352C30.8205 63.0664 30.5862 63.082 30.3205 63.082C30.0237 63.082 29.7424 63.0215 29.4768 62.9004C29.2112 62.7754 28.9944 62.5879 28.8264 62.3379C28.6584 62.0879 28.5745 61.7852 28.5745 61.4297V57.4805H27.6135V56.6367H28.5745V55.1133H29.594V56.6367H30.9299V57.4805ZM34.5923 63.1289C33.9868 63.1289 33.4595 62.9941 33.0102 62.7246C32.561 62.4551 32.2153 62.0742 31.9731 61.582C31.7348 61.0898 31.6157 60.5195 31.6157 59.8711C31.6157 59.2227 31.7348 58.6484 31.9731 58.1484C32.2153 57.6445 32.5532 57.2539 32.9868 56.9766C33.4243 56.6953 33.9282 56.5547 34.4985 56.5547C34.979 56.5547 35.4262 56.6621 35.8403 56.877C36.2544 57.0879 36.5903 57.4316 36.8481 57.9082C37.1098 58.3809 37.2407 58.9883 37.2407 59.7305V60.1523H32.6235C32.6391 60.5938 32.7309 60.9707 32.8989 61.2832C33.0669 61.5957 33.2954 61.834 33.5845 61.998C33.8774 62.1582 34.2134 62.2383 34.5923 62.2383C34.9516 62.2383 35.2544 62.1719 35.5005 62.0391C35.7505 61.9023 35.9399 61.7266 36.0688 61.5117H37.147C37.0454 61.832 36.8755 62.1152 36.6372 62.3613C36.4028 62.6035 36.1098 62.793 35.7583 62.9297C35.4106 63.0625 35.022 63.1289 34.5923 63.1289ZM36.2212 59.2969C36.2212 58.9414 36.1489 58.625 36.0044 58.3477C35.8637 58.0664 35.6626 57.8457 35.4009 57.6855C35.1391 57.5254 34.8384 57.4453 34.4985 57.4453C34.143 57.4453 33.8266 57.5293 33.5493 57.6973C33.2759 57.8652 33.0591 58.0918 32.8989 58.377C32.7427 58.6582 32.6528 58.9648 32.6294 59.2969H36.2212ZM38.3132 56.6367H39.2859V57.6094H39.3562C39.4734 57.2852 39.6823 57.0254 39.9831 56.8301C40.2839 56.6309 40.6218 56.5312 40.9968 56.5312C41.1921 56.5312 41.3679 56.5391 41.5241 56.5547V57.5742C41.4812 57.5586 41.3972 57.543 41.2722 57.5273C41.1511 57.5117 41.032 57.5039 40.9148 57.5039C40.614 57.5039 40.3425 57.5684 40.1003 57.6973C39.8581 57.8262 39.6667 58.0039 39.5261 58.2305C39.3894 58.457 39.321 58.7109 39.321 58.9922V63H38.3132V56.6367Z" fill="#999999"/>
<defs>
<linearGradient id="paint0_linear_44_8863" x1="24.531" y1="35.0464" x2="29.5976" y2="31.917" gradientUnits="userSpaceOnUse">
<stop stop-color="#1B4E94"/>
<stop offset="0.63" stop-color="#1A5497"/>
<stop offset="1" stop-color="#195A9B"/>
</linearGradient>
<clipPath id="clip0_44_8863">
<rect width="23.617" height="23.617" fill="white" transform="translate(13.5771 13.5771)"/>
</clipPath>
</defs>
</svg>
