<svg width="58" height="66" viewBox="0 0 58 66" fill="none" xmlns="http://www.w3.org/2000/svg">
<rect x="4.5" y="0.5" width="49" height="49" rx="9.5" fill="white" stroke="#E6E6E6"/>
<g clip-path="url(#clip0_44_8880)">
<path d="M18.2393 14.2383H39.4639V35.4631H18.2393V14.2383Z" fill="#F0DB4F"/>
<path d="M37.7266 30.4012C37.5711 29.4329 36.9397 28.6196 35.0694 27.8612C34.4197 27.5626 33.6954 27.3488 33.4796 26.8564C33.4029 26.5699 33.3928 26.4085 33.4413 26.235C33.5805 25.6721 34.2524 25.4967 34.7849 25.6581C35.1279 25.773 35.4526 26.0373 35.6484 26.459C36.5643 25.8659 36.5625 25.8698 37.202 25.4622C36.9679 25.0992 36.8429 24.9317 36.6896 24.7764C36.1388 24.1611 35.3882 23.8442 34.1878 23.8685L33.5625 23.9494C32.9633 24.1008 32.3923 24.4153 32.0574 24.8369C31.0527 25.977 31.3392 27.9722 32.5618 28.7933C33.7663 29.6974 35.5357 29.903 35.7617 30.7484C35.9816 31.7833 35.0011 32.1183 34.0265 31.9993C33.3083 31.8499 32.9089 31.4849 32.477 30.8211C31.6822 31.2811 31.6822 31.2811 30.865 31.7511C31.0588 32.1748 31.2624 32.3666 31.5873 32.7336C33.1247 34.2931 36.9721 34.2165 37.6622 31.8561C37.6901 31.775 37.876 31.2345 37.7266 30.4012ZM29.7773 23.9934H27.7921L27.784 29.126C27.784 30.2175 27.8404 31.2182 27.6629 31.5249C27.3725 32.1282 26.6198 32.0534 26.2768 31.9364C25.9277 31.7648 25.7502 31.5209 25.5446 31.176C25.4881 31.077 25.4457 31.0003 25.4315 30.9944L23.8174 31.9829C24.0858 32.5337 24.4812 33.0119 24.9876 33.3225C25.7441 33.7765 26.7609 33.9157 27.8243 33.6716C28.5164 33.47 29.1135 33.0524 29.4262 32.4167C29.8782 31.5834 29.7812 30.5748 29.7772 29.4592C29.7873 27.6391 29.7773 25.8193 29.7773 23.9934Z" fill="#323330"/>
</g>
<path d="M7.11711 54.5156V60.5742C7.11711 61.1094 7.0175 61.5684 6.81828 61.9512C6.61906 62.3301 6.33586 62.6191 5.96867 62.8184C5.60148 63.0176 5.1718 63.1172 4.67961 63.1172C4.21086 63.1172 3.79289 63.0312 3.4257 62.8594C3.05852 62.6875 2.77141 62.4414 2.56437 62.1211C2.35734 61.8008 2.25383 61.4258 2.25383 60.9961H3.2968C3.2968 61.2305 3.35539 61.4375 3.47258 61.6172C3.59367 61.7969 3.75773 61.9355 3.96477 62.0332C4.1757 62.1309 4.41398 62.1797 4.67961 62.1797C5.12102 62.1797 5.45891 62.043 5.69328 61.7695C5.93156 61.4961 6.0507 61.0977 6.0507 60.5742V54.5156H7.11711ZM8.31852 61.1953C8.31852 60.5352 8.54313 60.0703 8.99234 59.8008C9.44547 59.5312 10.0177 59.3711 10.7091 59.3203C10.9748 59.3008 11.2716 59.2832 11.5998 59.2676C11.9318 59.248 12.2091 59.2344 12.4318 59.2266V58.7109C12.4318 58.3008 12.3088 57.9863 12.0627 57.7676C11.8205 57.5449 11.463 57.4336 10.9904 57.4336C10.6037 57.4336 10.2873 57.5137 10.0412 57.6738C9.79508 57.8301 9.63492 58.0352 9.5607 58.2891H8.50602C8.54898 57.9492 8.6818 57.6484 8.90445 57.3867C9.12711 57.125 9.42203 56.9219 9.78922 56.7773C10.1603 56.6289 10.5763 56.5547 11.0373 56.5547C11.6466 56.5547 12.1974 56.7109 12.6896 57.0234C13.1818 57.332 13.4279 57.9258 13.4279 58.8047V63H12.4318V62.1328H12.3849C12.3068 62.2969 12.1857 62.457 12.0216 62.6133C11.8615 62.7656 11.6505 62.8945 11.3888 63C11.131 63.1016 10.8302 63.1523 10.4865 63.1523C10.0802 63.1523 9.71305 63.0742 9.38492 62.918C9.0568 62.7617 8.79703 62.5371 8.60563 62.2441C8.41422 61.9473 8.31852 61.5977 8.31852 61.1953ZM9.32633 61.2422C9.32633 61.5664 9.44742 61.8164 9.68961 61.9922C9.9357 62.1641 10.2599 62.25 10.6623 62.25C11.0255 62.25 11.34 62.1777 11.6056 62.0332C11.8752 61.8887 12.0802 61.6973 12.2209 61.459C12.3615 61.2207 12.4318 60.9648 12.4318 60.6914V60.0527C12.338 60.0566 12.0802 60.0742 11.6584 60.1055L10.8263 60.1641C10.3498 60.1953 9.98063 60.2988 9.71891 60.4746C9.45719 60.6504 9.32633 60.9062 9.32633 61.2422ZM17.4535 63H16.4105L14.0668 56.6367H15.1684L16.9027 61.6875H16.973L18.7074 56.6367H19.809L17.4535 63ZM20.1784 61.1953C20.1784 60.5352 20.403 60.0703 20.8522 59.8008C21.3053 59.5312 21.8776 59.3711 22.569 59.3203C22.8346 59.3008 23.1315 59.2832 23.4596 59.2676C23.7916 59.248 24.069 59.2344 24.2916 59.2266V58.7109C24.2916 58.3008 24.1686 57.9863 23.9225 57.7676C23.6803 57.5449 23.3229 57.4336 22.8502 57.4336C22.4635 57.4336 22.1471 57.5137 21.901 57.6738C21.6549 57.8301 21.4948 58.0352 21.4205 58.2891H20.3659C20.4088 57.9492 20.5416 57.6484 20.7643 57.3867C20.987 57.125 21.2819 56.9219 21.6491 56.7773C22.0202 56.6289 22.4362 56.5547 22.8971 56.5547C23.5065 56.5547 24.0573 56.7109 24.5495 57.0234C25.0416 57.332 25.2877 57.9258 25.2877 58.8047V63H24.2916V62.1328H24.2448C24.1666 62.2969 24.0455 62.457 23.8815 62.6133C23.7213 62.7656 23.5104 62.8945 23.2487 63C22.9909 63.1016 22.6901 63.1523 22.3463 63.1523C21.9401 63.1523 21.5729 63.0742 21.2448 62.918C20.9166 62.7617 20.6569 62.5371 20.4655 62.2441C20.2741 61.9473 20.1784 61.5977 20.1784 61.1953ZM21.1862 61.2422C21.1862 61.5664 21.3073 61.8164 21.5495 61.9922C21.7955 62.1641 22.1198 62.25 22.5221 62.25C22.8854 62.25 23.1998 62.1777 23.4655 62.0332C23.735 61.8887 23.9401 61.6973 24.0807 61.459C24.2213 61.2207 24.2916 60.9648 24.2916 60.6914V60.0527C24.1979 60.0566 23.9401 60.0742 23.5182 60.1055L22.6862 60.1641C22.2096 60.1953 21.8405 60.2988 21.5788 60.4746C21.317 60.6504 21.1862 60.9062 21.1862 61.2422ZM31.4227 56.6484C31.3915 56.375 31.2919 56.1406 31.1239 55.9453C30.9598 55.7461 30.7411 55.5957 30.4677 55.4941C30.1942 55.3887 29.8876 55.3359 29.5477 55.3359C29.1805 55.3359 28.8544 55.3965 28.5692 55.5176C28.288 55.6348 28.0692 55.7988 27.913 56.0098C27.7606 56.2207 27.6845 56.4609 27.6845 56.7305C27.6845 57.1211 27.8427 57.4199 28.1591 57.627C28.4794 57.834 28.868 57.9961 29.3251 58.1133L30.1688 58.3477C30.8251 58.5156 31.3895 58.7754 31.8622 59.127C32.3348 59.4746 32.5712 59.9961 32.5712 60.6914C32.5712 61.1562 32.4481 61.5762 32.202 61.9512C31.9598 62.3223 31.6063 62.6152 31.1415 62.8301C30.6805 63.0449 30.1298 63.1523 29.4891 63.1523C28.8876 63.1523 28.3622 63.0547 27.913 62.8594C27.4638 62.6641 27.1122 62.3887 26.8583 62.0332C26.6044 61.6777 26.4618 61.2656 26.4305 60.7969H27.5087C27.5399 61.1016 27.6473 61.3594 27.8309 61.5703C28.0145 61.7773 28.2489 61.9336 28.5341 62.0391C28.8231 62.1406 29.1415 62.1914 29.4891 62.1914C29.8798 62.1914 30.2294 62.1289 30.538 62.0039C30.8505 61.8789 31.0946 61.7012 31.2704 61.4707C31.4501 61.2363 31.5399 60.9688 31.5399 60.668C31.5399 60.4102 31.4657 60.1934 31.3173 60.0176C31.1727 59.8418 30.9813 59.6992 30.743 59.5898C30.5087 59.4805 30.2157 59.375 29.8641 59.2734L28.8212 58.9922C28.1259 58.7891 27.5927 58.5078 27.2216 58.1484C26.8505 57.7891 26.6649 57.332 26.6649 56.7773C26.6649 56.3125 26.7919 55.9004 27.0458 55.541C27.3036 55.1777 27.6532 54.8965 28.0946 54.6973C28.5399 54.498 29.036 54.3984 29.5829 54.3984C30.122 54.3984 30.6063 54.4961 31.036 54.6914C31.4657 54.8867 31.8055 55.1562 32.0555 55.5C32.3055 55.8398 32.4384 56.2227 32.454 56.6484H31.4227ZM36.3155 63.1289C35.7257 63.1289 35.2101 62.9902 34.7687 62.7129C34.3312 62.4316 33.9952 62.043 33.7609 61.5469C33.5265 61.0508 33.4093 60.4844 33.4093 59.8477C33.4093 59.207 33.5284 58.6387 33.7667 58.1426C34.0089 57.6426 34.3468 57.2539 34.7804 56.9766C35.2179 56.6953 35.7218 56.5547 36.2921 56.5547C36.7413 56.5547 37.1476 56.6387 37.5109 56.8066C37.8741 56.9707 38.1691 57.2051 38.3956 57.5098C38.6261 57.8105 38.7687 58.1602 38.8234 58.5586H37.8155C37.7687 58.3555 37.6788 58.1699 37.546 58.002C37.4132 57.834 37.2413 57.6992 37.0304 57.5977C36.8234 57.4961 36.5851 57.4453 36.3155 57.4453C35.9405 57.4453 35.6085 57.543 35.3195 57.7383C35.0343 57.9336 34.8116 58.2109 34.6515 58.5703C34.4952 58.9258 34.4171 59.3398 34.4171 59.8125C34.4171 60.3008 34.4933 60.7266 34.6456 61.0898C34.8019 61.4531 35.0226 61.7344 35.3077 61.9336C35.5968 62.1289 35.9327 62.2266 36.3155 62.2266C36.6945 62.2266 37.0167 62.1309 37.2823 61.9395C37.5519 61.7441 37.7296 61.4727 37.8155 61.125H38.8234C38.7687 61.5078 38.632 61.8516 38.4132 62.1562C38.1945 62.457 37.9054 62.6953 37.546 62.8711C37.1866 63.043 36.7765 63.1289 36.3155 63.1289ZM39.8255 56.6367H40.7982V57.6094H40.8685C40.9857 57.2852 41.1947 57.0254 41.4955 56.8301C41.7962 56.6309 42.1341 56.5312 42.5091 56.5312C42.7045 56.5312 42.8802 56.5391 43.0365 56.5547V57.5742C42.9935 57.5586 42.9095 57.543 42.7845 57.5273C42.6634 57.5117 42.5443 57.5039 42.4271 57.5039C42.1263 57.5039 41.8548 57.5684 41.6127 57.6973C41.3705 57.8262 41.1791 58.0039 41.0384 58.2305C40.9017 58.457 40.8334 58.7109 40.8334 58.9922V63H39.8255V56.6367ZM43.7809 56.6367H44.7887V63H43.7809V56.6367ZM44.2848 55.582C44.0895 55.582 43.9234 55.5176 43.7867 55.3887C43.65 55.2598 43.5816 55.1016 43.5816 54.9141C43.5816 54.7266 43.65 54.5684 43.7867 54.4395C43.9234 54.3105 44.0895 54.2461 44.2848 54.2461C44.4801 54.2461 44.648 54.3105 44.7887 54.4395C44.9293 54.5684 44.9996 54.7266 44.9996 54.9141C44.9996 55.1016 44.9293 55.2598 44.7887 55.3887C44.648 55.5176 44.4801 55.582 44.2848 55.582ZM46.1541 56.6367H47.1268V57.6445H47.244C47.369 57.4414 47.4901 57.2715 47.6073 57.1348C47.7245 56.9941 47.9061 56.8633 48.1522 56.7422C48.3983 56.6172 48.7088 56.5547 49.0838 56.5547C49.6151 56.5547 50.0838 56.6895 50.4901 56.959C50.9002 57.2246 51.2186 57.6055 51.4452 58.1016C51.6756 58.5977 51.7909 59.1758 51.7909 59.8359C51.7909 60.4961 51.6756 61.0762 51.4452 61.5762C51.2186 62.0723 50.9002 62.4551 50.4901 62.7246C50.0838 62.9941 49.619 63.1289 49.0956 63.1289C48.7245 63.1289 48.4139 63.0684 48.1639 62.9473C47.9178 62.8223 47.7323 62.6875 47.6073 62.543C47.4823 62.3945 47.3612 62.2227 47.244 62.0273H47.162V65.3906H46.1541V56.6367ZM47.1385 59.8125C47.1385 60.293 47.2088 60.7148 47.3495 61.0781C47.4901 61.4414 47.6971 61.7246 47.9706 61.9277C48.244 62.127 48.5721 62.2266 48.9549 62.2266C49.3456 62.2266 49.6776 62.123 49.951 61.916C50.2284 61.7051 50.4354 61.418 50.5721 61.0547C50.7127 60.6875 50.7831 60.2734 50.7831 59.8125C50.7831 59.3633 50.7127 58.9609 50.5721 58.6055C50.4354 58.25 50.2303 57.9707 49.9569 57.7676C49.6834 57.5605 49.3495 57.457 48.9549 57.457C48.5643 57.457 48.2323 57.5547 47.9588 57.75C47.6893 57.9453 47.4842 58.2207 47.3436 58.5762C47.2069 58.9277 47.1385 59.3398 47.1385 59.8125ZM55.6407 57.4805H54.3048V61.1719C54.3048 61.5469 54.379 61.7988 54.5274 61.9277C54.6759 62.0566 54.879 62.1211 55.1368 62.1211C55.3321 62.1211 55.5313 62.1133 55.7345 62.0977V63.0352C55.5313 63.0664 55.297 63.082 55.0313 63.082C54.7345 63.082 54.4532 63.0215 54.1876 62.9004C53.922 62.7754 53.7052 62.5879 53.5372 62.3379C53.3692 62.0879 53.2852 61.7852 53.2852 61.4297V57.4805H52.3243V56.6367H53.2852V55.1133H54.3048V56.6367H55.6407V57.4805Z" fill="#999999"/>
<defs>
<clipPath id="clip0_44_8880">
<rect width="21.7021" height="21.7021" fill="white" transform="translate(18 14)"/>
</clipPath>
</defs>
</svg>
