<svg width="50" height="50" viewBox="0 0 50 50" fill="none" xmlns="http://www.w3.org/2000/svg">
<path d="M17.906 31.8077C17.906 35.5692 14.8568 38.6184 11.0953 38.6184C7.33391 38.6184 4.28467 35.5692 4.28467 31.8077C4.28467 28.0463 7.33391 24.9971 11.0953 24.9971C14.8568 24.9971 17.906 28.0463 17.906 31.8077Z" fill="#FF9C27"/>
<path d="M45.7141 31.8077C45.7141 35.5692 42.6649 38.6184 38.9034 38.6184C35.142 38.6184 32.0928 35.5692 32.0928 31.8077C32.0928 28.0463 35.142 24.9971 38.9034 24.9971C42.6649 24.9971 45.7141 28.0463 45.7141 31.8077Z" fill="#FF9C27"/>
<path d="M42.1417 27.8569C42.1417 36.5356 34.4666 43.5711 24.9988 43.5711C15.5311 43.5711 7.85596 36.5356 7.85596 27.8569C7.85596 19.1781 15.5311 12.1426 24.9988 12.1426C34.4666 12.1426 42.1417 19.1781 42.1417 27.8569Z" fill="#FFBA68"/>
<mask id="mask0_133_49407" style="mask-type:alpha" maskUnits="userSpaceOnUse" x="7" y="12" width="36" height="32">
<path d="M42.1417 27.8569C42.1417 36.5356 34.4666 43.5711 24.9988 43.5711C15.5311 43.5711 7.85596 36.5356 7.85596 27.8569C7.85596 19.1781 15.5311 12.1426 24.9988 12.1426C34.4666 12.1426 42.1417 19.1781 42.1417 27.8569Z" fill="#FFAB49"/>
</mask>
<g mask="url(#mask0_133_49407)">
<path d="M19.2849 35.9297C19.2849 39.5994 16.2892 42.5743 12.5939 42.5743C8.8985 42.5743 5.90283 39.5994 5.90283 35.9297C5.90283 32.26 8.8985 29.2852 12.5939 29.2852C16.2892 29.2852 19.2849 32.26 19.2849 35.9297Z" fill="#FF9A24"/>
<path d="M44.0949 35.9297C44.0949 39.5994 41.0993 42.5743 37.4039 42.5743C33.7086 42.5743 30.7129 39.5994 30.7129 35.9297C30.7129 32.26 33.7086 29.2852 37.4039 29.2852C41.0993 29.2852 44.0949 32.26 44.0949 35.9297Z" fill="#FF9A24"/>
</g>
<path d="M25.7132 32.8539C25.7132 33.2484 25.3934 33.5682 24.999 33.5682C24.6045 33.5682 24.2847 33.2484 24.2847 32.8539C24.2847 32.4594 24.6045 32.1396 24.999 32.1396C25.3934 32.1396 25.7132 32.4594 25.7132 32.8539Z" fill="black"/>
<path d="M28.1879 30.8873C27.8037 30.4263 27.516 29.871 27.3406 29.2668C27.1206 28.5091 27.7814 27.8569 28.5704 27.8569L32.8561 27.8569C33.6451 27.8569 34.3058 28.5091 34.0859 29.2668C33.9104 29.871 33.6228 30.4263 33.2386 30.8873C32.5688 31.691 31.6604 32.1426 30.7132 32.1426C29.766 32.1426 28.8576 31.691 28.1879 30.8873Z" fill="white"/>
<path d="M16.7591 30.8873C16.375 30.4263 16.0873 29.871 15.9119 29.2668C15.6919 28.5091 16.3527 27.8569 17.1417 27.8569L21.4274 27.8569C22.2164 27.8569 22.8771 28.5091 22.6572 29.2668C22.4817 29.871 22.1941 30.4263 21.8099 30.8873C21.1401 31.691 20.2317 32.1426 19.2845 32.1426C18.3373 32.1426 17.4289 31.691 16.7591 30.8873Z" fill="white"/>
<path fill-rule="evenodd" clip-rule="evenodd" d="M19.5727 36.6868C19.7169 36.9223 20.0247 36.9963 20.2602 36.8521L21.2597 36.2402C21.9344 35.8271 22.7776 35.8028 23.4749 36.1764C24.427 36.6865 25.5712 36.6865 26.5233 36.1764C27.2206 35.8028 28.0638 35.8271 28.7385 36.2402L29.738 36.8521C29.9735 36.9963 30.2813 36.9223 30.4255 36.6868C30.5697 36.4513 30.4957 36.1435 30.2602 35.9993L29.2606 35.3873C28.2831 34.7888 27.0614 34.7537 26.0511 35.2949C25.3939 35.647 24.6043 35.647 23.9471 35.2949C22.9367 34.7537 21.7151 34.7888 20.7375 35.3873L19.738 35.9993C19.5025 36.1435 19.4285 36.4513 19.5727 36.6868Z" fill="#A75A00"/>
<path d="M20.7131 29.285C20.7131 30.074 20.0735 30.7136 19.2845 30.7136C18.4956 30.7136 17.856 30.074 17.856 29.285C17.856 28.496 18.4956 27.8564 19.2845 27.8564C20.0735 27.8564 20.7131 28.496 20.7131 29.285Z" fill="black"/>
<path d="M32.1418 29.285C32.1418 30.074 31.5022 30.7136 30.7132 30.7136C29.9243 30.7136 29.2847 30.074 29.2847 29.285C29.2847 28.496 29.9243 27.8564 30.7132 27.8564C31.5022 27.8564 32.1418 28.496 32.1418 29.285Z" fill="black"/>
<path fill-rule="evenodd" clip-rule="evenodd" d="M16.0703 25.714C16.0703 25.1223 16.55 24.6426 17.1417 24.6426H21.4275C22.0192 24.6426 22.4989 25.1223 22.4989 25.714C22.4989 26.3057 22.0192 26.7854 21.4275 26.7854H17.1417C16.55 26.7854 16.0703 26.3057 16.0703 25.714Z" fill="#905A09"/>
<path fill-rule="evenodd" clip-rule="evenodd" d="M27.499 25.714C27.499 25.1223 27.9787 24.6426 28.5705 24.6426H32.8562C33.4479 24.6426 33.9276 25.1223 33.9276 25.714C33.9276 26.3057 33.4479 26.7854 32.8562 26.7854H28.5705C27.9787 26.7854 27.499 26.3057 27.499 25.714Z" fill="#905A09"/>
<path d="M18.3437 10.534C4.26996 9.27207 5.45695 21.9655 8.01706 25.7138L17.0844 23.3992L18.9677 17.5209C20.2004 24.6507 17.9276 24.0107 42.4119 25.714C49.4909 7.2032 21.9674 3.34961 18.3437 10.534Z" fill="#6B4D20"/>
</svg>
