<svg width="50" height="50" viewBox="0 0 50 50" fill="none" xmlns="http://www.w3.org/2000/svg">
<path d="M17.9065 33.9532C17.9065 37.7147 14.8573 40.7639 11.0958 40.7639C7.3344 40.7639 4.28516 37.7147 4.28516 33.9532C4.28516 30.1918 7.3344 27.1426 11.0958 27.1426C14.8573 27.1426 17.9065 30.1918 17.9065 33.9532Z" fill="#A66ABB"/>
<path d="M45.7146 33.9532C45.7146 37.7147 42.6654 40.7639 38.9039 40.7639C35.1425 40.7639 32.0933 37.7147 32.0933 33.9532C32.0933 30.1918 35.1425 27.1426 38.9039 27.1426C42.6654 27.1426 45.7146 30.1918 45.7146 33.9532Z" fill="#A66ABB"/>
<path d="M42.1422 30.0024C42.1422 38.6811 34.467 45.7167 24.9993 45.7167C15.5316 45.7167 7.85645 38.6811 7.85645 30.0024C7.85645 21.3236 15.5316 14.2881 24.9993 14.2881C34.467 14.2881 42.1422 21.3236 42.1422 30.0024Z" fill="#C6AAD0"/>
<mask id="mask0_133_49411" style="mask-type:alpha" maskUnits="userSpaceOnUse" x="7" y="14" width="36" height="32">
<path d="M42.1422 29.9994C42.1422 38.6782 34.467 45.7137 24.9993 45.7137C15.5316 45.7137 7.85645 38.6782 7.85645 29.9994C7.85645 21.3207 15.5316 14.2852 24.9993 14.2852C34.467 14.2852 42.1422 21.3207 42.1422 29.9994Z" fill="#FFAB49"/>
</mask>
<g mask="url(#mask0_133_49411)">
<path d="M19.0808 38.0723C19.0808 41.742 16.0851 44.7168 12.3898 44.7168C8.6944 44.7168 5.69873 41.742 5.69873 38.0723C5.69873 34.4026 8.6944 31.4277 12.3898 31.4277C16.0851 31.4277 19.0808 34.4026 19.0808 38.0723Z" fill="#BF92CF"/>
<path d="M44.0236 38.0723C44.0236 41.742 41.028 44.7168 37.3326 44.7168C33.6373 44.7168 30.6416 41.742 30.6416 38.0723C30.6416 34.4026 33.6373 31.4277 37.3326 31.4277C41.028 31.4277 44.0236 34.4026 44.0236 38.0723Z" fill="#BF92CF"/>
<path fill-rule="evenodd" clip-rule="evenodd" d="M26.858 39.5464C27.0818 39.1387 27.1289 38.6517 26.9968 38.1918C26.8648 37.732 26.5616 37.3273 26.1468 37.0698C25.7309 36.8116 25.2357 36.7226 24.7712 36.8319C24.5024 36.8951 24.3462 37.1615 24.4224 37.4269C24.4987 37.6923 24.7783 37.8562 25.0472 37.793C25.2363 37.7485 25.4456 37.7826 25.6302 37.8972C25.8159 38.0124 25.9599 38.1997 26.0234 38.4207C26.0869 38.6418 26.0618 38.8688 25.9616 39.0513C25.862 39.2327 25.6975 39.3547 25.5084 39.3992C25.2396 39.4624 25.0834 39.7288 25.1596 39.9942C25.2358 40.2596 25.5155 40.4236 25.7844 40.3603C26.2489 40.2511 26.6336 39.9551 26.858 39.5464Z" fill="#A75A00"/>
</g>
<path d="M25.7137 34.9994C25.7137 35.3939 25.3939 35.7137 24.9994 35.7137C24.605 35.7137 24.2852 35.3939 24.2852 34.9994C24.2852 34.605 24.605 34.2852 24.9994 34.2852C25.3939 34.2852 25.7137 34.605 25.7137 34.9994Z" fill="black"/>
<path d="M22.8574 32.1423C22.8574 33.7203 21.5782 34.9994 20.0002 34.9994C18.4223 34.9994 17.1431 33.7203 17.1431 32.1423C17.1431 30.5643 18.4223 29.2852 20.0002 29.2852C21.5782 29.2852 22.8574 30.5643 22.8574 32.1423Z" fill="white"/>
<path d="M21.4284 32.1424C21.4284 32.9314 20.7888 33.571 19.9999 33.571C19.2109 33.571 18.5713 32.9314 18.5713 32.1424C18.5713 31.3535 19.2109 30.7139 19.9999 30.7139C20.7888 30.7139 21.4284 31.3535 21.4284 32.1424Z" fill="black"/>
<path d="M32.8569 32.1423C32.8569 33.7203 31.5777 34.9994 29.9997 34.9994C28.4218 34.9994 27.1426 33.7203 27.1426 32.1423C27.1426 30.5643 28.4218 29.2852 29.9997 29.2852C31.5777 29.2852 32.8569 30.5643 32.8569 32.1423Z" fill="white"/>
<path d="M31.4284 32.1424C31.4284 32.9314 30.7888 33.571 29.9999 33.571C29.2109 33.571 28.5713 32.9314 28.5713 32.1424C28.5713 31.3535 29.2109 30.7139 29.9999 30.7139C30.7888 30.7139 31.4284 31.3535 31.4284 32.1424Z" fill="black"/>
<path fill-rule="evenodd" clip-rule="evenodd" d="M21.8031 28.1087C21.7415 28.3778 21.4733 28.5461 21.2041 28.4844L16.9689 27.5146C16.6998 27.4529 16.5315 27.1847 16.5932 26.9156C16.6548 26.6464 16.923 26.4781 17.1922 26.5398L21.4274 27.5097C21.6965 27.5713 21.8648 27.8395 21.8031 28.1087Z" fill="#905A09"/>
<path fill-rule="evenodd" clip-rule="evenodd" d="M27.9356 28.1087C27.9973 28.3778 28.2655 28.5461 28.5346 28.4844L32.7698 27.5146C33.039 27.4529 33.2072 27.1847 33.1456 26.9156C33.084 26.6464 32.8158 26.4781 32.5466 26.5398L28.3114 27.5097C28.0422 27.5713 27.874 27.8395 27.9356 28.1087Z" fill="#905A09"/>
<path fill-rule="evenodd" clip-rule="evenodd" d="M27.1539 11.5253C24.9778 10.2569 22.2314 7.95429 20.1976 4.07169C19.2244 2.21371 16.7263 5.84394 17.0391 9.79425C16.1779 8.77764 15.3492 7.58022 14.6138 6.17618C13.3646 3.79135 9.60312 10.4485 12.4982 15.2186C8.7688 17.8798 6.42822 21.715 6.42822 25.9784C6.42822 28.4666 7.22537 30.8088 8.63049 32.857C8.93495 32.0597 9.32446 31.2929 9.7904 30.5634C9.76885 31.245 10.2623 31.8064 10.9748 31.8615L12.6043 31.9877C13.3909 32.0486 14.1467 31.4694 14.2923 30.694L15.2687 25.4953C18.0653 23.9117 21.4652 22.9832 25.1319 22.9832C28.4534 22.9832 31.556 23.7451 34.1895 25.0657L35.2466 30.694C35.3922 31.4694 36.148 32.0486 36.9346 31.9877L38.5641 31.8615C39.3508 31.8006 39.8704 31.1227 39.7247 30.3472L39.5184 29.2487C40.3643 30.2807 41.0467 31.4088 41.5353 32.6085C42.8367 30.6202 43.5711 28.3665 43.5711 25.9784C43.5711 18.5136 36.3958 12.3617 27.1539 11.5253Z" fill="#337AFF"/>
</svg>
