<svg width="50" height="50" viewBox="0 0 50 50" fill="none" xmlns="http://www.w3.org/2000/svg">
<path d="M16.8737 31.4012C16.8737 35.3507 13.672 38.5524 9.72249 38.5524C5.77299 38.5524 2.57129 35.3507 2.57129 31.4012C2.57129 27.4517 5.77299 24.25 9.72249 24.25C13.672 24.25 16.8737 27.4517 16.8737 31.4012Z" fill="#FF9C27"/>
<path d="M46.0719 31.4012C46.0719 35.3507 42.8702 38.5524 38.9207 38.5524C34.9712 38.5524 31.7695 35.3507 31.7695 31.4012C31.7695 27.4517 34.9712 24.25 38.9207 24.25C42.8702 24.25 46.0719 27.4517 46.0719 31.4012Z" fill="#FF9C27"/>
<path d="M42.3213 27.2529C42.3213 36.3656 34.2624 43.7529 24.3213 43.7529C14.3802 43.7529 6.32129 36.3656 6.32129 27.2529C6.32129 18.1402 14.3802 10.7529 24.3213 10.7529C34.2624 10.7529 42.3213 18.1402 42.3213 27.2529Z" fill="#FFBA68"/>
<mask id="mask0_42_6691" style="mask-type:alpha" maskUnits="userSpaceOnUse" x="6" y="10" width="37" height="34">
<path d="M42.3213 27.25C42.3213 36.3627 34.2624 43.75 24.3213 43.75C14.3802 43.75 6.32129 36.3627 6.32129 27.25C6.32129 18.1373 14.3802 10.75 24.3213 10.75C34.2624 10.75 42.3213 18.1373 42.3213 27.25Z" fill="#FFAB49"/>
</mask>
<g mask="url(#mask0_42_6691)">
<path d="M18.1068 35.7268C18.1068 39.58 14.9614 42.7036 11.0812 42.7036C7.20112 42.7036 4.05566 39.58 4.05566 35.7268C4.05566 31.8736 7.20112 28.75 11.0812 28.75C14.9614 28.75 18.1068 31.8736 18.1068 35.7268Z" fill="#FF9A24"/>
<path d="M44.2972 35.7268C44.2972 39.58 41.1518 42.7036 37.2717 42.7036C33.3915 42.7036 30.2461 39.58 30.2461 35.7268C30.2461 31.8736 33.3915 28.75 37.2717 28.75C41.1518 28.75 44.2972 31.8736 44.2972 35.7268Z" fill="#FF9A24"/>
</g>
<path d="M25.0713 32.5C25.0713 32.9142 24.7355 33.25 24.3213 33.25C23.9071 33.25 23.5713 32.9142 23.5713 32.5C23.5713 32.0858 23.9071 31.75 24.3213 31.75C24.7355 31.75 25.0713 32.0858 25.0713 32.5Z" fill="black"/>
<path d="M25.8213 35.5C25.8213 36.3285 25.1497 37 24.3213 37C23.4929 37 22.8213 36.3285 22.8213 35.5C22.8213 34.6716 23.4929 34 24.3213 34C25.1497 34 25.8213 34.6716 25.8213 35.5Z" fill="#E16037"/>
<path fill-rule="evenodd" clip-rule="evenodd" d="M19.0303 24.625C19.2374 24.625 19.4053 24.7929 19.4053 25V26.05C19.4053 26.2571 19.2374 26.425 19.0303 26.425C18.8232 26.425 18.6553 26.2571 18.6553 26.05V25C18.6553 24.7929 18.8232 24.625 19.0303 24.625Z" fill="#905A09"/>
<path fill-rule="evenodd" clip-rule="evenodd" d="M21.4408 25.7889C21.6153 25.9005 21.6662 26.1325 21.5546 26.3069L20.956 27.2423C20.8444 27.4168 20.6125 27.4677 20.438 27.3561C20.2636 27.2444 20.2127 27.0125 20.3243 26.8381L20.9228 25.9027C21.0345 25.7282 21.2664 25.6773 21.4408 25.7889Z" fill="#905A09"/>
<path fill-rule="evenodd" clip-rule="evenodd" d="M16.8736 25.7889C16.6992 25.9005 16.6483 26.1325 16.7599 26.3069L17.3584 27.2423C17.4701 27.4168 17.702 27.4677 17.8764 27.3561C18.0509 27.2444 18.1018 27.0125 17.9902 26.8381L17.3916 25.9027C17.28 25.7282 17.0481 25.6773 16.8736 25.7889Z" fill="#905A09"/>
<path d="M16.8203 28C16.8203 26.7574 17.8277 25.75 19.0703 25.75C20.313 25.75 21.3203 26.7574 21.3203 28V30.25C21.3203 31.4926 20.313 32.5 19.0703 32.5C17.8277 32.5 16.8203 31.4926 16.8203 30.25V28Z" fill="#B67310"/>
<path d="M19.0005 27.4406C19.0246 27.3753 19.117 27.3753 19.1411 27.4406L19.6665 28.8604C19.6741 28.881 19.6903 28.8972 19.7108 28.9047L21.1307 29.4301C21.196 29.4543 21.196 29.5467 21.1307 29.5708L19.7108 30.0962C19.6903 30.1038 19.6741 30.12 19.6665 30.1405L19.1411 31.5604C19.117 31.6257 19.0246 31.6257 19.0005 31.5604L18.4751 30.1405C18.4675 30.12 18.4513 30.1038 18.4308 30.0962L17.0109 29.5708C16.9456 29.5467 16.9456 29.4543 17.0109 29.4301L18.4308 28.9047C18.4513 28.8972 18.4675 28.881 18.4751 28.8604L19.0005 27.4406Z" fill="white"/>
<path fill-rule="evenodd" clip-rule="evenodd" d="M21.0954 27.1537C19.4851 25.9386 17.7294 26.6389 17.0472 27.1537C16.8819 27.2785 16.6467 27.2456 16.522 27.0803C16.3972 26.915 16.4301 26.6798 16.5954 26.5551C17.4132 25.9379 19.5575 25.0536 21.5472 26.5551C21.7125 26.6798 21.7454 26.915 21.6206 27.0803C21.4959 27.2456 21.2607 27.2785 21.0954 27.1537Z" fill="#905A09"/>
<path fill-rule="evenodd" clip-rule="evenodd" d="M29.7051 24.625C29.9122 24.625 30.0801 24.7929 30.0801 25V26.05C30.0801 26.2571 29.9122 26.425 29.7051 26.425C29.498 26.425 29.3301 26.2571 29.3301 26.05V25C29.3301 24.7929 29.498 24.625 29.7051 24.625Z" fill="#905A09"/>
<path fill-rule="evenodd" clip-rule="evenodd" d="M32.1156 25.7889C32.2901 25.9005 32.341 26.1325 32.2294 26.3069L31.6308 27.2423C31.5192 27.4168 31.2873 27.4677 31.1128 27.3561C30.9384 27.2444 30.8875 27.0125 30.9991 26.8381L31.5976 25.9027C31.7093 25.7282 31.9412 25.6773 32.1156 25.7889Z" fill="#905A09"/>
<path fill-rule="evenodd" clip-rule="evenodd" d="M27.5484 25.7889C27.374 25.9005 27.3231 26.1325 27.4347 26.3069L28.0332 27.2423C28.1449 27.4168 28.3768 27.4677 28.5512 27.3561C28.7257 27.2444 28.7766 27.0125 28.665 26.8381L28.0664 25.9027C27.9548 25.7282 27.7229 25.6773 27.5484 25.7889Z" fill="#905A09"/>
<path d="M27.4951 28C27.4951 26.7574 28.5025 25.75 29.7451 25.75C30.9878 25.75 31.9951 26.7574 31.9951 28V30.25C31.9951 31.4926 30.9878 32.5 29.7451 32.5C28.5025 32.5 27.4951 31.4926 27.4951 30.25V28Z" fill="#B67310"/>
<path d="M29.6753 27.4406C29.6994 27.3753 29.7918 27.3753 29.8159 27.4406L30.3413 28.8604C30.3489 28.881 30.3651 28.8972 30.3856 28.9047L31.8055 29.4301C31.8708 29.4543 31.8708 29.5467 31.8055 29.5708L30.3856 30.0962C30.3651 30.1038 30.3489 30.12 30.3413 30.1405L29.8159 31.5604C29.7918 31.6257 29.6994 31.6257 29.6753 31.5604L29.1499 30.1405C29.1423 30.12 29.1261 30.1038 29.1056 30.0962L27.6857 29.5708C27.6204 29.5467 27.6204 29.4543 27.6857 29.4301L29.1056 28.9047C29.1261 28.8972 29.1423 28.881 29.1499 28.8604L29.6753 27.4406Z" fill="white"/>
<path fill-rule="evenodd" clip-rule="evenodd" d="M31.7702 27.1537C30.1599 25.9386 28.4042 26.6389 27.722 27.1537C27.5567 27.2785 27.3215 27.2456 27.1968 27.0803C27.072 26.915 27.1049 26.6798 27.2702 26.5551C28.088 25.9379 30.2323 25.0536 32.222 26.5551C32.3873 26.6798 32.4202 26.915 32.2954 27.0803C32.1707 27.2456 31.9355 27.2785 31.7702 27.1537Z" fill="#905A09"/>
<path fill-rule="evenodd" clip-rule="evenodd" d="M18.384 23.2972C17.8454 23.3776 17.4098 23.6573 17.1886 23.8744C16.9816 24.0774 16.6492 24.0742 16.4461 23.8672C16.2431 23.6603 16.2463 23.3279 16.4532 23.1248C16.8089 22.7759 17.4406 22.3764 18.229 22.2587C19.041 22.1375 19.9856 22.3215 20.9088 23.0978C21.1307 23.2844 21.1593 23.6156 20.9727 23.8375C20.7861 24.0594 20.4549 24.088 20.233 23.9014C19.5408 23.3193 18.8988 23.2204 18.384 23.2972Z" fill="#905A09"/>
<path fill-rule="evenodd" clip-rule="evenodd" d="M29.634 23.2972C29.0954 23.3776 28.6598 23.6573 28.4386 23.8744C28.2316 24.0774 27.8992 24.0742 27.6961 23.8672C27.4931 23.6603 27.4963 23.3279 27.7032 23.1248C28.0589 22.7759 28.6906 22.3764 29.479 22.2587C30.291 22.1375 31.2356 22.3215 32.1588 23.0978C32.3807 23.2844 32.4093 23.6156 32.2227 23.8375C32.0361 24.0594 31.7049 24.088 31.483 23.9014C30.7908 23.3193 30.1488 23.2204 29.634 23.2972Z" fill="#905A09"/>
<path fill-rule="evenodd" clip-rule="evenodd" d="M43.8213 22.2775C43.8213 24.785 43.0502 27.1514 41.6837 29.2391C41.1706 27.9793 40.4542 26.7948 39.566 25.7113L40.0595 28.339L35.3575 28.7031L33.9706 21.3191C31.2055 19.9325 27.9478 19.1325 24.4602 19.1325C20.6101 19.1325 17.0402 20.1075 14.1038 21.7702L12.8017 28.7031L8.09966 28.339L8.32654 27.1311C7.84837 27.8852 7.44789 28.6772 7.13367 29.5C5.65829 27.3494 4.82129 24.89 4.82129 22.2775C4.82129 13.84 13.5517 7 24.3213 7C35.0908 7 43.8213 13.84 43.8213 22.2775Z" fill="#B3B3B3"/>
</svg>
