<svg width="50" height="50" viewBox="0 0 50 50" fill="none" xmlns="http://www.w3.org/2000/svg">
<path d="M17.3024 32.4012C17.3024 36.3507 14.1007 39.5524 10.1512 39.5524C6.2017 39.5524 3 36.3507 3 32.4012C3 28.4517 6.2017 25.25 10.1512 25.25C14.1007 25.25 17.3024 28.4517 17.3024 32.4012Z" fill="#FF9C27"/>
<path d="M46.5006 32.4012C46.5006 36.3507 43.2989 39.5524 39.3494 39.5524C35.3999 39.5524 32.1982 36.3507 32.1982 32.4012C32.1982 28.4517 35.3999 25.25 39.3494 25.25C43.2989 25.25 46.5006 28.4517 46.5006 32.4012Z" fill="#FF9C27"/>
<path d="M42.75 28.2529C42.75 37.3656 34.6911 44.7529 24.75 44.7529C14.8089 44.7529 6.75 37.3656 6.75 28.2529C6.75 19.1402 14.8089 11.7529 24.75 11.7529C34.6911 11.7529 42.75 19.1402 42.75 28.2529Z" fill="#FFBA68"/>
<mask id="mask0_42_6688" style="mask-type:alpha" maskUnits="userSpaceOnUse" x="6" y="11" width="37" height="34">
<path d="M42.75 28.25C42.75 37.3627 34.6911 44.75 24.75 44.75C14.8089 44.75 6.75 37.3627 6.75 28.25C6.75 19.1373 14.8089 11.75 24.75 11.75C34.6911 11.75 42.75 19.1373 42.75 28.25Z" fill="#FFAB49"/>
</mask>
<g mask="url(#mask0_42_6688)">
<path d="M18.5355 36.7268C18.5355 40.58 15.3901 43.7036 11.5099 43.7036C7.62983 43.7036 4.48438 40.58 4.48438 36.7268C4.48438 32.8736 7.62983 29.75 11.5099 29.75C15.3901 29.75 18.5355 32.8736 18.5355 36.7268Z" fill="#FF9A24"/>
<path d="M44.7259 36.7268C44.7259 40.58 41.5805 43.7036 37.7004 43.7036C33.8203 43.7036 30.6748 40.58 30.6748 36.7268C30.6748 32.8736 33.8203 29.75 37.7004 29.75C41.5805 29.75 44.7259 32.8736 44.7259 36.7268Z" fill="#FF9A24"/>
</g>
<path d="M25.5 33.5C25.5 33.9142 25.1642 34.25 24.75 34.25C24.3358 34.25 24 33.9142 24 33.5C24 33.0858 24.3358 32.75 24.75 32.75C25.1642 32.75 25.5 33.0858 25.5 33.5Z" fill="black"/>
<path d="M21 30.5725C21 31.3609 20.3284 32 19.5 32C18.6716 32 18 31.3609 18 30.5725C18 29.7841 18.6716 29.145 19.5 29.145C20.3284 29.145 21 29.7841 21 30.5725Z" fill="black"/>
<path fill-rule="evenodd" clip-rule="evenodd" d="M20.2671 28.5323C20.4139 28.7928 20.3111 29.1173 20.0374 29.2571C19.8886 29.3331 19.6631 29.4886 19.5026 29.6827C19.3433 29.8756 19.2994 30.0383 19.335 30.1802C19.4073 30.4677 19.2209 30.7565 18.9187 30.8253C18.6166 30.894 18.3131 30.7166 18.2409 30.4291C18.0953 29.8498 18.3415 29.3559 18.6183 29.0209C18.8941 28.6872 19.2509 28.4437 19.5055 28.3137C19.7792 28.1739 20.1202 28.2718 20.2671 28.5323Z" fill="black"/>
<path d="M31.5 30.5725C31.5 31.3609 30.8284 32 30 32C29.1716 32 28.5 31.3609 28.5 30.5725C28.5 29.7841 29.1716 29.145 30 29.145C30.8284 29.145 31.5 29.7841 31.5 30.5725Z" fill="black"/>
<path fill-rule="evenodd" clip-rule="evenodd" d="M30.7671 28.5323C30.9139 28.7928 30.8111 29.1173 30.5374 29.2571C30.3886 29.3331 30.1631 29.4886 30.0026 29.6827C29.8433 29.8756 29.7994 30.0383 29.835 30.1802C29.9073 30.4677 29.7209 30.7565 29.4187 30.8253C29.1166 30.894 28.8131 30.7166 28.7409 30.4291C28.5953 29.8498 28.8415 29.3559 29.1183 29.0209C29.3941 28.6872 29.7509 28.4437 30.0055 28.3137C30.2792 28.1739 30.6202 28.2718 30.7671 28.5323Z" fill="black"/>
<path fill-rule="evenodd" clip-rule="evenodd" d="M20.6217 35.9636C23.3102 36.8012 26.1898 36.8012 28.8783 35.9636C29.1669 35.8737 29.3195 35.5912 29.2191 35.3327C29.1187 35.0741 28.8033 34.9374 28.5147 35.0274C26.063 35.7911 23.437 35.7911 20.9853 35.0274C20.6967 34.9374 20.3813 35.0741 20.2809 35.3327C20.1805 35.5912 20.3331 35.8737 20.6217 35.9636Z" fill="#A75A00"/>
<path fill-rule="evenodd" clip-rule="evenodd" d="M18.8127 26.5472C18.2742 26.6276 17.8385 26.9073 17.6173 27.1244C17.4103 27.3274 17.0779 27.3242 16.8748 27.1172C16.6718 26.9103 16.675 26.5779 16.882 26.3748C17.2376 26.0259 17.8693 25.6264 18.6577 25.5087C19.4697 25.3875 20.4144 25.5715 21.3375 26.3478C21.5594 26.5344 21.588 26.8656 21.4014 27.0875C21.2148 27.3094 20.8836 27.338 20.6617 27.1514C19.9695 26.5693 19.3276 26.4704 18.8127 26.5472Z" fill="#905A09"/>
<path fill-rule="evenodd" clip-rule="evenodd" d="M30.0627 26.5472C29.5242 26.6276 29.0885 26.9073 28.8673 27.1244C28.6603 27.3274 28.3279 27.3242 28.1248 27.1172C27.9218 26.9103 27.925 26.5779 28.132 26.3748C28.4876 26.0259 29.1193 25.6264 29.9077 25.5087C30.7197 25.3875 31.6644 25.5715 32.5875 26.3478C32.8094 26.5344 32.838 26.8656 32.6514 27.0875C32.4648 27.3094 32.1336 27.338 31.9117 27.1514C31.2195 26.5693 30.5776 26.4704 30.0627 26.5472Z" fill="#905A09"/>
<path d="M17.5427 7.69402C22.9538 9.84749 26.6478 3.615 36.3643 10.9834C39.0035 10.6613 36.3643 1.28848 40.2336 6.65534C43.329 10.9488 40.608 12.0981 38.9664 11.7519C45.4748 16.08 49.1688 30.1031 41.289 28.8153C31.7308 27.2532 35.3083 14.7922 32.8457 17.9084C30.383 21.0247 10.6861 30.429 6.63605 28.8153C3.78514 27.6793 3.78514 23.6974 6.63605 22.5828C6.28445 22.1788 4.34803 22.4856 3.78514 19.7156C3.22225 16.9456 9.5684 12.1376 12.2656 10.9834C12.2656 8.04027 11.8202 5.41667 17.5427 7.69402Z" fill="black"/>
</svg>
