<svg width="50" height="50" viewBox="0 0 50 50" fill="none" xmlns="http://www.w3.org/2000/svg">
<path d="M17.9075 31.8077C17.9075 35.5692 14.8582 38.6184 11.0968 38.6184C7.33537 38.6184 4.28613 35.5692 4.28613 31.8077C4.28613 28.0463 7.33537 24.9971 11.0968 24.9971C14.8582 24.9971 17.9075 28.0463 17.9075 31.8077Z" fill="#FF9C27"/>
<path d="M45.7156 31.8077C45.7156 35.5692 42.6663 38.6184 38.9049 38.6184C35.1435 38.6184 32.0942 35.5692 32.0942 31.8077C32.0942 28.0463 35.1435 24.9971 38.9049 24.9971C42.6663 24.9971 45.7156 28.0463 45.7156 31.8077Z" fill="#FF9C27"/>
<path d="M42.1431 27.8569C42.1431 36.5356 34.468 43.5711 25.0003 43.5711C15.5325 43.5711 7.85742 36.5356 7.85742 27.8569C7.85742 19.1781 15.5325 12.1426 25.0003 12.1426C34.468 12.1426 42.1431 19.1781 42.1431 27.8569Z" fill="#FFBA68"/>
<mask id="mask0_133_49410" style="mask-type:alpha" maskUnits="userSpaceOnUse" x="7" y="12" width="36" height="32">
<path d="M42.1431 27.8569C42.1431 36.5356 34.468 43.5711 25.0003 43.5711C15.5325 43.5711 7.85742 36.5356 7.85742 27.8569C7.85742 19.1781 15.5325 12.1426 25.0003 12.1426C34.468 12.1426 42.1431 19.1781 42.1431 27.8569Z" fill="#FFAB49"/>
</mask>
<g mask="url(#mask0_133_49410)">
<path d="M19.2863 35.9297C19.2863 39.5994 16.2907 42.5743 12.5953 42.5743C8.89997 42.5743 5.9043 39.5994 5.9043 35.9297C5.9043 32.26 8.89997 29.2852 12.5953 29.2852C16.2907 29.2852 19.2863 32.26 19.2863 35.9297Z" fill="#FF9A24"/>
<path d="M44.0964 35.9297C44.0964 39.5994 41.1007 42.5743 37.4054 42.5743C33.71 42.5743 30.7144 39.5994 30.7144 35.9297C30.7144 32.26 33.71 29.2852 37.4054 29.2852C41.1007 29.2852 44.0964 32.26 44.0964 35.9297Z" fill="#FF9A24"/>
</g>
<path d="M25.7147 32.8539C25.7147 33.2484 25.3949 33.5682 25.0004 33.5682C24.6059 33.5682 24.2861 33.2484 24.2861 32.8539C24.2861 32.4594 24.6059 32.1396 25.0004 32.1396C25.3949 32.1396 25.7147 32.4594 25.7147 32.8539Z" fill="black"/>
<path fill-rule="evenodd" clip-rule="evenodd" d="M21.0689 35.2035C23.6293 36.0012 26.3718 36.0012 28.9322 35.2035C29.2072 35.1179 29.3525 34.8488 29.2569 34.6026C29.1613 34.3564 28.8609 34.2262 28.586 34.3118C26.251 35.0392 23.7501 35.0392 21.4152 34.3118C21.1402 34.2262 20.8399 34.3564 20.7442 34.6026C20.6486 34.8488 20.794 35.1179 21.0689 35.2035Z" fill="#A75A00"/>
<path fill-rule="evenodd" clip-rule="evenodd" d="M16.1796 26.9183C16.4361 27.4515 17.1244 27.6528 17.7169 27.3678L22.0081 25.3036C22.6006 25.0186 22.873 24.3553 22.6165 23.822C22.36 23.2888 21.6718 23.0875 21.0793 23.3725L16.788 25.4367C16.1955 25.7217 15.9231 26.385 16.1796 26.9183Z" fill="black" stroke="black" stroke-width="0.714286" stroke-linecap="round"/>
<path d="M18.0119 32.0995C17.4614 31.8605 16.9548 31.4939 16.5264 31.0332C15.9891 30.4554 16.286 29.5756 16.9907 29.2208L20.8185 27.2934C21.5232 26.9386 22.4067 27.224 22.551 27.9997C22.6661 28.6183 22.6589 29.2435 22.5231 29.8281C22.2863 30.8472 21.678 31.659 20.832 32.085C19.986 32.5109 18.9715 32.5162 18.0119 32.0995Z" fill="white"/>
<path fill-rule="evenodd" clip-rule="evenodd" d="M18.7245 30.3267C18.809 30.5022 19.066 30.5538 19.2987 30.4419L20.9838 29.6314C21.2164 29.5195 21.3366 29.2864 21.2521 29.1109C21.1677 28.9353 20.9106 28.8837 20.678 28.9956L18.9929 29.8062C18.7603 29.9181 18.6401 30.1511 18.7245 30.3267Z" fill="black"/>
<path d="M31.763 32.0995C32.3135 31.8605 32.8201 31.4939 33.2485 31.0332C33.7858 30.4554 33.4889 29.5756 32.7842 29.2208L28.9564 27.2934C28.2517 26.9386 27.3682 27.224 27.2239 27.9997C27.1088 28.6183 27.116 29.2435 27.2518 29.8281C27.4886 30.8472 28.0969 31.659 28.9429 32.085C29.7889 32.5109 30.8034 32.5162 31.763 32.0995Z" fill="white"/>
<path fill-rule="evenodd" clip-rule="evenodd" d="M31.0504 30.3267C30.9659 30.5022 30.7089 30.5538 30.4762 30.4419L28.7911 29.6314C28.5585 29.5195 28.4383 29.2864 28.5228 29.1109C28.6072 28.9353 28.8643 28.8837 29.0969 28.9956L30.782 29.8062C31.0146 29.9181 31.1348 30.1511 31.0504 30.3267Z" fill="black"/>
<path fill-rule="evenodd" clip-rule="evenodd" d="M34.0445 26.9183C33.788 27.4515 33.0998 27.6528 32.5073 27.3678L28.216 25.3036C27.6235 25.0186 27.3511 24.3553 27.6076 23.822C27.8641 23.2888 28.5523 23.0875 29.1448 23.3725L33.4361 25.4367C34.0286 25.7217 34.301 26.385 34.0445 26.9183Z" fill="black" stroke="black" stroke-width="0.714286" stroke-linecap="round"/>
<path d="M18.3452 10.534C4.27143 9.27207 5.45842 21.9655 8.01853 25.7138L17.0859 23.3992L18.9692 17.5209C20.2019 24.6507 17.9291 24.0107 42.4134 25.714C49.4924 7.2032 21.9688 3.34961 18.3452 10.534Z" fill="black"/>
</svg>
