<svg width="50" height="50" viewBox="0 0 50 50" fill="none" xmlns="http://www.w3.org/2000/svg">
<path d="M17.9065 32.5216C17.9065 36.283 14.8573 39.3323 11.0958 39.3323C7.3344 39.3323 4.28516 36.283 4.28516 32.5216C4.28516 28.7602 7.3344 25.7109 11.0958 25.7109C14.8573 25.7109 17.9065 28.7602 17.9065 32.5216Z" fill="#65B118"/>
<path d="M45.7146 32.5216C45.7146 36.283 42.6654 39.3323 38.9039 39.3323C35.1425 39.3323 32.0933 36.283 32.0933 32.5216C32.0933 28.7602 35.1425 25.7109 38.9039 25.7109C42.6654 25.7109 45.7146 28.7602 45.7146 32.5216Z" fill="#65B118"/>
<path d="M42.1422 28.5707C42.1422 37.2495 34.467 44.285 24.9993 44.285C15.5316 44.285 7.85645 37.2495 7.85645 28.5707C7.85645 19.892 15.5316 12.8564 24.9993 12.8564C34.467 12.8564 42.1422 19.892 42.1422 28.5707Z" fill="#AAD77D"/>
<mask id="mask0_133_49408" style="mask-type:alpha" maskUnits="userSpaceOnUse" x="7" y="12" width="36" height="33">
<path d="M42.1422 28.5707C42.1422 37.2495 34.467 44.285 24.9993 44.285C15.5316 44.285 7.85645 37.2495 7.85645 28.5707C7.85645 19.892 15.5316 12.8564 24.9993 12.8564C34.467 12.8564 42.1422 19.892 42.1422 28.5707Z" fill="#FFAB49"/>
</mask>
<g mask="url(#mask0_133_49408)">
<path d="M19.2854 36.6436C19.2854 40.3133 16.2897 43.2881 12.5943 43.2881C8.89899 43.2881 5.90332 40.3133 5.90332 36.6436C5.90332 32.9739 8.89899 29.999 12.5943 29.999C16.2897 29.999 19.2854 32.9739 19.2854 36.6436Z" fill="#79C42E"/>
<path d="M44.0954 36.6436C44.0954 40.3133 41.0997 43.2881 37.4044 43.2881C33.7091 43.2881 30.7134 40.3133 30.7134 36.6436C30.7134 32.9739 33.7091 29.999 37.4044 29.999C41.0997 29.999 44.0954 32.9739 44.0954 36.6436Z" fill="#79C42E"/>
</g>
<path d="M25.7137 33.5678C25.7137 33.9623 25.3939 34.2821 24.9994 34.2821C24.605 34.2821 24.2852 33.9623 24.2852 33.5678C24.2852 33.1733 24.605 32.8535 24.9994 32.8535C25.3939 32.8535 25.7137 33.1733 25.7137 33.5678Z" fill="black"/>
<path d="M28.1883 31.6012C27.8042 31.1402 27.5165 30.5849 27.3411 29.9807C27.1211 29.223 27.7819 28.5707 28.5709 28.5707L32.8566 28.5707C33.6456 28.5707 34.3063 29.223 34.0864 29.9807C33.9109 30.5849 33.6233 31.1402 33.2391 31.6012C32.5693 32.4049 31.6609 32.8564 30.7137 32.8564C29.7665 32.8564 28.8581 32.4049 28.1883 31.6012Z" fill="white"/>
<path d="M16.7596 31.6012C16.3754 31.1402 16.0878 30.5849 15.9124 29.9807C15.6924 29.223 16.3532 28.5707 17.1422 28.5707L21.4279 28.5707C22.2169 28.5707 22.8776 29.223 22.6576 29.9807C22.4822 30.5849 22.1946 31.1402 21.8104 31.6012C21.1406 32.4049 20.2322 32.8564 19.285 32.8564C18.3378 32.8564 17.4294 32.4049 16.7596 31.6012Z" fill="white"/>
<path fill-rule="evenodd" clip-rule="evenodd" d="M19.5732 37.4007C19.7173 37.6362 20.0252 37.7102 20.2607 37.566L21.2602 36.954C21.9349 36.541 22.778 36.5167 23.4754 36.8903C24.4275 37.4003 25.5717 37.4003 26.5238 36.8903C27.2211 36.5167 28.0643 36.541 28.739 36.954L29.7385 37.566C29.974 37.7102 30.2818 37.6362 30.426 37.4007C30.5702 37.1651 30.4962 36.8573 30.2607 36.7132L29.2611 36.1012C28.2836 35.5027 27.0619 35.4675 26.0516 36.0088C25.3944 36.3608 24.6047 36.3608 23.9476 36.0088C22.9372 35.4675 21.7156 35.5027 20.738 36.1012L19.7385 36.7132C19.503 36.8573 19.429 37.1651 19.5732 37.4007Z" fill="#A75A00"/>
<path d="M20.7136 29.9989C20.7136 30.7879 20.074 31.4275 19.285 31.4275C18.496 31.4275 17.8564 30.7879 17.8564 29.9989C17.8564 29.2099 18.496 28.5703 19.285 28.5703C20.074 28.5703 20.7136 29.2099 20.7136 29.9989Z" fill="black"/>
<path d="M32.1423 29.9989C32.1423 30.7879 31.5027 31.4275 30.7137 31.4275C29.9247 31.4275 29.2852 30.7879 29.2852 29.9989C29.2852 29.2099 29.9247 28.5703 30.7137 28.5703C31.5027 28.5703 32.1423 29.2099 32.1423 29.9989Z" fill="black"/>
<path fill-rule="evenodd" clip-rule="evenodd" d="M16.0708 26.4279C16.0708 25.8361 16.5505 25.3564 17.1422 25.3564H21.4279C22.0197 25.3564 22.4994 25.8361 22.4994 26.4279C22.4994 27.0196 22.0197 27.4993 21.4279 27.4993H17.1422C16.5505 27.4993 16.0708 27.0196 16.0708 26.4279Z" fill="#905A09"/>
<path fill-rule="evenodd" clip-rule="evenodd" d="M27.4995 26.4279C27.4995 25.8361 27.9792 25.3564 28.5709 25.3564H32.8567C33.4484 25.3564 33.9281 25.8361 33.9281 26.4279C33.9281 27.0196 33.4484 27.4993 32.8567 27.4993H28.5709C27.9792 27.4993 27.4995 27.0196 27.4995 26.4279Z" fill="#905A09"/>
<path d="M18.1359 8.27961C23.2894 10.3305 26.8074 4.39482 36.0613 11.4123C38.5748 11.1055 36.0613 2.17908 39.7463 7.29038C42.6943 11.3794 40.1028 12.474 38.5394 12.1442C44.7379 16.2662 48.256 29.6215 40.7514 28.3951C31.6484 26.9074 35.0555 15.0398 32.7102 18.0076C30.3648 20.9755 11.6058 29.932 7.74862 28.3951C5.03347 27.3132 5.03347 23.521 7.74862 22.4594C7.41377 22.0747 5.56956 22.3668 5.03347 19.7287C4.49738 17.0906 10.5413 12.5116 13.1101 11.4123C13.1101 8.60937 12.6859 6.1107 18.1359 8.27961Z" fill="black"/>
<path fill-rule="evenodd" clip-rule="evenodd" d="M23.2537 31.7485C23.2082 31.7735 23.163 31.7983 23.1178 31.8229C22.6758 32.0632 22.1179 31.9082 21.8718 31.4768C21.6256 31.0454 21.7844 30.5009 22.2264 30.2606C22.2637 30.2403 22.3049 30.2174 22.3498 30.1923C22.7525 29.9681 23.4555 29.5767 24.3535 29.4324C25.3965 29.2648 26.6299 29.4315 28.0226 30.2843C28.4512 30.5468 28.5806 31.0986 28.3118 31.5169C28.0429 31.9353 27.4775 32.0616 27.0489 31.7992C26.0098 31.1628 25.2252 31.1046 24.6511 31.1969C24.0937 31.2865 23.6662 31.5216 23.2537 31.7485Z" fill="black"/>
<path d="M22.3289 30.4719C22.3289 32.5804 20.5875 34.315 18.4078 34.315C16.2282 34.315 14.4868 32.5804 14.4868 30.4719C14.4868 28.3634 16.2282 26.6289 18.4078 26.6289C20.5875 26.6289 22.3289 28.3634 22.3289 30.4719Z" stroke="black" stroke-width="1.83002"/>
<path d="M35.3494 30.4719C35.3494 32.5804 33.608 34.315 31.4284 34.315C29.2487 34.315 27.5073 32.5804 27.5073 30.4719C27.5073 28.3634 29.2487 26.6289 31.4284 26.6289C33.608 26.6289 35.3494 28.3634 35.3494 30.4719Z" stroke="black" stroke-width="1.83002"/>
</svg>
