<svg width="50" height="50" viewBox="0 0 50 50" fill="none" xmlns="http://www.w3.org/2000/svg">
<path d="M17.9075 32.5216C17.9075 36.283 14.8582 39.3323 11.0968 39.3323C7.33537 39.3323 4.28613 36.283 4.28613 32.5216C4.28613 28.7602 7.33537 25.7109 11.0968 25.7109C14.8582 25.7109 17.9075 28.7602 17.9075 32.5216Z" fill="#FF9C27"/>
<path d="M45.7156 32.5216C45.7156 36.283 42.6663 39.3323 38.9049 39.3323C35.1435 39.3323 32.0942 36.283 32.0942 32.5216C32.0942 28.7602 35.1435 25.7109 38.9049 25.7109C42.6663 25.7109 45.7156 28.7602 45.7156 32.5216Z" fill="#FF9C27"/>
<path d="M42.1431 28.5707C42.1431 37.2495 34.468 44.285 25.0003 44.285C15.5325 44.285 7.85742 37.2495 7.85742 28.5707C7.85742 19.892 15.5325 12.8564 25.0003 12.8564C34.468 12.8564 42.1431 19.892 42.1431 28.5707Z" fill="#FFBA68"/>
<mask id="mask0_133_49409" style="mask-type:alpha" maskUnits="userSpaceOnUse" x="7" y="12" width="36" height="33">
<path d="M42.1431 28.5707C42.1431 37.2495 34.468 44.285 25.0003 44.285C15.5325 44.285 7.85742 37.2495 7.85742 28.5707C7.85742 19.892 15.5325 12.8564 25.0003 12.8564C34.468 12.8564 42.1431 19.892 42.1431 28.5707Z" fill="#FFAB49"/>
</mask>
<g mask="url(#mask0_133_49409)">
<path d="M19.2863 36.6436C19.2863 40.3133 16.2907 43.2881 12.5953 43.2881C8.89997 43.2881 5.9043 40.3133 5.9043 36.6436C5.9043 32.9739 8.89997 29.999 12.5953 29.999C16.2907 29.999 19.2863 32.9739 19.2863 36.6436Z" fill="#FF9A24"/>
<path d="M44.0964 36.6436C44.0964 40.3133 41.1007 43.2881 37.4054 43.2881C33.71 43.2881 30.7144 40.3133 30.7144 36.6436C30.7144 32.9739 33.71 29.999 37.4054 29.999C41.1007 29.999 44.0964 32.9739 44.0964 36.6436Z" fill="#FF9A24"/>
<rect x="19.2861" y="35.7139" width="11.4286" height="3.57143" rx="1.78571" fill="white"/>
<path d="M19.2861 37.5L30.7147 37.5" stroke="#FF9A24" stroke-width="0.714286"/>
<path d="M21.9526 35.7139L21.9526 39.2853" stroke="#FF9A24" stroke-width="0.714286"/>
<path d="M25.0005 35.7139L25.0005 39.2853" stroke="#FF9A24" stroke-width="0.714286"/>
<path d="M28.0479 35.7139L28.0479 39.2853" stroke="#FF9A24" stroke-width="0.714286"/>
<path fill-rule="evenodd" clip-rule="evenodd" d="M19.8994 27.0293C20.4152 27.0831 20.8833 26.9287 21.139 26.781C21.3781 26.643 21.6839 26.7249 21.822 26.964C21.9601 27.2031 21.8782 27.5089 21.6391 27.647C21.2282 27.8843 20.5507 28.1027 19.7956 28.0239C19.0179 27.9428 18.1904 27.5486 17.5234 26.6134C17.3631 26.3886 17.4154 26.0763 17.6402 25.916C17.865 25.7557 18.1773 25.8079 18.3376 26.0328C18.8378 26.7341 19.4063 26.9779 19.8994 27.0293Z" fill="#905A09"/>
<path fill-rule="evenodd" clip-rule="evenodd" d="M30.0215 27.0293C29.5057 27.0831 29.0376 26.9287 28.7819 26.781C28.5428 26.643 28.237 26.7249 28.0989 26.964C27.9608 27.2031 28.0427 27.5089 28.2818 27.647C28.6927 27.8843 29.3702 28.1027 30.1253 28.0239C30.903 27.9428 31.7305 27.5486 32.3975 26.6134C32.5578 26.3886 32.5055 26.0763 32.2807 25.916C32.0559 25.7557 31.7436 25.8079 31.5833 26.0328C31.0831 26.7341 30.5146 26.9779 30.0215 27.0293Z" fill="#905A09"/>
</g>
<path d="M25.7147 33.5678C25.7147 33.9623 25.3949 34.2821 25.0004 34.2821C24.6059 34.2821 24.2861 33.9623 24.2861 33.5678C24.2861 33.1733 24.6059 32.8535 25.0004 32.8535C25.3949 32.8535 25.7147 33.1733 25.7147 33.5678Z" fill="black"/>
<path d="M16.7098 30.37C16.6609 29.7719 16.7453 29.1523 16.9495 28.5572C17.2056 27.8109 18.1214 27.6578 18.7666 28.1118L22.2716 30.5782C22.9168 31.0322 23.0818 31.9459 22.4659 32.439C21.9747 32.8321 21.4199 33.1207 20.8404 33.2767C19.8301 33.5485 18.8274 33.395 18.0527 32.8499C17.2781 32.3048 16.795 31.4128 16.7098 30.37Z" fill="white"/>
<path d="M20.8656 31.335C20.4115 31.9802 19.5204 32.1352 18.8751 31.6812C18.2299 31.2271 18.0749 30.336 18.529 29.6908C18.983 29.0455 19.8741 28.8905 20.5194 29.3446C21.1646 29.7986 21.3196 30.6898 20.8656 31.335Z" fill="black"/>
<path d="M33.1589 30.37C33.2078 29.7719 33.1235 29.1523 32.9192 28.5572C32.6631 27.8109 31.7473 27.6578 31.1021 28.1118L27.5972 30.5782C26.9519 31.0322 26.7869 31.9459 27.4029 32.439C27.894 32.8321 28.4488 33.1207 29.0283 33.2767C30.0386 33.5485 31.0414 33.395 31.816 32.8499C32.5906 32.3048 33.0737 31.4128 33.1589 30.37Z" fill="white"/>
<path d="M29.0036 31.335C29.4576 31.9802 30.3488 32.1352 30.994 31.6812C31.6392 31.2271 31.7942 30.336 31.3402 29.6908C30.8861 29.0455 29.995 28.8905 29.3498 29.3446C28.7045 29.7986 28.5495 30.6898 29.0036 31.335Z" fill="black"/>
<path d="M21.3594 11.9299C12.2302 2.91587 -1.21734 21.2582 8.21301 28.8311C8.21301 28.8311 10.7691 31.4601 16.612 28.8311C22.4548 26.2021 24.2806 18.3148 24.2806 18.3148C24.2806 18.3148 29.0296 29.7117 40.8856 27.9962C42.6404 27.7423 44.0673 26.4226 44.4861 24.6997C48.6266 7.66481 26.5692 -0.987774 21.3594 11.9299Z" fill="#FF7777"/>
</svg>
