<svg width="50" height="50" viewBox="0 0 50 50" fill="none" xmlns="http://www.w3.org/2000/svg">
<path d="M17.1588 31.1512C17.1588 35.1007 13.9571 38.3024 10.0076 38.3024C6.05815 38.3024 2.85645 35.1007 2.85645 31.1512C2.85645 27.2017 6.05815 24 10.0076 24C13.9571 24 17.1588 27.2017 17.1588 31.1512Z" fill="#FF9C27"/>
<path d="M46.3571 31.1512C46.3571 35.1007 43.1554 38.3024 39.2059 38.3024C35.2564 38.3024 32.0547 35.1007 32.0547 31.1512C32.0547 27.2017 35.2564 24 39.2059 24C43.1554 24 46.3571 27.2017 46.3571 31.1512Z" fill="#FF9C27"/>
<path d="M42.6064 27.0029C42.6064 36.1156 34.5476 43.5029 24.6064 43.5029C14.6653 43.5029 6.60645 36.1156 6.60645 27.0029C6.60645 17.8902 14.6653 10.5029 24.6064 10.5029C34.5476 10.5029 42.6064 17.8902 42.6064 27.0029Z" fill="#FFBA68"/>
<mask id="mask0_42_6689" style="mask-type:alpha" maskUnits="userSpaceOnUse" x="6" y="10" width="37" height="34">
<path d="M42.6064 27C42.6064 36.1127 34.5476 43.5 24.6064 43.5C14.6653 43.5 6.60645 36.1127 6.60645 27C6.60645 17.8873 14.6653 10.5 24.6064 10.5C34.5476 10.5 42.6064 17.8873 42.6064 27Z" fill="#FFAB49"/>
</mask>
<g mask="url(#mask0_42_6689)">
<path d="M18.392 35.4768C18.392 39.33 15.2465 42.4536 11.3664 42.4536C7.48628 42.4536 4.34082 39.33 4.34082 35.4768C4.34082 31.6236 7.48628 28.5 11.3664 28.5C15.2465 28.5 18.392 31.6236 18.392 35.4768Z" fill="#FF9A24"/>
<path d="M44.5824 35.4768C44.5824 39.33 41.4369 42.4536 37.5568 42.4536C33.6767 42.4536 30.5313 39.33 30.5313 35.4768C30.5313 31.6236 33.6767 28.5 37.5568 28.5C41.4369 28.5 44.5824 31.6236 44.5824 35.4768Z" fill="#FF9A24"/>
</g>
<path d="M25.3564 32.25C25.3564 32.6642 25.0207 33 24.6064 33C24.1922 33 23.8564 32.6642 23.8564 32.25C23.8564 31.8358 24.1922 31.5 24.6064 31.5C25.0207 31.5 25.3564 31.8358 25.3564 32.25Z" fill="black"/>
<path d="M20.8564 29.3225C20.8564 30.1109 20.1849 30.75 19.3564 30.75C18.528 30.75 17.8564 30.1109 17.8564 29.3225C17.8564 28.5341 18.528 27.895 19.3564 27.895C20.1849 27.895 20.8564 28.5341 20.8564 29.3225Z" fill="black"/>
<path fill-rule="evenodd" clip-rule="evenodd" d="M20.1235 27.2823C20.2704 27.5428 20.1675 27.8673 19.8938 28.0071C19.745 28.0831 19.5195 28.2386 19.3591 28.4327C19.1997 28.6256 19.1558 28.7883 19.1915 28.9302C19.2637 29.2177 19.0773 29.5065 18.7752 29.5753C18.473 29.644 18.1695 29.4666 18.0973 29.1791C17.9518 28.5998 18.198 28.1059 18.4748 27.7709C18.7506 27.4372 19.1074 27.1937 19.3619 27.0637C19.6356 26.9239 19.9766 27.0218 20.1235 27.2823Z" fill="black"/>
<path d="M31.3564 29.3225C31.3564 30.1109 30.6849 30.75 29.8564 30.75C29.028 30.75 28.3564 30.1109 28.3564 29.3225C28.3564 28.5341 29.028 27.895 29.8564 27.895C30.6849 27.895 31.3564 28.5341 31.3564 29.3225Z" fill="black"/>
<path fill-rule="evenodd" clip-rule="evenodd" d="M30.6235 27.2823C30.7704 27.5428 30.6675 27.8673 30.3938 28.0071C30.245 28.0831 30.0195 28.2386 29.8591 28.4327C29.6997 28.6256 29.6558 28.7883 29.6915 28.9302C29.7637 29.2177 29.5773 29.5065 29.2752 29.5753C28.973 29.644 28.6695 29.4666 28.5973 29.1791C28.4518 28.5998 28.698 28.1059 28.9748 27.7709C29.2506 27.4372 29.6074 27.1937 29.8619 27.0637C30.1356 26.9239 30.4766 27.0218 30.6235 27.2823Z" fill="black"/>
<path fill-rule="evenodd" clip-rule="evenodd" d="M24.6064 36L20.4782 34.7139C20.1895 34.624 20.0369 34.3415 20.1373 34.083C20.2377 33.8244 20.5531 33.6877 20.8418 33.7776L24.6064 34.9505L28.3711 33.7776C28.6598 33.6877 28.9752 33.8244 29.0756 34.083C29.176 34.3415 29.0234 34.624 28.7347 34.7139L24.6064 36Z" fill="#A75A00"/>
<path fill-rule="evenodd" clip-rule="evenodd" d="M19.3607 25.4912C19.9023 25.5477 20.3939 25.3855 20.6624 25.2305C20.9134 25.0855 21.2345 25.1715 21.3795 25.4226C21.5245 25.6737 21.4385 25.9948 21.1874 26.1398C20.756 26.3889 20.0446 26.6182 19.2518 26.5355C18.4352 26.4503 17.5663 26.0365 16.866 25.0545C16.6977 24.8184 16.7526 24.4906 16.9886 24.3222C17.2247 24.1539 17.5525 24.2087 17.7209 24.4448C18.246 25.1812 18.843 25.4372 19.3607 25.4912Z" fill="#905A09"/>
<path fill-rule="evenodd" clip-rule="evenodd" d="M29.9889 25.4912C29.4473 25.5477 28.9557 25.3855 28.6873 25.2305C28.4362 25.0855 28.1151 25.1715 27.9701 25.4226C27.8251 25.6737 27.9111 25.9948 28.1622 26.1398C28.5936 26.3889 29.305 26.6182 30.0978 26.5355C30.9144 26.4503 31.7833 26.0365 32.4836 25.0545C32.6519 24.8184 32.597 24.4906 32.361 24.3222C32.1249 24.1539 31.7971 24.2087 31.6287 24.4448C31.1036 25.1812 30.5066 25.4372 29.9889 25.4912Z" fill="#905A09"/>
<path d="M17.6182 9.56097C2.84078 8.23597 4.08713 21.5641 6.77524 25.4998L16.2959 23.0695L18.2734 16.8972C19.5678 24.3836 17.1813 23.7115 42.8898 25.5C50.3227 6.06366 21.4231 2.01739 17.6182 9.56097Z" fill="#FF7777"/>
</svg>
