<svg width="50" height="66" viewBox="0 0 50 66" fill="none" xmlns="http://www.w3.org/2000/svg">
<rect x="0.5" y="0.5" width="49" height="49" rx="9.5" fill="#F5F8FF" stroke="#99BDFF"/>
<g clip-path="url(#clip0_44_8978)">
<path d="M15.8467 25.4226L27.6552 13.5771H34.9248L19.4999 29.002L15.8467 25.4226ZM27.6552 37.1942H34.9248L28.6331 30.9024L34.9248 24.4816H27.6552L21.3635 30.8286L27.6552 37.1942Z" fill="#3FB6D3"/>
<path d="M28.6329 30.9021L24.9427 27.2119L21.3633 30.8283L24.9427 34.4446L28.6329 30.9021Z" fill="#27AACD"/>
<path d="M34.9252 37.1941L28.6335 30.9023L24.9434 34.4449L27.6556 37.1941H34.9252Z" fill="#19599A"/>
<path d="M24.9434 34.4449L30.6262 32.895L28.6335 30.9023L24.9434 34.4449Z" fill="url(#paint0_linear_44_8978)"/>
</g>
<path d="M7.7493 54.5156H13.3391V55.9688H9.50711V58.0312H12.9759V59.4844H9.50711V63H7.7493V54.5156ZM15.9585 63H14.2241V54.5156H15.9585V63ZM21.1443 56.6367H22.8787V63H21.2146V61.8516H21.1443C20.992 62.2305 20.7478 62.5312 20.4119 62.7539C20.0798 62.9727 19.6795 63.082 19.2107 63.082C18.7849 63.082 18.4099 62.9863 18.0857 62.7949C17.7654 62.6035 17.5154 62.3281 17.3357 61.9688C17.156 61.6055 17.0662 61.1797 17.0662 60.6914V56.6367H18.8005V60.3867C18.8005 60.7617 18.9002 61.0605 19.0994 61.2832C19.3025 61.5059 19.574 61.6172 19.9138 61.6172C20.1326 61.6172 20.3357 61.5664 20.5232 61.4648C20.7107 61.3594 20.8611 61.207 20.9744 61.0078C21.0877 60.8086 21.1443 60.5703 21.1443 60.293V56.6367ZM27.3379 57.9375H26.1426V61.043C26.1426 61.2773 26.1934 61.4414 26.2949 61.5352C26.3965 61.6289 26.5449 61.6797 26.7402 61.6875C26.9902 61.6875 27.2207 61.6758 27.4316 61.6523V63.0234C27.2246 63.0625 26.916 63.082 26.5059 63.082C25.8535 63.082 25.3398 62.9316 24.9648 62.6309C24.5898 62.3301 24.4043 61.8828 24.4082 61.2891V57.9375H23.5293V56.6367H24.4082V55.1133H26.1426V56.6367H27.3379V57.9375ZM31.5393 57.9375H30.344V61.043C30.344 61.2773 30.3948 61.4414 30.4963 61.5352C30.5979 61.6289 30.7463 61.6797 30.9416 61.6875C31.1916 61.6875 31.4221 61.6758 31.633 61.6523V63.0234C31.426 63.0625 31.1174 63.082 30.7073 63.082C30.0549 63.082 29.5413 62.9316 29.1663 62.6309C28.7913 62.3301 28.6057 61.8828 28.6096 61.2891V57.9375H27.7307V56.6367H28.6096V55.1133H30.344V56.6367H31.5393V57.9375ZM35.2016 63.1289C34.5571 63.1289 33.9985 62.9961 33.5259 62.7305C33.0571 62.4648 32.6958 62.0859 32.4419 61.5938C32.188 61.0977 32.061 60.5156 32.061 59.8477C32.061 59.1953 32.186 58.6211 32.436 58.125C32.6899 57.625 33.0493 57.2383 33.5141 56.9648C33.979 56.6914 34.518 56.5547 35.1313 56.5547C35.7016 56.5547 36.2114 56.6758 36.6606 56.918C37.1137 57.1562 37.4692 57.5176 37.727 58.002C37.9887 58.4863 38.1196 59.0781 38.1196 59.7773V60.2695H33.772C33.772 60.5859 33.8305 60.8613 33.9477 61.0957C34.0688 61.3301 34.2387 61.5117 34.4575 61.6406C34.6802 61.7656 34.9399 61.8281 35.2368 61.8281C35.522 61.8281 35.768 61.7715 35.9751 61.6582C36.1821 61.541 36.3305 61.3828 36.4204 61.1836H38.0727C37.9907 61.5742 37.8227 61.916 37.5688 62.209C37.3149 62.502 36.9848 62.7285 36.5786 62.8887C36.1762 63.0488 35.7173 63.1289 35.2016 63.1289ZM36.479 59.1797C36.479 58.9258 36.4223 58.6992 36.3091 58.5C36.1997 58.2969 36.0454 58.1387 35.8462 58.0254C35.647 57.9121 35.4204 57.8555 35.1665 57.8555C34.9087 57.8555 34.6743 57.9141 34.4634 58.0312C34.2563 58.1484 34.0903 58.3086 33.9653 58.5117C33.8442 58.7148 33.7798 58.9375 33.772 59.1797H36.479ZM38.9695 56.6367H40.6452V57.7383H40.7155C40.8288 57.3516 41.0222 57.0566 41.2956 56.8535C41.5691 56.6465 41.8874 56.543 42.2507 56.543C42.4499 56.543 42.6335 56.5625 42.8015 56.6016V58.1484C42.7155 58.125 42.6003 58.1035 42.4558 58.084C42.3112 58.0645 42.1804 58.0547 42.0632 58.0547C41.8054 58.0547 41.573 58.1113 41.3659 58.2246C41.1589 58.3379 40.9968 58.4961 40.8796 58.6992C40.7624 58.8984 40.7038 59.125 40.7038 59.3789V63H38.9695V56.6367Z" fill="#337AFF"/>
<defs>
<linearGradient id="paint0_linear_44_8978" x1="24.531" y1="35.0464" x2="29.5976" y2="31.917" gradientUnits="userSpaceOnUse">
<stop stop-color="#1B4E94"/>
<stop offset="0.63" stop-color="#1A5497"/>
<stop offset="1" stop-color="#195A9B"/>
</linearGradient>
<clipPath id="clip0_44_8978">
<rect width="23.617" height="23.617" fill="white" transform="translate(13.5771 13.5771)"/>
</clipPath>
</defs>
</svg>
