<svg width="50" height="66" viewBox="0 0 50 66" fill="none" xmlns="http://www.w3.org/2000/svg">
<rect x="0.5" y="0.5" width="49" height="49" rx="9.5" fill="white" stroke="#E6E6E6"/>
<g clip-path="url(#clip0_44_8865)">
<path d="M20.5449 20.4942L19.1377 19.0869V29.2089L19.1547 29.6837C19.1547 29.9041 19.1886 30.1584 19.2733 30.4127L30.3957 34.3293L33.1593 33.1085L20.5449 20.4942Z" fill="#00C4B3"/>
<path d="M33.1597 33.1089L30.396 34.3296L19.3076 30.4131C19.528 31.2269 19.9858 32.1255 20.4945 32.6511L24.1058 36.2455L32.1763 36.2625L33.1597 33.1089Z" fill="#22D3C5"/>
<path d="M14.8653 25.6149C14.5093 25.9879 14.6958 26.7847 15.2553 27.3782L17.7477 29.8875L19.3075 30.447C19.2566 30.1927 19.1888 29.9383 19.1888 29.7179L19.1719 29.2432L19.1379 19.1042M33.1596 33.1089L34.3803 30.3283L30.4807 19.206C30.2264 19.1551 29.9721 19.1042 29.7516 19.0873L29.26 19.0703L19.1549 19.0873" fill="#0075C9"/>
<path d="M33.16 33.109L36.161 32.1256V23.8686L32.7023 20.3929C32.1936 19.8842 31.295 19.4095 30.4642 19.2061L34.3808 30.3284" fill="#00A8E1"/>
<path d="M29.9209 17.6628L27.4116 15.1705C26.8352 14.594 26.0552 14.4245 25.6483 14.7805L19.1377 19.087H29.2258L29.7175 19.104C29.9379 19.104 30.1922 19.1379 30.4465 19.2227L29.9209 17.6628Z" fill="#00C4B3"/>
</g>
<path d="M8.00625 54.5156H10.8891C11.5297 54.5156 12.0668 54.6328 12.5004 54.8672C12.934 55.1016 13.2563 55.4219 13.4672 55.8281C13.6781 56.2305 13.7836 56.6914 13.7836 57.2109C13.7836 57.7266 13.6781 58.1895 13.4672 58.5996C13.2563 59.0059 12.934 59.3281 12.5004 59.5664C12.0707 59.8008 11.5375 59.918 10.9008 59.918H9.06094V63H8.00625V54.5156ZM10.8539 58.9805C11.4945 58.9805 11.9691 58.8203 12.2777 58.5C12.5863 58.1758 12.7406 57.7461 12.7406 57.2109C12.7406 56.6719 12.5863 56.2441 12.2777 55.9277C11.9691 55.6113 11.4906 55.4531 10.8422 55.4531H9.06094V58.9805H10.8539ZM15.5358 65.3906C15.3327 65.3906 15.1452 65.3828 14.9733 65.3672V64.4648C15.1139 64.4805 15.278 64.4883 15.4655 64.4883C15.6334 64.4883 15.7741 64.4707 15.8873 64.4355C16.0006 64.4004 16.1139 64.3125 16.2272 64.1719C16.3405 64.0352 16.4498 63.8203 16.5553 63.5273L16.7428 63.0469L14.3873 56.6367H15.4889L17.2233 61.6875H17.2936L19.028 56.6367H20.1295L17.4342 63.9141C17.2467 64.4102 16.9967 64.7793 16.6842 65.0215C16.3717 65.2676 15.9889 65.3906 15.5358 65.3906ZM23.7802 57.4805H22.4442V61.1719C22.4442 61.5469 22.5184 61.7988 22.6669 61.9277C22.8153 62.0566 23.0184 62.1211 23.2763 62.1211C23.4716 62.1211 23.6708 62.1133 23.8739 62.0977V63.0352C23.6708 63.0664 23.4364 63.082 23.1708 63.082C22.8739 63.082 22.5927 63.0215 22.327 62.9004C22.0614 62.7754 21.8446 62.5879 21.6766 62.3379C21.5087 62.0879 21.4247 61.7852 21.4247 61.4297V57.4805H20.4638V56.6367H21.4247V55.1133H22.4442V56.6367H23.7802V57.4805ZM25.9894 63H24.9816V54.5156H25.9894V57.6328H26.0714C26.3917 56.9141 27.0167 56.5547 27.9464 56.5547C28.6183 56.5547 29.1476 56.7578 29.5343 57.1641C29.921 57.5664 30.1144 58.1641 30.1144 58.957V63H29.1066V59.0273C29.1066 58.5312 28.9757 58.1465 28.714 57.873C28.4562 57.5957 28.0988 57.457 27.6417 57.457C27.3214 57.457 27.0363 57.5254 26.7863 57.6621C26.5402 57.7949 26.3448 57.9922 26.2003 58.2539C26.0597 58.5117 25.9894 58.8203 25.9894 59.1797V63ZM34.0931 63.1289C33.5189 63.1289 33.0111 62.9941 32.5697 62.7246C32.1322 62.4512 31.7923 62.0664 31.5502 61.5703C31.308 61.0742 31.1869 60.5 31.1869 59.8477C31.1869 59.1953 31.308 58.6211 31.5502 58.125C31.7923 57.625 32.1322 57.2383 32.5697 56.9648C33.0111 56.6914 33.5189 56.5547 34.0931 56.5547C34.6634 56.5547 35.1654 56.6914 35.599 56.9648C36.0365 57.2383 36.3744 57.625 36.6127 58.125C36.8548 58.6211 36.9759 59.1953 36.9759 59.8477C36.9759 60.5 36.8548 61.0742 36.6127 61.5703C36.3744 62.0664 36.0365 62.4512 35.599 62.7246C35.1654 62.9941 34.6634 63.1289 34.0931 63.1289ZM34.0931 62.2383C34.5033 62.2383 34.849 62.1309 35.1302 61.916C35.4115 61.6973 35.6205 61.4082 35.7572 61.0488C35.8978 60.6855 35.9681 60.2852 35.9681 59.8477C35.9681 59.4102 35.8978 59.0098 35.7572 58.6465C35.6205 58.2832 35.4115 57.9922 35.1302 57.7734C34.849 57.5547 34.5033 57.4453 34.0931 57.4453C33.6752 57.4453 33.3236 57.5547 33.0384 57.7734C32.7572 57.9922 32.5463 58.2832 32.4056 58.6465C32.265 59.0098 32.1947 59.4102 32.1947 59.8477C32.1947 60.2852 32.265 60.6855 32.4056 61.0488C32.5463 61.4082 32.7572 61.6973 33.0384 61.916C33.3236 62.1309 33.6752 62.2383 34.0931 62.2383ZM39.068 63H38.0602V56.6367H39.0328V57.6328H39.1148C39.275 57.293 39.5074 57.0293 39.8121 56.8418C40.1207 56.6504 40.5094 56.5547 40.9781 56.5547C41.4156 56.5547 41.7945 56.6445 42.1148 56.8242C42.4352 57 42.6832 57.2676 42.859 57.627C43.0348 57.9863 43.1227 58.4297 43.1227 58.957V63H42.1148V59.0273C42.1148 58.5352 41.9879 58.1504 41.734 57.873C41.4801 57.5957 41.1266 57.457 40.6734 57.457C40.3609 57.457 40.0836 57.5254 39.8414 57.6621C39.5992 57.7949 39.4098 57.9922 39.273 58.2539C39.1363 58.5117 39.068 58.8203 39.068 59.1797V63Z" fill="#999999"/>
<defs>
<clipPath id="clip0_44_8865">
<rect width="21.7021" height="21.7021" fill="white" transform="translate(14.5771 14.5771)"/>
</clipPath>
</defs>
</svg>
