<svg width="50" height="66" viewBox="0 0 50 66" fill="none" xmlns="http://www.w3.org/2000/svg">
<rect x="0.5" y="0.5" width="49" height="49" rx="9.5" fill="white" stroke="#E6E6E6"/>
<g clip-path="url(#clip0_44_8892)">
<path d="M25.7485 27.7372C26.8474 27.7372 27.7382 26.8464 27.7382 25.7475C27.7382 24.6486 26.8474 23.7578 25.7485 23.7578C24.6496 23.7578 23.7588 24.6486 23.7588 25.7475C23.7588 26.8464 24.6496 27.7372 25.7485 27.7372Z" fill="#61DAFB"/>
<path d="M33.3055 22.4664C32.9215 22.3268 32.5201 22.1872 32.1012 22.065C32.2059 21.6461 32.2932 21.2272 32.363 20.8258C32.7295 18.522 32.3281 16.8988 31.2111 16.2705C30.8794 16.0785 30.5129 15.9912 30.094 15.9912C28.8723 15.9912 27.3189 16.8988 25.7481 18.4172C24.1773 16.8988 22.624 15.9912 21.4022 15.9912C20.9833 15.9912 20.6168 16.0785 20.2852 16.2705C19.1682 16.9162 18.7667 18.5394 19.1333 20.8258C19.2031 21.2272 19.2904 21.6461 19.3951 22.065C18.9762 22.1872 18.5748 22.3094 18.1908 22.4664C16.0091 23.3042 14.8223 24.4561 14.8223 25.7477C14.8223 27.0392 16.0266 28.1912 18.1908 29.0289C18.5748 29.1686 18.9762 29.3082 19.3951 29.4304C19.2904 29.8493 19.2031 30.2681 19.1333 30.6696C18.7667 32.9734 19.1682 34.5966 20.2852 35.2249C20.6168 35.4169 20.9833 35.5042 21.4022 35.5042C22.6414 35.5042 24.1948 34.5966 25.7481 33.0781C27.3189 34.5966 28.8723 35.5042 30.094 35.5042C30.5129 35.5042 30.8794 35.4169 31.2111 35.2249C32.3281 34.5791 32.7295 32.956 32.363 30.6696C32.2932 30.2681 32.2059 29.8493 32.1012 29.4304C32.5201 29.3082 32.9215 29.186 33.3055 29.0289C35.4872 28.1912 36.674 27.0392 36.674 25.7477C36.674 24.4561 35.4872 23.3042 33.3055 22.4664ZM30.7224 17.1431C31.438 17.562 31.6823 18.8536 31.3856 20.6862C31.3332 21.0527 31.246 21.4367 31.1412 21.8381C30.2337 21.6287 29.2737 21.489 28.2614 21.4018C27.668 20.564 27.0571 19.8135 26.4463 19.1328C27.7378 17.8587 29.0468 16.9861 30.1115 16.9861C30.3384 16.9861 30.5478 17.0384 30.7224 17.1431ZM28.7676 27.493C28.4534 28.0515 28.0869 28.6101 27.7029 29.1686C27.0571 29.2209 26.4114 29.2384 25.7481 29.2384C25.0674 29.2384 24.4217 29.2209 23.7933 29.1686C23.4094 28.6101 23.0603 28.0515 22.7461 27.493C22.4145 26.9171 22.1004 26.3237 21.8211 25.7477C22.1004 25.1717 22.4145 24.5783 22.7461 24.0023C23.0603 23.4438 23.4268 22.8853 23.8108 22.3268C24.4566 22.2745 25.1024 22.257 25.7656 22.257C26.4463 22.257 27.092 22.2745 27.7204 22.3268C28.1043 22.8853 28.4534 23.4438 28.7676 24.0023C29.0992 24.5783 29.4134 25.1717 29.6926 25.7477C29.3959 26.3237 29.0992 26.8996 28.7676 27.493ZM30.2162 26.9171C30.478 27.5279 30.6875 28.1214 30.8794 28.7148C30.286 28.8544 29.6577 28.9591 28.9945 29.0464C29.2039 28.7148 29.4308 28.3657 29.6228 27.9992C29.8322 27.6327 30.0242 27.2661 30.2162 26.9171ZM25.7481 31.647C25.3292 31.1932 24.9278 30.7045 24.5438 30.1983C24.9453 30.2158 25.3467 30.2332 25.7481 30.2332C26.1496 30.2332 26.551 30.2158 26.9524 30.1983C26.5684 30.7045 26.167 31.1932 25.7481 31.647ZM22.5018 29.0289C21.8386 28.9417 21.2102 28.837 20.6168 28.6973C20.8088 28.1214 21.0182 27.5105 21.28 26.8996C21.472 27.2487 21.664 27.6152 21.8735 27.9643C22.0829 28.3483 22.2923 28.6799 22.5018 29.0289ZM21.28 24.5783C21.0182 23.9674 20.8088 23.374 20.6168 22.7806C21.2102 22.641 21.8386 22.5363 22.5018 22.449C22.2923 22.7806 22.0655 23.1297 21.8735 23.4962C21.664 23.8627 21.472 24.2292 21.28 24.5783ZM25.7481 19.8484C26.167 20.3022 26.5684 20.7909 26.9524 21.2971C26.551 21.2796 26.1496 21.2622 25.7481 21.2622C25.3467 21.2622 24.9453 21.2796 24.5438 21.2971C24.9278 20.7909 25.3292 20.3022 25.7481 19.8484ZM29.6228 23.5137L28.9945 22.4664C29.6577 22.5537 30.286 22.6584 30.8794 22.7981C30.6875 23.374 30.478 23.9849 30.2162 24.5958C30.0242 24.2292 29.8322 23.8627 29.6228 23.5137ZM20.1107 20.6862C19.814 18.8536 20.0583 17.562 20.7739 17.1431C20.9484 17.0384 21.1579 16.9861 21.3848 16.9861C22.432 16.9861 23.741 17.8413 25.05 19.1328C24.4391 19.7961 23.8282 20.564 23.2348 21.4018C22.2225 21.489 21.2626 21.6461 20.355 21.8381C20.2503 21.4367 20.1805 21.0527 20.1107 20.6862ZM15.7997 25.7477C15.7997 24.9274 16.7945 24.0547 18.5399 23.4089C18.8889 23.2693 19.2729 23.1471 19.6569 23.0424C19.9361 23.9151 20.2852 24.8401 20.7041 25.7651C20.2852 26.6902 19.9187 27.5978 19.6569 28.4704C17.2483 27.7723 15.7997 26.7251 15.7997 25.7477ZM20.7739 34.3522C20.0583 33.9334 19.814 32.6418 20.1107 30.8092C20.163 30.4427 20.2503 30.0587 20.355 29.6573C21.2626 29.8667 22.2225 30.0063 23.2348 30.0936C23.8282 30.9314 24.4391 31.6819 25.05 32.3626C23.7584 33.6367 22.4494 34.5093 21.3848 34.5093C21.1579 34.5093 20.9484 34.457 20.7739 34.3522ZM31.3856 30.8092C31.6823 32.6418 31.438 33.9334 30.7224 34.3522C30.5478 34.457 30.3384 34.5093 30.1115 34.5093C29.0643 34.5093 27.7553 33.6541 26.4463 32.3626C27.0571 31.6993 27.668 30.9314 28.2614 30.0936C29.2737 30.0063 30.2337 29.8493 31.1412 29.6573C31.246 30.0587 31.3158 30.4427 31.3856 30.8092ZM32.9564 28.0865C32.6073 28.2261 32.2234 28.3483 31.8394 28.453C31.5601 27.5803 31.2111 26.6553 30.7922 25.7302C31.2111 24.8052 31.5776 23.8976 31.8394 23.025C34.248 23.7231 35.6966 24.7703 35.6966 25.7477C35.6966 26.568 34.6843 27.4407 32.9564 28.0865Z" fill="#61DAFB"/>
</g>
<path d="M11.0601 54.5156H13.9429C14.5874 54.5156 15.1265 54.627 15.5601 54.8496C15.9937 55.0684 16.314 55.375 16.521 55.7695C16.732 56.1602 16.8374 56.6133 16.8374 57.1289C16.8374 57.7031 16.7046 58.1973 16.439 58.6113C16.1773 59.0254 15.7827 59.3242 15.2554 59.5078L17.1655 63H15.9351L14.1597 59.7012C14.1167 59.7051 14.0484 59.707 13.9546 59.707H12.1148V63H11.0601V54.5156ZM13.9077 58.7461C14.5601 58.7461 15.0366 58.6074 15.3374 58.3301C15.6421 58.0527 15.7945 57.6523 15.7945 57.1289C15.7945 56.5977 15.6421 56.1855 15.3374 55.8926C15.0327 55.5996 14.5523 55.4531 13.896 55.4531H12.1148V58.7461H13.9077ZM20.5935 63.1289C19.988 63.1289 19.4607 62.9941 19.0115 62.7246C18.5623 62.4551 18.2166 62.0742 17.9744 61.582C17.7361 61.0898 17.617 60.5195 17.617 59.8711C17.617 59.2227 17.7361 58.6484 17.9744 58.1484C18.2166 57.6445 18.5545 57.2539 18.988 56.9766C19.4255 56.6953 19.9295 56.5547 20.4998 56.5547C20.9802 56.5547 21.4275 56.6621 21.8416 56.877C22.2556 57.0879 22.5916 57.4316 22.8494 57.9082C23.1111 58.3809 23.242 58.9883 23.242 59.7305V60.1523H18.6248C18.6404 60.5938 18.7322 60.9707 18.9002 61.2832C19.0681 61.5957 19.2966 61.834 19.5857 61.998C19.8787 62.1582 20.2146 62.2383 20.5935 62.2383C20.9529 62.2383 21.2556 62.1719 21.5017 62.0391C21.7517 61.9023 21.9412 61.7266 22.0701 61.5117H23.1482C23.0466 61.832 22.8767 62.1152 22.6384 62.3613C22.4041 62.6035 22.1111 62.793 21.7595 62.9297C21.4119 63.0625 21.0232 63.1289 20.5935 63.1289ZM22.2224 59.2969C22.2224 58.9414 22.1502 58.625 22.0056 58.3477C21.865 58.0664 21.6638 57.8457 21.4021 57.6855C21.1404 57.5254 20.8396 57.4453 20.4998 57.4453C20.1443 57.4453 19.8279 57.5293 19.5505 57.6973C19.2771 57.8652 19.0603 58.0918 18.9002 58.377C18.7439 58.6582 18.6541 58.9648 18.6306 59.2969H22.2224ZM24.0098 61.1953C24.0098 60.5352 24.2344 60.0703 24.6836 59.8008C25.1367 59.5312 25.709 59.3711 26.4004 59.3203C26.666 59.3008 26.9629 59.2832 27.291 59.2676C27.623 59.248 27.9004 59.2344 28.123 59.2266V58.7109C28.123 58.3008 28 57.9863 27.7539 57.7676C27.5117 57.5449 27.1543 57.4336 26.6816 57.4336C26.2949 57.4336 25.9785 57.5137 25.7324 57.6738C25.4863 57.8301 25.3262 58.0352 25.252 58.2891H24.1973C24.2402 57.9492 24.373 57.6484 24.5957 57.3867C24.8184 57.125 25.1133 56.9219 25.4805 56.7773C25.8516 56.6289 26.2676 56.5547 26.7285 56.5547C27.3379 56.5547 27.8887 56.7109 28.3809 57.0234C28.873 57.332 29.1191 57.9258 29.1191 58.8047V63H28.123V62.1328H28.0762C27.998 62.2969 27.877 62.457 27.7129 62.6133C27.5527 62.7656 27.3418 62.8945 27.0801 63C26.8223 63.1016 26.5215 63.1523 26.1777 63.1523C25.7715 63.1523 25.4043 63.0742 25.0762 62.918C24.748 62.7617 24.4883 62.5371 24.2969 62.2441C24.1055 61.9473 24.0098 61.5977 24.0098 61.1953ZM25.0176 61.2422C25.0176 61.5664 25.1387 61.8164 25.3809 61.9922C25.627 62.1641 25.9512 62.25 26.3535 62.25C26.7168 62.25 27.0312 62.1777 27.2969 62.0332C27.5664 61.8887 27.7715 61.6973 27.9121 61.459C28.0527 61.2207 28.123 60.9648 28.123 60.6914V60.0527C28.0293 60.0566 27.7715 60.0742 27.3496 60.1055L26.5176 60.1641C26.041 60.1953 25.6719 60.2988 25.4102 60.4746C25.1484 60.6504 25.0176 60.9062 25.0176 61.2422ZM33.0979 63.1289C32.508 63.1289 31.9924 62.9902 31.551 62.7129C31.1135 62.4316 30.7776 62.043 30.5432 61.5469C30.3088 61.0508 30.1916 60.4844 30.1916 59.8477C30.1916 59.207 30.3108 58.6387 30.5491 58.1426C30.7913 57.6426 31.1291 57.2539 31.5627 56.9766C32.0002 56.6953 32.5041 56.5547 33.0745 56.5547C33.5237 56.5547 33.9299 56.6387 34.2932 56.8066C34.6565 56.9707 34.9514 57.2051 35.178 57.5098C35.4084 57.8105 35.551 58.1602 35.6057 58.5586H34.5979C34.551 58.3555 34.4612 58.1699 34.3284 58.002C34.1955 57.834 34.0237 57.6992 33.8127 57.5977C33.6057 57.4961 33.3674 57.4453 33.0979 57.4453C32.7229 57.4453 32.3909 57.543 32.1018 57.7383C31.8166 57.9336 31.594 58.2109 31.4338 58.5703C31.2776 58.9258 31.1995 59.3398 31.1995 59.8125C31.1995 60.3008 31.2756 60.7266 31.428 61.0898C31.5842 61.4531 31.8049 61.7344 32.0901 61.9336C32.3791 62.1289 32.7151 62.2266 33.0979 62.2266C33.4768 62.2266 33.7991 62.1309 34.0647 61.9395C34.3342 61.7441 34.512 61.4727 34.5979 61.125H35.6057C35.551 61.5078 35.4143 61.8516 35.1955 62.1562C34.9768 62.457 34.6877 62.6953 34.3284 62.8711C33.969 63.043 33.5588 63.1289 33.0979 63.1289ZM39.3852 57.4805H38.0493V61.1719C38.0493 61.5469 38.1235 61.7988 38.272 61.9277C38.4204 62.0566 38.6235 62.1211 38.8813 62.1211C39.0766 62.1211 39.2759 62.1133 39.479 62.0977V63.0352C39.2759 63.0664 39.0415 63.082 38.7759 63.082C38.479 63.082 38.1977 63.0215 37.9321 62.9004C37.6665 62.7754 37.4497 62.5879 37.2817 62.3379C37.1138 62.0879 37.0298 61.7852 37.0298 61.4297V57.4805H36.0688V56.6367H37.0298V55.1133H38.0493V56.6367H39.3852V57.4805Z" fill="#999999"/>
<defs>
<clipPath id="clip0_44_8892">
<rect width="22.3404" height="22.3404" fill="white" transform="translate(14.5771 14.5771)"/>
</clipPath>
</defs>
</svg>
