<svg width="50" height="50" viewBox="0 0 50 50" fill="none" xmlns="http://www.w3.org/2000/svg">
<mask id="mask0_113_30829" style="mask-type:luminance" maskUnits="userSpaceOnUse" x="10" y="11" width="30" height="30">
<path fill-rule="evenodd" clip-rule="evenodd" d="M10 11.501H39.2485V40.7495H10V11.501Z" fill="white"/>
</mask>
<g mask="url(#mask0_113_30829)">
<path fill-rule="evenodd" clip-rule="evenodd" d="M23.2074 29.2273L28.6929 38.1268C28.9329 38.5168 29.3079 38.5123 29.4594 38.4913C29.6109 38.4703 29.9754 38.3773 30.1074 37.9348L36.9669 14.7673C37.0869 14.3578 36.8664 14.0788 36.7674 13.9798C36.6714 13.8808 36.3969 13.6693 35.9994 13.7818L12.8154 20.5708C12.3759 20.6998 12.2799 21.0688 12.2589 21.2203C12.2379 21.3748 12.2319 21.7573 12.6204 22.0018L21.6219 27.6313L29.5749 19.5943C30.0114 19.1533 30.7239 19.1488 31.1664 19.5853C31.6089 20.0218 31.6119 20.7358 31.1754 21.1768L23.2074 29.2273ZM29.3424 40.7503C28.2984 40.7503 27.3414 40.2193 26.7774 39.3073L20.9619 29.8708L11.4279 23.9083C10.4004 23.2648 9.86342 22.1188 10.0299 20.9143C10.1949 19.7098 11.0214 18.7528 12.1824 18.4123L35.3664 11.6233C36.4329 11.3113 37.5759 11.6068 38.3619 12.3898C39.1479 13.1803 39.4404 14.3353 39.1224 15.4063L32.2629 38.5723C31.9194 39.7378 30.9594 40.5613 29.7579 40.7218C29.6169 40.7398 29.4804 40.7503 29.3424 40.7503Z" fill="#337AFF"/>
</g>
</svg>
