<svg width="50" height="50" viewBox="0 0 50 50" fill="none" xmlns="http://www.w3.org/2000/svg">
<path d="M22.8545 11.2C23.808 9.6 26.192 9.6 27.1455 11.2L42.1644 36.4C43.118 38 41.926 40 40.0188 40H9.98116C8.07401 40 6.88204 38 7.83561 36.4L22.8545 11.2Z" fill="#337AFF"/>
<path d="M23.3989 31.2959L22.5989 22.001H27.399L26.599 31.2959H23.3989ZM24.999 36.401C24.2764 36.401 23.6828 36.2179 23.2183 35.8518C22.7537 35.4857 22.5215 35.0518 22.5215 34.5501C22.5215 34.0349 22.7537 33.6078 23.2183 33.2688C23.6828 32.9162 24.2764 32.74 24.999 32.74C25.7387 32.74 26.3323 32.9162 26.7796 33.2688C27.2442 33.6078 27.4764 34.0349 27.4764 34.5501C27.4764 35.0518 27.2442 35.4857 26.7796 35.8518C26.3323 36.2179 25.7387 36.401 24.999 36.401Z" fill="white"/>
</svg>
