<svg width="50" height="50" viewBox="0 0 50 50" fill="none" xmlns="http://www.w3.org/2000/svg">
<path d="M10.6539 34.9626C10.8747 33.8 12.0103 32.9307 13.1903 33.021L18.1224 33.3987C19.3024 33.4891 20.08 34.5049 19.8592 35.6675L18.8909 40.7659C18.67 41.9286 17.5344 42.7979 16.3544 42.7076L11.4224 42.3299C10.2423 42.2395 9.46477 41.2237 9.68559 40.0611L10.6539 34.9626Z" fill="#925319"/>
<path d="M39.6054 34.9626C39.3846 33.8 38.249 32.9307 37.069 33.021L32.1369 33.3987C30.9569 33.4891 30.1793 34.5049 30.4001 35.6675L31.3684 40.7659C31.5892 41.9286 32.7248 42.7979 33.9048 42.7076L38.8369 42.3299C40.0169 42.2395 40.7945 41.2237 40.5737 40.0611L39.6054 34.9626Z" fill="#925319"/>
<path d="M17.9084 29.6681C17.9084 33.4295 14.8592 36.4788 11.0978 36.4788C7.33635 36.4788 4.28711 33.4295 4.28711 29.6681C4.28711 25.9067 7.33635 22.8574 11.0978 22.8574C14.8592 22.8574 17.9084 25.9067 17.9084 29.6681Z" fill="#FF9C27"/>
<path d="M45.7166 29.6681C45.7166 33.4295 42.6673 36.4788 38.9059 36.4788C35.1445 36.4788 32.0952 33.4295 32.0952 29.6681C32.0952 25.9067 35.1445 22.8574 38.9059 22.8574C42.6673 22.8574 45.7166 25.9067 45.7166 29.6681Z" fill="#FF9C27"/>
<path d="M42.1441 25.7172C42.1441 34.396 34.469 41.4315 25.0013 41.4315C15.5335 41.4315 7.8584 34.396 7.8584 25.7172C7.8584 17.0385 15.5335 10.0029 25.0013 10.0029C34.469 10.0029 42.1441 17.0385 42.1441 25.7172Z" fill="#FFBA68"/>
<mask id="mask0_133_49405" style="mask-type:alpha" maskUnits="userSpaceOnUse" x="7" y="10" width="36" height="32">
<path d="M42.1436 25.7143C42.1436 34.393 34.4685 41.4286 25.0008 41.4286C15.533 41.4286 7.85791 34.393 7.85791 25.7143C7.85791 17.0355 15.533 10 25.0008 10C34.4685 10 42.1436 17.0355 42.1436 25.7143Z" fill="#FFAB49"/>
</mask>
<g mask="url(#mask0_133_49405)">
<path d="M19.0822 33.7871C19.0822 37.4568 16.0866 40.4317 12.3912 40.4317C8.69587 40.4317 5.7002 37.4568 5.7002 33.7871C5.7002 30.1174 8.69587 27.1426 12.3912 27.1426C16.0866 27.1426 19.0822 30.1174 19.0822 33.7871Z" fill="#FF9A24"/>
<path d="M44.0251 33.7871C44.0251 37.4568 41.0294 40.4317 37.3341 40.4317C33.6387 40.4317 30.6431 37.4568 30.6431 33.7871C30.6431 30.1174 33.6387 27.1426 37.3341 27.1426C41.0294 27.1426 44.0251 30.1174 44.0251 33.7871Z" fill="#FF9A24"/>
</g>
<path d="M25.7157 30.7143C25.7157 31.1088 25.3959 31.4286 25.0014 31.4286C24.6069 31.4286 24.2871 31.1088 24.2871 30.7143C24.2871 30.3198 24.6069 30 25.0014 30C25.3959 30 25.7157 30.3198 25.7157 30.7143Z" fill="#915700"/>
<path fill-rule="evenodd" clip-rule="evenodd" d="M19.3608 32.3816C19.5049 32.1461 19.8127 32.072 20.0483 32.2162L21.0478 32.8282C21.7225 33.2413 22.5656 33.2655 23.263 32.892C24.2151 32.3819 25.3593 32.3819 26.3114 32.892C27.0087 33.2655 27.8519 33.2413 28.5266 32.8282L29.5261 32.2162C29.7616 32.072 30.0694 32.1461 30.2136 32.3816C30.3578 32.6171 30.2838 32.9249 30.0483 33.0691L29.0487 33.681C28.0712 34.2795 26.8495 34.3147 25.8392 33.7734C25.182 33.4214 24.3923 33.4214 23.7352 33.7734C22.7248 34.3147 21.5032 34.2795 20.5256 33.681L19.5261 33.0691C19.2906 32.9249 19.2166 32.6171 19.3608 32.3816Z" fill="#A75A00"/>
<path d="M29.2967 31.7107L26.3321 30.6587C25.9612 30.527 25.6122 30.8558 25.7216 31.2339L26.5953 34.2558C26.6889 34.6214 26.8759 34.9723 27.1565 35.2701C28.0064 36.1722 29.3938 36.2457 30.2552 35.4341C31.1165 34.6225 31.1258 33.2333 30.2758 32.3311C29.9952 32.0334 29.6561 31.8259 29.2967 31.7107Z" fill="white"/>
<path d="M16.4302 27.7127C17.3677 27.9027 19.6802 28.0548 21.4302 27.1426" stroke="#905A09" stroke-linecap="round"/>
<path d="M33.5728 27.7127C32.6353 27.9027 30.3228 28.0548 28.5728 27.1426" stroke="#905A09" stroke-linecap="round"/>
<path fill-rule="evenodd" clip-rule="evenodd" d="M41.1721 26.8787C42.2534 25.0284 42.8578 22.9623 42.8578 20.7827C42.8578 12.8552 34.8629 6.42871 25.0007 6.42871C15.1385 6.42871 7.14355 12.8552 7.14355 20.7827C7.14355 22.9621 7.74785 25.0282 8.82912 26.8784C11.6808 21.9989 17.8498 18.6205 25.0005 18.6205C32.1513 18.6205 38.3204 21.9991 41.1721 26.8787Z" fill="#925319"/>
<path d="M16.3682 15.6765C16.5891 14.5138 17.7247 13.6445 18.9047 13.7349L23.8367 14.1126C25.0168 14.2029 25.7943 15.2187 25.5735 16.3814L24.6052 21.4798C24.3844 22.6425 23.2488 23.5118 22.0688 23.4214L17.1367 23.0438C15.9567 22.9534 15.1791 21.9376 15.3999 20.7749L16.3682 15.6765Z" fill="#925319"/>
<path d="M33.891 15.6765C33.6702 14.5138 32.5346 13.6445 31.3546 13.7349L26.4225 14.1126C25.2425 14.2029 24.4649 15.2187 24.6858 16.3814L25.6541 21.4798C25.8749 22.6425 27.0105 23.5118 28.1905 23.4214L33.1226 23.0438C34.3026 22.9534 35.0802 21.9376 34.8593 20.7749L33.891 15.6765Z" fill="#925319"/>
</svg>
