<svg width="50" height="50" viewBox="0 0 50 50" fill="none" xmlns="http://www.w3.org/2000/svg">
<path d="M17.0163 34.1512C17.0163 38.1007 13.8146 41.3024 9.86507 41.3024C5.91557 41.3024 2.71387 38.1007 2.71387 34.1512C2.71387 30.2017 5.91557 27 9.86507 27C13.8146 27 17.0163 30.2017 17.0163 34.1512Z" fill="#FF9C27"/>
<path d="M46.2663 34.1512C46.2663 38.1007 43.0646 41.3024 39.1151 41.3024C35.1656 41.3024 31.9639 38.1007 31.9639 34.1512C31.9639 30.2017 35.1656 27 39.1151 27C43.0646 27 46.2663 30.2017 46.2663 34.1512Z" fill="#FF9C27"/>
<path d="M42.4639 30.0029C42.4639 39.1156 34.405 46.5029 24.4639 46.5029C14.5227 46.5029 6.46387 39.1156 6.46387 30.0029C6.46387 20.8902 14.5227 13.5029 24.4639 13.5029C34.405 13.5029 42.4639 20.8902 42.4639 30.0029Z" fill="#FFBA68"/>
<mask id="mask0_42_6690" style="mask-type:alpha" maskUnits="userSpaceOnUse" x="6" y="13" width="37" height="34">
<path d="M42.4639 30C42.4639 39.1127 34.405 46.5 24.4639 46.5C14.5227 46.5 6.46387 39.1127 6.46387 30C6.46387 20.8873 14.5227 13.5 24.4639 13.5C34.405 13.5 42.4639 20.8873 42.4639 30Z" fill="#FFAB49"/>
</mask>
<g mask="url(#mask0_42_6690)">
<path d="M18.2494 38.4768C18.2494 42.33 15.1039 45.4536 11.2238 45.4536C7.3437 45.4536 4.19824 42.33 4.19824 38.4768C4.19824 34.6236 7.3437 31.5 11.2238 31.5C15.1039 31.5 18.2494 34.6236 18.2494 38.4768Z" fill="#FF9A24"/>
<path d="M44.4398 38.4768C44.4398 42.33 41.2944 45.4536 37.4142 45.4536C33.5341 45.4536 30.3887 42.33 30.3887 38.4768C30.3887 34.6236 33.5341 31.5 37.4142 31.5C41.2944 31.5 44.4398 34.6236 44.4398 38.4768Z" fill="#FF9A24"/>
<path d="M31.2139 32.3225C31.2139 33.1109 30.5423 33.75 29.7139 33.75C28.8854 33.75 28.2139 33.1109 28.2139 32.3225C28.2139 31.5341 28.8854 30.895 29.7139 30.895C30.5423 30.895 31.2139 31.5341 31.2139 32.3225Z" fill="black"/>
<path fill-rule="evenodd" clip-rule="evenodd" d="M30.4809 30.2823C30.6278 30.5428 30.525 30.8673 30.2512 31.0071C30.1024 31.0831 29.8769 31.2386 29.7165 31.4327C29.5571 31.6256 29.5133 31.7883 29.5489 31.9302C29.6211 32.2177 29.4347 32.5065 29.1326 32.5753C28.8305 32.644 28.527 32.4666 28.4547 32.1791C28.3092 31.5998 28.5554 31.1059 28.8322 30.7709C29.108 30.4372 29.4648 30.1937 29.7193 30.0637C29.9931 29.9239 30.334 30.0218 30.4809 30.2823Z" fill="black"/>
</g>
<path d="M25.2139 35.25C25.2139 35.6642 24.8781 36 24.4639 36C24.0497 36 23.7139 35.6642 23.7139 35.25C23.7139 34.8358 24.0497 34.5 24.4639 34.5C24.8781 34.5 25.2139 34.8358 25.2139 35.25Z" fill="black"/>
<path fill-rule="evenodd" clip-rule="evenodd" d="M17.7305 31.1167C17.7976 30.8506 18.0482 30.6946 18.2904 30.7683L21.0731 31.615C21.5828 31.7701 21.5979 32.5581 21.0947 32.7367L18.3089 33.7257C18.0698 33.8105 17.8133 33.6664 17.736 33.4036C17.6588 33.1409 17.79 32.8591 18.0291 32.7742L19.6185 32.2099L18.0476 31.7319C17.8054 31.6582 17.6634 31.3828 17.7305 31.1167Z" fill="black"/>
<path fill-rule="evenodd" clip-rule="evenodd" d="M18.302 28.0726C17.7634 28.153 17.3278 28.4327 17.1065 28.6498C16.8995 28.8528 16.5671 28.8496 16.3641 28.6426C16.161 28.4357 16.1642 28.1033 16.3712 27.9002C16.7269 27.5513 17.3586 27.1518 18.1469 27.0341C18.959 26.9129 19.9036 27.0969 20.8267 27.8732C21.0487 28.0598 21.0773 28.3909 20.8907 28.6129C20.7041 28.8348 20.3729 28.8634 20.151 28.6768C19.4587 28.0947 18.8168 27.9958 18.302 28.0726Z" fill="#905A09"/>
<path fill-rule="evenodd" clip-rule="evenodd" d="M29.552 28.0726C29.0134 28.153 28.5778 28.4327 28.3565 28.6498C28.1495 28.8528 27.8171 28.8496 27.6141 28.6426C27.411 28.4357 27.4142 28.1033 27.6212 27.9002C27.9769 27.5513 28.6086 27.1518 29.3969 27.0341C30.209 26.9129 31.1536 27.0969 32.0767 27.8732C32.2987 28.0598 32.3273 28.3909 32.1407 28.6129C31.9541 28.8348 31.6229 28.8634 31.401 28.6768C30.7087 28.0947 30.0668 27.9958 29.552 28.0726Z" fill="#905A09"/>
<path d="M22.8729 38.6584C22.7545 38.5164 22.6508 38.3602 22.5627 38.1932C22.1762 37.4604 22.8854 36.7492 23.7139 36.7492L25.2139 36.7492C26.0423 36.7492 26.7515 37.4604 26.3651 38.1932C26.277 38.3602 26.1732 38.5164 26.0549 38.6584C25.6329 39.1648 25.0606 39.4492 24.4639 39.4492C23.8671 39.4492 23.2948 39.1648 22.8729 38.6584Z" fill="#E16037"/>
<path fill-rule="evenodd" clip-rule="evenodd" d="M31.7075 11.1935C31.7461 10.889 31.766 10.5785 31.766 10.2634C31.766 6.25195 28.5373 3 24.5545 3C20.5717 3 17.343 6.25195 17.343 10.2634C17.343 10.5586 17.3604 10.8497 17.3944 11.1356C10.5432 13.379 5.71387 18.7858 5.71387 25.0992C5.71387 27.3877 6.34838 29.557 7.48371 31.4998C8.00581 30.6064 8.6338 29.761 9.35469 28.9739L17.5768 29.6035L18.7269 23.5475C19.0375 23.4673 19.3516 23.3935 19.6689 23.3262V29.6211H29.4045V23.3577C29.5628 23.3924 29.7202 23.4287 29.8768 23.4666L31.0424 29.6038L39.5526 28.9521C40.282 29.7455 40.9168 30.5984 41.4438 31.5001C42.5792 29.5573 43.2138 27.3878 43.2138 25.0992C43.2138 18.8394 38.4662 13.471 31.7075 11.1935Z" fill="#925319"/>
</svg>
