<svg width="50" height="50" viewBox="0 0 50 50" fill="none" xmlns="http://www.w3.org/2000/svg">
<path d="M6.65169 43.4424C10.0196 41.4513 10.6277 35.3119 10.5108 32.4911L9.45872 30.5L20.3344 35.7267C20.919 37.3031 21.176 41.053 17.5273 43.4424C12.9666 46.4291 2.44176 45.9313 6.65169 43.4424Z" fill="#6B4D20"/>
<path d="M43.7038 43.4424C40.3358 41.4513 39.7277 35.3119 39.8447 32.4911L40.8967 30.5L30.0211 35.7267C29.4365 37.3031 29.1795 41.053 32.8281 43.4424C37.3889 46.4291 47.9137 45.9313 43.7038 43.4424Z" fill="#6B4D20"/>
<path d="M17.7301 30.1512C17.7301 34.1007 14.5284 37.3024 10.5789 37.3024C6.62944 37.3024 3.42773 34.1007 3.42773 30.1512C3.42773 26.2017 6.62944 23 10.5789 23C14.5284 23 17.7301 26.2017 17.7301 30.1512Z" fill="#FF9C27"/>
<path d="M46.9284 30.1512C46.9284 34.1007 43.7267 37.3024 39.7772 37.3024C35.8277 37.3024 32.626 34.1007 32.626 30.1512C32.626 26.2017 35.8277 23 39.7772 23C43.7267 23 46.9284 26.2017 46.9284 30.1512Z" fill="#FF9C27"/>
<path d="M43.1777 26.0029C43.1777 35.1156 35.1189 42.5029 25.1777 42.5029C15.2366 42.5029 7.17773 35.1156 7.17773 26.0029C7.17773 16.8902 15.2366 9.50293 25.1777 9.50293C35.1189 9.50293 43.1777 16.8902 43.1777 26.0029Z" fill="#FFBA68"/>
<mask id="mask0_42_6692" style="mask-type:alpha" maskUnits="userSpaceOnUse" x="7" y="9" width="37" height="34">
<path d="M43.1777 26C43.1777 35.1127 35.1189 42.5 25.1777 42.5C15.2366 42.5 7.17773 35.1127 7.17773 26C7.17773 16.8873 15.2366 9.5 25.1777 9.5C35.1189 9.5 43.1777 16.8873 43.1777 26Z" fill="#FFAB49"/>
</mask>
<g mask="url(#mask0_42_6692)">
<path d="M18.9633 34.4768C18.9633 38.33 15.8178 41.4536 11.9377 41.4536C8.05756 41.4536 4.91211 38.33 4.91211 34.4768C4.91211 30.6236 8.05756 27.5 11.9377 27.5C15.8178 27.5 18.9633 30.6236 18.9633 34.4768Z" fill="#FF9A24"/>
<path d="M45.1537 34.4768C45.1537 38.33 42.0082 41.4536 38.1281 41.4536C34.248 41.4536 31.1025 38.33 31.1025 34.4768C31.1025 30.6236 34.248 27.5 38.1281 27.5C42.0082 27.5 45.1537 30.6236 45.1537 34.4768Z" fill="#FF9A24"/>
</g>
<path d="M25.9277 31.25C25.9277 31.6642 25.5919 32 25.1777 32C24.7635 32 24.4277 31.6642 24.4277 31.25C24.4277 30.8358 24.7635 30.5 25.1777 30.5C25.5919 30.5 25.9277 30.8358 25.9277 31.25Z" fill="black"/>
<ellipse cx="19.9277" cy="28.25" rx="2.25" ry="2.25" fill="black"/>
<ellipse cx="19.4086" cy="27.7308" rx="1.03846" ry="1.03846" fill="white"/>
<ellipse cx="20.6198" cy="29.2888" rx="0.519231" ry="0.519231" fill="white"/>
<ellipse cx="30.4277" cy="28.25" rx="2.25" ry="2.25" fill="black"/>
<ellipse cx="29.9086" cy="27.7308" rx="1.03846" ry="1.03846" fill="white"/>
<ellipse cx="31.1198" cy="29.2888" rx="0.519231" ry="0.519231" fill="white"/>
<path fill-rule="evenodd" clip-rule="evenodd" d="M21.0495 33.7136C23.7379 34.5512 26.6175 34.5512 29.306 33.7136C29.5947 33.6237 29.7473 33.3412 29.6469 33.0827C29.5465 32.8241 29.2311 32.6874 28.9424 32.7774C26.4907 33.5411 23.8647 33.5411 21.4131 32.7774C21.1244 32.6874 20.809 32.8241 20.7086 33.0827C20.6082 33.3412 20.7608 33.6237 21.0495 33.7136Z" fill="#A75A00"/>
<path fill-rule="evenodd" clip-rule="evenodd" d="M19.7924 23.7487C20.2666 23.481 20.5735 23.0641 20.7025 22.7823C20.8232 22.5187 21.1348 22.4028 21.3984 22.5235C21.6621 22.6442 21.7779 22.9558 21.6572 23.2194C21.4498 23.6724 21.0027 24.2713 20.3085 24.6631C19.5934 25.0666 18.6454 25.2325 17.5058 24.8375C17.2318 24.7426 17.0867 24.4435 17.1816 24.1696C17.2766 23.8956 17.5756 23.7505 17.8496 23.8454C18.7042 24.1416 19.3391 24.0045 19.7924 23.7487Z" fill="#905A09"/>
<path fill-rule="evenodd" clip-rule="evenodd" d="M30.6031 23.7487C30.1289 23.481 29.822 23.0641 29.693 22.7823C29.5723 22.5187 29.2607 22.4028 28.9971 22.5235C28.7334 22.6442 28.6176 22.9558 28.7383 23.2194C28.9457 23.6724 29.3928 24.2713 30.087 24.6631C30.8021 25.0666 31.7501 25.2325 32.8897 24.8375C33.1637 24.7426 33.3088 24.4435 33.2139 24.1696C33.1189 23.8956 32.8199 23.7505 32.5459 23.8454C31.6913 24.1416 31.0564 24.0045 30.6031 23.7487Z" fill="#905A09"/>
<path fill-rule="evenodd" clip-rule="evenodd" d="M43.4963 25.1802C44.2607 23.5709 44.6779 21.8327 44.6779 20.0195C44.6779 11.7244 35.9474 5 25.1778 5C14.4082 5 5.67773 11.7244 5.67773 20.0195C5.67773 21.9525 6.15185 23.8003 7.01541 25.4975L6.52324 26.3611C6.18131 26.9611 6.77746 27.6543 7.46067 27.4695C23.0415 23.256 27.274 19.2189 28.2122 17.2397C28.2933 17.5188 28.416 17.8473 28.5936 18.2282C32.2218 26.0099 42.7035 27.9557 43.5098 27.1776C43.6984 26.9955 43.6664 26.2384 43.4963 25.1802Z" fill="#6B4D20"/>
</svg>
