<svg width="50" height="50" viewBox="0 0 50 50" fill="none" xmlns="http://www.w3.org/2000/svg">
<g clip-path="url(#clip0_133_49406)">
<path d="M7.5464 37.5001C10.0888 36.4832 10.3689 33.694 10.1481 32.0014C10.1174 31.7659 10.3599 31.5734 10.5756 31.6729L19.1751 35.642C19.2716 35.6865 19.3358 35.7857 19.3404 35.8919C19.9076 48.8226 11.2214 50.3687 7.11782 49.5211C6.83312 49.4623 6.85486 49.0772 7.13007 48.9835C10.0996 47.9728 10.2131 45.1748 7.5464 44.2859C4.33212 43.2144 3.97497 38.9287 7.5464 37.5001Z" fill="#925319"/>
<path d="M41.8198 37.5001C39.2774 36.4832 38.9973 33.694 39.2181 32.0014C39.2489 31.7659 39.0063 31.5734 38.7906 31.6729L30.1911 35.642C30.0946 35.6865 30.0304 35.7857 30.0258 35.8919C29.4586 48.8226 38.1448 50.3687 42.2484 49.5211C42.5331 49.4623 42.5114 49.0772 42.2361 48.9835C39.2667 47.9728 39.1531 45.1748 41.8198 44.2859C45.0341 43.2144 45.3912 38.9287 41.8198 37.5001Z" fill="#925319"/>
<path d="M17.906 31.5441C17.906 35.3055 14.8568 38.3547 11.0953 38.3547C7.33391 38.3547 4.28467 35.3055 4.28467 31.5441C4.28467 27.7826 7.33391 24.7334 11.0953 24.7334C14.8568 24.7334 17.906 27.7826 17.906 31.5441Z" fill="#FF9C27"/>
<path d="M45.7141 31.5441C45.7141 35.3055 42.6649 38.3547 38.9034 38.3547C35.142 38.3547 32.0928 35.3055 32.0928 31.5441C32.0928 27.7826 35.142 24.7334 38.9034 24.7334C42.6649 24.7334 45.7141 27.7826 45.7141 31.5441Z" fill="#FF9C27"/>
<path d="M42.1417 27.5932C42.1417 36.272 34.4666 43.3075 24.9988 43.3075C15.5311 43.3075 7.85596 36.272 7.85596 27.5932C7.85596 18.9144 15.5311 11.8789 24.9988 11.8789C34.4666 11.8789 42.1417 18.9144 42.1417 27.5932Z" fill="#FFBA68"/>
<mask id="mask0_133_49406" style="mask-type:alpha" maskUnits="userSpaceOnUse" x="7" y="11" width="36" height="33">
<path d="M42.1417 27.5932C42.1417 36.272 34.4666 43.3075 24.9988 43.3075C15.5311 43.3075 7.85596 36.272 7.85596 27.5932C7.85596 18.9144 15.5311 11.8789 24.9988 11.8789C34.4666 11.8789 42.1417 18.9144 42.1417 27.5932Z" fill="#FFAB49"/>
</mask>
<g mask="url(#mask0_133_49406)">
<path d="M19.2849 35.666C19.2849 39.3357 16.2892 42.3106 12.5939 42.3106C8.8985 42.3106 5.90283 39.3357 5.90283 35.666C5.90283 31.9964 8.8985 29.0215 12.5939 29.0215C16.2892 29.0215 19.2849 31.9964 19.2849 35.666Z" fill="#FF9A24"/>
<path d="M44.0949 35.666C44.0949 39.3357 41.0993 42.3106 37.4039 42.3106C33.7086 42.3106 30.7129 39.3357 30.7129 35.666C30.7129 31.9964 33.7086 29.0215 37.4039 29.0215C41.0993 29.0215 44.0949 31.9964 44.0949 35.666Z" fill="#FF9A24"/>
<circle cx="19.9983" cy="29.7356" r="2.14286" fill="black"/>
<circle cx="19.5037" cy="29.241" r="0.989011" fill="white"/>
<circle cx="20.6571" cy="30.725" r="0.494506" fill="white"/>
<circle cx="29.9983" cy="29.7356" r="2.14286" fill="black"/>
<circle cx="29.5037" cy="29.241" r="0.989011" fill="white"/>
<circle cx="30.6571" cy="30.725" r="0.494506" fill="white"/>
</g>
<path d="M25.7132 32.5903C25.7132 32.9848 25.3934 33.3045 24.999 33.3045C24.6045 33.3045 24.2847 32.9848 24.2847 32.5903C24.2847 32.1958 24.6045 31.876 24.999 31.876C25.3934 31.876 25.7132 32.1958 25.7132 32.5903Z" fill="black"/>
<path d="M23.4835 36.5545C23.3708 36.4192 23.272 36.2705 23.1881 36.1114C22.82 35.4135 23.4955 34.7362 24.2845 34.7362L25.713 34.7362C26.502 34.7362 27.1775 35.4135 26.8094 36.1114C26.7255 36.2705 26.6267 36.4192 26.514 36.5545C26.1121 37.0367 25.5671 37.3076 24.9987 37.3076C24.4304 37.3076 23.8854 37.0367 23.4835 36.5545Z" fill="#E16037"/>
<path fill-rule="evenodd" clip-rule="evenodd" d="M21.4662 25.1305C21.6324 25.2368 21.6809 25.4577 21.5746 25.6238L21.0045 26.5147C20.8982 26.6808 20.6773 26.7293 20.5112 26.623C20.3451 26.5167 20.2966 26.2958 20.4029 26.1297L20.9729 25.2388C21.0792 25.0727 21.3001 25.0242 21.4662 25.1305Z" fill="black"/>
<path fill-rule="evenodd" clip-rule="evenodd" d="M17.6744 25.1305C17.5082 25.2368 17.4597 25.4577 17.566 25.6238L18.1361 26.5147C18.2424 26.6808 18.4633 26.7293 18.6294 26.623C18.7956 26.5167 18.8441 26.2958 18.7378 26.1297L18.1677 25.2388C18.0614 25.0727 17.8405 25.0242 17.6744 25.1305Z" fill="black"/>
<path fill-rule="evenodd" clip-rule="evenodd" d="M19.6423 24.7363C19.8395 24.7363 19.9994 24.8962 19.9994 25.0935V26.0935C19.9994 26.2907 19.8395 26.4506 19.6423 26.4506C19.4451 26.4506 19.2852 26.2907 19.2852 26.0935V25.0935C19.2852 24.8962 19.4451 24.7363 19.6423 24.7363Z" fill="black"/>
<path fill-rule="evenodd" clip-rule="evenodd" d="M21.5698 27.5224C20.0362 26.3651 18.3641 27.0321 17.7144 27.5224C17.5569 27.6412 17.333 27.6099 17.2142 27.4524C17.0954 27.295 17.1267 27.071 17.2841 26.9522C18.063 26.3645 20.1051 25.5222 22.0001 26.9522C22.1575 27.071 22.1889 27.295 22.07 27.4524C21.9512 27.6099 21.7273 27.6412 21.5698 27.5224Z" fill="black"/>
<path fill-rule="evenodd" clip-rule="evenodd" d="M32.1801 25.1305C32.3463 25.2368 32.3948 25.4577 32.2884 25.6238L31.7184 26.5147C31.6121 26.6808 31.3912 26.7293 31.2251 26.623C31.0589 26.5167 31.0104 26.2958 31.1167 26.1297L31.6868 25.2388C31.7931 25.0727 32.014 25.0242 32.1801 25.1305Z" fill="black"/>
<path fill-rule="evenodd" clip-rule="evenodd" d="M28.3882 25.1305C28.2221 25.2368 28.1736 25.4577 28.2799 25.6238L28.85 26.5147C28.9563 26.6808 29.1771 26.7293 29.3433 26.623C29.5094 26.5167 29.5579 26.2958 29.4516 26.1297L28.8816 25.2388C28.7753 25.0727 28.5544 25.0242 28.3882 25.1305Z" fill="black"/>
<path fill-rule="evenodd" clip-rule="evenodd" d="M30.3562 24.7363C30.5534 24.7363 30.7133 24.8962 30.7133 25.0935V26.0935C30.7133 26.2907 30.5534 26.4506 30.3562 26.4506C30.1589 26.4506 29.999 26.2907 29.999 26.0935V25.0935C29.999 24.8962 30.1589 24.7363 30.3562 24.7363Z" fill="black"/>
<path fill-rule="evenodd" clip-rule="evenodd" d="M32.2837 27.5224C30.7501 26.3651 29.078 27.0321 28.4282 27.5224C28.2708 27.6412 28.0469 27.6099 27.928 27.4524C27.8092 27.295 27.8405 27.071 27.998 26.9522C28.7768 26.3645 30.819 25.5222 32.714 26.9522C32.8714 27.071 32.9027 27.295 32.7839 27.4524C32.6651 27.6099 32.4412 27.6412 32.2837 27.5224Z" fill="black"/>
<path fill-rule="evenodd" clip-rule="evenodd" d="M42.8568 21.7621C42.8568 23.9418 42.2525 26.0079 41.1711 27.8582C40.6692 26.9993 40.0645 26.187 39.3698 25.4314L31.265 26.052L30.1549 20.2072C30.0057 20.1711 29.8557 20.1366 29.7049 20.1035V26.0689H20.4329V20.0736C20.1306 20.1377 19.8313 20.2081 19.5355 20.2844L18.4401 26.052L10.61 25.4524C9.92345 26.202 9.32537 27.0071 8.82814 27.8579C7.74688 26.0077 7.14258 23.9416 7.14258 21.7621C7.14258 13.8347 15.1375 7.4082 24.9997 7.4082C34.8619 7.4082 42.8568 13.8347 42.8568 21.7621Z" fill="#925319"/>
<path d="M32.5694 35.2048L31.1331 32.4062C30.9534 32.056 30.4739 32.056 30.2942 32.4062L28.8579 35.2048C28.6753 35.5351 28.5708 35.9187 28.5708 36.3278C28.5708 37.5673 29.5302 38.5721 30.7137 38.5721C31.8971 38.5721 32.8565 37.5673 32.8565 36.3278C32.8565 35.9187 32.752 35.5351 32.5694 35.2048Z" fill="white"/>
<path d="M21.1407 35.2048L19.7044 32.4062C19.5247 32.056 19.0452 32.056 18.8655 32.4062L17.4292 35.2048C17.2466 35.5351 17.1421 35.9187 17.1421 36.3278C17.1421 37.5673 18.1015 38.5721 19.2849 38.5721C20.4684 38.5721 21.4278 37.5673 21.4278 36.3278C21.4278 35.9187 21.3233 35.5351 21.1407 35.2048Z" fill="white"/>
<path d="M27.8265 0.255433C23.3709 3.44265 23.6831 7.08996 25.0286 9.58944C25.3678 10.2195 26.366 9.81902 26.4505 9.1085C26.7483 6.60573 27.8342 3.45459 28.8032 1.09964C29.0655 0.462201 28.3871 -0.145594 27.8265 0.255433Z" fill="#925319"/>
<path d="M30.2917 5.22517C27.4119 5.42965 26.1738 6.98978 25.7597 8.59296C25.5815 9.28282 26.63 9.58064 27.1444 9.08763C28.1375 8.13571 29.4383 7.19125 30.6033 6.43463C31.1826 6.05837 30.9808 5.17625 30.2917 5.22517Z" fill="#925319"/>
</g>
<defs>
<clipPath id="clip0_133_49406">
<rect width="50" height="50" fill="white"/>
</clipPath>
</defs>
</svg>
