<svg width="100" height="100" viewBox="0 0 100 100" fill="none" xmlns="http://www.w3.org/2000/svg">
<path fill-rule="evenodd" clip-rule="evenodd" d="M72.6399 51.3868C74.1538 48.7964 75 45.9038 75 42.8524C75 31.7539 63.8071 22.7568 50 22.7568C36.1929 22.7568 25 31.7539 25 42.8524C25 45.9036 25.846 48.7961 27.3598 51.3864C29.3751 47.938 32.5739 45.0252 36.5355 42.9858C36.315 44.5527 37.3876 45.8955 38.9907 46.0183L45.8956 46.547C47.5476 46.6735 49.1375 45.4565 49.4466 43.8288L50.1807 39.9638L50.9147 43.8288C51.2238 45.4565 52.8137 46.6735 54.4657 46.547L61.3706 46.0183C62.9046 45.9008 63.9529 44.6662 63.8472 43.1871C67.6321 45.2148 70.69 48.0502 72.6399 51.3868Z" fill="black"/>
<path d="M52.1593 10.3571C45.9214 14.8193 46.3585 19.9255 48.2423 23.4248C48.7171 24.3068 50.1146 23.7462 50.2329 22.7514C50.6498 19.2476 52.17 14.836 53.5266 11.539C53.8939 10.6466 52.9441 9.7957 52.1593 10.3571Z" fill="black"/>
<path d="M55.6113 17.3147C51.5796 17.6009 49.8462 19.7851 49.2665 22.0296C49.0171 22.9954 50.4849 23.4123 51.2051 22.7221C52.5955 21.3894 54.4165 20.0672 56.0475 19.0079C56.8586 18.4811 56.576 17.2462 55.6113 17.3147Z" fill="black"/>
</svg>
