<svg width="100" height="100" viewBox="0 0 100 100" fill="none" xmlns="http://www.w3.org/2000/svg">
<path fill-rule="evenodd" clip-rule="evenodd" d="M53.0159 23.1357C49.9694 21.3599 46.1244 18.1363 43.2772 12.7007C41.9146 10.0995 38.4172 15.182 38.8552 20.7125C37.6495 19.2893 36.4894 17.6129 35.4598 15.6472C33.7109 12.3085 28.4449 21.6283 32.4978 28.3064C27.2768 32.0321 24 37.4013 24 43.3701C24 46.8535 25.116 50.1327 27.0832 53.0001C27.5094 51.8839 28.0547 50.8103 28.7071 49.7891C28.6769 50.7433 29.3677 51.5292 30.3652 51.6065L32.6465 51.7831C33.7478 51.8684 34.8058 51.0575 35.0097 49.9719L36.3767 42.6938C40.2919 40.4767 45.0518 39.1768 50.1852 39.1768C54.8353 39.1768 59.1789 40.2435 62.8658 42.0923L64.3457 49.9719C64.5496 51.0575 65.6077 51.8684 66.709 51.7831L68.9903 51.6065C70.0915 51.5212 70.819 50.572 70.6151 49.4865L70.3263 47.9486C71.5105 49.3932 72.4658 50.9726 73.1499 52.6523C74.9719 49.8687 76 46.7135 76 43.3701C76 32.9193 65.9546 24.3067 53.0159 23.1357Z" fill="black"/>
</svg>
