<svg width="100" height="100" viewBox="0 0 100 100" fill="none" xmlns="http://www.w3.org/2000/svg">
<path fill-rule="evenodd" clip-rule="evenodd" d="M76 42.37C76 45.7133 74.9719 48.8685 73.1499 51.6522C72.4658 49.9724 71.5105 48.3931 70.3263 46.9484L70.6151 48.4863C70.819 49.5719 70.0915 50.5211 68.9903 50.6064L66.709 50.783C65.6077 50.8683 64.5496 50.0574 64.3457 48.9718L62.8658 41.0922C59.1789 39.2434 54.8353 38.1766 50.1852 38.1766C45.0518 38.1766 40.2919 39.4766 36.3767 41.6936L35.0097 48.9718C34.8058 50.0574 33.7478 50.8683 32.6465 50.783L30.3652 50.6064C29.3677 50.5291 28.6769 49.7431 28.7071 48.789C28.0547 49.8102 27.5094 50.8838 27.0832 52C25.116 49.1325 24 45.8534 24 42.37C24 31.12 35.6406 22 50 22C64.3594 22 76 31.12 76 42.37Z" fill="black"/>
<path d="M47.3218 18.0616C49.0771 16.923 51.5753 17.3117 52.9018 18.9297C54.2282 20.5477 53.8806 22.7824 52.1253 23.921L51.9824 24.0137C50.2272 25.1523 47.7289 24.7636 46.4024 23.1456C45.076 21.5276 45.4236 19.2929 47.1789 18.1543L47.3218 18.0616Z" fill="black"/>
</svg>
