<svg width="100" height="100" viewBox="0 0 100 100" fill="none" xmlns="http://www.w3.org/2000/svg">
<path fill-rule="evenodd" clip-rule="evenodd" d="M56.7385 23.444C57.1288 21.3885 59.1365 19.8517 61.2226 20.0114C63.0623 20.1523 64.3486 21.5655 64.3592 23.3071C65.9606 22.8309 67.8205 23.3329 68.9018 24.6518C70.1169 26.134 69.9272 28.1337 68.5374 29.3343C72.5536 32.8997 75 37.6291 75 42.8177C75 45.8691 74.1538 48.7617 72.6399 51.3522C71.6551 49.667 70.3877 48.1097 68.8868 46.7198C67.9567 47.6246 66.6901 48.2171 65.215 48.33C62.2299 48.5586 59.339 46.7508 58.0916 44.0926C56.6224 45.5511 54.5564 46.4098 52.4432 46.248C49.0603 45.989 46.7741 43.2079 47.1284 39.9218C38.357 40.728 30.9649 45.1831 27.3598 51.3517C25.846 48.7614 25 45.869 25 42.8177C25 31.7192 36.1929 22.7222 50 22.7222C52.3336 22.7222 54.5926 22.9792 56.7354 23.4599L56.7385 23.444Z" fill="black"/>
</svg>
