<svg width="100" height="100" viewBox="0 0 100 100" fill="none" xmlns="http://www.w3.org/2000/svg">
<path d="M55.119 8.07809C48.045 11.0411 47.3355 16.1166 48.3937 19.9472C48.6605 20.9128 50.1476 20.677 50.4843 19.7335C51.6701 16.4101 54.1334 12.4471 56.1893 9.53449C56.7458 8.74611 56.0091 7.70528 55.119 8.07809Z" fill="black"/>
<ellipse cx="50" cy="29.0938" rx="12" ry="11" fill="black"/>
<path fill-rule="evenodd" clip-rule="evenodd" d="M73.9975 49.8405C75.2876 47.4645 76.0002 44.8562 76.0002 42.1197C76.0002 31.0597 64.3596 22.0938 50.0001 22.0938C35.6406 22.0938 24 31.0597 24 42.1197C24 44.8562 24.7126 47.4645 26.0027 49.8405C26.4799 48.9616 27.0362 48.1145 27.6646 47.3044L27.3693 48.877C27.1654 49.9625 27.8928 50.9117 28.9941 50.997L31.2754 51.1736C32.3767 51.2589 33.4347 50.448 33.6386 49.3624L35.1906 41.0993C39.3929 38.8523 44.4969 37.5354 50.0001 37.5354C55.3416 37.5354 60.3069 38.776 64.4367 40.9036L66.0254 49.3624C66.2293 50.448 67.2874 51.2589 68.3886 51.1736L70.67 50.997C71.7712 50.9117 72.4987 49.9625 72.2948 48.877L71.897 46.759C72.7077 47.7319 73.4121 48.7623 73.9975 49.8405Z" fill="black"/>
<path fill-rule="evenodd" clip-rule="evenodd" d="M29.9359 65.0514C29.2808 68.3826 27.9137 71.8043 25.2986 73.3503C19.6854 76.6689 33.7185 77.3326 39.7995 73.3503C40.935 72.6067 41.7869 71.7642 42.4156 70.8828C38.5155 69.6929 35.0601 67.6104 32.338 64.8997C31.7541 65.0114 31.1514 65.0699 30.5349 65.0699C30.3337 65.0699 30.134 65.0637 29.9359 65.0514ZM57.5844 70.8828C58.2131 71.7642 59.065 72.6067 60.2005 73.3503C66.2815 77.3326 80.3146 76.6689 74.7014 73.3503C72.0864 71.8043 70.7192 68.3827 70.0641 65.0515C69.8665 65.0637 69.6673 65.0699 69.4666 65.0699C68.8497 65.0699 68.2465 65.0113 67.6623 64.8994C64.9401 67.6103 61.4847 69.6929 57.5844 70.8828Z" fill="black"/>
</svg>
