<svg width="100" height="100" viewBox="0 0 100 100" fill="none" xmlns="http://www.w3.org/2000/svg">
<path fill-rule="evenodd" clip-rule="evenodd" d="M72.6399 50.63C74.1538 48.0396 75 45.147 75 42.0955C75 30.9971 63.8071 22 50 22C36.1929 22 25 30.9971 25 42.0955C25 45.1468 25.846 48.0393 27.3598 50.6296C29.3751 47.1812 32.5739 44.2683 36.5355 42.229C36.315 43.7959 37.3876 45.1387 38.9907 45.2615L45.8956 45.7902C47.5476 45.9167 49.1375 44.6997 49.4466 43.0719L50.1807 39.207L50.9147 43.0719C51.2238 44.6997 52.8137 45.9167 54.4657 45.7902L61.3706 45.2615C62.9046 45.144 63.9529 43.9093 63.8472 42.4303C67.6321 44.458 70.69 47.2933 72.6399 50.63Z" fill="black"/>
<path fill-rule="evenodd" clip-rule="evenodd" d="M29.337 64.9954L28.5603 69.0851C28.2511 70.7129 29.3398 72.135 30.9918 72.2615L37.8967 72.7902C39.392 72.9047 40.8364 71.9185 41.3262 70.5232C37.8714 69.2952 34.8039 67.3552 32.338 64.8997C31.7541 65.0114 31.1514 65.0699 30.5349 65.0699C30.1292 65.0699 29.7294 65.0446 29.337 64.9954ZM58.9984 70.4053C59.4463 71.8625 60.9296 72.9079 62.4667 72.7902L69.3716 72.2615C71.0237 72.135 72.1123 70.7129 71.8031 69.0851L71.0167 64.9445C70.5122 65.027 69.9944 65.0699 69.4666 65.0699C68.8497 65.0699 68.2465 65.0113 67.6623 64.8994C65.2738 67.2779 62.321 69.1727 58.9984 70.4053Z" fill="black"/>
</svg>
