<svg width="100" height="100" viewBox="0 0 100 100" fill="none" xmlns="http://www.w3.org/2000/svg">
<path fill-rule="evenodd" clip-rule="evenodd" d="M72.8753 50.63C74.3892 48.0396 75.2353 45.147 75.2353 42.0955C75.2353 30.9971 64.0424 22 50.2353 22C36.4282 22 25.2354 30.9971 25.2354 42.0955C25.2354 45.1468 26.0814 48.0393 27.5951 50.6296C29.6107 47.1809 32.8098 44.2678 36.7719 42.2285C36.5511 43.7956 37.6237 45.1387 39.2271 45.2615L46.132 45.7902C47.784 45.9167 49.3738 44.6997 49.683 43.0719L50.417 39.207L51.151 43.0719C51.4602 44.6997 53.05 45.9167 54.702 45.7902L61.6069 45.2615C63.1408 45.144 64.189 43.9097 64.0836 42.4308C67.868 44.4585 70.9255 47.2936 72.8753 50.63Z" fill="black"/>
<path fill-rule="evenodd" clip-rule="evenodd" d="M27.6904 64.6384C25.2036 66.5646 21.8045 67.1224 17.6173 65.3311C17.209 65.1564 16.8016 65.6625 17.106 65.9859C22.6281 71.8527 32.3052 77.9531 39.5741 69.8253C36.8311 68.6107 34.3785 66.9317 32.338 64.8997C31.7541 65.0115 31.1514 65.07 30.5349 65.07C29.5442 65.07 28.5888 64.9189 27.6904 64.6384ZM60.9383 69.5914C68.2293 78.0683 78.0373 71.908 83.6115 65.9859C83.9159 65.6625 83.5086 65.1564 83.1002 65.3311C78.791 67.1746 75.3164 66.5301 72.812 64.4666C71.7711 64.8566 70.6437 65.07 69.4666 65.07C68.8497 65.07 68.2465 65.0114 67.6623 64.8995C65.7496 66.8042 63.4749 68.3987 60.9383 69.5914Z" fill="black"/>
</svg>
