<svg width="100" height="100" viewBox="0 0 100 100" fill="none" xmlns="http://www.w3.org/2000/svg">
<path fill-rule="evenodd" clip-rule="evenodd" d="M76 41.37C76 44.7133 74.9719 47.8685 73.1499 50.6522C72.4658 48.9724 71.5105 47.3931 70.3263 45.9484L70.9843 49.452L64.7149 49.9375L62.8658 40.0922C59.1789 38.2434 54.8353 37.1766 50.1852 37.1766C45.0518 37.1766 40.2919 38.4766 36.3767 40.6936L34.6405 49.9375L28.3712 49.452L28.6737 47.8414C28.0361 48.8469 27.5021 49.9029 27.0832 51C25.116 48.1325 24 44.8534 24 41.37C24 30.12 35.6406 21 50 21C64.3594 21 76 30.12 76 41.37Z" fill="black"/>
</svg>
