<svg width="100" height="100" viewBox="0 0 100 100" fill="none" xmlns="http://www.w3.org/2000/svg">
<path fill-rule="evenodd" clip-rule="evenodd" d="M59.6605 23.9248C59.712 23.5187 59.7386 23.1048 59.7386 22.6846C59.7386 17.3359 55.4336 13 50.1232 13C44.8128 13 40.5078 17.3359 40.5078 22.6846C40.5078 23.0781 40.5311 23.4661 40.5764 23.8474C31.4412 26.8385 25.002 34.0476 25.002 42.4656C25.002 45.5169 25.848 48.4094 27.3617 50.9997C28.0577 49.8089 28.8947 48.682 29.8555 47.6329L40.8185 48.4724L42.3522 40.3967C42.7664 40.2899 43.1852 40.1915 43.6084 40.1017V48.4951H56.5892V40.1436C56.8002 40.1898 57.0102 40.2382 57.219 40.2887L58.7733 48.4724L70.1208 47.6034C71.0931 48.6611 71.9394 49.798 72.6419 51.0001C74.1558 48.4097 75.0019 45.5171 75.0019 42.4656C75.0019 34.1194 68.6719 26.9615 59.6605 23.9248Z" fill="black"/>
</svg>
