<svg width="100" height="100" viewBox="0 0 100 100" fill="none" xmlns="http://www.w3.org/2000/svg">
<path fill-rule="evenodd" clip-rule="evenodd" d="M74.425 48.9065C75.4441 46.7608 76.0002 44.4434 76.0002 42.0259C76.0002 30.9659 64.3596 22 50.0001 22C35.6406 22 24 30.9659 24 42.0259C24 44.6034 24.6322 47.0672 25.7837 49.3303L25.1276 50.4815C24.6717 51.2815 25.4666 52.2057 26.3775 51.9594C47.152 46.3414 52.7953 40.9586 54.0463 38.3195C54.1544 38.6918 54.3179 39.1297 54.5548 39.6377C59.3925 50.0131 73.368 52.6077 74.4431 51.5701C74.6946 51.3273 74.6519 50.3176 74.425 48.9065Z" fill="black"/>
<path fill-rule="evenodd" clip-rule="evenodd" d="M29.9175 65.0508C29.2554 68.3527 27.8894 71.7255 25.2986 73.2572C19.6854 76.5757 33.7185 77.2395 39.7995 73.2572C40.902 72.5352 41.7371 71.72 42.3602 70.8664C38.4827 69.6738 35.0472 67.5982 32.338 64.9003C31.7541 65.012 31.1514 65.0705 30.5349 65.0705C30.3275 65.0705 30.1216 65.0639 29.9175 65.0508ZM57.6398 70.8664C58.2629 71.72 59.098 72.5352 60.2005 73.2572C66.2815 77.2395 80.3146 76.5757 74.7014 73.2572C72.1106 71.7255 70.7446 68.3528 70.0825 65.0509C69.8789 65.0639 69.6735 65.0705 69.4666 65.0705C68.8497 65.0705 68.2465 65.0119 67.6623 64.9C64.953 67.5981 61.5174 69.6737 57.6398 70.8664Z" fill="black"/>
</svg>
