<svg width="100" height="100" viewBox="0 0 100 100" fill="none" xmlns="http://www.w3.org/2000/svg">
<path fill-rule="evenodd" clip-rule="evenodd" d="M75 41.4666C75 44.5181 74.1538 47.4107 72.6399 50.0011C71.9372 48.7987 71.0907 47.6614 70.1181 46.6035L58.7713 47.4724L57.2173 39.2898C57.0084 39.2392 56.7984 39.1908 56.5872 39.1446V47.4961H43.6064V39.1027C43.1832 39.1924 42.7643 39.2909 42.3501 39.3978L40.8166 47.4724L29.8544 46.633C28.8932 47.6824 28.0559 48.8096 27.3598 50.0007C25.846 47.4103 25 44.5179 25 41.4666C25 30.3682 36.1929 21.3711 50 21.3711C63.8071 21.3711 75 30.3682 75 41.4666Z" fill="black"/>
<path d="M53.9581 11.3571C47.7203 15.8193 48.1573 20.9255 50.0411 24.4248C50.5159 25.3068 51.9134 24.7462 52.0317 23.7514C52.4487 20.2476 53.9689 15.836 55.3255 12.539C55.6927 11.6466 54.743 10.7957 53.9581 11.3571Z" fill="black"/>
<path d="M57.4091 18.3147C53.3774 18.6009 51.6441 20.7851 51.0644 23.0296C50.8149 23.9954 52.2828 24.4123 53.0029 23.7221C54.3933 22.3894 56.2144 21.0672 57.8453 20.0079C58.6564 19.4811 58.3738 18.2462 57.4091 18.3147Z" fill="black"/>
<path fill-rule="evenodd" clip-rule="evenodd" d="M28.8647 64.9241C28.3693 66.4061 27.3781 67.7751 25.565 68.5003C20.565 70.5003 21.065 76.5003 25.565 78.0003C29.2984 79.2448 29.1394 83.1621 24.9821 84.577C24.5968 84.7082 24.5664 85.2474 24.965 85.3297C30.1941 86.4098 40.7383 84.7135 41.9911 70.7492C38.2647 69.5403 34.961 67.5117 32.338 64.8997C31.7541 65.0114 31.1514 65.0699 30.5349 65.0699C29.9651 65.0699 29.407 65.0199 28.8647 64.9241ZM57.147 71.012C58.5078 84.7348 68.9522 86.403 74.1483 85.3297C74.5469 85.2474 74.5165 84.7082 74.1312 84.577C69.9739 83.1621 69.8149 79.2448 73.5483 78.0003C78.0483 76.5003 78.5483 70.5003 73.5483 68.5003C71.7806 67.7932 70.794 66.4742 70.2867 65.0351C70.0164 65.0581 69.7428 65.0699 69.4666 65.0699C68.8497 65.0699 68.2465 65.0113 67.6623 64.8994C64.8387 67.7112 61.2264 69.8471 57.147 71.012Z" fill="black"/>
</svg>
