<svg width="100" height="100" viewBox="0 0 100 100" fill="none" xmlns="http://www.w3.org/2000/svg">
<path d="M73.6724 15.0032C65.5701 9.11529 55.1376 17.4354 56.4447 24.1199C56.4612 24.2045 56.5068 24.2806 56.5719 24.3371L67.7366 34.0238C67.7836 34.0646 67.8217 34.1189 67.8456 34.1764C75.0902 51.5875 87.7374 44.1954 94.3771 37.1411C94.6815 36.8177 94.2742 36.3116 93.8658 36.4863C87.2307 39.3248 82.5745 36.2648 80.3916 31.2081C78.0156 25.7042 78.522 18.5274 73.6724 15.0032Z" fill="black"/>
<path fill-rule="evenodd" clip-rule="evenodd" d="M75 42.2508C75 45.3022 74.1538 48.1948 72.6399 50.7853C71.9374 49.5832 71.0912 48.4462 70.1189 47.3886L58.7713 48.2575L57.2171 40.0739C54.932 39.5209 52.509 39.2238 49.9997 39.2238C47.3317 39.2238 44.7612 39.5597 42.3503 40.1819L40.8166 48.2575L29.8535 47.418C28.8927 48.4672 28.0557 49.5941 27.3598 50.7848C25.846 48.1945 25 45.3021 25 42.2508C25 31.1523 36.1929 22.1553 50 22.1553C63.8071 22.1553 75 31.1523 75 42.2508Z" fill="black"/>
</svg>
