<svg width="100" height="100" viewBox="0 0 100 100" fill="none" xmlns="http://www.w3.org/2000/svg">
<path fill-rule="evenodd" clip-rule="evenodd" d="M75 43.0955C75 46.147 74.1538 49.0396 72.6399 51.63C71.9372 50.4276 71.0907 49.2903 70.1181 48.2324L58.7713 49.1013L57.2173 40.9187C54.9321 40.3657 52.5091 40.0685 49.9997 40.0685C47.3316 40.0685 44.7611 40.4045 42.3501 41.0267L40.8166 49.1013L29.8544 48.2619C28.8932 49.3113 28.0559 50.4385 27.3598 51.6296C25.846 49.0393 25 46.1468 25 43.0955C25 31.9971 36.1929 23 50 23C63.8071 23 75 31.9971 75 43.0955Z" fill="black"/>
<circle cx="28" cy="30" r="10" fill="black"/>
<circle cx="72" cy="30" r="10" fill="black"/>
</svg>
