<svg width="100" height="100" viewBox="0 0 100 100" fill="none" xmlns="http://www.w3.org/2000/svg">
<path d="M40.3903 22.592C47.6051 25.4633 52.5304 17.1533 65.4858 26.9779C69.0047 26.5484 65.4858 14.0513 70.6448 21.2071C74.772 26.9318 71.1439 28.4642 68.9552 28.0025C77.6331 33.7733 82.5584 52.4707 72.052 50.7537C59.3078 48.6709 64.0777 32.0562 60.7942 36.2112C57.5107 40.3662 31.2481 52.9054 25.8481 50.7537C22.0469 49.2391 22.0469 43.9299 25.8481 42.4437C25.3793 41.9051 22.7974 42.3141 22.0469 38.6208C21.2963 34.9275 29.7579 28.5168 33.3541 26.9779C33.3541 23.0537 32.7603 19.5556 40.3903 22.592Z" fill="black"/>
</svg>
