<svg width="100" height="100" viewBox="0 0 100 100" fill="none" xmlns="http://www.w3.org/2000/svg">
<path fill-rule="evenodd" clip-rule="evenodd" d="M74.425 48.9065C75.4441 46.7608 76.0002 44.4434 76.0002 42.0259C76.0002 30.9659 64.3596 22 50.0001 22C35.6406 22 24 30.9659 24 42.0259C24 44.6034 24.6322 47.0672 25.7837 49.3303L25.1276 50.4815C24.6717 51.2815 25.4666 52.2057 26.3775 51.9594C47.152 46.3414 52.7953 40.9586 54.0463 38.3195C54.1544 38.6918 54.3179 39.1297 54.5548 39.6377C59.3925 50.0131 73.368 52.6077 74.4431 51.5701C74.6946 51.3273 74.6519 50.3176 74.425 48.9065Z" fill="black"/>
<path fill-rule="evenodd" clip-rule="evenodd" d="M29.1173 64.9652C28.7549 66.7925 27.7649 68.6203 25.565 69.5003C20.565 71.5003 21.065 77.5003 25.565 79.0003C29.2984 80.2448 29.1394 84.1621 24.9821 85.577C24.5968 85.7082 24.5664 86.2474 24.965 86.3297C30.3136 87.4345 41.2232 85.6345 42.0623 70.7722C38.3067 69.5661 34.9776 67.5283 32.338 64.8997C31.7541 65.0114 31.1514 65.0699 30.5349 65.0699C30.0532 65.0699 29.5798 65.0342 29.1173 64.9652ZM57.0669 71.0347C58.0191 85.6557 68.8313 87.428 74.1483 86.3297C74.5469 86.2474 74.5165 85.7082 74.1312 85.577C69.9739 84.1621 69.8149 80.2448 73.5483 79.0003C78.0483 77.5003 78.5483 71.5003 73.5483 69.5003C71.3841 68.6347 70.3909 66.8518 70.0142 65.0544C69.833 65.0647 69.6504 65.0699 69.4666 65.0699C68.8497 65.0699 68.2465 65.0113 67.6623 64.8994C64.8203 67.7296 61.1791 69.8749 57.0669 71.0347Z" fill="black"/>
</svg>
