<svg width="100" height="100" viewBox="0 0 100 100" fill="none" xmlns="http://www.w3.org/2000/svg">
<path d="M16.4667 33.8403C13.409 38.1299 8.36773 52.559 12.6573 55.6168C16.9468 58.6745 28.9428 49.2029 32.0005 44.9134C35.0583 40.6239 34.0597 34.6677 29.7702 31.61C25.4806 28.5522 19.5245 29.5508 16.4667 33.8403Z" fill="black"/>
<path d="M82.9602 33.7671C86.0179 38.0567 91.0592 52.4858 86.7696 55.5435C82.4801 58.6013 70.4841 49.1297 67.4264 44.8402C64.3686 40.5506 65.3672 34.5945 69.6568 31.5367C73.9463 28.479 79.9024 29.4776 82.9602 33.7671Z" fill="black"/>
<path fill-rule="evenodd" clip-rule="evenodd" d="M74.3156 46.9065C75.3347 44.7608 75.8909 42.4434 75.8909 40.0259C75.8909 28.9659 64.2502 20 49.8907 20C35.5313 20 23.8906 28.9659 23.8906 40.0259C23.8906 42.6034 24.5228 45.0672 25.6743 47.3303L25.0183 48.4815C24.5624 49.2815 25.3572 50.2057 26.2682 49.9594C47.0427 44.3414 52.6859 38.9586 53.9369 36.3195C54.045 36.6918 54.2086 37.1297 54.4454 37.6377C59.2831 48.0131 73.2586 50.6077 74.3337 49.5701C74.5853 49.3273 74.5425 48.3176 74.3156 46.9065Z" fill="black"/>
</svg>
