<svg width="100" height="100" viewBox="0 0 100 100" fill="none" xmlns="http://www.w3.org/2000/svg">
<path d="M48.8969 13.7834C44.7685 20.247 47.075 24.8235 50.126 27.37C50.8951 28.0119 51.9834 26.9713 51.7229 26.004C50.8055 22.5968 50.5742 17.9363 50.606 14.3713C50.6146 13.4064 49.4164 12.9702 48.8969 13.7834Z" fill="black"/>
<path fill-rule="evenodd" clip-rule="evenodd" d="M75 42.0956C75 45.1471 74.1538 48.0397 72.6399 50.6301C71.9372 49.4277 71.0907 48.2904 70.1181 47.2325L58.7713 48.1014L57.2173 39.9188C54.9321 39.3658 52.5091 39.0686 49.9997 39.0686C47.3316 39.0686 44.7611 39.4046 42.3501 40.0268L40.8166 48.1014L29.8544 47.262C28.8932 48.3114 28.0559 49.4386 27.3598 50.6297C25.846 48.0394 25 45.1469 25 42.0956C25 30.9972 36.1929 22.0001 50 22.0001C63.8071 22.0001 75 30.9972 75 42.0956Z" fill="black"/>
<path fill-rule="evenodd" clip-rule="evenodd" d="M26.7936 64.3079C24.3745 70.2943 22.5195 78.6155 25.6573 80.8522C29.588 83.6542 39.9897 75.9354 44.0553 71.3238C39.4833 70.2558 35.4359 67.9846 32.338 64.8996C31.7541 65.0114 31.1514 65.0699 30.5349 65.0699C29.2069 65.0699 27.9423 64.7984 26.7936 64.3079ZM56.4465 71.2012C60.4809 75.8068 70.9431 83.591 74.8878 80.779C78.0517 78.5237 76.1394 70.0819 73.6908 64.0854C72.4176 64.7157 70.9835 65.0699 69.4666 65.0699C68.8497 65.0699 68.2465 65.0113 67.6623 64.8994C64.6782 67.8711 60.8129 70.0878 56.4465 71.2012Z" fill="black"/>
</svg>
