<svg width="100" height="100" viewBox="0 0 100 100" fill="none" xmlns="http://www.w3.org/2000/svg">
<path fill-rule="evenodd" clip-rule="evenodd" d="M77 41.37C77 44.7133 75.9719 47.8685 74.1499 50.6522C73.4658 48.9724 72.5105 47.3931 71.3263 45.9484L71.9843 49.452L65.7149 49.9375L63.8658 40.0922C60.1789 38.2434 55.8353 37.1766 51.1852 37.1766C46.0518 37.1766 41.2919 38.4766 37.3767 40.6936L35.6405 49.9375L29.3712 49.452L29.6737 47.8414C29.0361 48.8469 28.5021 49.9029 28.0832 51C26.116 48.1325 25 44.8534 25 41.37C25 30.12 36.6406 21 51 21C65.3594 21 77 30.12 77 41.37Z" fill="black"/>
<path d="M48.0275 13.3637C56.2399 11.621 60.5473 16.5353 61.9035 19.7418C62.0061 19.9843 62.3036 20.0815 62.532 19.9506C65.7527 18.1047 72.4442 17.586 75.1733 23.2261C75.3351 23.5603 74.9285 23.9731 74.5642 23.9011C72.6194 23.5168 69.0911 23.5998 69.0911 25.2266C69.0911 29.2119 74.697 31.5658 78.6839 29.4609C78.9017 29.3459 79.1775 29.4307 79.2615 29.6622C80.4585 32.9602 80.7378 39.2327 73.2377 41.1891C73.1453 41.2132 73.0442 41.2031 72.9588 41.1604L47.2937 28.3278C47.168 28.265 47.0186 28.2727 46.9001 28.3482L25.2457 42.1283C25.1476 42.1907 25.0255 42.2072 24.9147 42.1721C20.2724 40.7004 18.7339 37.0374 19.0367 34.1284C19.0598 33.9064 19.272 33.7603 19.4931 33.7914C24.7607 34.5307 28.0786 30.6651 27.5909 28.2266C27.3031 26.7877 26.1355 26.6428 25.1306 26.8609C24.765 26.9403 24.4012 26.5618 24.587 26.2371C27.2515 21.5827 32.3212 21.812 35.4331 22.7919C35.8034 22.9086 36.1827 22.4764 36.0296 22.1196C34.4383 18.4109 36.4038 16.0253 38.0437 15.0191C38.2917 14.867 38.5945 15.0606 38.6534 15.3455C39.6626 20.2226 52.5911 20.1288 52.5911 17.7266C52.5911 16.1324 50.0494 14.8558 48.0052 14.1501C47.6194 14.0169 47.6283 13.4485 48.0275 13.3637Z" fill="black"/>
</svg>
