<svg width="100" height="100" viewBox="0 0 100 100" fill="none" xmlns="http://www.w3.org/2000/svg">
<path fill-rule="evenodd" clip-rule="evenodd" d="M75 42.0955C75 45.147 74.1538 48.0396 72.6399 50.63C71.9372 49.4276 71.0907 48.2903 70.1181 47.2324L58.7713 48.1013L57.2173 39.9187C57.0084 39.8681 56.7984 39.8197 56.5872 39.7735V48.125H43.6064V39.7316C43.1832 39.8214 42.7643 39.9198 42.3501 40.0267L40.8166 48.1013L29.8544 47.2619C28.8932 48.3113 28.0559 49.4385 27.3598 50.6296C25.846 48.0393 25 45.1468 25 42.0955C25 30.9971 36.1929 22 50 22C63.8071 22 75 30.9971 75 42.0955Z" fill="black"/>
</svg>
