<svg width="100" height="100" viewBox="0 0 100 100" fill="none" xmlns="http://www.w3.org/2000/svg">
<path fill-rule="evenodd" clip-rule="evenodd" d="M37.7693 44.5874C37.8101 44.9323 37.8311 45.2829 37.8311 45.6381C37.8311 50.8084 33.3917 54.9998 27.9155 54.9998C22.4393 54.9998 18 50.8084 18 45.6381C18 43.0265 19.1326 40.6647 20.9594 38.9666C20.2211 37.6568 19.8027 36.1618 19.8027 34.5746C19.8027 29.4043 24.2421 25.2129 29.7183 25.2129C29.773 25.2129 29.8276 25.2133 29.8821 25.2141C30.7295 20.8561 34.7734 17.5537 39.6343 17.5537C40.5802 17.5537 41.4953 17.6788 42.3618 17.9124C44.1683 16.1184 46.7204 15 49.5491 15C52.4886 15 55.1293 16.2076 56.9451 18.1261C58.0116 17.7558 59.1641 17.5537 60.3667 17.5537C65.2757 17.5537 69.3515 20.9218 70.1432 25.344C74.827 26.0913 78.3945 29.9395 78.3945 34.5744C78.3945 35.7619 78.1604 36.8977 77.7332 37.943C80.3118 39.6335 82 42.4496 82 45.6381C82 50.8084 77.5607 54.9998 72.0845 54.9998C66.6083 54.9998 62.1689 50.8084 62.1689 45.6381C62.1689 45.2829 62.1899 44.9323 62.2307 44.5875C60.8633 45.2589 59.3094 45.6384 57.6616 45.6384C54.5754 45.6384 51.8185 44.3072 50 42.2198C48.1814 44.3072 45.4246 45.6384 42.3384 45.6384C40.6906 45.6384 39.1367 45.2589 37.7693 44.5874Z" fill="black"/>
</svg>
