<svg width="100" height="100" viewBox="0 0 100 100" fill="none" xmlns="http://www.w3.org/2000/svg">
<path fill-rule="evenodd" clip-rule="evenodd" d="M57.3414 35.8305C55.4992 29.6478 46.0208 26.9183 39.4622 36.2878C38.8165 37.2102 38.2006 38.1122 37.6055 38.9838C35.4577 42.1292 33.5802 44.8788 31.5488 46.7642C31.5232 46.8241 31.4981 46.8846 31.4735 46.9457C30.5012 49.3615 30.8643 52.0459 31.3801 54.5984C31.6736 56.051 30.3354 57.1493 29.204 56.1921C27.6368 54.866 26.1082 52.6903 25.6216 49.4142C23.861 49.4332 21.8643 48.878 19.5028 47.6063C18.7231 47.1865 18.9294 45.9724 19.5819 45.3737C20.6041 44.4358 21.0361 42.9328 21.6778 40.7001C22.4649 37.9615 23.5675 34.1251 26.4622 28.8871C36.9026 9.99496 57.2299 12.3594 62.8672 24.1839C62.9185 24.2915 63.0523 24.3328 63.1569 24.2756C70.3981 20.3113 85.0111 32.81 78.5084 46.0395C78.9735 46.6856 79.5486 47.5329 80.1116 48.3813C80.931 49.6162 80.1054 51.1379 78.6967 50.6777C77.9288 50.4268 77.1169 50.0518 76.3118 49.5155C75.809 52.7352 74.2959 54.8797 72.7448 56.1921C71.6134 57.1493 70.2752 56.051 70.5687 54.5984C70.8868 53.024 71.234 51.4409 71.462 50.7569C71.8 49.7431 70.8764 48.7713 70.2962 47.8738C69.4102 46.5034 68.8383 44.9016 68.5956 43.2399C66.9027 31.6459 59.8349 33.5493 57.7472 35.9151C57.6303 36.0476 57.3919 35.9998 57.3414 35.8305Z" fill="black"/>
</svg>
