<svg width="100" height="100" viewBox="0 0 100 100" fill="none" xmlns="http://www.w3.org/2000/svg">
<path fill-rule="evenodd" clip-rule="evenodd" d="M57.8168 14.9224C60.7199 12.6883 64.9149 14.766 64.9149 18.438C64.9149 20.9803 67.5636 22.6475 69.8435 21.5401L70.9736 20.9912C74.559 19.2497 78.4867 22.6421 77.3061 26.4607L76.917 27.7192C76.3964 29.4031 77.6502 31.1115 79.4067 31.1115C82.4403 31.1115 84.1039 34.6569 82.1718 37.0046L77.6346 42.5179C77.2967 42.9285 77.0546 43.4097 76.9259 43.9263L76.8175 44.3615C75.7184 48.7747 69.5029 48.8658 68.276 44.4867C68.2246 44.3034 68.159 44.1264 68.0801 43.9574C53.9939 33.5043 38.9808 39.2877 32.3854 44.0892C32.0717 44.5666 31.8117 45.0848 31.6097 45.6323C30.6118 48.337 28.9451 49.9621 27.159 49.9994C25.3299 50.0375 23.8076 48.4212 23.0979 45.6174C22.947 45.0212 22.7873 44.4484 22.6132 43.9109C22.45 43.407 22.1858 42.9324 21.8571 42.486L17.7089 36.8523C15.9588 34.4756 17.6492 31.1115 20.5935 31.1115C22.3363 31.1115 23.5884 29.4282 23.0933 27.7509L22.8662 26.9814C21.8104 23.4046 25.5776 20.3245 28.8535 22.0862L29.1358 22.238C31.3594 23.4337 34.0499 21.8167 34.0499 19.2845V18.7398C34.0499 14.9107 38.3952 12.7156 41.4588 14.9972L45.9854 18.3684C48.1975 20.0159 51.2295 19.9919 53.4154 18.3096L57.8168 14.9224Z" fill="black"/>
</svg>
