<svg width="30" height="30" fill="none" xmlns="http://www.w3.org/2000/svg"><mask id="a" fill="#fff"><path fill-rule="evenodd" clip-rule="evenodd" d="M15 25.582c7.18 0 13-5.055 13-11.291C28 8.055 22.18 3 15 3 7.923 3 2.167 7.912 2.004 14.024a8.08 8.08 0 0 0-.004.254v.013c0 .449.03.891.089 1.326.03.259.067.516.105.771.282 1.852 1.143 3.46 2.387 4.818.524.572.706 1.204.76 1.893.103 1.324-.047 2.62-.718 3.898v.001a7.755 7.755 0 0 1 .155-.03c.061-.012.1-.02.137-.032 1.277-.41 2.403-1.072 3.316-2.072.32-.352.665-.418 1.104-.266 1.334.462 2.707.807 4.108.904.51.053 1.03.08 1.557.08Z"/></mask><path d="m2.004 14.024 1.999.06v-.006l-2-.054ZM2 14.278l2 .002v-.005l-2 .003Zm.089 1.34 1.986-.235-.002-.016-.002-.017-1.982.267Zm.105.77-1.977.3 1.977-.3Zm2.387 4.818 1.475-1.351-1.475 1.35Zm.76 1.893 1.994-.155-1.994.155Zm-.718 3.898 1.77.93h.001l-1.77-.93Zm0 .001-2 .024 2-.024Zm0 0 1.793-.886-.001-.002-1.792.889Zm.002.002.43 1.953L4.625 27Zm.153-.032-.392-1.961.392 1.961Zm.137-.032-.61-1.905-.01.003-.008.003.628 1.899Zm3.316-2.072 1.477 1.348-1.477-1.348Zm1.104-.266-.657 1.89h.002l.655-1.89Zm4.108.904.206-1.99-.034-.003-.034-.003-.138 1.996ZM26 14.29c0 4.876-4.65 9.29-11 9.29v4c8.01 0 15-5.694 15-13.29h-4ZM15 5c6.35 0 11 4.415 11 9.29h4C30 6.696 23.01 1 15 1v4ZM4.003 14.078C4.13 9.29 8.746 5 15 5V1C7.1 1 .203 6.532.004 13.97l3.999.107ZM4 14.274c0-.065 0-.129.003-.19l-3.999-.12c-.003.105-.004.211-.004.316l4-.006Zm0 .016v-.01l-4-.006v.016h4Zm.07 1.06c-.046-.348-.07-.701-.07-1.06H0c0 .538.036 1.07.107 1.593l3.964-.534Zm.102.738c-.037-.242-.07-.476-.097-.706l-3.972.469c.033.287.073.568.114.835l3.955-.598Zm1.884 3.765c-1.019-1.11-1.672-2.365-1.885-3.767l-3.954.602c.35 2.301 1.42 4.264 2.89 5.868l2.949-2.703Zm1.279 3.09c-.076-.976-.36-2.086-1.279-3.09l-2.95 2.703c.084.091.127.17.158.25.034.092.066.227.083.447l3.988-.31Zm-.941 4.983c.891-1.698 1.064-3.394.941-4.983l-3.988.31c.082 1.059-.044 1.955-.495 2.813l3.542 1.86Zm.229-.953c.004.325-.072.653-.23.953l-3.54-1.86c-.158.3-.234.63-.23.955l4-.048Zm-.208-.864c.137.277.204.573.208.863l-4 .05c.004.291.071.588.209.865l3.583-1.778Zm-2.22-1.063a1.998 1.998 0 0 1 2.22 1.065l-3.584 1.774a2.002 2.002 0 0 0 2.224 1.067l-.86-3.906Zm.191-.04c-.041.008-.106.021-.19.04l.859 3.906c.044-.01.076-.016.114-.023l-.783-3.923Zm-.1.03c.062-.02.11-.031.126-.035L4.417 25c-.006 0-.014.003-.03.006l.782 3.923c.025-.005.197-.037.375-.096l-1.257-3.797Zm2.467-1.521c-.643.705-1.453 1.196-2.448 1.515l1.22 3.81c1.559-.5 3.002-1.334 4.183-2.63l-2.955-2.695Zm3.238-.807a3.06 3.06 0 0 0-1.7-.116 2.979 2.979 0 0 0-1.538.923l2.956 2.696c-.043.046-.215.209-.523.28a.98.98 0 0 1-.508-.005l1.313-3.778Zm3.59.797c-1.17-.08-2.361-.372-3.592-.798l-1.309 3.78c1.44.498 2.992.896 4.625 1.009l.276-3.99Zm1.419.076c-.458 0-.909-.024-1.35-.07l-.413 3.98a17.1 17.1 0 0 0 1.763.09v-4Z" fill="#999" mask="url(#a)"/><ellipse cx="10.531" cy="14.422" rx="1.219" ry="1.269" fill="#999"/><ellipse cx="15.406" cy="14.422" rx="1.219" ry="1.269" fill="#999"/><ellipse cx="20.281" cy="14.422" rx="1.219" ry="1.269" fill="#999"/></svg>