<svg width="30" height="30" fill="none" xmlns="http://www.w3.org/2000/svg"><mask id="a" style="mask-type:luminance" maskUnits="userSpaceOnUse" x="2" y="1" width="27" height="28"><path fill-rule="evenodd" clip-rule="evenodd" d="M2.5 1.25h25.625v26.881H2.5V1.25Z" fill="#fff"/></mask><g mask="url(#a)"><path fill-rule="evenodd" clip-rule="evenodd" d="M17.146 19.114c1.505 0 2.73 1.216 2.73 2.711v3.845a.59.59 0 0 0 .587.587h2.383c1.877 0 3.404-1.508 3.404-3.36V11.992a2.095 2.095 0 0 0-.834-1.637l-8.242-6.572a3.02 3.02 0 0 0-3.763.002l-8.185 6.568a2.094 2.094 0 0 0-.851 1.66v10.884c0 1.852 1.526 3.36 3.403 3.36h2.405a.607.607 0 0 0 .614-.6c0-.072.009-.144.024-.213v-3.619c0-1.486 1.217-2.7 2.711-2.71h3.614Zm5.7 9.018H20.44C19.063 28.099 18 27.018 18 25.67v-3.845a.847.847 0 0 0-.855-.836h-3.608a.846.846 0 0 0-.842.836v3.833a.906.906 0 0 1-.039.269 2.487 2.487 0 0 1-2.474 2.205H7.778c-2.911 0-5.278-2.35-5.278-5.235V12.004a3.942 3.942 0 0 1 1.573-3.129l8.169-6.556a4.89 4.89 0 0 1 6.1-.002l8.228 6.562a3.947 3.947 0 0 1 1.555 3.099v10.919c0 2.886-2.368 5.235-5.28 5.235Z" fill="#999"/></g></svg>