<svg width="30" height="30" fill="none" xmlns="http://www.w3.org/2000/svg"><path fill-rule="evenodd" clip-rule="evenodd" d="M14.72 16.83c-.836 0-1.67-.275-2.367-.828l-5.606-4.52a.939.939 0 0 1-.143-1.319.941.941 0 0 1 1.32-.14l5.6 4.514a1.93 1.93 0 0 0 2.404-.005l5.545-4.507a.938.938 0 0 1 1.184 1.455l-5.555 4.515a3.824 3.824 0 0 1-2.381.836Z" fill="#999"/><mask id="a" style="mask-type:luminance" maskUnits="userSpaceOnUse" x="1" y="2" width="28" height="25"><path fill-rule="evenodd" clip-rule="evenodd" d="M1.25 2.5h26.875v24.375H1.25V2.5Z" fill="#fff"/></mask><g mask="url(#a)"><path fill-rule="evenodd" clip-rule="evenodd" d="M8.549 25h12.275c.002-.003.012 0 .02 0 1.426 0 2.691-.51 3.661-1.479 1.126-1.121 1.745-2.732 1.745-4.536V10.4c0-3.491-2.282-6.025-5.426-6.025H8.55c-3.144 0-5.426 2.534-5.426 6.025v8.585c0 1.804.62 3.415 1.745 4.536C5.84 24.49 7.106 25 8.531 25h.018Zm-.021 1.875c-1.93 0-3.652-.7-4.982-2.025-1.481-1.478-2.296-3.56-2.296-5.865V10.4c0-4.504 3.139-7.9 7.301-7.9h12.273c4.162 0 7.301 3.396 7.301 7.9v8.585c0 2.305-.815 4.387-2.296 5.865-1.329 1.324-3.053 2.025-4.985 2.025H8.527Z" fill="#999"/></g></svg>