<svg width="30" height="30" fill="none" xmlns="http://www.w3.org/2000/svg"><path d="M10.745 20.372a4.086 4.086 0 1 1-8.173 0 4.086 4.086 0 0 1 8.173 0ZM27.459 20.372a4.086 4.086 0 1 1-8.173 0 4.086 4.086 0 0 1 8.173 0Z" fill="#FF9C27"/><path d="M25.286 18.002c0 5.207-4.605 9.428-10.285 9.428-5.681 0-10.286-4.22-10.286-9.428 0-5.207 4.605-9.429 10.286-9.429 5.68 0 10.285 4.222 10.285 9.429Z" fill="#FFBA68"/><mask id="a" style="mask-type:alpha" maskUnits="userSpaceOnUse" x="4" y="8" width="22" height="20"><path d="M25.287 18c0 5.207-4.605 9.428-10.286 9.428-5.68 0-10.286-4.22-10.286-9.428 0-5.207 4.605-9.429 10.286-9.429 5.68 0 10.286 4.222 10.286 9.429Z" fill="#FFAB49"/></mask><g mask="url(#a)"><path d="M11.45 22.844c0 2.202-1.797 3.987-4.014 3.987-2.218 0-4.015-1.785-4.015-3.987s1.797-3.987 4.015-3.987c2.217 0 4.014 1.785 4.014 3.987ZM26.416 22.844c0 2.202-1.797 3.987-4.015 3.987-2.217 0-4.014-1.785-4.014-3.987s1.797-3.987 4.014-3.987c2.218 0 4.015 1.785 4.015 3.987Z" fill="#FF9A24"/><path d="M18.858 19.327c0 .45-.383.816-.857.816-.473 0-.857-.365-.857-.816 0-.45.384-.816.857-.816.474 0 .857.366.857.816Z" fill="#000"/><path fill-rule="evenodd" clip-rule="evenodd" d="M18.44 18.161a.299.299 0 0 1-.132.415 1.046 1.046 0 0 0-.305.243c-.091.11-.116.203-.096.284a.305.305 0 0 1-.238.369.322.322 0 0 1-.387-.227c-.084-.33.057-.613.215-.805.158-.19.362-.33.507-.404a.33.33 0 0 1 .435.125Z" fill="#000"/></g><path d="M15.429 21a.429.429 0 1 1-.857 0 .429.429 0 0 1 .857 0Z" fill="#000"/><path fill-rule="evenodd" clip-rule="evenodd" d="M11.153 18.638c.038-.152.182-.241.32-.199l1.59.484c.291.089.3.539.012.641l-1.591.565c-.137.049-.284-.034-.328-.184-.044-.15.031-.311.168-.36l.908-.322-.898-.273c-.138-.042-.22-.2-.18-.352Z" fill="#000"/><path fill-rule="evenodd" clip-rule="evenodd" d="M11.48 16.898a1.293 1.293 0 0 0-.684.33.3.3 0 0 1-.42-.428c.203-.2.564-.428 1.015-.495.464-.07 1.004.035 1.531.48a.3.3 0 0 1-.386.458c-.396-.332-.762-.389-1.057-.345ZM17.908 16.898a1.293 1.293 0 0 0-.683.33.3.3 0 1 1-.42-.428c.203-.2.564-.428 1.015-.495.463-.07 1.003.035 1.53.48a.3.3 0 0 1-.385.458c-.396-.332-.763-.389-1.057-.345Z" fill="#905A09"/><path d="M14.091 22.948a1.534 1.534 0 0 1-.177-.266c-.22-.419.184-.825.658-.825h.857c.473 0 .879.406.658.825-.05.095-.11.184-.177.266-.242.289-.569.451-.91.451-.34 0-.668-.162-.909-.451Z" fill="#E16037"/><path fill-rule="evenodd" clip-rule="evenodd" d="M19.139 7.253c.022-.174.033-.351.033-.531 0-2.292-1.845-4.15-4.12-4.15-2.277 0-4.121 1.858-4.121 4.15 0 .168.01.335.029.498-3.915 1.282-6.675 4.372-6.675 7.98 0 1.307.363 2.547 1.011 3.657.299-.51.658-.994 1.07-1.443l4.698.36.657-3.461c.177-.046.357-.088.538-.127v3.597h5.564v-3.579c.09.02.18.04.27.063l.666 3.506 4.863-.372c.416.454.78.94 1.08 1.456a7.208 7.208 0 0 0 1.012-3.658c0-3.577-2.713-6.644-6.575-7.946Z" fill="#925319"/></svg>