<svg width="30" height="30" fill="none" xmlns="http://www.w3.org/2000/svg"><path fill-rule="evenodd" clip-rule="evenodd" d="M6.43 4.73h12.294c.887 0 1.606.683 1.606 1.525v7.91c0 .786 1.015 1.165 1.58.59a.842.842 0 0 0 .244-.59v-7.91C22.154 4.457 20.62 3 18.724 3H6.43C4.536 3 3 4.457 3 6.255v15.703c0 1.797 1.536 3.255 3.43 3.255h6.807c.512 0 .924-.4.912-.885-.01-.47-.416-.846-.912-.846H6.43c-.887 0-1.606-.683-1.606-1.524V6.255c0-.842.72-1.524 1.606-1.524Zm8.568 18.752 1.958 1.73-1.958-1.73Z" fill="#999"/><path fill-rule="evenodd" clip-rule="evenodd" d="m24.66 19.517 1.244-1.267c.032-.032.121-.15.073-.444-.049-.297-.238-.686-.626-1.029-.388-.343-.81-.494-1.126-.52-.306-.024-.425.065-.46.1l-.02.02-6.677 6.8-.049 2.087 2.19-.195 5.452-5.552Zm-4.59 7.215-3.981.352c-.5.045-.93-.334-.918-.811l.089-3.793 7.15-7.284.019-.018c.972-.99 2.837-.842 4.166.332 1.328 1.175 1.616 2.93.644 3.92l-7.169 7.302ZM6.572 9.057c0-.358.307-.649.684-.649h10.642c.378 0 .684.29.684.65 0 .358-.306.648-.684.648H7.256c-.377 0-.684-.29-.684-.649ZM6.572 13.096c0-.358.307-.649.684-.649h8.513c.378 0 .684.29.684.65 0 .358-.306.648-.684.648H7.256c-.377 0-.684-.29-.684-.649ZM6.572 17.135c0-.358.307-.649.684-.649h6.385c.378 0 .684.29.684.65 0 .358-.306.649-.684.649H7.256c-.377 0-.684-.291-.684-.65Z" fill="#999"/><path fill-rule="evenodd" clip-rule="evenodd" d="M21.51 16.235a.948.948 0 0 1 1.29 0l2.736 2.596a.834.834 0 0 1 0 1.224.947.947 0 0 1-1.29 0l-2.737-2.596a.834.834 0 0 1 0-1.224Z" fill="#999"/></svg>